<?xml version="1.0" encoding="utf-8"?>
<!-- Generator: Adobe Illustrator 22.1.0, SVG Export Plug-In . SVG Version: 6.00 Build 0)  -->
<svg version="1.1" id="Layer_1" xmlns="http://www.w3.org/2000/svg" xmlns:xlink="http://www.w3.org/1999/xlink" x="0px" y="0px"
	 viewBox="0 0 110 110" style="enable-background:new 0 0 110 110;" xml:space="preserve">
<style type="text/css">
	.st0{fill:#1D4075;}
</style>
<path class="st0" d="M55,15c-22.1,0-40,17.9-40,40s17.9,40,40,40s40-17.9,40-40S77.1,15,55,15z M36.4,65.9l-1.9,1.9L23.7,56.9l0,0
	L21.8,55l0,0l0,0l1.9-1.9l0,0l10.9-10.9l1.9,1.9L25.5,55L36.4,65.9z M56.3,67.1c-1.5,0-2.8-0.6-2.8-2.6h5.6
	C59.1,66.5,57.8,67.1,56.3,67.1z M68.1,63.1h-25v-0.7l3.5-2.8V52c0-4.3,2.8-7.8,6.3-8.7v-0.9c0-1.1,1.7-2,2.8-2s2.8,0.9,2.8,2v0.9
	c3.5,0.9,4.8,4.4,4.8,8.7v7.6l4.8,2.8V63.1z M86.3,56.9L86.3,56.9L75.4,67.7l-1.9-1.9L84.4,55L73.5,44.1l1.9-1.9l10.9,10.9l0,0
	l1.9,1.9l0,0l0,0L86.3,56.9z"/>
</svg>
