<?xml version="1.0" encoding="utf-8"?>
<!-- Generator: Adobe Illustrator 22.1.0, SVG Export Plug-In . SVG Version: 6.00 Build 0)  -->
<svg version="1.1" id="Layer_1" xmlns="http://www.w3.org/2000/svg" xmlns:xlink="http://www.w3.org/1999/xlink" x="0px" y="0px"
	 viewBox="0 0 110 110" style="enable-background:new 0 0 110 110;" xml:space="preserve">
<style type="text/css">
	.st0{fill:#337AB7;}
</style>
<g>
	<path class="st0" d="M64.4,35.3H46.6c-0.6,0-0.9,0.6-0.9,0.9v10.1c0,1.5,1.2,2.7,2.7,2.7h15.9c0.6,0,0.9-0.6,0.9-0.9v-12
		C65.3,35.5,64.7,35.3,64.4,35.3z"/>
	<path class="st0" d="M56,18.3c-20.3,0-36.8,16.5-36.8,36.7c0,20.3,16.5,36.8,36.8,36.8S92.7,75.3,92.7,55
		C92.8,34.7,76.3,18.3,56,18.3z M76.3,65c0,1.7-1.4,2.8-2.8,2.8c-1.7,0-2.8-1.4-2.8-2.8v-2c0-0.6-0.6-0.8-0.8-0.8h-1.4v7.6
		c2,0,3.9,1.7,3.9,3.9v2.8c0,0.6-0.6,0.8-0.8,0.8H38.8c-0.6,0-0.8-0.6-0.8-0.8v-3.4c0-2,1.7-3.9,3.9-3.9V35.1c0-2,1.7-3.9,3.9-3.9
		H65c2,0,3.9,1.7,3.9,3.9v24.8h0.8c1.7,0,2.8,1.4,2.8,2.8v2c0,0.6,0.6,0.8,0.8,0.8c0.6,0,0.8-0.6,0.8-0.8v-16c-2,0-3.9-1.7-3.9-3.9
		V42c0-0.3,0-0.6,0.3-0.6l3.1-3.1l-3.1-3.1c-0.3-0.3-0.3-0.8,0-1.4c0.3-0.3,0.8-0.3,1.4,0l3.9,3.9c0.3,0.3,0.3,0.3,0.3,0.6V65H76.3z
		"/>
</g>
</svg>
