<?xml version="1.0" encoding="utf-8"?>
<!-- Generator: Adobe Illustrator 22.1.0, SVG Export Plug-In . SVG Version: 6.00 Build 0)  -->
<svg version="1.1" id="Layer_1" xmlns="http://www.w3.org/2000/svg" xmlns:xlink="http://www.w3.org/1999/xlink" x="0px" y="0px"
	 viewBox="0 0 110 110" style="enable-background:new 0 0 110 110;" xml:space="preserve">
<style type="text/css">
	.st0{fill:#337AB7;}
</style>
<path class="st0" d="M55,18.3c-20.3,0-36.8,16.5-36.8,36.7c0,20.3,16.5,36.8,36.8,36.8S91.7,75.3,91.7,55
	C91.8,34.7,75.3,18.3,55,18.3z M76,60.9h-4.2c0.7-2,1.1-4.2,1.1-6.4c0-4.2-1.3-8.1-3.7-11.2l-12,13.6c0.4,1.1,0.2,2.4-0.7,3.3
	c-1.3,1.3-3.3,1.3-4.4,0c-1.3-1.3-1.3-3.3,0-4.4c0.9-0.9,2.2-1.1,3.3-0.7L69.2,43c-3.5-4.6-9.2-7.2-15.6-7
	c-8.8,0.4-16.2,7.4-17.1,16.2c-0.4,3.1,0,5.9,1.1,8.5h-4.2c-0.7-2-0.9-4.2-0.9-6.4c0-12.7,10.7-23,23.7-22.4
	c11,0.7,20.2,9.4,21,20.6C77.1,55.6,76.7,58.5,76,60.9z"/>
</svg>
