<?xml version="1.0" encoding="utf-8"?>
<!-- Generator: Adobe Illustrator 22.1.0, SVG Export Plug-In . SVG Version: 6.00 Build 0)  -->
<svg version="1.1" id="Layer_1" xmlns="http://www.w3.org/2000/svg" xmlns:xlink="http://www.w3.org/1999/xlink" x="0px" y="0px"
	 viewBox="0 0 110 110" style="enable-background:new 0 0 110 110;" xml:space="preserve">
<style type="text/css">
	.st0{fill:#337AB7;}
</style>
<g>
	<path class="st0" d="M58.9,63.2L58.4,63V38.6c0-1.7-1.4-3.1-3.1-3.1c-1.7,0-3.1,1.4-3.1,3.1v24.6l-0.7,0.2c-4.1,2.2-5.8,7-3.6,11.1
		c2.2,4.1,7,5.8,11.1,3.6c2.9-1.4,4.6-4.3,4.6-7.5S61.8,64.6,58.9,63.2z M55.5,77.2c-3.6,0-6.5-2.9-6.5-6.5
		c-0.5-2.9,1.7-5.5,4.6-6.3h0.5V41.8h2.6v22.6h0.5c2.9,0.7,4.8,3.4,4.8,6.3C62,74.3,59.1,77.2,55.5,77.2z"/>
	<path class="st0" d="M54.1,65.4c-2.4,0.5-4.3,2.6-4.3,5.3c0,0.7,0.7,1.2,1.4,1.2c0.5,0,1.2-0.5,1.2-1.2c0-1.2,1-2.4,2.2-2.6
		c0.7-0.2,1.2-1,1-1.7C55.3,65.6,54.5,65.1,54.1,65.4z"/>
	<path class="st0" d="M55.7,19.8C35.4,19.8,19,36.2,19,56.5s16.5,36.8,36.8,36.8s36.7-16.5,36.7-36.8S76,19.8,55.7,19.8z M64.2,43.9
		h4.6v1.9h-4.6V43.9z M64.2,52.8h4.6v1.9h-4.6V52.8z M55,81.3c-5.8,0-10.4-4.6-10.4-10.4c0.2-3.9,2.2-7.2,5.3-8.9V38.6
		c0-2.9,2.2-5.3,5.1-5.3s5.3,2.2,5.3,5.1c0,0,0,0,0,0.2V62c3.1,1.9,5.1,5.3,5.1,8.9C65.4,76.7,60.8,81.3,55,81.3z M72.1,59.1h-7.9
		v-1.9h7.9V59.1z M72.1,50.2h-7.9v-1.9h7.9V50.2z M72.1,41.5h-7.9v-1.9h7.9V41.5z"/>
</g>
</svg>
