<?xml version="1.0" encoding="utf-8"?>
<!-- Generator: Adobe Illustrator 22.1.0, SVG Export Plug-In . SVG Version: 6.00 Build 0)  -->
<svg version="1.1" id="Layer_1" xmlns="http://www.w3.org/2000/svg" xmlns:xlink="http://www.w3.org/1999/xlink" x="0px" y="0px"
	 viewBox="0 0 110 110" style="enable-background:new 0 0 110 110;" xml:space="preserve">
<style type="text/css">
	.st0{fill:#337AB7;}
</style>
<path class="st0" d="M70.5,17.9h-41c-2.4,0-4.5,2-4.5,4.5v69.3c0,2.4,2,4.5,4.5,4.5h51.1c2.4,0,4.5-2,4.5-4.5V32L70.5,17.9z
	 M48.6,66.3l-5.7-8.5l-1,1.2v7.3h-3.7V46.8h3.7v7.5c0.1-0.1,0.2-0.3,0.3-0.4l5.8-7.1h4.6l-7.2,8.4L53,66.3H48.6z M73,66.3h-3.6v-8
	c0-2.2-0.7-3.4-2.2-3.4c-1.1,0-1.9,0.9-2.2,1.7c-0.1,0.3-0.2,0.6-0.2,1v8.7h-3.6v-8.5c0-0.9-0.2-2.9-2.1-2.9c-1.2,0-2,1-2.3,1.9
	c-0.1,0.3-0.2,0.6-0.2,1v8.5H53V56.2c0-1.5,0-2.5-0.1-3.5L52.9,52h3.4l0.1,1.1c1-0.9,2.2-1.4,3.6-1.4c1.6,0,3,0.8,3.8,2
	c0.3-0.4,0.6-0.7,1-1c1-0.7,2-1,3.3-1c2.3,0,4.9,1.7,4.9,6.3V66.3z"/>
</svg>
