<?xml version="1.0" encoding="utf-8"?>
<!-- Generator: Adobe Illustrator 22.1.0, SVG Export Plug-In . SVG Version: 6.00 Build 0)  -->
<svg version="1.1" id="Layer_1" xmlns="http://www.w3.org/2000/svg" xmlns:xlink="http://www.w3.org/1999/xlink" x="0px" y="0px"
	 viewBox="0 0 110 110" style="enable-background:new 0 0 110 110;" xml:space="preserve">
<style type="text/css">
	.st0{fill:#337AB7;}
</style>
<g>
	<path class="st0" d="M56,44.9c-3.5,0-6.4,2.9-6.4,6.5c0,3.5,2.9,6.4,6.4,6.4s6.4-2.9,6.4-6.5C62.4,47.8,59.5,44.9,56,44.9z"/>
	<path class="st0" d="M57,73.4c-0.4,0.5-1.2,0.5-1.7,0c-0.1-0.1-0.7-0.8-1.6-1.9c-4.8,0.2-8.2,1-8.2,1.9c0,1.1,4.7,2,10.5,2
		s10.5-0.9,10.5-2c0-1-3.4-1.7-7.9-1.9C57.7,72.5,57.1,73.3,57,73.4z"/>
	<path class="st0" d="M71.4,16.4h-41c-2.4,0-4.5,2-4.5,4.5v69.3c0,2.4,2,4.5,4.5,4.5h51.1c2.4,0,4.5-2,4.5-4.5V30.5L71.4,16.4z
		 M67.9,73.4c0,1.5-5.3,2.6-11.9,2.6s-11.9-1.2-11.9-2.6c0-1.2,3.7-2.3,8.8-2.6c-3.5-4.3-9.7-13-9.7-19.4c0-7,5.7-12.7,12.7-12.7
		s12.7,5.7,12.7,12.7c0,6.5-6.2,15.1-9.7,19.4C64.1,71.1,67.9,72.1,67.9,73.4z"/>
</g>
</svg>
