<?xml version="1.0" encoding="utf-8"?>
<!-- Generator: Adobe Illustrator 22.1.0, SVG Export Plug-In . SVG Version: 6.00 Build 0)  -->
<svg version="1.1" id="Layer_1" xmlns="http://www.w3.org/2000/svg" xmlns:xlink="http://www.w3.org/1999/xlink" x="0px" y="0px"
	 viewBox="0 0 110 110" style="enable-background:new 0 0 110 110;" xml:space="preserve">
<style type="text/css">
	.st0{fill:#337AB7;}
</style>
<path class="st0" d="M70.5,18.9h-41c-2.4,0-4.5,2-4.5,4.5v69.3c0,2.4,2,4.5,4.5,4.5h51.1c2.4,0,4.5-2,4.5-4.5V33L70.5,18.9z
	 M64,69.7H39.3c-1.1,0-2-1.1-2-2.4s0.9-2.4,2-2.4H64c1.1,0,2,1.1,2,2.4S65.1,69.7,64,69.7z M70.2,57.4H39.8c-1.3,0-2.4-1.1-2.4-2.4
	c0-1.3,1.1-2.4,2.4-2.4h30.5c1.3,0,2.4,1.1,2.4,2.4C72.7,56.3,71.6,57.4,70.2,57.4z"/>
</svg>
