<?xml version="1.0" encoding="utf-8"?>
<!-- Generator: Adobe Illustrator 22.1.0, SVG Export Plug-In . SVG Version: 6.00 Build 0)  -->
<svg version="1.1" id="Layer_1" xmlns="http://www.w3.org/2000/svg" xmlns:xlink="http://www.w3.org/1999/xlink" x="0px" y="0px"
	 viewBox="0 0 110 110" style="enable-background:new 0 0 110 110;" xml:space="preserve">
<style type="text/css">
	.st0{fill:#337AB7;}
</style>
<path class="st0" d="M71.5,15.9h-41c-2.4,0-4.5,2-4.5,4.5v69.3c0,2.4,2,4.5,4.5,4.5h51.1c2.4,0,4.5-2,4.5-4.5V30L71.5,15.9z
	 M76,65.9h-4c0.7-1.9,1-4,1-6.1c0-4-1.2-7.7-3.5-10.6L58.2,62.1c0.4,1,0.2,2.3-0.7,3.1c-1.2,1.2-3.1,1.2-4.2,0
	c-1.2-1.2-1.2-3.1,0-4.2c0.9-0.9,2.1-1,3.1-0.7L69.6,49c-3.3-4.4-8.7-6.8-14.8-6.6c-8.3,0.4-15.3,7-16.2,15.3c-0.4,2.9,0,5.6,1,8h-4
	c-0.7-1.9-0.9-4-0.9-6.1c0-12,10.1-21.8,22.4-21.2c10.4,0.7,19.1,8.9,19.9,19.5C77.1,60.9,76.7,63.6,76,65.9z"/>
</svg>
