<?xml version="1.0" encoding="utf-8"?>
<!-- Generator: Adobe Illustrator 19.0.0, SVG Export Plug-In . SVG Version: 6.00 Build 0)  -->
<svg version="1.1" id="Layer_1" xmlns="http://www.w3.org/2000/svg" xmlns:xlink="http://www.w3.org/1999/xlink" x="0px" y="0px"
	 viewBox="0 0 512 512" style="enable-background:new 0 0 512 512;" xml:space="preserve">
<style type="text/css">
	.st0{fill:#808080;}
</style>
<g id="XMLID_5944_">
	<g id="XMLID_5950_">
		<g id="XMLID_5951_">
			<g id="XMLID_5952_">
				<path id="XMLID_5990_" class="st0" d="M415.8-0.5h-320c-53,0-96,43-96,96v320c0,53,43,96,96,96h320c53,0,96-43,96-96v-320
					C511.8,42.5,468.8-0.5,415.8-0.5z M249.4,427.7c-56.7,0-104.5-23.1-104.5-59.9c0-37.4,43.6-73.5,100.3-73.5l17.7-0.2
					c-7.7-7.5-13.9-16.8-13.9-28.2c0-6.8,2.2-13.3,5.2-19.1l-9.4,0.3c-46.6,0-77.7-33.1-77.7-74.2c0-40.2,43-74.8,88.8-74.8h102.1
					L335,114.7h-32.4c21.5,8.3,32.9,33.3,32.9,58.9c0,21.5-11.9,40.1-28.8,53.3c-16.5,12.9-19.6,18.3-19.6,29.2
					c0,9.3,17.7,25.2,26.9,31.8c27,19.1,35.6,36.8,35.6,66.3C349.7,391.1,314,427.7,249.4,427.7z"/>
				<path id="XMLID_5989_" class="st0" d="M299,175.6c-4.5-34.5-29.5-62.2-55.8-63c-26.3-0.8-43.9,25.6-39.4,60.2
					c4.5,34.5,29.5,63.2,55.8,63.9C285.9,237.6,303.5,210.2,299,175.6z"/>
				<path id="XMLID_5960_" class="st0" d="M280.2,307.9c-7.7-2.5-16.3-4-25.4-4.1c-39.2-0.4-74.2,23.9-74.2,53.1
					c0,29.8,28.3,54.6,67.5,54.6c55.1,0,74.2-23.3,74.2-53.1c0-3.6-0.5-7.1-1.2-10.5C316.7,331,301.4,322.7,280.2,307.9z"/>
			</g>
		</g>
	</g>
</g>
</svg>
