<?xml version="1.0" encoding="utf-8"?>
<!-- Generator: Adobe Illustrator 19.0.0, SVG Export Plug-In . SVG Version: 6.00 Build 0)  -->
<svg version="1.1" id="Layer_1" xmlns="http://www.w3.org/2000/svg" xmlns:xlink="http://www.w3.org/1999/xlink" x="0px" y="0px"
	 viewBox="0 0 512 512" style="enable-background:new 0 0 512 512;" xml:space="preserve">
<style type="text/css">
	.st0{fill:url(#XMLID_2_);}
	.st1{fill:url(#XMLID_3_);}
	.st2{opacity:0.75;fill:url(#XMLID_4_);}
	.st3{fill:url(#XMLID_5_);}
	.st4{fill:url(#XMLID_6_);}
</style>
<g id="XMLID_4028_">
	<g id="XMLID_4029_">
		<linearGradient id="XMLID_2_" gradientUnits="userSpaceOnUse" x1="255.798" y1="511.4577" x2="255.798" y2="-0.5423">
			<stop  offset="0" style="stop-color:#600000"/>
			<stop  offset="0.1202" style="stop-color:#690000"/>
			<stop  offset="0.3161" style="stop-color:#810101"/>
			<stop  offset="0.5635" style="stop-color:#A90101"/>
			<stop  offset="0.8499" style="stop-color:#E00202"/>
			<stop  offset="1" style="stop-color:#FF0303"/>
		</linearGradient>
		<path id="XMLID_4038_" class="st0" d="M255.8-0.5c-102,0-180.9,82.7-180.9,184.6c0,127.5,166.6,320.5,166.6,320.5
			c7.9,9.1,20.8,9.1,28.7,0c0,0,166.6-193,166.6-320.5C436.7,82.1,357.8-0.5,255.8-0.5z M255.8,295.6c-61.3,0-111-49.7-111-111
			c0-61.3,49.7-111,111-111c61.3,0,111,49.7,111,111C366.8,245.9,317.1,295.6,255.8,295.6z"/>
		<linearGradient id="XMLID_3_" gradientUnits="userSpaceOnUse" x1="255.7959" y1="493.0586" x2="255.7959" y2="13.5438">
			<stop  offset="0" style="stop-color:#7F0000"/>
			<stop  offset="0.15" style="stop-color:#720000"/>
			<stop  offset="1" style="stop-color:#FF0F0F"/>
		</linearGradient>
		<path id="XMLID_4035_" class="st1" d="M255.8,13.5C160.2,13.5,86.2,91,86.2,186.6c0,119.5,155.5,299.7,155.5,299.7
			c7.8,9,20.4,9,28.2,0c0,0,155.5-180.2,155.5-299.7C425.4,91,351.4,13.5,255.8,13.5z M255.8,291.1c-57.5,0-104.1-46.6-104.1-104.1
			c0-57.5,46.6-104.1,104.1-104.1c57.5,0,104.1,46.6,104.1,104.1C359.9,244.5,313.3,291.1,255.8,291.1z"/>
		<linearGradient id="XMLID_4_" gradientUnits="userSpaceOnUse" x1="255.7959" y1="180.8738" x2="255.7959" y2="-0.5423">
			<stop  offset="0" style="stop-color:#383838"/>
			<stop  offset="7.151526e-002" style="stop-color:#593131"/>
			<stop  offset="0.1823" style="stop-color:#842828"/>
			<stop  offset="0.2983" style="stop-color:#AA2020"/>
			<stop  offset="0.4182" style="stop-color:#C91A1A"/>
			<stop  offset="0.5432" style="stop-color:#E11515"/>
			<stop  offset="0.6755" style="stop-color:#F21212"/>
			<stop  offset="0.8201" style="stop-color:#FC1010"/>
			<stop  offset="1" style="stop-color:#FF0F0F"/>
		</linearGradient>
		<path id="XMLID_4034_" class="st2" d="M255.8,70.4c56.5,0,103.1,42.4,109.6,97.2c20.5,3.6,44,8,71.8,13.3
			C437.2,80.7,356-0.5,255.8-0.5C155.6-0.5,74.4,80.7,74.4,180.9c27.7-5.1,51.2-9.4,71.7-12.9C152.5,113,199.2,70.4,255.8,70.4z"/>
		<linearGradient id="XMLID_5_" gradientUnits="userSpaceOnUse" x1="255.7959" y1="306.1272" x2="255.7959" y2="68.0227">
			<stop  offset="0" style="stop-color:#FF0F0F"/>
			<stop  offset="1" style="stop-color:#720000"/>
		</linearGradient>
		<path id="XMLID_4031_" class="st3" d="M255.8,68c-65.7,0-119.1,53.3-119.1,119.1c0,65.8,53.3,119.1,119.1,119.1
			c65.8,0,119.1-53.3,119.1-119.1C374.9,121.3,321.5,68,255.8,68z M255.8,291.1c-57.5,0-104.1-46.6-104.1-104.1
			c0-57.5,46.6-104.1,104.1-104.1c57.5,0,104.1,46.6,104.1,104.1C359.9,244.5,313.3,291.1,255.8,291.1z"/>
		<radialGradient id="XMLID_6_" cx="258.6703" cy="133.8869" r="177.6685" gradientUnits="userSpaceOnUse">
			<stop  offset="0" style="stop-color:#FF1D1D"/>
			<stop  offset="1" style="stop-color:#880000"/>
		</radialGradient>
		<path id="XMLID_4030_" class="st4" d="M255.8,291.1c-57.5,0-104.1-46.6-104.1-104.1c0-57.5,46.6-104.1,104.1-104.1
			c57.5,0,104.1,46.6,104.1,104.1C359.9,244.5,313.3,291.1,255.8,291.1z"/>
	</g>
</g>
</svg>
