<?xml version="1.0" encoding="utf-8"?>
<!-- Generator: Adobe Illustrator 19.0.0, SVG Export Plug-In . SVG Version: 6.00 Build 0)  -->
<svg version="1.1" id="Layer_1" xmlns="http://www.w3.org/2000/svg" xmlns:xlink="http://www.w3.org/1999/xlink" x="0px" y="0px"
	 viewBox="0 0 512 512" style="enable-background:new 0 0 512 512;" xml:space="preserve">
<style type="text/css">
	.st0{fill:#FFFFFF;}
	.st1{fill:#01579B;}
</style>
<path id="XMLID_2_" class="st0" d="M294,355V4.8c0-2.3-1.6-4.8-3.9-4.8h-63.6c-2.3,0-4.5,2.5-4.5,4.8v348.6
	c-28,13.1-48.7,42.1-48.7,75.8c0,45.9,37.3,83.2,83.2,83.2s83.1-37.2,83.1-83.2C339.6,396.7,321,368.7,294,355z"/>
<path id="XMLID_3_" class="st1" d="M270,365.2V23.9c0-0.8-1.3-1.9-2.1-1.9h-22.5c-0.8,0-1.3,1.1-1.3,1.9v340.6
	c-30,5.2-52.9,31.3-52.9,62.8c0,35.2,28.5,63.7,63.7,63.7s64-28.5,64-63.7C318.9,397.1,297,371.8,270,365.2z"/>
</svg>
