<?xml version="1.0" encoding="utf-8"?>
<!-- Generator: Adobe Illustrator 19.0.0, SVG Export Plug-In . SVG Version: 6.00 Build 0)  -->
<svg version="1.1" id="Layer_1" xmlns="http://www.w3.org/2000/svg" xmlns:xlink="http://www.w3.org/1999/xlink" x="0px" y="0px"
	 viewBox="0 0 512 512" style="enable-background:new 0 0 512 512;" xml:space="preserve">
<style type="text/css">
	.st0{fill:#666666;}
</style>
<g id="XMLID_4826_">
	<g id="XMLID_4827_">
		<path id="XMLID_4828_" class="st0" d="M319.7,0.4h-128c-33.9,0-61.4,37.7-61.4,71.7V451c0,33.9,27.5,61.4,61.4,61.4h128
			c33.9,0,61.4-27.5,61.4-61.4V72.1C381.1,38.2,353.6,0.4,319.7,0.4z M370.4,154.9v127l-29.7,3.8v-52.3L370.4,154.9z M354.8,117.7
			c-11.1,42.5-24.2,92.6-24.2,92.6H180.8l-24.2-92.6C156.6,117.7,253.3,84.8,354.8,117.7z M171.1,236.8v48.9l-29.7-3.8V158.3
			L171.1,236.8z M141.4,413.4V300.7l29.7,3.7v89.2L141.4,413.4z M158.3,445.5l24.1-36.3h149.9l24.2,36.3H158.3z M340.7,390.2v-85.7
			l29.7-3.9V410L340.7,390.2z"/>
	</g>
</g>
</svg>
