<?xml version="1.0" encoding="utf-8"?>
<!-- Generator: Adobe Illustrator 19.0.0, SVG Export Plug-In . SVG Version: 6.00 Build 0)  -->
<svg version="1.1" id="Layer_1" xmlns="http://www.w3.org/2000/svg" xmlns:xlink="http://www.w3.org/1999/xlink" x="0px" y="0px"
	 viewBox="0 0 512 512" style="enable-background:new 0 0 512 512;" xml:space="preserve">
<style type="text/css">
	.st0{fill:url(#XMLID_2_);}
	.st1{fill:url(#XMLID_3_);}
	.st2{opacity:0.75;fill:url(#XMLID_4_);}
	.st3{fill:url(#XMLID_5_);}
	.st4{fill:url(#XMLID_6_);}
</style>
<g id="XMLID_3974_">
	<linearGradient id="XMLID_2_" gradientUnits="userSpaceOnUse" x1="255.9833" y1="512.1409" x2="255.9833" y2="0.1409">
		<stop  offset="0" style="stop-color:#0095FF"/>
		<stop  offset="0.1905" style="stop-color:#009EFF"/>
		<stop  offset="0.5009" style="stop-color:#00B6FF"/>
		<stop  offset="0.8907" style="stop-color:#00DEFF"/>
		<stop  offset="1" style="stop-color:#00EAFF"/>
	</linearGradient>
	<path id="XMLID_3983_" class="st0" d="M256,0.1C154,0.1,75.1,82.8,75.1,184.8c0,127.5,166.6,320.5,166.6,320.5
		c7.9,9.1,20.8,9.1,28.7,0c0,0,166.6-193,166.6-320.5C436.9,82.8,357.9,0.1,256,0.1z M256,296.3c-61.3,0-111-49.7-111-111
		c0-61.3,49.7-111,111-111c61.3,0,111,49.7,111,111C367,246.6,317.3,296.3,256,296.3z"/>
	<linearGradient id="XMLID_3_" gradientUnits="userSpaceOnUse" x1="255.982" y1="493.7419" x2="255.982" y2="14.2271">
		<stop  offset="0" style="stop-color:#00BFFF"/>
		<stop  offset="0.15" style="stop-color:#00AAFF"/>
		<stop  offset="1" style="stop-color:#00D4FF"/>
	</linearGradient>
	<path id="XMLID_3980_" class="st1" d="M256,14.2c-95.6,0-169.6,77.5-169.6,173.1C86.4,306.8,241.9,487,241.9,487
		c7.7,9,20.4,9,28.2,0c0,0,155.5-180.2,155.5-299.7C425.6,91.7,351.6,14.2,256,14.2z M256,291.8c-57.5,0-104.1-46.6-104.1-104.1
		c0-57.5,46.6-104.1,104.1-104.1c57.5,0,104.1,46.6,104.1,104.1C360.1,245.2,313.5,291.8,256,291.8z"/>
	<linearGradient id="XMLID_4_" gradientUnits="userSpaceOnUse" x1="255.9833" y1="181.5571" x2="255.9833" y2="0.1409">
		<stop  offset="0" style="stop-color:#231F20"/>
		<stop  offset="9.328902e-003" style="stop-color:#222325"/>
		<stop  offset="0.1122" style="stop-color:#1A4C58"/>
		<stop  offset="0.2199" style="stop-color:#137184"/>
		<stop  offset="0.3306" style="stop-color:#0D8FAA"/>
		<stop  offset="0.4449" style="stop-color:#08A8C9"/>
		<stop  offset="0.5642" style="stop-color:#05BCE1"/>
		<stop  offset="0.6905" style="stop-color:#02C9F2"/>
		<stop  offset="0.8284" style="stop-color:#00D1FC"/>
		<stop  offset="1" style="stop-color:#00D4FF"/>
	</linearGradient>
	<path id="XMLID_3979_" class="st2" d="M256,71.1c56.5,0,103.1,42.4,109.6,97.2c20.5,3.6,44,8,71.8,13.3
		C437.4,81.4,356.2,0.1,256,0.1C155.8,0.1,74.6,81.4,74.6,181.6c27.7-5.1,51.2-9.4,71.7-12.9C152.7,113.7,199.4,71.1,256,71.1z"/>
	<linearGradient id="XMLID_5_" gradientUnits="userSpaceOnUse" x1="255.9833" y1="306.8104" x2="255.9833" y2="68.7059">
		<stop  offset="0" style="stop-color:#00D4FF"/>
		<stop  offset="1" style="stop-color:#00AAFF"/>
	</linearGradient>
	<path id="XMLID_3976_" class="st3" d="M256,68.7c-65.7,0-119.1,53.3-119.1,119.1c0,65.8,53.3,119.1,119.1,119.1
		c65.8,0,119.1-53.3,119.1-119.1C375,122,321.7,68.7,256,68.7z M256,291.8c-57.5,0-104.1-46.6-104.1-104.1
		c0-57.5,46.6-104.1,104.1-104.1c57.5,0,104.1,46.6,104.1,104.1C360.1,245.2,313.5,291.8,256,291.8z"/>
	<radialGradient id="XMLID_6_" cx="258.8576" cy="134.5702" r="177.668" gradientUnits="userSpaceOnUse">
		<stop  offset="0" style="stop-color:#00FFFF"/>
		<stop  offset="1" style="stop-color:#0080FF"/>
	</radialGradient>
	<path id="XMLID_3975_" class="st4" d="M256,291.8c-57.5,0-104.1-46.6-104.1-104.1c0-57.5,46.6-104.1,104.1-104.1
		c57.5,0,104.1,46.6,104.1,104.1C360.1,245.2,313.5,291.8,256,291.8z"/>
</g>
</svg>
