<?xml version="1.0" encoding="utf-8"?>
<!-- Generator: Adobe Illustrator 19.0.0, SVG Export Plug-In . SVG Version: 6.00 Build 0)  -->
<svg version="1.1" id="Layer_1" xmlns="http://www.w3.org/2000/svg" xmlns:xlink="http://www.w3.org/1999/xlink" x="0px" y="0px"
	 viewBox="0 0 512 512" style="enable-background:new 0 0 512 512;" xml:space="preserve">
<style type="text/css">
	.st0{display:none;fill:#808080;}
	.st1{font-family:'Lato-Bold';}
	.st2{font-size:282.397px;}
	.st3{fill-rule:evenodd;clip-rule:evenodd;fill:#808080;}
</style>
<text id="XMLID_485_" transform="matrix(1 0 0 1 218.7288 354.6104)" class="st0 st1 st2">i</text>
<g id="XMLID_1_">
	<path id="XMLID_12_" class="st3" d="M438,75C391.6,27.8,327.4,0,257,0C186.6,0,122.4,27.8,76,75C29.6,121.4,1,184.8,1,256
		c0,70.4,28.6,133.8,75,180.2c46.4,47.2,110.6,75.8,181,75.8c70.4,0,134.6-28.6,181-75.8c45.6-46.4,75-109.8,75-180.2
		C513,184.8,483.6,121.4,438,75z M426.1,425.1c-42.5,44.4-102.6,71.1-169.1,71.1c-66.5,0-126.6-26.8-169.1-71.1
		C43.6,381.7,16.8,321.6,16.8,256c0-66.5,26.8-126.6,71.1-170C130.4,41.7,190.5,15.8,257,15.8c66.5,0,126.6,25.9,169.1,70.2
		c43.4,43.4,71.1,103.5,71.1,170C497.2,321.6,469.5,381.7,426.1,425.1z"/>
	<path id="XMLID_8_" class="st3" d="M240.5,364h29c1.9,0,3.5-1.6,3.5-3.5v-144c0-1.9-1.6-3.5-3.5-3.5h-29c-1.9,0-3.5,1.6-3.5,3.5
		v144C237,362.4,238.6,364,240.5,364z"/>
	<circle id="XMLID_9_" class="st3" cx="256" cy="172.7" r="24"/>
</g>
</svg>
