<?xml version="1.0" encoding="utf-8"?>
<!-- Generator: Adobe Illustrator 19.0.0, SVG Export Plug-In . SVG Version: 6.00 Build 0)  -->
<svg version="1.1" id="Layer_1" xmlns="http://www.w3.org/2000/svg" xmlns:xlink="http://www.w3.org/1999/xlink" x="0px" y="0px"
	 viewBox="0 0 512 512" style="enable-background:new 0 0 512 512;" xml:space="preserve">
<style type="text/css">
	.st0{fill:#666666;}
</style>
<g id="XMLID_3426_">
	<g id="Clock_1_">
		<g id="XMLID_3427_">
			<path id="XMLID_3428_" class="st0" d="M371.5,230.9h-90.8V123.6c0-13.7-11.1-24.8-24.8-24.8c-13.7,0-24.8,11.1-24.8,24.8v156.9
				h140.4c13.7,0,24.8-11.1,24.8-24.8C396.3,242,385.2,230.9,371.5,230.9z M255.9-0.3c-141.4,0-256,114.6-256,256s114.6,256,256,256
				s256-114.6,256-256S397.3-0.3,255.9-0.3z M255.9,462.2c-113.8,0-206.5-92.6-206.5-206.5S142.1,49.3,255.9,49.3
				s206.5,92.6,206.5,206.5S369.8,462.2,255.9,462.2z"/>
		</g>
	</g>
</g>
</svg>
