<?xml version="1.0" encoding="utf-8"?>
<!-- Generator: Adobe Illustrator 19.0.0, SVG Export Plug-In . SVG Version: 6.00 Build 0)  -->
<svg version="1.1" id="Layer_1" xmlns="http://www.w3.org/2000/svg" xmlns:xlink="http://www.w3.org/1999/xlink" x="0px" y="0px"
	 viewBox="0 0 512 512" style="enable-background:new 0 0 512 512;" xml:space="preserve">
<style type="text/css">
	.st0{fill:none;}
	.st1{fill:#999999;}
</style>
<rect id="XMLID_2_" class="st0" width="512" height="512"/>
<g id="XMLID_3485_">
	<path id="XMLID_3503_" class="st1" d="M72.5,380.3V9.8c0-5.2-4.1-9.5-9.1-9.5s-9.1,4.2-9.1,9.5v370.5c-31,4.6-54.9,32.2-54.9,65.6
		c0,36.6,28.7,66.4,64,66.4s64-29.8,64-66.4C127.4,412.6,103.5,385,72.5,380.3z M63.4,493.3c-25.2,0-45.7-21.3-45.7-47.4
		s20.5-47.4,45.7-47.4s45.7,21.3,45.7,47.4S88.6,493.3,63.4,493.3z"/>
	<path id="XMLID_3495_" class="st1" d="M264.5,187V9.8c0-5.2-4.1-9.5-9.1-9.5c-5,0-9.1,4.2-9.1,9.5v176.7
		c-32.9,3.8-58.6,32.8-58.6,67.9s25.7,64.1,58.6,67.9v180.6c0,5.2,4.1,9.5,9.1,9.5c5,0,9.1-4.2,9.1-9.5V321.6
		c31.1-5.5,54.9-33.5,54.9-67.3S295.6,192.5,264.5,187z M253.5,303.7c-26.2,0-47.6-22.1-47.6-49.4s21.3-49.4,47.6-49.4
		s47.6,22.1,47.6,49.4C301.1,281.6,279.7,303.7,253.5,303.7z"/>
	<path id="XMLID_3487_" class="st1" d="M511.4,66.7c0-36.6-28.7-66.4-64-66.4s-64,29.8-64,66.4c0,33.4,23.9,61,54.9,65.6v370.5
		c0,5.2,4.1,9.5,9.1,9.5s9.1-4.2,9.1-9.5V132.3C487.5,127.7,511.4,100,511.4,66.7z M447.4,114.1c-25.2,0-45.7-21.3-45.7-47.4
		s20.5-47.4,45.7-47.4s45.7,21.3,45.7,47.4S472.6,114.1,447.4,114.1z"/>
</g>
</svg>
