<?xml version="1.0" encoding="utf-8"?>
<!-- Generator: Adobe Illustrator 19.0.0, SVG Export Plug-In . SVG Version: 6.00 Build 0)  -->
<svg version="1.1" id="Layer_1" xmlns="http://www.w3.org/2000/svg" xmlns:xlink="http://www.w3.org/1999/xlink" x="0px" y="0px"
	 viewBox="0 0 512 512" style="enable-background:new 0 0 512 512;" xml:space="preserve">
<style type="text/css">
	.st0{fill:none;}
	.st1{fill:#808080;}
</style>
<rect id="XMLID_2_" class="st0" width="512" height="512"/>
<g id="XMLID_1_">
	<path id="XMLID_12_" class="st1" d="M503.6,89.6c-6.5-2.7-13.9,0.6-16.5,7.3L466,151.6C440.8,98.2,400.8,58.8,346.4,35
		c-29-12.7-59.4-19.2-91.1-19.2c-31.7,0-61.9,6.4-90.9,19.2C106.8,60.3,64.7,103.2,40,162.4C27.6,192,21.5,223,21.5,255.6
		c0,23.9,3.3,47,9.9,69.4L0.6,405c-2.6,6.7,0.6,14.3,7.1,17c1.5,0.7,3.1,1,4.7,1c5,0,9.8-3.2,11.8-8.3l21.1-54.5
		c25.2,53.3,65.4,92.8,119.2,116.5c29,12.7,59.1,19.2,90.9,19.2c31.7,0,62.1-6.5,91.1-19.2c58-25.4,100-68.6,124.7-127.6
		c12.4-29.7,18.7-60.9,18.7-93.5c0-23.7-3.4-46.5-10-68.7l31-80.2C513.3,100,510.1,92.3,503.6,89.6z M433.7,361.7
		c-18.4,32.3-43.6,58-75.3,76.9c-31.5,18.9-66,28.4-103.2,28.4c-27.9,0-54.5-5.5-79.9-16.8c-25.3-11.3-47.2-26.1-65.5-44.9
		C93.3,388.3,80,368,69.5,345.1l60.6,19.6c6.7,2.2,13.8-1.7,15.9-8.6c2.1-6.9-1.6-14.3-8.3-16.4L58,313.9c-5.3-18.8-8-38.3-8-58.3
		c0-38.1,9.1-73.3,27.4-105.6c18.3-32.4,43.5-58,75-76.9c31.5-18.9,65.8-28.4,102.9-28.4c37.1,0,71.6,9.5,103.2,28.4
		c31.7,19,56.8,44.6,75.3,76.9c3.1,5.5,5.9,11,8.5,16.7l-61-19.7c-6.7-2.1-13.8,1.7-15.9,8.6c-2.1,6.9,1.6,14.3,8.3,16.5l80,25.9
		c5.1,18.4,7.7,37.6,7.7,57.7C461.3,293.7,452.2,329.1,433.7,361.7z"/>
</g>
</svg>
