<?xml version="1.0" encoding="utf-8"?>
<!-- Generator: Adobe Illustrator 22.1.0, SVG Export Plug-In . SVG Version: 6.00 Build 0)  -->
<svg version="1.1" id="Layer_1" xmlns="http://www.w3.org/2000/svg" xmlns:xlink="http://www.w3.org/1999/xlink" x="0px" y="0px"
	 viewBox="0 0 512 512" style="enable-background:new 0 0 512 512;" xml:space="preserve">
<style type="text/css">
	.st0{fill:url(#XMLID_2_);}
	.st1{fill:url(#XMLID_3_);}
	.st2{opacity:0.75;fill:url(#XMLID_4_);enable-background:new    ;}
	.st3{fill:url(#XMLID_5_);}
	.st4{fill:url(#XMLID_6_);}
</style>
<g id="XMLID_3986_">
	
		<linearGradient id="XMLID_2_" gradientUnits="userSpaceOnUse" x1="255.65" y1="-0.325" x2="255.65" y2="511.6" gradientTransform="matrix(1 0 0 -1 0 512)">
		<stop  offset="0" style="stop-color:#FF9500"/>
		<stop  offset="0.1905" style="stop-color:#FF9E00"/>
		<stop  offset="0.5009" style="stop-color:#FFB600"/>
		<stop  offset="0.8907" style="stop-color:#FFDE00"/>
		<stop  offset="1" style="stop-color:#FFEA00"/>
	</linearGradient>
	<path id="XMLID_3995_" class="st0" d="M255.6,0.4C153.7,0.4,74.7,83,74.7,185c0,127.5,166.6,320.5,166.6,320.5
		c7.9,9.1,20.8,9.1,28.7,0c0,0,166.6-193,166.6-320.5C436.6,83,357.6,0.4,255.6,0.4z M255.6,296.5c-61.3,0-111-49.7-111-111
		s49.7-111,111-111s111,49.7,111,111S316.9,296.5,255.6,296.5z"/>
	
		<linearGradient id="XMLID_3_" gradientUnits="userSpaceOnUse" x1="255.6" y1="18.05" x2="255.6" y2="497.5" gradientTransform="matrix(1 0 0 -1 0 512)">
		<stop  offset="0" style="stop-color:#FFBF00"/>
		<stop  offset="0.15" style="stop-color:#FFAA00"/>
		<stop  offset="1" style="stop-color:#FFD500"/>
	</linearGradient>
	<path id="XMLID_3992_" class="st1" d="M255.6,14.5C160.1,14.5,86,91.9,86,187.5C86,307,241.5,487.2,241.5,487.2
		c7.7,9,20.4,9,28.2,0c0,0,155.5-180.2,155.5-299.7C425.2,91.9,351.2,14.5,255.6,14.5z M255.6,292.1c-57.5,0-104.1-46.6-104.1-104.1
		S198.1,83.9,255.6,83.9S359.7,130.5,359.7,188S313.1,292.1,255.6,292.1z"/>
	
		<linearGradient id="XMLID_4_" gradientUnits="userSpaceOnUse" x1="255.6" y1="330.2" x2="255.6" y2="511.6" gradientTransform="matrix(1 0 0 -1 0 512)">
		<stop  offset="0" style="stop-color:#231F20"/>
		<stop  offset="4.322290e-03" style="stop-color:#252120"/>
		<stop  offset="0.1078" style="stop-color:#584B18"/>
		<stop  offset="0.2155" style="stop-color:#847012"/>
		<stop  offset="0.3268" style="stop-color:#AA8F0C"/>
		<stop  offset="0.4418" style="stop-color:#C9A808"/>
		<stop  offset="0.5618" style="stop-color:#E1BC04"/>
		<stop  offset="0.6887" style="stop-color:#F2CA02"/>
		<stop  offset="0.8274" style="stop-color:#FCD200"/>
		<stop  offset="1" style="stop-color:#FFD500"/>
	</linearGradient>
	<path id="XMLID_3991_" class="st2" d="M255.6,71.3c56.5,0,103.1,42.5,109.6,97.2c20.6,3.6,44,8,71.8,13.3
		C437,81.6,355.8,0.4,255.6,0.4S74.2,81.6,74.2,181.8c27.7-5.1,51.2-9.4,71.7-12.9C152.4,113.9,199,71.3,255.6,71.3z"/>
	
		<linearGradient id="XMLID_5_" gradientUnits="userSpaceOnUse" x1="255.6" y1="204.9" x2="255.6" y2="443.1" gradientTransform="matrix(1 0 0 -1 0 512)">
		<stop  offset="0" style="stop-color:#FFD500"/>
		<stop  offset="1" style="stop-color:#FFAA00"/>
	</linearGradient>
	<path id="XMLID_3988_" class="st3" d="M255.6,68.9c-65.8,0-119.1,53.3-119.1,119.1s53.3,119.1,119.1,119.1S374.7,253.8,374.7,188
		S321.4,68.9,255.6,68.9z M255.6,292.1c-57.5,0-104.1-46.6-104.1-104.1S198.1,83.9,255.6,83.9S359.7,130.5,359.7,188
		S313.1,292.1,255.6,292.1z"/>
	
		<radialGradient id="XMLID_6_" cx="258.5063" cy="377.2015" r="177.6659" gradientTransform="matrix(1 0 0 -1 0 512)" gradientUnits="userSpaceOnUse">
		<stop  offset="0" style="stop-color:#FFFF00"/>
		<stop  offset="1" style="stop-color:#FF8000"/>
	</radialGradient>
	<circle id="XMLID_3987_" class="st4" cx="255.6" cy="188" r="104.1"/>
</g>
</svg>
