<?xml version="1.0" encoding="utf-8"?>
<!-- Generator: Adobe Illustrator 19.0.0, SVG Export Plug-In . SVG Version: 6.00 Build 0)  -->
<svg version="1.1" id="Layer_1" xmlns="http://www.w3.org/2000/svg" xmlns:xlink="http://www.w3.org/1999/xlink" x="0px" y="0px"
	 viewBox="0 0 512 512" style="enable-background:new 0 0 512 512;" xml:space="preserve">
<style type="text/css">
	.st0{display:none;fill:#808080;}
	.st1{font-family:'Lato-Bold';}
	.st2{font-size:282.397px;}
	.st3{fill:#808080;}
</style>
<text id="XMLID_485_" transform="matrix(1 0 0 1 218.7288 354.6104)" class="st0 st1 st2">i</text>
<g id="XMLID_1_">
	<path id="XMLID_2_" class="st3" d="M38,381.3V161h344v64h39V99.7c0-19.4-19.9-41.7-39-41.7h-12v22.5c0,17.6-14.4,32-32,32
		c-17.6,0-32-14.4-32-32V58H115v22.5c0,17.6-14.4,32-32,32c-17.6,0-32-14.4-32-32V58H37C17.9,58,0,80.2,0,99.7v281.6
		C0,400.7,17.9,417,37,417h192v-39H37C35.5,378,38,383,38,381.3z"/>
	<rect id="XMLID_3_" x="255" y="186" class="st3" width="64" height="64"/>
	<rect id="XMLID_4_" x="64" y="186" class="st3" width="63" height="64"/>
	<path id="XMLID_5_" class="st3" d="M83,96.5c8.8,0,19-7.2,19-16v-64c0-8.8-10.2-16-19-16c-8.8,0-19,7.2-19,16v64
		C64,89.3,74.2,96.5,83,96.5z"/>
	<path id="XMLID_6_" class="st3" d="M338,96.5c8.8,0,19-7.2,19-16v-64c0-8.8-10.2-16-19-16c-8.8,0-19,7.2-19,16v64
		C319,89.3,329.2,96.5,338,96.5z"/>
	<path id="XMLID_7_" class="st3" d="M432.5,378H382v-41.5c0-8.8-3.7-16-12.5-16s-12.5,7.2-12.5,16v64c0,8.8,3,16.5,11.8,16.5h63.7
		c8.8,0,15.9-10.7,15.9-19.5C448.4,388.7,441.3,378,432.5,378z"/>
	<path id="XMLID_10_" class="st3" d="M384.7,256.5c-70.4,0-127.4,57.3-127.4,128c0,70.7,57,128,127.4,128
		c70.4,0,127.4-57.3,127.4-128C512.1,313.8,455,256.5,384.7,256.5z M384.7,480.5c-52.7,0-95.6-43.1-95.6-96c0-52.9,42.9-96,95.6-96
		c52.7,0,95.6,43.1,95.6,96C480.2,437.4,437.4,480.5,384.7,480.5z"/>
	<rect id="XMLID_11_" x="166" y="186" class="st3" width="63" height="64"/>
	<rect id="XMLID_12_" x="64" y="289" class="st3" width="63" height="64"/>
	<rect id="XMLID_13_" x="166" y="289" class="st3" width="63" height="64"/>
</g>
</svg>
