<?xml version="1.0" encoding="utf-8"?>
<!-- Generator: Adobe Illustrator 19.0.0, SVG Export Plug-In . SVG Version: 6.00 Build 0)  -->
<svg version="1.1" id="Layer_1" xmlns="http://www.w3.org/2000/svg" xmlns:xlink="http://www.w3.org/1999/xlink" x="0px" y="0px"
	 viewBox="0 0 512 512" style="enable-background:new 0 0 512 512;" xml:space="preserve">
<style type="text/css">
	.st0{fill:#808080;}
</style>
<path id="XMLID_36_" class="st0" d="M410.3,323.7c-7-46.7-56.9-68.3-56.9-68.3c75.1-71.1,52.3-133.7,52.3-133.7S389-0.1,248.2-0.1
	C107.4-0.1,88,146.3,88,146.3V512h57V227.6v-69.1c0,0,6.6-103.6,103-103.6s92.2,86.5,92.2,86.5s0.1,86.5-97.4,86.5
	c-37.2,0-72.8,0-72.8,0v64c15,0,63.9,0,107.3,0c60.9,0,63.7,73.7,63.7,73.7V512h73L410.3,323.7z"/>
</svg>
