<?xml version="1.0" encoding="utf-8"?>
<!-- Generator: Adobe Illustrator 19.0.0, SVG Export Plug-In . SVG Version: 6.00 Build 0)  -->
<svg version="1.1" id="Layer_1" xmlns="http://www.w3.org/2000/svg" xmlns:xlink="http://www.w3.org/1999/xlink" x="0px" y="0px"
	 viewBox="0 0 512 512" style="enable-background:new 0 0 512 512;" xml:space="preserve">
<style type="text/css">
	.st0{fill:none;}
	.st1{fill:#01579B;}
</style>
<rect id="XMLID_2_" class="st0" width="512" height="512"/>
<g id="XMLID_155_">
	<path id="XMLID_156_" class="st1" d="M501.1,454.4L367.4,320.3c23.9-33.5,38.2-74.3,38.2-117.4c0-112.6-90.7-203.6-202.9-203.6
		S-0.2,90.3-0.2,202.9s90.7,203.6,202.9,203.6c43,0,83.5-14.4,117-38.3l133.7,134.1c11.9,12,33.4,12,47.7,0l0,0
		C515.4,487.9,515.4,468.8,501.1,454.4z M202.7,358.6c-85.9,0-155.2-69.5-155.2-155.7c0-86.2,69.2-155.7,155.2-155.7
		s155.2,69.5,155.2,155.7C357.8,289.1,288.6,358.6,202.7,358.6z"/>
</g>
</svg>
