<?xml version="1.0" encoding="utf-8"?>
<!-- Generator: Adobe Illustrator 19.0.0, SVG Export Plug-In . SVG Version: 6.00 Build 0)  -->
<svg version="1.1" id="Layer_1" xmlns="http://www.w3.org/2000/svg" xmlns:xlink="http://www.w3.org/1999/xlink" x="0px" y="0px"
	 viewBox="0 0 512 512" style="enable-background:new 0 0 512 512;" xml:space="preserve">
<style type="text/css">
	.st0{fill:none;}
	.st1{fill:#727272;}
</style>
<rect id="XMLID_2_" class="st0" width="512" height="512"/>
<g>
	<path class="st1" d="M424.8-1.4H85.6c-1.3,0-2.3,1-2.3,2.3v507.3c0,1.3,1,2.3,2.3,2.3h339.2c1.3,0,2.3-1,2.3-2.3V0.9
		C427.2-0.4,426.1-1.4,424.8-1.4z M417.3,497.7c0,1.3-1,2.3-2.3,2.3H95.5c-1.3,0-2.3-1-2.3-2.3V11.5c0-1.3,1-2.3,2.3-2.3H415
		c1.3,0,2.3,1,2.3,2.3V497.7z"/>
	<path class="st1" d="M146,96h226c0.6,0,1-0.4,1-1v-5c0-0.6-0.4-1-1-1H146c-0.6,0-1,0.4-1,1v5C145,95.6,145.4,96,146,96z"/>
	<path class="st1" d="M146,177h226c0.6,0,1-0.4,1-1v-5c0-0.6-0.4-1-1-1H146c-0.6,0-1,0.4-1,1v5C145,176.6,145.4,177,146,177z"/>
	<path class="st1" d="M146,257h226c0.6,0,1-0.4,1-1v-5c0-0.6-0.4-1-1-1H146c-0.6,0-1,0.4-1,1v5C145,256.6,145.4,257,146,257z"/>
	<path class="st1" d="M146,338h226c0.6,0,1-0.4,1-1v-5c0-0.6-0.4-1-1-1H146c-0.6,0-1,0.4-1,1v5C145,337.6,145.4,338,146,338z"/>
	<path class="st1" d="M146,418h226c0.6,0,1-0.4,1-1v-5c0-0.6-0.4-1-1-1H146c-0.6,0-1,0.4-1,1v5C145,417.6,145.4,418,146,418z"/>
</g>
</svg>
