<?xml version="1.0" encoding="utf-8"?>
<!-- Generator: Adobe Illustrator 22.1.0, SVG Export Plug-In . SVG Version: 6.00 Build 0)  -->
<svg version="1.1" id="Layer_1" xmlns="http://www.w3.org/2000/svg" xmlns:xlink="http://www.w3.org/1999/xlink" x="0px" y="0px"
	 viewBox="0 0 110 110" style="enable-background:new 0 0 110 110;" xml:space="preserve">
<style type="text/css">
	.st0{fill:#337AB7;}
</style>
<g>
	<g>
		<g>
			<g>
				<g>
					<path class="st0" d="M96,84.9v-67c0-1.1,0-2.3-1.3-2.3L71,24.9l-26.4-9.3l-26,8.4c-0.9,0.2-2.5,1.1-2.5,2.3v67
						c0,1.3,1.9,2.3,3,2.3l1.1-0.2l23.9-9.1l26.8,9.3L95,87.2C96.2,86.8,96,86,96,84.9z M88.8,56.5H88c0.8,0.8,1.3,2.1,1.3,3.1
						c0,1.3-0.6,2.5-1.5,3.3v2.5c0,0.6-0.6,1-1,1h-2.5c-0.6,0-1-0.6-1-1v-1h-9.1v3.4c0,0.8-0.8,1.5-1.5,1.5h-3.9
						c-0.8,0-1.5-0.8-1.5-1.5V67H66c-0.4,0-0.8-0.3-1-0.7H48.6c-0.1,0.4-0.6,0.9-1,0.9h-1.5v1.4c0,0.8-0.8,1.5-1.5,1.5h-3.9
						c-0.8,0-1.5-0.8-1.5-1.5v-3.5h-9.6v1.7c0,0.6-0.6,1.1-1.1,1.1h-2.6c-0.6,0-1.1-0.6-1.1-1.1v-2.6C23.6,63.4,23,62,23,60.4
						c0-1.1,0.2-2.4,1.1-3.2h-0.8c-0.2,0-0.6-0.2-0.8-0.6L22,54.7c0.6-0.2,0.8-0.6,0.8-0.8c0.2-0.2,0.2-0.2,0.6-0.2H26
						c0.8-1.9,1.7-3.4,2.6-4.2c2.6-1.9,8.7-2.3,13-1.3c1-2.1,2-3.8,3.2-4.7c5.1-3.5,18.7-3.5,23.7,0c1.2,0.7,2.3,2.5,3.2,4.6
						c4.1-0.9,9.8-0.4,12.4,1.3c1,0.6,1.8,2.3,2.5,4.1h2.5c0.2,0,0.6,0,0.6,0.2C90,54,90,54,90,54.3l-0.6,1.8
						C89.6,56.3,89.4,56.5,88.8,56.5z"/>
					<path class="st0" d="M68.6,49.3c0.1-0.1,0.2-0.1,0.3-0.2c-0.7-1.4-1.2-2.5-1.8-3.1c-3.9-2.8-15.9-2.8-20.2,0
						c-0.6,0.3-1.3,1.7-2.1,3.3c0.6,0.3,1.1,0.9,1.5,1.8h20.8C67.6,50.4,68.1,49.8,68.6,49.3z"/>
					<circle class="st0" cx="68.4" cy="59.9" r="3"/>
					<circle class="st0" cx="44.9" cy="59.9" r="3"/>
					<path class="st0" d="M35.2,51.2c0.8-0.4,1.2-0.8,1.2-1.2c0.1-0.1,0.1-0.1,0.1-0.1c-2.5,0.1-5.1,0.6-6.4,1.4
						c-0.6,0.2-1.3,1.9-1.9,3.5H37c-0.3-0.1-0.7-0.6-1.1-0.9L35.2,51.2z"/>
					<path class="st0" d="M29,58.5c-1.1,0-2.1,1.1-2.1,2.1c0,1.1,0.8,2.1,2.1,2.1c1.1,0,2.1-1.1,2.1-2.1
						C31.1,59.5,30.1,58.5,29,58.5z"/>
					<path class="st0" d="M84.3,58.1c-1,0-2.1,1-2.1,2.1c0,1,1,2.1,2.1,2.1s2.1-1,2.1-2.1S85.3,58.1,84.3,58.1z"/>
					<path class="st0" d="M83.3,51.1c-1.2-0.9-3.6-1.3-6.1-1.3c0,0.1,0.1,0.1,0.1,0.2c0.4,0.4,0.4,0.4,0.4,0.8L77,53.4
						c0,0.4-0.4,0.8-1.2,0.8h-1.2c0.1,0.1,0.1,0.1,0.2,0.2h10.4C84.3,53,83.8,51.7,83.3,51.1z"/>
				</g>
				<path class="st0" d="M44.7,70.8h-3.9c-1.1,0-2-1.1-2-2v-3.7c-1.5-1.3-2.3-3.3-2.3-5.6c0-1.3,0.3-2.9,1-4.1h-0.2
					c-0.5,0-1.1-0.3-1.6-1l-0.1-0.2L34.7,51l0.4-0.2c0.7-0.4,0.9-0.6,0.9-0.8v-0.2l0.1-0.1c0.4-0.5,0.5-0.6,1.2-0.6h3.4
					c1.2-2.7,2.3-5,3.9-6.1c5.3-3.6,19.1-3.6,24.3,0c1.6,0.8,2.9,3.5,3.9,6.1h3.6c0.8,0,1.2,0.2,1.3,0.7c0.3,0.4,0.4,0.6,0.4,1
					l0,0.1l-0.8,2.7c-0.1,0.6-0.7,1.2-1.7,1.2h-0.1c0.9,1.2,1.4,2.8,1.4,4.1c0,2.1-0.9,4.1-2.3,5.3V68c0,1.1-1.1,2-2,2h-3.9
					c-1.1,0-2-1.1-2-2v-1h-20v1.8C46.7,69.9,45.6,70.8,44.7,70.8z M36.6,53.9c0.4,0.5,0.6,0.5,0.7,0.5h2.4l-0.9,0.9
					c-1,1-1.4,2.9-1.4,4.2c0,2.2,0.7,3.9,2.1,5l0.2,0.2v4.1c0,0.4,0.5,1,1,1h3.9c0.4,0,1-0.5,1-1V66h22v2c0,0.4,0.5,1,1,1h3.9
					c0.4,0,1-0.5,1-1v-4l0.2-0.2c1.3-1,2.1-2.8,2.1-4.7c0-1.4-0.8-3.2-1.9-4.2L73.2,54h2.4c0.5,0,0.7-0.3,0.7-0.3l0-0.1l0.8-2.7
					c0,0,0,0,0,0c0,0-0.1-0.2-0.3-0.4l-0.1-0.2c-0.1,0-0.2,0-0.3,0h-4.2L72,49.9c-0.9-2.2-2.2-5.2-3.7-5.9c-4.9-3.4-18.3-3.4-23.2,0
					c-1.5,1-2.6,3.3-3.7,6l-0.1,0.3h-4c-0.1,0-0.2,0-0.3,0h0c0,0,0,0,0,0.1c-0.1,0.5-0.4,0.9-1.1,1.3L36.6,53.9z"/>
			</g>
		</g>
	</g>
</g>
</svg>
