<?xml version="1.0" encoding="utf-8"?>
<!-- Generator: Adobe Illustrator 19.0.0, SVG Export Plug-In . SVG Version: 6.00 Build 0)  -->
<svg version="1.0" id="Layer_1" xmlns="http://www.w3.org/2000/svg" xmlns:xlink="http://www.w3.org/1999/xlink" x="0px" y="0px"
	 viewBox="0 0 500 500" enable-background="new 0 0 500 500" xml:space="preserve">
<g id="XMLID_172_">
	<path id="XMLID_173_" fill="#FFFFFF" d="M232.2,265.3l2.4,2.7l9.5-10.2v-1.6l1.2-0.6c2.3,1.9,5.7,3.1,8.9,3.1
		c7.3,0,13.4-5.8,13.4-12.9c0-7.1-5.8-12.9-13.1-12.9c-7.3,0-13.2,5.8-13.2,12.9c0,3.2,1.2,6.7,3.2,8.9l-0.5,1.1h-1.6L232.2,265.3z
		 M245.4,246c0-4.9,4.1-8.9,9.1-8.9s9.1,4,9.1,8.9c0,4.9-4.1,8.9-9.1,8.9S245.4,250.9,245.4,246z"/>
</g>
</svg>
