<?xml version="1.0" encoding="utf-8"?>
<!-- Generator: Adobe Illustrator 19.0.0, SVG Export Plug-In . SVG Version: 6.00 Build 0)  -->
<svg version="1.0" id="Layer_1" xmlns="http://www.w3.org/2000/svg" xmlns:xlink="http://www.w3.org/1999/xlink" x="0px" y="0px"
	 viewBox="0 0 500 500" enable-background="new 0 0 500 500" xml:space="preserve">
<g id="XMLID_407_">
	<path id="XMLID_541_" fill="#C1272D" d="M236.7,254.4c0.5-0.1-1-1.3-1-1.3c-1-0.5-8.6-2.9-8.8-2.8c-1.1,0.4,1.1,2.6,1.8,3
		C229.4,253.7,236.1,254.6,236.7,254.4z"/>
	<path id="XMLID_528_" fill="#C1272D" d="M276.2,241.9c-0.3-0.4-0.7-0.6-1.1-0.6c-0.4,0-0.9-0.1-1.4-0.1c-1.3,0-2.6,0.1-2.7,0.1
		c-0.1,0-0.2,0.1-0.3,0.2c-0.1,0.1-0.1,0.2-0.1,0.3c0.1,0.8,0.1,2-0.2,2.6c-0.5-0.7-1.4-2.3-2.5-3.9c-3.1-4.6-3.9-4.8-4.3-4.9
		c-1.3-0.3-10.4-0.7-13.1-0.8l0-0.1l-0.7,0l-0.7,0l0,0.1c-2.7,0.1-11.8,0.5-13.1,0.8c-0.4,0.1-1.2,0.3-4.3,4.9
		c-1.1,1.6-2.1,3.2-2.5,3.9c-0.3-0.5-0.3-1.7-0.2-2.6c0-0.1,0-0.2-0.1-0.3c-0.1-0.1-0.2-0.1-0.3-0.2c-0.1,0-1.3-0.1-2.7-0.1
		c-0.5,0-1,0-1.4,0.1c-0.5,0-0.8,0.3-1.1,0.6c-0.7,0.9-0.4,2.6-0.4,2.7c0,0.1,0.1,0.2,0.2,0.3l3.4,1.3c-0.9,0.7-1.8,1.4-2.2,1.9
		c-0.3,0.3-0.8,0.9-0.5,6.6c0.1,2.7,0.3,5.3,0.3,5.3l0.1,0.7l1.3-0.1c3.3,0.3,14.4,1.1,26.8,1.1c7.1,0,14.6-0.3,21.4-1.1l1.1,0.1
		l0.1-0.7c0,0,0.2-2.6,0.3-5.3c0.2-5.7-0.2-6.3-0.5-6.6c-0.4-0.5-1.3-1.3-2.2-1.9l3.4-1.3c0.1-0.1,0.2-0.2,0.2-0.3
		C276.6,244.4,276.9,242.8,276.2,241.9z M236.5,236.9c1-0.2,8.6-0.6,13.4-0.8c4.9,0.2,12.4,0.6,13.4,0.8c0.8,0.3,3.5,4.2,5.7,7.8
		c-3.2-0.1-12.6-0.4-18.7-0.4l0,0H250h-0.4l0,0c-6.1,0-15.5,0.3-18.7,0.4C233.1,241.1,235.8,237.2,236.5,236.9z M224.1,244.3
		c-0.1-0.5-0.1-1.4,0.3-1.9c0.1-0.2,0.3-0.3,0.6-0.3c0.4,0,0.8-0.1,1.3-0.1c0.8,0,1.7,0.1,2.2,0.1c-0.1,0.7-0.1,2.1,0.4,2.8
		c-0.3,0.2-0.7,0.5-1.1,0.8L224.1,244.3z M273.5,248.5l-10,3.9l0,0c0,0-0.1,0-0.1,0c-0.2,0.2-0.4,0.4-0.6,0.6
		c-0.2,0.2-0.4,0.4-0.5,0.6c-0.2,0.2-0.3,0.4-0.4,0.8c0,0.1,0,0.2,0,0.3c0,0.1,0.1,0.2,0.2,0.3c0,0,0.1,0.1,0.1,0.1c0,0,0,0,0.1,0
		l0.1,0c0.1,0,0.2,0,0.2,0.1c0.3,0,0.5,0,0.8,0c0.3,0,0.5,0,0.8,0c0.5,0,1-0.1,1.6-0.2c1-0.1,2.1-0.3,3.1-0.5c0.5-0.1,1-0.2,1.5-0.3
		c0.3-0.1,0.5-0.1,0.7-0.2c0.2-0.1,0.5-0.2,0.7-0.3c-0.2,0.1-0.5,0.2-0.7,0.2c-0.2,0.1-0.5,0.1-0.8,0.2c-0.5,0.1-1,0.2-1.5,0.3
		c-1,0.1-2,0.3-3.1,0.3c-0.5,0-1,0.1-1.5,0.1c-0.3,0-0.5,0-0.8,0c-0.3,0-0.5,0-0.7-0.1l-0.1,0l0,0l0,0c0,0,0,0,0,0c0,0,0,0,0,0
		c0,0,0,0,0,0c0,0,0,0,0,0c0,0,0-0.1,0-0.1c0.1-0.2,0.2-0.4,0.4-0.6c0.2-0.2,0.3-0.4,0.5-0.5c0.2-0.2,0.3-0.3,0.5-0.5l10.5-3.4
		c0.3,1.5,0.1,5.9-0.2,10c-1.7,0.2-3.4,0.4-5.2,0.5h-34.9c-3.7-0.2-6.5-0.4-7.9-0.5c-0.3-4-0.5-8.5-0.2-9.9l10.5,3.4
		c0.2,0.1,0.4,0.3,0.5,0.5c0.2,0.2,0.4,0.3,0.5,0.5c0.2,0.2,0.3,0.4,0.4,0.6c0,0,0,0.1,0,0.1c0,0,0,0,0,0c0,0,0,0,0,0c0,0,0,0,0,0
		c0,0,0,0,0,0l0,0l0,0l-0.1,0c-0.2,0-0.5,0.1-0.7,0.1c-0.3,0-0.5,0-0.8,0c-0.5,0-1,0-1.5-0.1c-1-0.1-2.1-0.2-3.1-0.3
		c-0.5-0.1-1-0.2-1.5-0.3c-0.3,0-0.5-0.1-0.8-0.2c-0.2-0.1-0.5-0.1-0.7-0.2c0.2,0.1,0.5,0.2,0.7,0.3s0.5,0.1,0.7,0.2
		c0.5,0.1,1,0.2,1.5,0.3c1,0.2,2,0.4,3.1,0.5c0.5,0.1,1,0.1,1.6,0.2c0.3,0,0.5,0,0.8,0c0.3,0,0.5,0,0.8,0c0.1,0,0.1,0,0.2-0.1l0.1,0
		c0,0,0,0,0.1,0c0,0,0.1-0.1,0.1-0.1c0.1-0.1,0.1-0.2,0.2-0.3c0-0.1,0-0.2,0-0.3c-0.1-0.3-0.3-0.5-0.4-0.8c-0.2-0.2-0.3-0.4-0.5-0.6
		c-0.2-0.2-0.4-0.4-0.6-0.6c0,0,0,0-0.1,0l0,0l-10-3.9c1.1-0.9,2.9-2.2,3.7-2.8c0.1,0,0.1-0.1,0.2-0.2c2.6-0.1,13.2-0.5,19.7-0.5
		c6.5,0,17,0.4,19.7,0.5c0,0.1,0.1,0.1,0.2,0.2C270.6,246.2,272.4,247.6,273.5,248.5z M275.8,244.3l-3.6,1.4
		c-0.4-0.3-0.8-0.6-1.1-0.8c0.5-0.7,0.5-2.1,0.4-2.8c0.5,0,1.3-0.1,2.2-0.1c0.5,0,0.9,0,1.3,0.1c0.2,0,0.4,0.1,0.6,0.3
		C275.9,242.8,275.9,243.8,275.8,244.3z"/>
	<path id="XMLID_527_" fill="#C1272D" d="M273.1,250.4c-0.3-0.1-7.8,2.3-8.8,2.8c0,0-1.5,1.1-1,1.3c0.5,0.1,7.3-0.7,8-1.1
		C272,252.9,274.2,250.7,273.1,250.4z"/>
	<path id="XMLID_525_" fill="#C1272D" d="M264.4,250.7c-0.4,0.1-0.9,0.2-1.3,0.4c-0.2,0.1-0.5,0.2-0.7,0.3c-0.1,0.1-0.2,0.1-0.4,0.2
		c-0.1,0.1-0.2,0.3-0.3,0.3c-0.3,0.4-0.7,0.8-1.1,1.1c-0.2,0.2-0.5,0.3-0.7,0.4c-0.1,0.1-0.2,0.1-0.3,0.1l0,0h0l-0.1,0l-0.1,0
		l-0.2,0c-0.3,0-0.6,0-0.8,0c-0.3,0-0.6,0-0.8,0c-0.6,0-1.1,0-1.7-0.1c-1.1,0-2.1-0.1-2.9-0.1c-1,0-1.8-0.1-2.3-0.1l0-0.1l-0.6,0
		l-0.6,0l0,0.1c-0.5,0-1.3,0.1-2.3,0.1c-0.9,0-1.9,0.1-2.9,0.1c-0.5,0-1.1,0-1.7,0.1c-0.3,0-0.6,0-0.8,0c-0.3,0-0.6,0-0.8,0l-0.2,0
		l-0.1,0l-0.1,0h0l0,0c-0.1,0-0.2-0.1-0.3-0.1c-0.2-0.1-0.5-0.2-0.7-0.4c-0.4-0.3-0.8-0.7-1.1-1.1c-0.1-0.1-0.1-0.2-0.3-0.3
		c-0.1-0.1-0.2-0.2-0.4-0.2c-0.2-0.1-0.5-0.2-0.7-0.3c-0.5-0.2-0.9-0.3-1.3-0.4c-0.8-0.2-1.5-0.4-2-0.5c-0.5-0.1-0.8-0.1-0.8-0.1
		s0.3,0.1,0.8,0.2c0.5,0.1,1.2,0.3,2,0.6c0.4,0.1,0.8,0.3,1.3,0.5c0.2,0.1,0.4,0.2,0.7,0.3c0.1,0.1,0.2,0.1,0.3,0.2
		c0.1,0.1,0.1,0.2,0.2,0.3c0.3,0.5,0.7,0.9,1.2,1.3c0.2,0.2,0.5,0.4,0.8,0.5c0.1,0.1,0.3,0.1,0.5,0.2l0,0l0,0l0,0l0,0l0.1,0l0.1,0
		l0.2,0c0.3,0,0.6,0,0.9,0.1c0.3,0,0.6,0,0.9,0c0.6,0,1.1,0,1.7,0.1c1.1,0,2.1,0.1,2.9,0.1c1,0,1.8,0,2.3,0v0l0.6,0c0,0,0,0,0,0
		c0,0,0,0,0,0l0.6,0v0c0.5,0,1.3,0,2.3,0c0.9,0,1.9,0,2.9-0.1c0.5,0,1.1,0,1.7-0.1c0.3,0,0.6,0,0.9,0c0.3,0,0.6,0,0.9-0.1l0.2,0
		l0.1,0l0.1,0l0,0l0,0l0,0l0,0c0.2,0,0.3-0.1,0.5-0.2c0.3-0.1,0.5-0.3,0.8-0.5c0.5-0.4,0.8-0.8,1.2-1.3c0.1-0.1,0.1-0.3,0.2-0.3
		c0.1-0.1,0.2-0.1,0.3-0.2c0.2-0.1,0.4-0.2,0.7-0.3c0.4-0.2,0.9-0.3,1.3-0.5c0.8-0.3,1.5-0.5,2-0.6c0.5-0.1,0.8-0.2,0.8-0.2
		s-0.3,0-0.8,0.1C266,250.3,265.2,250.4,264.4,250.7z"/>
	<path id="XMLID_409_" fill="#C1272D" d="M226.2,261.5c0,0-0.7,3.1,0,4c0.7,0.9,7.4,0.8,8.3,0c0.9-0.8,0.4-3.6,0.4-3.6
		C232.2,261.9,226.2,261.5,226.2,261.5z"/>
	<path id="XMLID_408_" fill="#C1272D" d="M265,261.9c0,0-0.5,2.8,0.4,3.6c0.9,0.8,7.7,0.9,8.3,0c0.7-0.9,0-4,0-4
		S267.7,261.9,265,261.9z"/>
</g>
</svg>
