<svg xmlns="http://www.w3.org/2000/svg" viewBox="0 0 30 52.548">
  <defs>
    <style>
      .cls-1 {
        fill: #de0404;
      }
    </style>
  </defs>
  <path id="thermometer_hot" class="cls-1" d="M94.708,6.686v2.24H86.03V6.686Zm-3.639,4.881H86.03v2.24h5.039Zm-5.039,7.12h8.678V16.448H86.03Zm5.039,2.643H86.03v2.24h5.039ZM86.03,28.45h8.678v-2.24H86.03Zm1.353,12.76a11.337,11.337,0,1,1-17.076-9.77V5.739a5.739,5.739,0,1,1,11.477,0v25.7A11.279,11.279,0,0,1,87.383,41.211Zm-2.24,0A9.057,9.057,0,0,0,80.157,33.1l-.612-.311V5.74a3.5,3.5,0,0,0-7,0V32.793l-.612.311a9.094,9.094,0,1,0,13.209,8.107Zm-1.865,0a7.232,7.232,0,1,1-9.093-6.979l.415-.111V9.229h2.892V34.119l.415.112A7.231,7.231,0,0,1,83.278,41.211ZM76.4,36.39A1.447,1.447,0,0,0,74.676,35.3,5.945,5.945,0,0,0,70.02,41.13a1.445,1.445,0,0,0,2.889,0,3.108,3.108,0,0,1,2.4-3.012A1.451,1.451,0,0,0,76.4,36.39Z" transform="translate(-64.708)"/>
</svg>
