<?xml version="1.0" encoding="utf-8"?>
<!-- Generator: Adobe Illustrator 22.1.0, SVG Export Plug-In . SVG Version: 6.00 Build 0)  -->
<svg version="1.1" id="Layer_1" xmlns="http://www.w3.org/2000/svg" xmlns:xlink="http://www.w3.org/1999/xlink" x="0px" y="0px"
	 viewBox="0 0 75 75" style="enable-background:new 0 0 75 75;" xml:space="preserve">
<style type="text/css">
	.st0{stroke:#000000;stroke-width:2;stroke-miterlimit:10;}
</style>
<g>
	<path class="st0" d="M49.2,18c-0.9-0.6-1.9-0.2-2.6,0.6s-0.2,1.9,0.6,2.6c5.8,3.4,9.6,9.8,9.6,16.5c0,10.5-8.8,19-19,19
		s-19-8.8-19-19c0-6.6,3.8-13,9.6-16.5c0.9-0.6,1.1-1.7,0.6-2.6c-0.6-0.9-1.7-1.1-2.6-0.6c-6.7,4-11.1,11.5-11.1,19.6
		c0,12.6,10,22.9,22.9,22.9S61,50.5,61,37.6C60.6,29.7,56.3,22,49.2,18z"/>
	<path class="st0" d="M37.7,12.6c-1.1,0-1.7,0.9-1.7,1.7v23.3c0,1.1,0.9,1.7,1.7,1.7c0.9,0,1.7-0.9,1.7-1.7V14.3
		C39.4,13.5,38.8,12.6,37.7,12.6z"/>
</g>
</svg>
