<?xml version="1.0" encoding="utf-8"?>
<!-- Generator: Adobe Illustrator 22.1.0, SVG Export Plug-In . SVG Version: 6.00 Build 0)  -->
<svg version="1.1" id="Layer_1" xmlns="http://www.w3.org/2000/svg" xmlns:xlink="http://www.w3.org/1999/xlink" x="0px" y="0px"
	 viewBox="0 0 25 25" style="enable-background:new 0 0 25 25;" xml:space="preserve">
<g>
	<path d="M23.9,19.6L20.3,8.4c-0.2-0.5-0.6-0.8-1.1-0.8h-3.8c0.3-0.5,0.5-1.1,0.5-1.7c0-1.9-1.5-3.4-3.4-3.4c-1.9,0-3.4,1.5-3.4,3.4
		c0,0.6,0.2,1.2,0.5,1.7H5.8c-0.5,0-1,0.3-1.1,0.8L1.1,19.6c-0.2,0.8,0.3,1.6,1.1,1.6h20.6C23.6,21.1,24.2,20.3,23.9,19.6z
		 M10.7,5.8c0-1,0.8-1.8,1.8-1.8s1.8,0.8,1.8,1.8c0,0.9-0.6,1.6-1.4,1.7h-0.8C11.3,7.4,10.7,6.7,10.7,5.8z"/>
</g>
</svg>
