<?xml version="1.0" encoding="utf-8"?>
<!-- Generator: Adobe Illustrator 22.1.0, SVG Export Plug-In . SVG Version: 6.00 Build 0)  -->
<svg version="1.1" id="Layer_1" xmlns="http://www.w3.org/2000/svg" xmlns:xlink="http://www.w3.org/1999/xlink" x="0px" y="0px"
	 viewBox="0 0 25 25" style="enable-background:new 0 0 25 25;" xml:space="preserve">
<style type="text/css">
	.st0{fill:#FF0000;}
</style>
<g>
	<path class="st0" d="M18.7,8.5L18.7,8.5c0.1-0.1,0.2-0.3,0.2-0.3V4.4c0-0.3-0.3-0.5-0.5-0.5h-0.1c-0.2-0.6-0.5-1.1-1-1.4l-1.5-1
		C15.3,1.2,14.9,1,14.3,1h-3.6c-0.5,0-0.9,0.2-1.4,0.4l-1.5,1C7.3,2.8,7,3.3,6.8,3.9H6.7c-0.3,0-0.5,0.3-0.5,0.5v3.8
		c0,0.2,0.1,0.3,0.2,0.3L6.3,8.6c-0.1,0.1,0.3,2.6,0.3,2.6v4.6v0.5c-0.3,0-0.5,0.3-0.5,0.5v3.8c0,0.3,0.3,0.5,0.5,0.5h0.1
		C7,22.7,8.3,24,10,24h4.7c1.7,0,3-1.3,3.3-2.9h0.1c0.3,0,0.5-0.3,0.5-0.5v-3.9c0-0.3-0.3-0.5-0.5-0.5v-0.5v-4.5L18.7,8.5z M9.3,6.2
		C9.4,6,9.8,5.8,10.1,5.8h5.1c0.3,0,0.6,0.2,0.8,0.4c0.2,0.3,0.2,0.6,0,0.9L15.1,9c-0.2,0.3-0.5,0.5-0.8,0.5H11
		c-0.3,0-0.7-0.2-0.8-0.5L9.3,7.2C9.1,6.9,9.1,6.5,9.3,6.2z M16.3,18.8c-0.1,0.1-1.1,1.1-3.6,1.1S9,18.9,9,18.8
		c-0.2-0.2-0.2-0.3-0.1-0.5l0.9-1.9c0.1-0.3,0.4-0.3,0.7-0.3c0,0,0.8,0.4,2.2,0.4c1.3,0,2.1-0.4,2.2-0.4c0.1-0.1,0.3-0.1,0.3,0
		c0.1,0,0.3,0.1,0.3,0.3l0.9,1.9C16.5,18.6,16.5,18.8,16.3,18.8z"/>
	<rect x="4" y="8" transform="matrix(0.8865 0.4628 -0.4628 0.8865 6.323 -0.6947)" class="st0" width="1.2" height="9"/>
	<rect x="20" y="8" transform="matrix(-0.8865 0.4628 -0.4628 -0.8865 44.6221 14.1346)" class="st0" width="1.2" height="9"/>
</g>
</svg>
