<?xml version="1.0" encoding="utf-8"?>
<!-- Generator: Adobe Illustrator 22.1.0, SVG Export Plug-In . SVG Version: 6.00 Build 0)  -->
<svg version="1.1" id="Layer_1" xmlns="http://www.w3.org/2000/svg" xmlns:xlink="http://www.w3.org/1999/xlink" x="0px" y="0px"
	 viewBox="0 0 25 25" style="enable-background:new 0 0 25 25;" xml:space="preserve">
<style type="text/css">
	.st0{fill:#50C800;stroke:#FFFFFF;stroke-miterlimit:10;}
</style>
<path id="XMLID_7_" class="st0" d="M17,10.6c0.7-0.2,1.4-0.1,2.1,0c0.5,0.1,1,0.2,1.6,0.2c0.8,0,1.5-0.2,2.2-0.6
	c1.1-0.7,1.9-1.9,2-3.2c0.2-1.5-0.4-3-1.6-4.3c-1.2-1.2-2.8-1.9-4.6-1.9c-1.8,0-3.4,0.7-4.7,1.9c-1.6,1.6-2.6,4.1-2.6,6.4
	c-0.4-0.3-0.7-0.6-0.9-1.1c-0.3-0.7-0.1-1.4,0-2.1c0.2-1,0.5-2.3-0.4-3.8c-0.8-1.3-2.2-2-3.7-2c-1.3,0-2.7,0.6-3.7,1.6
	c-2.5,2.5-2.5,6.7,0.1,9.2c1.5,1.5,4.1,2.6,6.4,2.6C9,14,8.6,14.4,8.1,14.5c-0.7,0.2-1.4,0.1-2.1,0c-0.5-0.1-1-0.2-1.6-0.2
	c-0.8,0-1.5,0.2-2.2,0.6c-1.1,0.7-1.9,1.9-2,3.2c-0.2,1.5,0.4,3,1.6,4.3c1.2,1.2,2.8,1.9,4.6,1.9c1.8,0,3.4-0.7,4.7-1.9
	c1.6-1.6,2.6-4.1,2.6-6.4c0.4,0.3,0.7,0.6,0.9,1.1c0.3,0.7,0.1,1.4,0,2.1c-0.2,1-0.5,2.3,0.4,3.8c0.8,1.3,2.2,2,3.7,2
	c1.3,0,2.7-0.6,3.7-1.6c2.5-2.5,2.5-6.7-0.1-9.2c-1.5-1.5-4.1-2.6-6.4-2.6C16.2,11.1,16.6,10.8,17,10.6z M13.7,13.7
	c-0.6,0.6-1.6,0.6-2.1,0c-0.6-0.6-0.6-1.5,0-2.1c0.3-0.3,0.7-0.4,1.1-0.4c0.4,0,0.8,0.2,1.1,0.4C14.2,12.1,14.2,13.1,13.7,13.7z"/>
</svg>
