<?xml version="1.0" encoding="utf-8"?>
<!-- Generator: Adobe Illustrator 22.1.0, SVG Export Plug-In . SVG Version: 6.00 Build 0)  -->
<svg version="1.1" id="Layer_1" xmlns="http://www.w3.org/2000/svg" xmlns:xlink="http://www.w3.org/1999/xlink" x="0px" y="0px"
	 viewBox="0 0 25 25" style="enable-background:new 0 0 25 25;" xml:space="preserve">
<style type="text/css">
	.st0{fill:#FF0100;}
</style>
<g>
	<g>
		<path class="st0" d="M12.3,13.2c0.5,0,0.9-0.2,1.3-0.5c0.4-0.4,0.5-0.8,0.5-1.3v-9c0-0.5-0.2-0.9-0.5-1.3
			c-0.4-0.4-0.8-0.5-1.3-0.5c-0.5,0-0.9,0.2-1.3,0.5c-0.4,0.4-0.5,0.8-0.5,1.3v9c0,0.5,0.2,0.9,0.5,1.3
			C11.4,13.1,11.8,13.2,12.3,13.2z"/>
		<path class="st0" d="M21.9,8.4c-0.8-1.5-1.8-2.8-3.2-3.8c-0.4-0.3-0.8-0.4-1.3-0.4c-0.5,0.1-0.9,0.3-1.2,0.7
			c-0.3,0.4-0.4,0.8-0.3,1.3c0.1,0.5,0.3,0.9,0.7,1.2c0.9,0.7,1.6,1.5,2.1,2.5c0.5,1,0.7,2.1,0.7,3.2c0,1-0.2,1.9-0.6,2.8
			c-0.4,0.9-0.9,1.6-1.5,2.3c-0.6,0.6-1.4,1.2-2.3,1.5c-0.9,0.4-1.8,0.6-2.8,0.6c-1,0-1.9-0.2-2.8-0.6c-0.9-0.4-1.6-0.9-2.3-1.5
			c-0.6-0.6-1.2-1.4-1.5-2.3c-0.4-0.9-0.6-1.8-0.6-2.8c0-1.1,0.3-2.2,0.7-3.2C6.4,9,7.1,8.2,8,7.5c0.4-0.3,0.6-0.7,0.7-1.2
			c0.1-0.5,0-0.9-0.3-1.3C8.1,4.6,7.7,4.4,7.2,4.3C6.7,4.2,6.3,4.3,5.8,4.6c-1.4,1-2.4,2.3-3.2,3.8c-0.8,1.5-1.1,3.1-1.1,4.8
			c0,1.5,0.3,2.9,0.9,4.2c0.6,1.3,1.3,2.5,2.3,3.4c1,1,2.1,1.7,3.4,2.3c1.3,0.6,2.7,0.9,4.2,0.9c1.5,0,2.9-0.3,4.2-0.9
			c1.3-0.6,2.5-1.3,3.4-2.3c1-1,1.7-2.1,2.3-3.4c0.6-1.3,0.9-2.7,0.9-4.2C23.1,11.5,22.7,9.9,21.9,8.4z"/>
	</g>
</g>
</svg>
