<?xml version="1.0" encoding="utf-8"?>
<!-- Generator: Adobe Illustrator 19.0.0, SVG Export Plug-In . SVG Version: 6.00 Build 0)  -->
<svg version="1.0" id="Layer_1" xmlns="http://www.w3.org/2000/svg" xmlns:xlink="http://www.w3.org/1999/xlink" x="0px" y="0px"
	 viewBox="0 0 500 500" enable-background="new 0 0 500 500" xml:space="preserve">
<path id="XMLID_877_" fill="#FFFFFF" d="M250.3,230c-11.3,0-20.5,9.2-20.5,20.5c0,11.3,9.2,20.5,20.5,20.5s20.5-9.2,20.5-20.5
	C270.7,239.2,261.6,230,250.3,230z M250.3,236.1c3.4,0,6.1,2.7,6.1,6.1c0,3.4-2.7,6.1-6.1,6.1c-3.4,0-6.1-2.7-6.1-6.1
	C244.1,238.9,246.9,236.1,250.3,236.1z M250.3,265.2c-5.1,0-9.6-2.6-12.3-6.6c0.1-4.1,8.2-6.3,12.3-6.3c4.1,0,12.2,2.2,12.3,6.3
	C259.9,262.6,255.4,265.2,250.3,265.2z"/>
</svg>
