<?xml version="1.0" encoding="utf-8"?>
<!-- Generator: Adobe Illustrator 22.1.0, SVG Export Plug-In . SVG Version: 6.00 Build 0)  -->
<svg version="1.1" id="Layer_1" xmlns="http://www.w3.org/2000/svg" xmlns:xlink="http://www.w3.org/1999/xlink" x="0px" y="0px"
	 viewBox="0 0 54.7 54.7" style="enable-background:new 0 0 54.7 54.7;" xml:space="preserve">
<style type="text/css">
	.st0{fill:#FFFFFF;}
	.st1{font-family:'MyriadPro-Regular';}
	.st2{font-size:12.5775px;}
</style>
<path id="XMLID_127_" class="st0" d="M28.4,1C18.2,1,9.8,9.3,9.8,19.6c0,10.2,8.3,18.6,18.6,18.6c10.2,0,18.6-8.3,18.6-18.6
	S38.6,1,28.4,1z M28.4,6.6c3,0,5.6,2.5,5.6,5.6c0,3-2.5,5.6-5.6,5.6c-3,0-5.6-2.5-5.6-5.6S25.3,6.6,28.4,6.6z M28.4,32.9
	c-4.6,0-8.7-2.4-11.1-6c0.1-3.7,7.4-5.7,11.1-5.7s11,2,11.1,5.7C37.1,30.5,33,32.9,28.4,32.9z"/>
<text transform="matrix(1 0 0 1 10.784 50.8568)" class="st0 st1 st2">Admin</text>
</svg>
