<?xml version="1.0" encoding="utf-8"?>
<!-- Generator: Adobe Illustrator 22.1.0, SVG Export Plug-In . SVG Version: 6.00 Build 0)  -->
<svg version="1.1" id="Layer_1" xmlns="http://www.w3.org/2000/svg" xmlns:xlink="http://www.w3.org/1999/xlink" x="0px" y="0px"
	 viewBox="0 0 56 56" style="enable-background:new 0 0 56 56;" xml:space="preserve">
<style type="text/css">
	.st0{fill:#FFFFFF;}
	.st1{font-family:'MyriadPro-Regular';}
	.st2{font-size:12.5775px;}
</style>
<path id="XMLID_149_" class="st0" d="M23.5,38.1V26c0-0.2,0.2-0.4,0.4-0.4h6.2c0.2,0,0.4,0.2,0.4,0.4v12.2c0,0.2,0.2,0.4,0.4,0.4
	h9.2c0.2,0,0.4-0.2,0.4-0.4V22c0-0.2,0.2-0.4,0.4-0.4h4.8c0.4,0,0.6-0.4,0.3-0.7l-18.1-18c-0.2-0.2-0.4-0.2-0.6,0l-18.1,18
	c-0.3,0.3-0.1,0.7,0.3,0.7h3.6c0.2,0,0.4,0.2,0.4,0.4v16.2c0,0.2,0.2,0.4,0.4,0.4h9.2C23.3,38.6,23.5,38.4,23.5,38.1z"/>
<text transform="matrix(1 0 0 1 11.6519 51.8568)" class="st0 st1 st2">Home</text>
</svg>
