<?xml version="1.0" encoding="utf-8"?>
<!-- Generator: Adobe Illustrator 22.1.0, SVG Export Plug-In . SVG Version: 6.00 Build 0)  -->
<svg version="1.1" id="Layer_1" xmlns="http://www.w3.org/2000/svg" xmlns:xlink="http://www.w3.org/1999/xlink" x="0px" y="0px"
	 viewBox="0 0 110 16.3" style="enable-background:new 0 0 110 16.3;" xml:space="preserve">
<style type="text/css">
	.st0{clip-path:url(#SVGID_10_);}
	.st1{clip-path:url(#SVGID_11_);}
	.st2{clip-path:url(#SVGID_12_);}
	.st3{clip-path:url(#SVGID_13_);}
	.st4{clip-path:url(#SVGID_14_);}
	.st5{clip-path:url(#SVGID_15_);}
	.st6{clip-path:url(#SVGID_16_);}
	.st7{clip-path:url(#SVGID_17_);}
	.st8{clip-path:url(#SVGID_18_);}
	.st9{fill:url(#SVGID_19_);}
	.st10{fill:url(#SVGID_20_);}
	.st11{opacity:0.25;}
	.st12{fill:#1B171B;}
	.st13{opacity:0.7;clip-path:url(#SVGID_18_);fill:url(#SVGID_21_);enable-background:new    ;}
	.st14{opacity:0.7;clip-path:url(#SVGID_18_);fill:url(#SVGID_22_);enable-background:new    ;}
	.st15{opacity:0.7;clip-path:url(#SVGID_18_);fill:url(#SVGID_23_);enable-background:new    ;}
	.st16{opacity:0.55;clip-path:url(#SVGID_18_);fill:url(#SVGID_24_);enable-background:new    ;}
	.st17{opacity:0.3;clip-path:url(#SVGID_18_);fill:url(#SVGID_25_);enable-background:new    ;}
	.st18{opacity:0.3;clip-path:url(#SVGID_18_);fill:url(#SVGID_26_);enable-background:new    ;}
	.st19{opacity:0.3;clip-path:url(#SVGID_18_);fill:url(#SVGID_27_);enable-background:new    ;}
	.st20{opacity:0.7;clip-path:url(#SVGID_18_);fill:url(#SVGID_28_);enable-background:new    ;}
</style>
<g>
	<g>
		<defs>
			<rect id="SVGID_1_" x="0.1" y="0" width="109.9" height="16.2"/>
		</defs>
		<defs>
			<rect id="SVGID_2_" x="0.1" y="0" width="109.9" height="16.2"/>
		</defs>
		<defs>
			<rect id="SVGID_3_" x="0.1" y="0" width="109.9" height="16.2"/>
		</defs>
		<defs>
			<rect id="SVGID_4_" x="0.1" y="0" width="109.9" height="16.2"/>
		</defs>
		<defs>
			<rect id="SVGID_5_" x="0.1" y="0" width="109.9" height="16.2"/>
		</defs>
		<defs>
			<rect id="SVGID_6_" x="0.1" y="0" width="109.9" height="16.2"/>
		</defs>
		<defs>
			<rect id="SVGID_7_" x="0.1" y="0" width="109.9" height="16.2"/>
		</defs>
		<defs>
			<rect id="SVGID_8_" x="0.1" y="0" width="109.9" height="16.2"/>
		</defs>
		<defs>
			<rect id="SVGID_9_" x="0.1" y="0" width="109.9" height="16.2"/>
		</defs>
		<clipPath id="SVGID_10_">
			<use xlink:href="#SVGID_1_"  style="overflow:visible;"/>
		</clipPath>
		<clipPath id="SVGID_11_" class="st0">
			<use xlink:href="#SVGID_2_"  style="overflow:visible;"/>
		</clipPath>
		<clipPath id="SVGID_12_" class="st1">
			<use xlink:href="#SVGID_3_"  style="overflow:visible;"/>
		</clipPath>
		<clipPath id="SVGID_13_" class="st2">
			<use xlink:href="#SVGID_4_"  style="overflow:visible;"/>
		</clipPath>
		<clipPath id="SVGID_14_" class="st3">
			<use xlink:href="#SVGID_5_"  style="overflow:visible;"/>
		</clipPath>
		<clipPath id="SVGID_15_" class="st4">
			<use xlink:href="#SVGID_6_"  style="overflow:visible;"/>
		</clipPath>
		<clipPath id="SVGID_16_" class="st5">
			<use xlink:href="#SVGID_7_"  style="overflow:visible;"/>
		</clipPath>
		<clipPath id="SVGID_17_" class="st6">
			<use xlink:href="#SVGID_8_"  style="overflow:visible;"/>
		</clipPath>
		<clipPath id="SVGID_18_" class="st7">
			<use xlink:href="#SVGID_9_"  style="overflow:visible;"/>
		</clipPath>
		<g class="st8">
			
				<linearGradient id="SVGID_19_" gradientUnits="userSpaceOnUse" x1="-375.0003" y1="1415.1" x2="-375.0003" y2="1431.2876" gradientTransform="matrix(-1 0 0 1 -319.9503 -1415.05)">
				<stop  offset="0" style="stop-color:#1B171B"/>
				<stop  offset="2.936574e-02" style="stop-color:#282529"/>
				<stop  offset="0.1742" style="stop-color:#68676A"/>
				<stop  offset="0.2962" style="stop-color:#959598"/>
				<stop  offset="0.3893" style="stop-color:#B2B3B5"/>
				<stop  offset="0.4424" style="stop-color:#BCBDBF"/>
				<stop  offset="0.5185" style="stop-color:#B8B8BB"/>
				<stop  offset="0.6062" style="stop-color:#ACABAD"/>
				<stop  offset="0.6998" style="stop-color:#939396"/>
				<stop  offset="0.7975" style="stop-color:#747477"/>
				<stop  offset="0.8983" style="stop-color:#4C4A4D"/>
				<stop  offset="1" style="stop-color:#1B171B"/>
			</linearGradient>
			<rect x="0.1" y="0" class="st9" width="109.9" height="16.2"/>
			
				<linearGradient id="SVGID_20_" gradientUnits="userSpaceOnUse" x1="3.147761e-02" y1="57.697" x2="16.2191" y2="57.697" gradientTransform="matrix(6.123234e-17 1 1 -6.123234e-17 -1.95 -4.999828e-02)">
				<stop  offset="0" style="stop-color:#1B171B;stop-opacity:0"/>
				<stop  offset="0.1694" style="stop-color:#69676A;stop-opacity:0.2768"/>
				<stop  offset="0.3257" style="stop-color:#AAA9AA;stop-opacity:0.5321"/>
				<stop  offset="0.456" style="stop-color:#D7D8D8;stop-opacity:0.745"/>
				<stop  offset="0.5554" style="stop-color:#F4F4F4;stop-opacity:0.9074"/>
				<stop  offset="0.6121" style="stop-color:#FFFFFF"/>
				<stop  offset="0.656" style="stop-color:#FAFBFC;stop-opacity:0.887"/>
				<stop  offset="0.7065" style="stop-color:#ECECED;stop-opacity:0.7566"/>
				<stop  offset="0.7605" style="stop-color:#D6D5D6;stop-opacity:0.6174"/>
				<stop  offset="0.8169" style="stop-color:#B6B5B6;stop-opacity:0.4721"/>
				<stop  offset="0.8751" style="stop-color:#8C8B8D;stop-opacity:0.3221"/>
				<stop  offset="0.9348" style="stop-color:#5B595C;stop-opacity:0.1681"/>
				<stop  offset="0.9948" style="stop-color:#1F1D20;stop-opacity:1.352042e-02"/>
				<stop  offset="1" style="stop-color:#1B171B;stop-opacity:0"/>
			</linearGradient>
			<rect x="0.8" y="0" class="st10" width="109.9" height="16.2"/>
			<g class="st11">
				<g>
					<path class="st12" d="M1.7,2.9c0,0.8,0,1.6,0,2.4c0,0.1,0,0.1,0,0.2c-0.2,0.6,0,1.2,0,1.7c0,0,0,0.1,0,0.1c0,0.1,0,0.1,0,0.2
						v0.1v0.1v0.1c0,0.2-0.2,0.3,0,0.5C2,8.9,2,9.3,1.7,9.7c0,0.1,0,0.1,0,0.2c0,0.2,0,0.3,0,0.5c0,0,0,0.1,0,0.1v0.9v0.1
						c0,0.1,0,0.2,0,0.4c0,0,0,0,0,0.1c0,0.2,0,0.4,0,0.6c0,0,0,0.1,0,0.1c0,0.2,0,0.4,0,0.7"/>
					<path class="st12" d="M2.2,2.7c0,0.9,0,1.7,0,2.6c0,0.1,0,0.1,0,0.2c-0.2,0.5,0,1.1,0,1.7v0.2v0.3c0,0.1,0,0.1,0,0.2
						C2,8.5,2.4,9,2.2,9.5c0,0,0,0.1,0,0.1v1.7c0,0,0,0.1,0,0.1c0,0.7-0.2,1.4,0,2.2"/>
					<path class="st12" d="M2.7-0.1c0,0,0,0.1,0,0.1c0,0,0,0.1,0,0.1c0,0.2-0.2,0.5,0,0.7V1v0.8V2c0,0.4,0.2,0.8,0.2,1.2
						c0,0.7,0,1.5-0.2,2.2c0,0.1,0,0.1,0,0.2c0.2,0.5,0,1.1,0,1.6c0,0.1,0,0.1,0,0.2V8c0,0.1,0,0.1,0,0.2c0,0.4,0.2,0.8,0,1.2v0.2
						V11c0,0.1,0,0.1,0,0.2c0,0.8-0.2,1.5,0,2.4c0,0.1,0,0.1,0,0.2c0,0.9,0,1.9,0,2.7"/>
					<path class="st12" d="M3.1,0.4V2v0.1c0,0.4,0.2,0.8,0.2,1.2c0,0.3,0,0.7,0,1c0,0.1,0,0.1,0,0.2c0,0.3,0,0.7,0,1
						c0,0.1,0,0.1,0,0.2c0,0.1,0,0.3,0,0.4v0.1v2.1c0,0.1,0,0.1,0,0.2c0,0.2,0,0.4,0,0.6v0.2v1.8c0,0.1,0,0.1,0,0.2
						c0,0.7-0.2,1.4,0,2.2c0,0.1,0,0.1,0,0.2c0,0.7,0,1.4,0,2.1"/>
					<path class="st12" d="M3.6,3c0.2,0.4,0.2,0.8,0.2,1.2c0,0.1,0,0.1,0,0.2c0,0.4,0,0.9-0.2,1.3c0,0.1,0,0.1,0,0.2
						c0,0,0,0.1,0,0.1v0.1v1c0,0.1,0,0.1,0,0.2c0,0.2,0,0.4,0,0.6c0,0.1,0,0.1,0,0.2v3c0,0,0,0.1,0,0.1c0,0.5-0.2,1.1,0,1.7"/>
					<path class="st12" d="M3.8-1.2v2.3v0.1c0,0.4,0,0.9,0,1.3c0,0.1,0,0.1,0,0.2C4,3.1,4,3.5,3.8,3.9c0,0.1,0,0.1,0,0.2
						c0,0.5,0,1.1-0.2,1.6c0,0.1,0,0.1,0,0.2v0.2v4.6v0.1c0,0.1,0,0.1,0,0.2c0,0.1,0,0.1,0,0.2c0,0.7,0,1.3,0,2c0,0.1,0,0.1,0,0.2
						c0,0,0,0.1,0,0.1v0.1c-0.2,0.3,0,0.6,0,0.9c0,0,0,0.1,0,0.1c0,0.9,0.5,1.8,0,2.7c0,0.1,0,0.1,0,0.1"/>
					<path class="st12" d="M4.3,0.9v0.3v0.1c0,0.4,0,0.8,0,1.1c0,0.1,0,0.1,0,0.2c0,0.4,0,0.9,0,1.3c0,0.1,0,0.1,0,0.2
						c0,0.6,0,1.2,0,1.9v0.2v0.5v0.1c0,0.2,0,0.4,0,0.6c0,0,0,0,0,0.1c0,0.1,0,0.1,0,0.2c0,0,0,0,0,0.1v2.9v0.1c0,0.2,0,0.4,0,0.6
						c0,0.1,0,0.1,0,0.2c0,0.4,0,0.9,0,1.4c0,0.1,0,0.1,0,0.2c0,0.1,0,0.2,0,0.3c0,0,0,0.1,0,0.1c-0.2,0.3,0.2,0.7,0,1.1
						c0,0,0,0.1,0,0.1c0,0.2,0,0.5,0,0.7"/>
					<path class="st12" d="M4.7-0.1c0,0.2,0.2,0.3,0,0.5c0,0,0,0,0,0.1v0.1c0,0,0,0,0,0.1c0,0.1,0,0.2,0,0.3c0,0.1,0,0.1,0,0.2
						c0,0.4,0,0.8,0,1.1c0,0.1,0,0.1,0,0.2c0,0.5,0,1,0,1.5c0,0.1,0,0.1,0,0.2c0,0.5-0.2,1.1,0,1.7c0,0,0,0.1,0,0.1v0.6v0.1
						c-0.2,0.2,0,0.4,0,0.7c0,0,0,0,0,0.1c0,0.1,0,0.2,0,0.3c0,0,0,0.1,0,0.1v2.7v0.1c0,0.2,0,0.4,0,0.6c0,0.1,0,0.1,0,0.2
						c0,0.4,0,0.8,0,1.2c0,0.1,0,0.1,0,0.2c0,0.2,0,0.5,0,0.7c0,0,0,0.1,0,0.1c-0.2,0.2,0,0.4,0,0.7c0,0,0,0.1,0,0.1
						c-0.2,0.6,0,1.2,0,1.8"/>
					<path class="st12" d="M5.2,1.7c0,0.2,0,0.4,0,0.7c0,0.1,0,0.1,0,0.2C5,3,5,3.4,5,3.9C5,4,5,4,5,4.1c0,0.6,0,1.1,0,1.7
						c0,0,0,0.1,0,0.1c0,0.2,0,0.4,0,0.6v0.1c0,0,0,0,0,0.1c0,0.2,0,0.4,0,0.5c0,0,0,0,0,0.1c0,0.1,0,0.2,0,0.3v0v3.7
						c0,0.2,0,0.3,0,0.5c0,0.2,0,0.3,0,0.5c0,0.1,0,0.3,0,0.4v0.8c0,0.1,0,0.1,0,0.2c0,0.3,0.2,0.5,0,0.8c0,0,0,0.1,0,0.1V15"/>
					<path class="st12" d="M5.7-0.9c0,0.1,0,0.3,0.2,0.4c0,0,0,0.1,0,0.1C5.7-0.3,5.7-0.2,5.7-0.2c0,0.3,0.2,0.5,0,0.8
						c0,0,0,0.1,0,0.1c0,0.5,0,1,0,1.6c0,0.1,0,0.1,0,0.2c-0.2,0.5-0.2,1.1,0,1.6c0,0.1,0,0.1,0,0.2c0,0.5-0.2,1,0,1.5
						c0,0.1,0,0.1,0,0.2c0,0.2,0,0.4,0,0.7c0,0,0,0.1,0,0.1v7c0,0,0,0.1,0,0.1c0,0.1,0,0.2,0,0.3c0,0.1,0,0.1,0,0.2c0,1-0.2,2,0,3"
						/>
					<path class="st12" d="M6.1,0c0.2,0.1,0.2,0.3,0.2,0.4c0,0.1,0,0.1,0,0.2c0,0.5,0,1.1,0,1.6c0,0.1,0,0.1,0,0.2
						c-0.2,0.5-0.2,1.1,0,1.7c0,0.1,0,0.1,0,0.2c0,0.4,0,0.9,0,1.3c0,0.1,0,0.1,0,0.2c0,0.3,0,0.7,0,1v0.2v4.9v0.1
						c0,0.4,0,0.9,0,1.4c0,0.1,0,0.1,0,0.2c0,0.2,0,0.4,0,0.7c0,0.1,0,0.1,0,0.2c0,0.5-0.2,1,0,1.5"/>
					<path class="st12" d="M6.6,2.2c0,0.1,0,0.3,0,0.4c0,0.1,0,0.1,0,0.2c0,0.4,0,0.8,0,1.2c0,0.1,0,0.1,0,0.2c0,0.2,0,0.4,0,0.6
						c0,0.1,0,0.1,0,0.2c0,0.1,0,0.1,0,0.2c0,0.1,0,0.1,0,0.2c0,0.5,0,1.1,0,1.6v0.2v4.7V12c0,0.6,0,1.3,0,1.9"/>
					<path class="st12" d="M6.8,0.7c0,0.7,0,1.4,0,2.1c0,0.1,0,0.1,0,0.2c0,0.3,0,0.5,0,0.8c0,0.1,0,0.1,0,0.2c0,1,0,1.9,0,2.9v0.2
						v4.3v0.1c0,1.3,0,2.7,0,4"/>
					<path class="st12" d="M7.3,0.9c0,2,0,4,0,6.1v0.2v4.4v0.1c0,0,0,0.1,0,0.1c0,0.3,0,0.5,0,0.8c0,0.1,0,0.1,0,0.2
						c0,0.2,0,0.3,0,0.5c0,0.1,0,0.1,0,0.2c0,0.7,0,1.4,0,2.2"/>
					<path class="st12" d="M7.8-0.7v1.2c0,0.1,0,0.1,0,0.2c0,2,0,4,0,6c0,0.1,0,0.1,0,0.2v1.3c0,0,0,0.1,0,0.1c0,1,0,1.9,0,2.9v0.1
						c0,0.5,0,1,0,1.4c0,0.1,0,0.1,0,0.2c0,0.1,0,0.1,0,0.2c0,1.2-0.5,2.3,0,3.5"/>
					<path class="st12" d="M8.2,2.1c0,0.3,0,0.6,0,0.9c0,0,0,0.1,0,0.1v0.1c0,0,0,0.1,0,0.1c0,1.1,0,2.2,0,3.3c0,0.1,0,0.1,0,0.2
						v1.3v0.1c0,1,0,2,0,3c0,0.1,0,0.1,0,0.2c0,0.5,0,1.1,0,1.6v0.2c0,0.3,0,0.6,0,0.9"/>
					<path class="st12" d="M8.7,0.7c0,0.1,0,0.2,0,0.3v0v3.2v0.1v0.1c0,0.2,0,0.3,0,0.4c0,0.1,0,0.1,0,0.2c0,0.4,0,0.9,0,1.3v0.2V8
						c0,0,0,0.1,0,0.1c0,0.3,0,0.7,0,1c0,0.1,0,0.1,0,0.2c0,0.4,0,0.9,0,1.3c0,0.1,0,0.2,0,0.3c0,0.8,0,1.6,0,2.5c0,0.1,0,0.1,0,0.2
						c0,0.7-0.2,1.3,0,1.9"/>
					<path class="st12" d="M9.2,2.7v1.6v0.1c0,0.3,0,0.7,0,1v0c0,0.1,0,0.3,0,0.4c0,0,0,0.1,0,0.1c0,0.1,0,0.2,0,0.3v0.1v1
						c0,0,0,0.1,0,0.1c0,0.1,0,0.2,0,0.3v0.1V8c0,0,0,0.1,0,0.1c0,0.2,0,0.4,0,0.6c0,0.1,0,0.1,0,0.2c0,0.2,0,0.3,0,0.5
						c0,0.1,0,0.1,0,0.2c0,0.2,0,0.4,0,0.7c0,0.1,0,0.1,0,0.2c0,0.2,0,0.3,0,0.5c0,0.1,0,0.1,0,0.2c0.2,0.7,0,1.3,0,2
						c0,0.1,0,0.1,0,0.2c0,0.1,0,0.1,0,0.2"/>
					<path class="st12" d="M9.6-0.2v0.6c0,0,0,0,0,0.1c0,0.2,0,0.4,0,0.5v0v3.2v0.1c0,0.3,0,0.6,0,0.9c0,0,0,0.1,0,0.1
						C9.4,5.6,9.9,5.8,9.6,6c0,0,0,0,0,0.1c0,0,0,0,0,0.1v1v0.1C9.4,7.5,9.9,7.7,9.6,8c0,0,0,0,0,0.1c0,0.2,0,0.4,0,0.6v0.2v0.2
						c0,0.1,0,0.1,0,0.2c0,0.3,0,0.7,0,1c0,0.1,0,0.2,0,0.3c0.2,1.9,0,3.9,0,5.8c0,0.1,0,0.2,0,0.2"/>
					<path class="st12" d="M9.9,2.5v2c0,0,0,0.1,0,0.1c0,0.2,0,0.4,0,0.7c0,0,0,0,0,0.1c-0.2,0.2,0.2,0.4,0,0.6c0,0,0,0.1,0,0.1v0.1
						v1.2c0,0,0,0,0,0.1c0,0.2,0.2,0.4,0,0.6c0,0,0,0,0,0.1c0,0.2,0,0.3,0,0.5c0,0.1,0,0.1,0,0.2c0,0.1,0,0.1,0,0.2
						c0,0.1,0,0.1,0,0.2c-0.2,0.5,0.2,1.1,0,1.6c0,0.1,0,0.1,0,0.2s0,0.1,0,0.2c0.2,0.6,0,1.2,0,1.9v0.1v0.6"/>
					<path class="st12" d="M10.3-1v5.6v0.1c0,0.2,0,0.5,0,0.8c0,0,0,0,0,0.1c0,0.1,0,0.3,0,0.4v0.1v1.5c0,0,0,0,0,0.1
						c0,0.1,0,0.2,0,0.3v0.1V8c0,0,0,0.1,0,0.1c0,0.1,0,0.3,0,0.4c0,0.1,0,0.1,0,0.2s0,0.1,0,0.2c0,0.1,0,0.1,0,0.2
						c-0.2,0.4,0,0.9,0.2,1.4c0,0.1,0,0.1,0,0.2c-0.2,1.9,0,3.8,0,5.8c0,0.1,0,0.1,0,0.2v0.9"/>
					<path class="st12" d="M10.8-0.8v8.7v0.2c0,0.2,0,0.4,0,0.6v0.2V9c0,0.1,0,0.1,0,0.2c-0.2,0.4,0.2,0.9,0.2,1.3
						c0,0.1,0,0.2,0,0.3c-0.2,1.9,0,3.8,0,5.7v0.1v0.3"/>
					<path class="st12" d="M11.3-1v9.3v0.2c0,0.1,0,0.1,0,0.2s0,0.1,0,0.2c0,0.1,0,0.1,0,0.2c0,0.1,0,0.1,0,0.2
						c-0.2,0.4,0.2,0.8,0.2,1.2c0,0.1,0,0.2,0,0.3c-0.2,1.8,0,3.6,0,5.5c0,0.1,0,0.1,0,0.2v0.9"/>
					<path class="st12" d="M11.7,0.1v8.7v0.2c0,0.1,0,0.1,0,0.2c0,0,0,0.1,0,0.1c-0.2,0.5,0.2,1,0,1.5c0,0,0,0.1,0,0.1
						c0,0.1,0,0.1,0,0.2c0,1,0,2,0,2.9c0,0.1,0,0.1,0,0.2s0,0.1,0,0.2c0,0.6,0,1.1,0,1.7c0,0.1,0,0.1,0,0.2c0,0.1,0,0.1,0,0.2"/>
					<path class="st12" d="M12.2,2.3v1.2c0,0.1,0,0.1,0,0.2c0,0.2,0,0.5,0,0.8c0,0,0,0.1,0,0.1v4.7c0,0.1,0,0.1,0,0.1
						c-0.2,0.4,0.2,0.9,0,1.3c0,0,0,0.1,0,0.1c0,0.1,0.2,0.3,0,0.4v0.1v0.1v0.2c0,0.8,0,1.6,0,2.5"/>
					<path class="st12" d="M12.4,2.7v0.5c0,0,0,0.1,0,0.1c0,0,0,0.1,0,0.1c0,0,0,0.1,0,0.1c0.2,0.4,0.2,0.8,0,1.2c0,0.1,0,0.1,0,0.2
						v4.6c0,0.1,0,0.1,0,0.2c0,0.2,0,0.4,0,0.6c0,0.1,0,0.1,0,0.2v0.1c-0.2,0.2,0,0.4,0,0.6v0.1v0.1v0.1c0,0.7,0,1.3,0,2"/>
					<path class="st12" d="M12.9-0.4c0,0.1,0,0.1,0,0.2c0,0.1,0,0.1,0,0.2c0,0.4,0,0.9,0,1.3c0,0,0,0.1,0,0.1
						c-0.2,0.2,0.2,0.4,0,0.7c0,0,0,0.1,0,0.1c0,0.3,0,0.5,0,0.8c0,0,0,0.1,0,0.1c0,0.1,0,0.1,0,0.2s0,0.1,0,0.2
						c0.5,0.4,0.2,0.9,0,1.3c0,0.1,0,0.1,0,0.2v0.1v0.1c0,0.3,0,0.7,0,1v0.1v5v0.1c0,1.9,0,3.8,0,5.7"/>
					<path class="st12" d="M13.3,0.6c0,0.3,0,0.5,0,0.8c0,0,0,0.1,0,0.1c0,0.2,0.2,0.4,0,0.7c0,0,0,0.1,0,0.1c0,0.2,0,0.5,0,0.7
						c0,0,0,0.1,0,0.1c0,0.1,0,0.1,0,0.2c0.2,0.6,0.2,1.1,0,1.7c0,0,0,0.1,0,0.1c0,0.1,0,0.1,0,0.2c0,0.3,0,0.7,0,1v0.1v4.9v0.1
						c0,0.2,0,0.4,0,0.6v0.2c0,1.4,0,2.7,0,4.1"/>
					<path class="st12" d="M13.8,2.3c0,0.2,0,0.4,0,0.6c0,0,0,0.1,0,0.1c0,0.1,0,0.1,0,0.2c0.2,0.5,0,1.1,0,1.7c0,0.1,0,0.1,0,0.2
						c0,0.5,0,1.1,0,1.6v0.1v1.1v0.2c0,1,0,2,0,3c0,0.1,0,0.1,0,0.2s0,0.1,0,0.2c0,0.1,0,0.1,0,0.2c0,0.8,0,1.6,0,2.4"/>
					<path class="st12" d="M14.3,2.9c0,0.1,0,0.2,0,0.2c0,0,0,0.1,0,0.1c0,0.5,0,1.1,0,1.7c0,0.1,0,0.1,0,0.2c0,0.5,0,1,0,1.5
						c0,0,0,0.1,0,0.1c0,0.1,0,0.2,0,0.4v0.1V8v0.1c0,1,0,2,0,2.9c0,0.1,0,0.1,0,0.2c0,0.1,0,0.1,0,0.2s0,0.1,0,0.2
						c0,0.6,0,1.1,0,1.7"/>
					<path class="st12" d="M14.7,2.7c0,0.1,0,0.2,0,0.4c0,0.1,0,0.1,0,0.2c-0.2,0.5-0.2,1.1,0,1.7v0.2c0,0.5,0,1.1,0,1.7v0.1
						c0,0.1,0,0.3,0,0.4v0.1v0.4v0.1c0,1.1,0,2.1,0,3.2v0.2c0,0.8,0,1.6,0,2.5"/>
					<path class="st12" d="M15.2,1.8c0,0.3,0,0.6,0,0.9c0,0,0,0.1,0,0.1c0,0.1,0,0.3,0,0.4c0,0,0,0.1,0,0.1c0,0.4,0,0.9,0,1.3
						c0,0.1,0,0.1,0,0.2c0,0.6,0,1.2,0,1.8c0,0.1,0,0.1,0,0.2c0,0.2,0,0.4,0,0.6c0,0,0,0.1,0,0.2v0.1v0.1c0,1.2,0,2.3,0,3.5
						c0,0.1,0,0.1,0,0.2c0,0.9,0,1.8,0,2.7"/>
					<path class="st12" d="M15.4,2.3c0,0,0,0.1,0,0.1c0,0,0,0.1,0,0.1c0,0.3,0.2,0.7,0,1c0,0,0,0.1,0,0.1c0,0.3,0,0.5,0,0.8
						c0,0.1,0,0.1,0,0.2c0,0.7,0,1.4,0,2.1c0,0.1,0,0.1,0,0.2c0,0.3,0,0.5,0,0.8v0.1c0,1.2,0,2.4,0,3.6c0,0.1,0,0.1,0,0.2
						s0,0.1,0,0.2c0,0.1,0,0.1,0,0.2c0,0.5,0,1,0,1.5c0,0.1,0,0.1,0,0.2c0,0.1,0,0.1,0,0.2"/>
					<path class="st12" d="M15.9-0.4v0.2V0v0.2c0,0.8,0,1.5,0,2.2c0,0,0,0.1,0,0.1c-0.2,0.3,0.2,0.7,0,1c0,0,0,0.1,0,0.1
						c0,0.1,0,0.2,0,0.2c0,0.1,0,0.1,0,0.2c0,0.5,0,1.1,0,1.6c0,0.1,0,0.1,0,0.2c0,0.2,0,0.5,0,0.7c0,0.1,0,0.1,0,0.2
						c0,0.3,0,0.6,0,0.9v0.2c0,1.2,0,2.4,0,3.6v0.2v0.2c0,0.6,0.2,1.2,0,1.7c0,0.1,0,0.1,0,0.2c0,0.3,0,0.7,0,1c0,0.1,0,0.1,0,0.2
						c0,0.1,0,0.2,0,0.3c0,0,0,0.1,0,0.1c-0.2,0.2,0,0.5,0.2,0.7c0,0.1,0,0.2-0.2,0.3"/>
					<path class="st12" d="M16.4,2.3c0,0,0,0.1,0,0.1c0,0,0,0.1,0,0.1c-0.2,0.3,0.2,0.6,0,0.9c0,0,0,0.1,0,0.1c0,0.4,0,0.9,0,1.3
						c0,0.1,0,0.1,0,0.2c0,0.1,0,0.1,0,0.2c0,0.3,0,0.7,0,1c0,0.1,0,0.1,0,0.2c0,0.4,0,0.8,0,1.2v0.1c0,1.2,0,2.5,0,3.8
						c0,0.1,0,0.1,0,0.2c0,0.6,0,1.3,0,1.9c0,0.1,0,0.1,0,0.2"/>
					<path class="st12" d="M16.8,1.9v0.7c0,0,0,0.1,0,0.1c0,0.2,0.2,0.4,0,0.7c0,0,0,0.1,0,0.1v0.1c0,0.7,0,1.3,0,2v0.1
						c0,0.1,0,0.3,0,0.4c0,0,0,0.1,0,0.1c0,0.2,0,0.4,0,0.7c0,0,0,0.1,0,0.1c0,0.2,0,0.3,0,0.5v0.2c0,1.1,0,2.2,0,3.4
						c0,0.1,0,0.1,0,0.2c0,0.7,0,1.4,0,2.1c0,0.1,0,0.1,0,0.2s0,0.1,0,0.1v0.3"/>
					<path class="st12" d="M17.3,2.9v0.7v0.2c0,0.2,0,0.4,0,0.6c0,0,0,0.1,0,0.1c0,0.2,0,0.4,0,0.5v0.1c0,0.2,0,0.4,0,0.5v0.2v0.1
						v0.1c0,0.2,0,0.4,0,0.6c0,0,0,0,0,0.1c0,0.2,0,0.4,0,0.6c0,0,0,0.1,0,0.1c0,0.1,0,0.2,0,0.3c0,0,0,0,0,0.1c0,0.2,0,0.4,0,0.6
						v0.1v0.1c0,0.2,0,0.4,0,0.5V9c0,0.2,0,0.5,0,0.7v0.1c0,0.1,0,0.2,0,0.2v0.1c0,0.3,0,0.5,0,0.8c0,0,0,0.1,0,0.1v0.2
						c0,0.1,0,0.1,0,0.2c0,0.1,0,0.2,0,0.3c0,0,0,0.1,0,0.1c-0.2,0.2,0,0.4,0,0.7c0,0,0,0,0,0.1c0,0.4,0,0.8,0,1.1"/>
					<path class="st12" d="M17.8,1.9v1.9V4c0,0.1,0,0.3,0,0.4c0,0,0,0.1,0,0.1c-0.2,0.2,0,0.3,0,0.5c0,0.1-0.2,0.2,0,0.2
						c0,0,0,0.1,0,0.1c0,0.1,0,0.2,0,0.3v0.2v0.2v0.1c-0.2,0.2,0.2,0.4,0,0.7c0,0,0,0,0,0.1c0,0.2,0,0.4,0,0.7c0,0,0,0.1,0,0.1v0.1
						v0.1c-0.2,0.2,0,0.4,0,0.7c0,0,0,0,0,0.1c0,0,0,0.1,0,0.1c0,0,0,0.1,0,0.1V9v0c-0.2,0.3,0,0.5,0,0.8v0.1v0.2c0,0,0,0.1,0,0.1
						c-0.2,0.3,0.2,0.6,0,0.9c0,0,0,0,0,0.1v0.3c0,0,0,0.1,0,0.1s0,0.2,0,0.2c0,0,0,0.1,0,0.1c-0.2,0.2,0,0.5,0,0.7c0,0,0,0.1,0,0.1
						c0,0.4,0,0.8,0,1.1v0.2v0.1"/>
					<path class="st12" d="M18.2-1.1c0,0,0,0.1,0,0.1C18,2.6,18.2,6.1,18,9.7c0,0.2-0.2,0.4-0.2,0.6c0,0.3,0.2,0.5,0.2,0.9
						c0,0.1,0,0.1,0,0.1v0.2c0,0.1,0,0.2,0,0.2c0,0,0,0.1,0,0.1c0,0.2,0,0.4,0,0.7c0,0,0,0.1,0,0.1c0,0.4,0,0.8,0,1.2v0.1v3.6"/>
					<path class="st12" d="M18.5-0.2c0,3.8,0,7.5,0,11.2v0.2v0.2c0,0.1,0,0.1,0,0.2c0,0.7,0,1.4,0,2.1V14v0.2v2.1"/>
					<path class="st12" d="M18.9,2.8c0,0.7,0,1.3,0,2c0,0,0,0.1,0,0.1v5.2v0.1c0,0.4,0,0.8,0,1.2c0,0.1,0,0.1,0,0.2
						c0,0.7,0,1.3,0,1.9c0,0.1,0,0.1,0,0.2"/>
					<path class="st12" d="M19.4,0.3c0,0.1,0,0.2,0,0.3c0,0.1,0,0.1,0,0.2v0.5v0.2c0,1.2,0.2,2.3,0,3.5v0.1v0.7v0.6V7v0.6V10v0.1
						c0,0.4,0,0.9,0,1.3c0,0.1,0,0.1,0,0.2c0,0.5,0,1,0,1.5c0,0.1,0,0.1,0,0.2c0,0.3,0,0.7,0,1v0.2v1.6"/>
					<path class="st12" d="M19.8,1.1v0.2v0.2c0,1.2,0.2,2.3,0,3.5c0,0,0,0.1,0,0.1v0.6v0.6V7v0.6v2.2v0.1c0,1.4,0,2.9,0,4.3v0.2v0.9
						"/>
					<path class="st12" d="M20.3,3.2v2v0.5c0,0.6,0,1.2,0,1.7v0.6v1.6v0.1c0,0.7,0,1.4,0,2.2c0,0,0,0.1,0,0.1c0,0.2,0,0.4,0,0.6
						c0,0,0,0.1,0,0.1c0,0,0,0.1,0,0.1"/>
					<path class="st12" d="M20.8,1.6c-0.2,1.1,0.2,2.3,0,3.4c0,0,0,0.1,0,0.1v0.2v0.6c0,0.4,0,0.8,0,1.2v0.6v2v0.1
						c0,0.8,0,1.5,0,2.2c0,0,0,0.1,0,0.1c0,0.2,0.2,0.4,0,0.7c0,0,0,0.1,0,0.1c0,0.4,0,0.8,0,1.2v0.2v0.1"/>
					<path class="st12" d="M21.2,3.5v2.1v0.5c0,0.4,0,0.8,0,1.2v0.6v2V10c0,0.7,0,1.4,0,2.2c0,0,0,0.1,0,0.1c0,0.2,0,0.4,0,0.6
						c0,0,0,0.1,0,0.1"/>
					<path class="st12" d="M21.5,0.7v1v0.2c0,0.7,0,1.3,0,2c0,0.1,0,0.1,0,0.2c0.2,1.4,0,2.9,0,4.3c0,0.5,0,1,0,1.5
						c0,0.1,0,0.1,0,0.2v0.2c0,0.3,0,0.5,0,0.8c0,0.1,0,0.1,0,0.2c0.2,1.2-0.2,2.4,0,3.5v0.2v0.6"/>
					<path class="st12" d="M21.9-1v4.7c0,0.1,0,0.1,0,0.2c0.2,2-0.2,3.8,0,5.8c0,0.1,0,0.1,0,0.2v1.4v0.2c0,0.2,0,0.5,0,0.8
						c0,0.1,0,0.1,0,0.2v0.4c0,0.1,0,0.1,0,0.2c0,0.3,0,0.6,0,0.9c0,0,0,0.1,0,0.1c0,0.1,0,0.2,0,0.3v0v2.9"/>
					<path class="st12" d="M22.4,2v1.5c0,0,0,0.1,0,0.1c0.2,1.7-0.2,3.4,0,5.1c0,0.1,0,0.1,0,0.2c0,0.5,0,1.1,0,1.6v0.1v2.9v0
						c0,0.1,0,0.2,0,0.4"/>
					<path class="st12" d="M22.9,3v0.4v0.2c0,1.5-0.2,3,0,4.5c0,0.1,0,0.1,0,0.2c0,0.2,0,0.5,0,0.7c0,0.1,0,0.1,0,0.2
						c0,0.4,0,0.8,0,1.2v0.1v2.8"/>
					<path class="st12" d="M23.3,1.4v1.3c0,0.2,0,0.3,0,0.5c0,0.1,0,0.2,0,0.3c0,0,0,0.1,0,0.1c0,1,0,2,0,2.9c0,0.1,0,0.1,0,0.2
						c0,0.1,0,0.1,0,0.2c0.2,0.2,0,0.5,0,0.8c0,0.1,0,0.1,0,0.2c0,0.4,0,0.9,0,1.3c0,0.1,0,0.1,0,0.2c0,0.2,0,0.4,0,0.6v0.1v5"/>
					<path class="st12" d="M23.8,1c0,0.2,0,0.4,0,0.6c0,0,0,0.1,0,0.1v0.8c0,0.2,0,0.4,0,0.6c0,0.1,0,0.3,0,0.4c0,0,0,0.1,0,0.1
						c-0.2,1-0.2,1.9,0,2.8c0,0.1,0,0.1,0,0.2c0,1.1,0.2,2.2,0,3.4v0.1v3c0,0,0,0,0,0.1c0,0.1,0,0.2,0,0.3c0,0,0,0,0,0.1
						c0,0.2,0,0.4,0,0.7c0,0,0,0.1,0,0.1v1.2"/>
					<path class="st12" d="M24-0.3v0.4c0,0,0,0.1,0,0.2c-0.2,0.5,0,1,0,1.5c0,0,0,0.1,0,0.1v0.3c0,0.2,0,0.4,0,0.6
						c0,0.2,0,0.5,0,0.7c0,0.1,0,0.1,0,0.2c-0.2,0.8,0,1.7,0,2.5c0,0.1,0,0.1,0,0.2c0,0.1,0,0.1,0,0.2c0,0.1,0,0.1,0,0.2
						c0,0.5,0,1.1,0,1.6c0,0.1,0,0.1,0,0.2c0,0.3,0,0.5,0,0.8c0,0.1,0,0.1,0,0.2c0,0.1,0,0.1,0,0.2c0,0.2,0,0.4,0,0.6
						c0,0.1,0,0.1,0,0.2c0,0.1,0,0.1,0,0.2c0,0.1,0,0.3,0,0.4c0,0.1,0,0.1,0,0.2c0,0.1,0,0.1,0,0.2c0,1.4,0,2.8,0,4.2
						c0,0,0,0.1,0,0.1v0.5"/>
					<path class="st12" d="M24.7,1.1c0,0.2,0,0.4,0,0.7V2v0.4c0,0.2,0,0.3,0,0.5c0,0.3,0,0.5,0,0.8c0,0.1,0,0.1,0,0.2
						c-0.2,0.7,0,1.3-0.2,1.9c0,0.1,0,0.1,0,0.2c0,0.2,0,0.4,0,0.7c0,0.1,0,0.1,0,0.2c0,0.5,0,1,0,1.4c0,0.1,0,0.1,0,0.2
						c0.2,2-0.2,4,0,6c0,0.2,0,0.4,0,0.5c0,0.1,0.2,0.3,0.2,0.4"/>
					<path class="st12" d="M25-0.9v0.8c0,0.1,0,0.1,0,0.2c-0.2,0.5,0.2,1.1,0,1.6c0,0.1,0,0.1,0,0.2v0.2c0,0.2,0,0.4,0,0.6
						c0,0.4,0,0.9,0,1.3c0,0.1,0,0.1,0,0.2c0,0.2,0,0.3,0,0.5c0,0.1,0,0.1,0,0.2c0,0.1,0,0.1,0,0.2c0,0.4,0,0.8,0,1.2v0.2
						c0,0.5,0,1.1,0,1.6c0,0.1,0,0.1,0,0.2c-0.2,2.6,0.2,5.2,0,7.7c0,0,0,0.1,0,0.1v1.3"/>
					<path class="st12" d="M25.4,2v0.3c0,0.1,0,0.2,0,0.4c-0.2,0.5,0,1,0,1.5c0,0.1,0,0.2,0,0.3c0,0.1,0,0.2,0,0.3
						c0,0.1,0,0.1,0,0.2c0,0.5,0,0.9,0,1.4c0,0.1,0,0.1,0,0.2c0,2,0,4,0,6V13v1"/>
					<path class="st12" d="M25.9,2.6v0.1c0,0.1,0,0.2,0,0.3c0,0.4,0,0.9,0,1.3c0,0.1,0,0.2,0,0.3c0,0.2,0,0.4,0,0.7
						c0,0.1,0,0.1,0,0.2c0,0.3,0,0.5,0,0.8c0,0.1,0,0.1,0,0.2c0,0.1,0,0.1,0,0.2c0,0.1,0,0.1,0,0.2c0,2,0.2,4.1,0,6.1
						c0,0.1,0,0.1,0,0.2v0.5"/>
					<path class="st12" d="M26.4,1.1c0,0.2,0,0.4,0,0.6c0,0,0,0.1,0,0.1v0.7c0,0.2,0,0.3,0,0.5c0,0.3,0,0.7,0,1.1c0,0.1,0,0.2,0,0.4
						c0,0.9,0,1.7,0,2.6v0.2c0,0.3,0,0.5,0,0.8c0,0.1,0,0.1,0,0.2c0,2.3,0,4.5-0.2,6.7"/>
					<path class="st12" d="M26.8,3.1c0,0,0,0,0,0.1c0,0.2,0,0.4,0,0.7c0,0.1,0,0.1,0,0.2c0,0.8,0,1.6,0,2.4v0.1V7v0.2
						c0,0.3,0,0.6,0,1c0,0,0,0.1,0,0.1c0,0.2,0,0.4,0,0.7c0,0,0,0.1,0,0.1c0,0.4,0,0.8,0,1.2v0.1v2.7"/>
					<path class="st12" d="M27.1,2.1v3.2v0.1c0,0.9,0,1.7,0,2.6c0,0,0,0.1,0,0.1c0,0.3,0.2,0.7,0,1c0,0,0,0.1,0,0.1
						c0,0.2,0,0.4,0,0.6V10v3.6c0,0,0,0.1,0,0.1c0,0.2,0,0.4,0,0.5"/>
					<path class="st12" d="M27.5-1.1v1.7c0,0.1,0,0.1,0,0.2c0,0.3,0,0.7,0,1c0,0,0,0.1,0,0.1v1c0,0,0,0.1,0,0.1c0,0.2,0,0.5,0,0.8
						c0,0,0,0.1,0,0.1v1.3v0.2c0,0.9,0,1.9,0,2.8c0,0,0,0.1,0,0.1c0,0.2,0,0.3,0,0.5c0,0.1,0,0.1,0,0.2c0,0.2-0.2,0.4,0,0.6
						c0,0,0,0.1,0,0.1v0.1c0,1.5,0,3,0,4.6c0,0.1,0,0.1,0,0.2c0,0,0,0.1,0,0.1s0,0.1,0,0.1c0,0.3,0,0.5,0,0.8c0,0,0,0.1,0,0.1v1.6"
						/>
					<path class="st12" d="M28,0.2v0.5c0,0,0,0.1,0,0.1c-0.2,0.3,0,0.5,0,0.8c0,0.1,0,0.1,0,0.2v1c0,0,0,0.1,0,0.1
						c-0.2,0.3,0,0.6,0,0.9c0,0,0,0.1,0,0.1V5v0.1c0,1,0,1.9,0,2.9c0,0,0,0.1,0,0.1c-0.2,0.3,0,0.7,0,1c0,0,0,0.1,0,0.1
						c0,0.4,0,0.8,0,1.1v0.1v2.1v0.1c-0.2,0.2,0,0.4,0,0.7c0,0,0,0,0,0.1v0.1c0,0,0,0,0,0.1c-0.2,0.2,0,0.4,0,0.5c0,0,0,0,0,0.1
						c0,0.1,0,0.2,0,0.3v0.1v1.4"/>
					<path class="st12" d="M28.4,3.3c0.2,0.2,0,0.4,0,0.5c0,0,0,0,0,0.1v0.4v0.2c0,1.2,0,2.4,0,3.6c0,0,0,0.1,0,0.1
						c0,0.2,0,0.4,0,0.6c0,0,0,0.1,0,0.1c0,0.4,0,0.8,0,1.2v0.1v0.3c0,0.2,0,0.3,0,0.5v0.4v1c0,0,0,0,0,0.1c0,0.1,0,0.1,0,0.2"/>
					<path class="st12" d="M28.9,1.7v1v0.1c0,0.3,0,0.7,0,1c0,0,0,0,0,0.1v0.8v0.1c0,0.7,0,1.3,0,1.9c0,0,0,0.1,0,0.1
						c0,0.3,0,0.5,0,0.7c0,0,0,0.1,0,0.1c0,0.5,0,1,0,1.4c0,0,0,0.1,0,0.1c0,0.3,0,0.6,0,0.9c0,0,0,0.1,0,0.1c0,0.1,0,0.2,0,0.2
						c0,0,0,0.1,0,0.1c0,0,0,0.1,0,0.1c0,0.4,0,0.8,0,1.1v0.5v0.4c0,0,0,0,0,0.1c0,0.1,0,0.2,0,0.4c0,0,0,0,0,0.1v0.3v0.1
						c0,0.2,0,0.4,0,0.6v0.1v0.6"/>
					<path class="st12" d="M29.4-1v1.4v0.1c0.2,1.1,0,2.1,0,3.2c0,0.3,0,0.6,0,0.9c0,0,0,0.1,0,0.1v0.1v0.2c0,0.5,0,1,0,1.4
						c0,0,0,0.1,0,0.1c-0.2,0.3,0.2,0.7,0,1c0,0,0,0.1,0,0.1c0,0.4,0,0.8,0,1.2c0,0,0,0.1,0,0.1c-0.2,0.4,0.2,0.7,0,1.1
						c0,0,0,0.1,0,0.1c0,0.6,0,1.1,0,1.7c0,0.1,0,0.1,0,0.2c0,0.1,0,0.3,0,0.4v0.1v2.4c0,0,0,0,0,0.1c-0.2,0.2,0,0.5,0,0.7v0V17"/>
					<path class="st12" d="M29.8,0.9c0,1.2-0.5,2.5,0,3.7c0,0,0,0.1,0,0.1v0.1v0.1c0,0.5,0,1,0,1.5c0,0,0,0.1,0,0.1
						c-0.2,0.2,0,0.5,0.2,0.7c0,0.1,0,0.2-0.2,0.3c0,0,0,0.1,0,0.1c0,0.4,0,0.8,0,1.1c0,0,0,0.1,0,0.1c-0.2,0.4,0.2,0.8,0,1.2
						c0,0,0,0.1,0,0.1c0,1,0.2,1.9,0,2.9v0.2v1.9v0.1c0,0.1,0,0.2,0,0.3v0v0.1"/>
					<path class="st12" d="M30.3,0.6c0,0.2,0.2,0.4,0,0.7c-0.5,1.1-0.2,2.1-0.2,3.2v0.2v0.2v0.1c0,0.5,0,1.1,0,1.6v0.1
						c-0.2,0.3,0.2,0.6,0,0.9c0,0,0,0.1,0,0.1c0,0.4,0,0.9,0,1.3v0.1c-0.2,0.4,0,0.8,0,1.2c0,0,0,0.1,0,0.1c0,1.1,0,2.2,0,3.4v0.1v2
						"/>
					<path class="st12" d="M30.5,2.6v2.5v0.1c0,0.5,0,1,0,1.5c0,0,0,0.1,0,0.1c0,0.2,0,0.4,0,0.6c0,0,0,0.1,0,0.1c0,0.5,0,1,0,1.5
						c0,0,0,0.1,0,0.1c0,0.3,0,0.5,0,0.8c0,0,0,0.1,0,0.1c0,1.1,0,2.3,0,3.4c0,0.1,0,0.1,0,0.2"/>
					<path class="st12" d="M31,0.9c-0.2,0.7,0,1.4,0,2.2c0,0,0,0.1,0,0.1v3.2v0.1c0,0.1,0,0.1,0,0.2c0,0.1,0,0.1,0,0.2
						c0,0.2,0,0.5,0,0.7c0,0.1,0,0.1,0,0.2c0,0.1,0,0.2,0,0.3c0,0.1,0,0.1,0,0.2c0,0.2,0,0.4,0,0.6C31,9,31,9,31,9c0,0,0,0.1,0,0.1
						c0,0.1,0,0.1,0,0.2c0,0.1,0,0.1,0,0.2c0,0.2,0,0.4,0,0.6c0,0.1,0,0.1,0,0.2c0,0.1,0,0.2,0,0.4c0,0.1,0,0.1,0,0.2
						c0,0.2,0,0.4,0,0.6c0,0.1,0,0.1,0,0.2s0,0.1,0,0.2c0,1.1,0.5,2.2,0,3.3c0,0.1,0,0.1,0,0.2v0.5"/>
					<path class="st12" d="M31.5,1.8c0,0.2,0,0.4,0,0.7c0,0.1,0,0.1,0,0.2v3.9c0,0.1,0,0.1,0,0.2c0,2.6-0.2,5.3,0.2,7.9"/>
					<path class="st12" d="M31.9,0v0.1c0,0,0,0.1,0,0.2c-0.2,0.6-0.2,1.1,0,1.7c0,0.1,0,0.1,0,0.2s0,0.1,0,0.2c0,0,0,0.1,0,0.1V6
						c0,0.2,0,0.4,0,0.7c0,2.9,0.2,5.9,0,8.8c0,0.1,0,0.1,0,0.2v0.6"/>
					<path class="st12" d="M32.4-0.6v0.4V0c0,0.1,0,0.1,0,0.2c0,0.1,0,0.1,0,0.2c0,0.4,0,0.9,0,1.3c0,0.1,0,0.1,0,0.2
						c0,0.2,0,0.5-0.2,0.8v0.1v3.3c0,0.2,0,0.4,0,0.7c0,2.9,0,5.8,0,8.7c0,0.1,0,0.1,0,0.2c0,0.4,0,0.7,0,1.1"/>
					<path class="st12" d="M32.9,3v3.7c0,0.1,0,0.1,0,0.2c0,0.6,0,1.2,0,1.7v0.1c0,0.1,0,0.3,0,0.4v0.2c0,1.2,0,2.4,0,3.7"/>
					<path class="st12" d="M33.1,1.6v4.5c0,0.2,0,0.4,0,0.6c-0.2,2.6,0.2,5.3-0.2,7.9"/>
					<path class="st12" d="M33.6-1.1v0.9v0.2c0,1,0,2,0,2.9V3v3.3c0,0.2,0,0.4,0,0.7c0,2.8,0,5.6,0,8.4c0,0.1,0,0.1,0,0.2
						c0,0.8,0,1.5,0,2.3"/>
					<path class="st12" d="M34-1.4v1c0,0,0,0.1,0,0.2c-0.2,1-0.2,2,0,3c0,0,0,0.1,0,0.1v3.3c0,0.2,0,0.4,0,0.7c-0.2,2.7,0,5.4,0,8.1
						c0,0.1,0,0.1,0,0.2c0,0.8,0,1.6,0,2.4"/>
					<path class="st12" d="M34.5,1.7v0.5v0.1c0,0.3,0,0.6,0,0.9v0.1v3.7c0,0,0,0.1,0,0.1c0,0.4,0,0.8,0,1.2v0.1v2.1
						c0,0.1,0,0.3,0,0.4c0,0.5,0,1,0,1.4v0.3V13c0,0.1,0,0.1,0,0.2c0,0.2,0,0.5,0,0.7c0,0,0,0.1,0,0.1c0,0.2,0.2,0.4,0,0.6
						c0,0,0,0.1,0,0.1c0,0.1,0,0.2,0,0.2"/>
					<path class="st12" d="M34.7,0.8C35,1.4,34.7,2,35,2.6c0,0.1,0,0.1,0,0.2c0,0.2,0,0.5,0,0.7v0.1v6.8c0,0.1,0,0.3,0,0.4
						c0.2,0.4,0.2,0.8,0,1.2c0,0.1,0,0.3,0,0.4v0.7c0,0.1,0,0.1,0,0.2c0,0.8,0,1.5,0,2.3"/>
					<path class="st12" d="M35.4,1.5c0,0.3,0,0.6,0,0.9c0,0.1,0,0.1,0,0.2c0,0.4,0,0.8,0,1.1v0.1v5.9v0.4c0,0.3,0,0.6,0,0.9
						c0,0,0,0.1,0,0.1c0,0.1,0,0.2,0,0.3c0,0,0,0.1,0,0.1c0,1,0,2,0,2.9c0,0.1,0,0.1,0,0.2c0,0.2,0,0.3,0,0.5"/>
					<path class="st12" d="M35.6-1.1v2.8v0.1c0,0.7,0,1.3,0,2v0.1v0.9v0.1c0,1.5,0,2.9,0,4.4c0,0.1,0,0.3,0,0.4c0,1.5,0.2,3.2,0,4.7
						c0,0.1,0,0.1,0,0.2c0,0.4,0,0.8,0,1.2V16v1.5"/>
					<path class="st12" d="M36.1-1.3v3v0.1c0,0.6,0,1.2,0,1.9v0.1v0.7v0.1c0,1.6,0,3.1,0,4.7c0,0.1,0,0.3,0,0.4
						c-0.2,1.6,0.2,3.2,0,4.8c0,0.1,0,0.1,0,0.2c0,0.3,0,0.7,0,1v0.2v1.3"/>
					<path class="st12" d="M36.6,2c0,0.5,0,1.1,0,1.7v0.1v0.5v0.1c-0.2,1.6,0,3.3,0,4.9c0,0,0,0.1,0,0.1v0.1c0,1.5,0,3,0,4.5"/>
					<path class="st12" d="M37,2.8c0,0.3,0,0.5,0,0.8v0.2v0.4v0.2c-0.2,1.6,0,3.2,0,4.8v0.1v0.3c0,1.3,0,2.6,0,3.9"/>
					<path class="st12" d="M37.5,2.3c0,0.4,0,0.8,0,1.2v0.2v0.7v0.1c0,0.9,0,1.7,0,2.6c0,0,0,0.1,0,0.1v0.1c0,0.2,0,0.4,0,0.7v0.1
						v1.1v0.4c0,1.4,0.2,2.7-0.2,4.1"/>
					<path class="st12" d="M38,0.6v1.5v0.2c0,0.3,0,0.6,0,0.9v0.1v0.9v0.2c0,0.8,0,1.6,0,2.4c0,0,0,0.1,0,0.1v1.7v0.1
						c0,0.2,0,0.4,0,0.5c0,0.1,0,0.2,0,0.3c0.2,1.6-0.5,3.2,0,4.8c0,0.1,0,0.1,0,0.2v0.9v0.1c0,0.1,0,0.2,0,0.3"/>
					<path class="st12" d="M38.4,2.4v2.1v0.1c-0.2,0.7,0,1.3,0,2c0,0,0,0.1,0,0.1v1.7v0.2c0,0.4,0,0.7,0,1.1c0,0.1,0,0.2,0,0.4
						c0,1.2,0.2,2.4,0,3.5"/>
					<path class="st12" d="M38.7,1.6v2.9v0.1c0,0.5,0,1,0,1.5v0.1v1.8v0.2c0,0.5,0,1.1,0,1.7c0,0.1,0,0.2,0,0.3c0,0.2,0,0.4,0,0.5
						c0,0,0,0.1,0,0.1c0,0.1,0,0.3,0,0.4c0,0,0,0.1,0,0.1c0,0.2,0,0.4,0,0.6c0,0.1,0,0.1,0,0.2c0,0.1,0,0.1,0,0.2c0,0.2,0,0.3,0,0.5
						c0,0,0,0.1,0,0.1c0,0.2,0.2,0.4,0,0.6v0V15"/>
					<path class="st12" d="M39.1-1v5.9v0.1c0,0.3,0,0.6,0,0.9v0.1c0,0.6,0,1.2,0,1.9c0,0,0,0.1,0,0.1V8v0.2c0,0.2,0,0.3,0,0.5
						c0,0,0,0.1,0,0.1c0,1.4,0,2.8,0,4.2c0,0,0,0.1,0,0.1c0,0.2,0,0.4,0,0.6v0c0,0.7,0,1.3,0,2c0,0,0,0.1,0,0.1c0,0.1,0,0.2,0,0.2
						c0,0,0,0.1,0,0.1c0,0.1,0,0.2,0,0.2c0,0.1,0.2,0.3,0,0.5c0,0,0,0.1,0,0.1v0.6"/>
					<path class="st12" d="M39.6,3.1v5.1v0.1c0,1.5,0,3,0,4.5"/>
					<path class="st12" d="M40.1,1.6v2.9c0,0,0,0,0,0.1c0,0.1,0,0.2,0,0.4c0,0,0,0,0,0.1v2.3c0,0.1,0,0.1,0,0.2c0,0.3,0,0.5,0,0.8
						v0.1c0,1.6,0,3.3,0,4.9c0,0.1,0,0.1,0,0.2c0,0.1,0,0.1,0,0.2V14V15"/>
					<path class="st12" d="M40.5,1.5v1.5v0.1c0,0.2,0,0.4,0,0.7c0,0,0,0,0,0.1v0.5c0,0,0,0.1,0,0.1c0,0.2,0.2,0.4,0,0.6v0.1v2
						c0,0.1,0,0.1,0,0.2c0.2,0.4,0.2,0.8,0,1.3c0,0.1,0,0.1,0,0.2c0,1.5,0,2.9,0,4.4c0,0.1,0,0.1,0,0.2s0,0,0,0.1
						c0,0.2,0.2,0.4,0,0.6c0,0,0,0,0,0.1v0.5"/>
					<path class="st12" d="M41,0.3V3v0.1c-0.2,0.3,0,0.7,0,1c0,0,0,0.1,0,0.1v0.3c0,0,0,0.1,0,0.1c-0.2,0.2,0,0.5,0,0.7v0.1v1.8
						c0,0.1,0,0.1,0,0.2c0.2,0.4,0.2,0.9,0,1.3c0,0.1,0,0.1,0,0.2c0,1.4,0,2.7,0,4.1c0,0.1,0,0.1,0,0.2c0,0.4,0,0.9,0,1.3
						c0,0,0,0.1,0,0.1v1.2"/>
					<path class="st12" d="M41.5,2.6V3c0,0,0,0,0,0.1c0,0.3,0.2,0.7,0,1v0.1v0.3v0.1c0,0.1,0,0.3,0,0.4v0.1V7c0,0.1,0,0.1,0,0.2
						c0.2,0.6,0.2,1.2,0,1.7v0.1c0,0.2,0,0.4,0,0.6v0.1c0,0.1,0,0.1,0,0.2c0,0.2,0.2,0.5,0,0.8c0,0.1,0,0.1,0,0.2c0,0.6,0,1.2,0,1.9
						c0,0,0,0.1,0,0.1c0.2,0.4,0,0.7,0.2,1.1"/>
					<path class="st12" d="M41.7,2V3c0,0,0,0.1,0,0.1c-0.2,0.3,0.2,0.6,0,0.9c0,0,0,0,0,0.1v3v0.1c0,0.6,0,1.2,0,1.7v0.2v0.6v0.1
						c0,0.9,0,1.9,0,2.8c0,0,0,0.1,0,0.1c0,0.4,0,0.9,0.2,1.3"/>
					<path class="st12" d="M42.2,1.9v1.3c0,0,0,0.1,0,0.1c0,0.2,0,0.4,0,0.6c0,0,0,0,0,0.1v2.9V7c0,0.6-0.2,1.1,0,1.7
						c0,0,0,0.1,0,0.1v0.8v0.1c0,0.9,0,1.7,0,2.5c0,0.1,0,0.2,0,0.4c0,0.6,0.5,1.3,0,1.9"/>
					<path class="st12" d="M42.6-1.4v8.5c0,0.1,0,0.1,0,0.2c-0.2,0.5-0.2,1,0,1.6c0,0,0,0.1,0,0.1v0.7v0.2c0,0.9,0,1.7,0,2.6
						c0,0.1,0,0.1,0,0.2c0,0.6,0,1.2,0,1.9c0,0.1,0,0.2,0,0.4c0,0.8,0,1.6,0,2.5"/>
					<path class="st12" d="M43.1,1.6v5.6c0,0,0,0.1,0,0.1c-0.2,0.5,0,1,0,1.4v0.1v1V10c0,0.8,0,1.6,0,2.4c0,0.1,0,0.1,0,0.2
						c0,0.7-0.5,1.3,0,2"/>
					<path class="st12" d="M43.5,3.2v4.2c0,0,0,0.1,0,0.1c0,0.2,0,0.4,0,0.7c0,0,0,0.1,0,0.1v3.8v0.1c0,0.1,0,0.2,0,0.3"/>
					<path class="st12" d="M44,1.4v2.8v0.3c0,0.3,0,0.5,0,0.8v0.3v6.6c0,0,0,0.1,0,0.1c0,0.1,0,0.2,0,0.3c0,0.1,0,0.1,0,0.2
						c0,0.6-0.5,1.3,0,1.9"/>
					<path class="st12" d="M44.2,0.8V4v0.3c0,0.5,0,1,0,1.4V6v6.1c0,0,0,0.1,0,0.1c0,0.2,0,0.3,0,0.5c0,0.1,0,0.1,0,0.2
						c0,0.5,0,1,0,1.4c0,0.1,0,0.1,0,0.2c0,0.2,0,0.3,0,0.5v0.2v0.3"/>
					<path class="st12" d="M44.7,0v4v0.3c0,0.5,0,1,0,1.5v0.3v4.3c0,0,0,0.1,0,0.1c-0.2,0.2,0,0.4,0,0.6c0,0,0,0,0,0.1V12
						c0,0,0,0.1,0,0.1c-0.2,0.6,0,1.2,0,1.7c0,0,0,0.1,0,0.1c0,0.1,0,0.2,0,0.3c0,0,0,0,0,0.1c0,0.1,0,0.3,0,0.4V15V16"/>
					<path class="st12" d="M45.2,2.9V4v0.2c0,0.6,0,1.2,0,1.8v0.3v4.2c0,0,0,0.1,0,0.1c0,0.2,0,0.4,0,0.6c0,0,0,0,0,0.1V12
						c0,0.1,0,0.1,0,0.2c0,0.4,0,0.8,0,1.1"/>
					<path class="st12" d="M45.6,3.2v0.9v0.2c0,0.5,0,1.1,0,1.7v0.3v4.2v0.1c0,0.2,0,0.4,0,0.6v0.1V12v0.2c0,0.4-0.2,0.8,0,1.2"/>
					<path class="st12" d="M46.1,1.6V4v0.2c0,0.6,0,1.1,0,1.7v0.2v0c0,0.2,0,0.3,0,0.5c0,0,0,0.1,0,0.1v5.5c0,0.1,0,0.1,0,0.2
						c-0.2,0.2,0,0.4,0,0.7c0,0,0,0.1,0,0.1c0,0.1,0,0.2,0,0.3c0,0,0,0,0,0.1c-0.2,0.2,0.5,0.4,0,0.6c0,0,0,0,0,0.1s0,0,0,0.1
						c0,0.1,0,0.1,0,0.2"/>
					<path class="st12" d="M46.6,2.1v2v0.1c0,0,0,0.1,0,0.1c0,0.2,0,0.4,0,0.7c0,0.1,0,0.1,0,0.2c0,0.2,0,0.3,0,0.5v0.3v0.1v0.1
						c0,0.2,0.2,0.5,0,0.8v0c0,0.2,0.2,0.4,0,0.6v0v1.4c0,0.1,0,0.1,0,0.2c0.2,0.3,0,0.5,0,0.8v0.2v1.8c0,0,0,0.1,0,0.1
						c0.2,0.4,0.2,0.8,0,1.2c0,0.1,0,0.1,0,0.1c0,0,0,0.1,0,0.1c-0.2,0.2,0.2,0.4,0,0.5c0,0,0,0.1,0,0.1c0,0,0,0,0,0.1"/>
					<path class="st12" d="M47-0.8L47-0.8c0,0.3,0,0.7,0,1c0,0.1,0,0.1,0,0.2c0,1.2,0,2.3-0.2,3.5c0,0.1,0,0.1,0,0.2
						c0,0.1,0,0.1,0,0.2c0,0.1,0,0.1,0,0.2c0,0.2,0,0.4,0,0.7c0,0.1,0,0.1,0,0.2c0,0.1,0,0.1,0,0.2c0,0.1,0,0.1,0,0.2
						c0,0.2,0,0.4,0,0.6c0,0,0,0.1,0,0.1c0,0.2,0,0.4,0,0.6c0,0,0,0.1,0,0.1c-0.2,0.2,0.2,0.4,0,0.7c0,0,0,0.1,0,0.1
						c0,0.2,0,0.3,0,0.5v0.1v0.4c0,0.1,0,0.1,0,0.2c0.2,0.4,0.2,0.9,0,1.2c0,0.1,0,0.1,0,0.2v1.5c0,0.1,0,0.1,0,0.2
						c0.2,0.5,0.5,1,0,1.4c0,0.1,0,0.1,0,0.2c0,0.8,0,1.6,0,2.4v0.1V17"/>
					<path class="st12" d="M47.5,0.4c0,1.2-0.2,2.3-0.2,3.5c0,0.1,0,0.1,0,0.2c0,0.5,0.2,0.9,0,1.4c0,0.1,0,0.1,0,0.2
						c0,0.4,0,0.8,0,1.2v0.1c0,0.2,0,0.4,0,0.6v0c0,0.3,0,0.6,0,0.9v0.1c0,0.1,0,0.1,0,0.2c0.2,0.5,0.2,1.1,0,1.6c0,0.1,0,0.1,0,0.2
						v1.3c0,0.1,0,0.1,0,0.2c0,0.2,0,0.3,0.2,0.5c0,0.1,0,0.1,0,0.2c-0.2,1.1,0,2.1,0,3.2"/>
					<path class="st12" d="M48,0.5c-0.2,1-0.2,2.1-0.2,3.1c0,0.1,0,0.1,0,0.2s0,0.1,0,0.2c0,0.5,0.5,1,0.2,1.5c0,0.1,0,0.1,0,0.2
						c0,0.9,0,1.8,0,2.7v0.1c0,0.1,0,0.1,0,0.2c0.2,0.6,0.2,1.2,0,1.8v0.2v0.9v0.1c0,0,0,0.1,0,0.1c0,0.2,0,0.5,0,0.7
						c0,0.1,0,0.1,0,0.2c-0.2,1,0,2,0.2,3"/>
					<path class="st12" d="M48.2,1.1c0,0.9,0,1.7,0,2.5c0,0.1,0,0.1,0,0.2c-0.2,0.6,0.2,1.2,0,1.9c0,0.1,0,0.1,0,0.2
						c0,0.9,0,1.8,0,2.7v0.2c0,0.5,0,1.1,0,1.6v0.2v1.1v0.1c0,0,0,0.1,0,0.1c0,0.1,0,0.1,0,0.2c-0.2,0.5-0.2,1.1,0,1.6
						c0,0.1,0,0.1,0,0.2c0,0.2,0,0.4,0,0.7c0,0.1,0,0.1,0,0.2c0,0.2,0,0.4,0,0.6"/>
					<path class="st12" d="M48.9,0.1c-0.2,1.2-0.2,2.3-0.2,3.5c0,0.1,0,0.1,0,0.2c-0.2,0.5,0.2,1.1,0,1.6c0,0.1,0,0.1,0,0.2
						c0,0.9,0,1.8,0,2.7v0.1v0.2c0,0.1,0,0.1,0,0.2c0,0.5-0.2,1,0,1.5c0,0.1,0,0.1,0,0.2v0.9v0.2c0,0.1,0,0.1,0,0.2
						c0,0.1,0,0.1,0,0.2c-0.2,0.2-0.2,0.5-0.2,0.8c0,0.1,0,0.1,0,0.2c0.5,1,0,2,0.2,3.1"/>
					<path class="st12" d="M49.1,1.3c0,0.8,0,1.6,0,2.4c0,0.1,0,0.1,0,0.2c-0.2,0.5,0.2,1.1,0,1.6c0,0.1,0,0.1,0,0.2
						c0,0.9,0,1.9,0,2.8v0.2c0,0.1,0,0.1,0,0.2c-0.2,0.5,0,1.1,0,1.6c0,0.1,0,0.1,0,0.2v0.8v0.2c0,0.2,0,0.3,0,0.5
						c0,0.1,0,0.1,0,0.2c-0.2,0.4-0.2,0.9,0,1.3c0,0.1,0,0.1,0,0.2c0,0.1,0,0.2,0,0.3c0,0.1,0,0.1,0,0.2c0,0.2,0,0.5,0,0.8"/>
					<path class="st12" d="M49.6,3.1c0,0.2,0,0.4,0,0.7c0,0,0,0.1,0,0.1c0,0.5,0,1,0,1.6c0,0.1,0,0.1,0,0.2c0,1,0,2,0,2.9v0.2
						c0,0.1,0,0.1,0,0.2c-0.2,0.4,0,0.8,0,1.2c0,0.1,0,0.1,0,0.2v1.1v0.2c0,0.2,0,0.4,0,0.6c0,0.1,0,0.1,0,0.2c0,0.3,0,0.5,0,0.8
						c0,0.1,0,0.1,0,0.2s0,0.1,0,0.2"/>
					<path class="st12" d="M50.1,3.3c0,0.2,0,0.4,0,0.6c0,0,0,0.1,0,0.1c0,0.4,0,0.8,0,1.2c0,0.1,0,0.1,0,0.1c0,0.1,0,0.3,0,0.4
						c0,0,0,0.1,0,0.1c0,0.3,0,0.6,0,0.9c0,0,0,0.1,0,0.1c0,0.2,0,0.5,0,0.7c0,0,0,0.1,0,0.1c0,0.1,0,0.2,0,0.4v0.2
						c0,0.3,0,0.5,0,0.8c0,0,0,0.1,0,0.1c0,0.2,0,0.4,0,0.7v0.2v1.2v0.2c0,0.5,0,1.1,0,1.6"/>
					<path class="st12" d="M50.3,1.9c0.2,2-0.2,3.9,0,5.9c0,0.1,0,0.1,0,0.2V8v0.1c0,0.1,0,0.1,0,0.2c0.2,0.4,0,0.9,0,1.3v0.2v0.9
						v0.3c0,0.2,0,0.4,0,0.7c0,0,0,0.1,0,0.1c0,0.8,0,1.7,0,2.5"/>
					<path class="st12" d="M50.8,1.3C50.8,1.3,50.8,1.3,50.8,1.3c0,0.1,0,0.2,0,0.3c0,0,0,0,0,0.1c0,0.1,0,0.1,0,0.2
						c0,0.3,0.2,0.5,0.2,0.8c-0.2,1.8,0,3.6-0.2,5.3c0,0.1,0,0.1,0,0.2c0,0.5,0,1,0,1.5c0,0.1,0,0.1,0,0.2v0.7v0.1v0.1
						c0,0.2,0,0.5,0,0.7c0,0,0,0.1,0,0.1v0.1c0,0.1,0,0.1,0,0.2s0,0.1,0,0.2v0.2c0,1.1,0,2.1,0,3.2"/>
					<path class="st12" d="M51.4,2.7c-0.2,1.7,0,3.4-0.2,5c0,0.1,0,0.1,0,0.2c0,0.6,0,1.1,0,1.7c0,0.1,0,0.1,0,0.2
						c0,0.2,0,0.4,0,0.6c0,0,0,0.1,0,0.1c-0.2,0.3,0.2,0.7,0,1c0,0,0,0.1,0,0.1c0,0,0,0.1,0,0.1c0,0.1,0,0.1,0,0.2c0,0.7,0,1.4,0,2"
						/>
					<path class="st12" d="M51.7,2.6c-0.2,1.8,0,3.5,0,5.3c0,0.1,0,0.1,0,0.2c0,0.5,0,1.1,0,1.7c0,0,0,0.1,0,0.1c0,0.1,0,0.2,0,0.4
						c0,0.1,0,0.1,0,0.2c0,0,0,0.1,0,0.1c0,0,0,0.1,0,0.1c-0.2,0.3,0.2,0.7,0,1c0,0,0,0.1,0,0.1c0,0.7,0,1.3,0,2"/>
					<path class="st12" d="M52.1,3c0,1.6,0,3.2,0,4.7c0,0.1,0,0.1,0,0.2c0,0.6,0,1.2,0,1.7c0,0.1,0,0.1,0,0.2s0,0.1,0,0.2
						c0,0.1,0,0.2,0,0.4c0,0,0,0.1,0,0.1c-0.2,0.3,0.2,0.7,0,1v0.1c0,0.5,0,1.1,0,1.6"/>
					<path class="st12" d="M52.4,2.5c0.2,1.8,0,3.6,0.2,5.4c0,0.1,0,0.1,0,0.2c0,0.5-0.2,1,0,1.4c0,0.1,0,0.1,0,0.2
						c0,0.1,0,0.1,0,0.2c0,0.2,0,0.4,0,0.6c0,0,0,0.1,0,0.1c0,0.2,0,0.5,0,0.7v0.1c0,0.8,0,1.5,0,2.3"/>
					<path class="st12" d="M52.8,2.7c0.2,1.7,0,3.4,0.2,5.1c0,0.1,0,0.1,0,0.2c0,0.1,0,0.1,0,0.2c0,0.4,0,0.8,0,1.2
						c0,0.1,0,0.1,0,0.2c0,1.3,0,2.5,0,3.8"/>
					<path class="st12" d="M53.3,0.6c0.2,0.3,0.2,0.5,0,0.8c0,0.1,0,0.1,0,0.2s0,0.1,0,0.2c0,0.1,0,0.1,0,0.2c-0.2,2,0,4-0.2,5.9
						c0,0.1,0,0.1,0,0.2c0,0.1,0,0.2,0,0.3c0,0,0,0.1,0,0.1c0,0.2,0.2,0.5,0,0.7c0,0.1,0,0.1,0,0.2c0,1.9,0.2,3.7,0,5.6
						c0,0.1,0,0.1,0,0.2c0,0.4,0,0.8,0.2,1.1"/>
					<path class="st12" d="M54,1.2c-0.2,0.1,0,0.3,0,0.4c0,0,0,0.1,0,0.1s0,0.1,0,0.1c0,0.7,0,1.4,0,2.1C54,4,54,4,54,4.1
						c0,0.1,0,0.1,0,0.2v0.2c0,0.1,0,0.1,0,0.2c0,0.6,0,1.2,0,1.7c0,0.1,0,0.1,0,0.2c0,0.3,0,0.5,0,0.8c0,0.1,0,0.1,0,0.2
						c0,0.5,0,1.1,0,1.6c0,0.1,0,0.1,0,0.2c0,0.3,0,0.5,0,0.8c0,0.1,0,0.1,0,0.2c0,0.3,0,0.5,0,0.8c0,0.1,0,0.1,0,0.2
						c0,1.2,0,2.4,0,3.5"/>
					<path class="st12" d="M54.2,2.9c0,0.4,0,0.9,0,1.3c0,0.1,0,0.1,0,0.2c0,0.7,0,1.4,0,2.1c0,0.1,0,0.1,0,0.2c0,0.2,0,0.5,0,0.8
						c0,0.1,0,0.1,0,0.2c0.2,0.5,0,1.1,0,1.6c0,0.1,0,0.1,0,0.2c0,0.1,0,0.1,0,0.2v0.1c0,0.1,0,0.1,0,0.2s0,0.1,0,0.2
						c0,0.4,0,0.9,0,1.3v0.2c0,0.5,0,1.1,0,1.6"/>
					<path class="st12" d="M54.7,1.2c0,0.1,0,0.2,0,0.3c0,0,0,0.1,0,0.1c0,0.1,0,0.2,0,0.4c0,0,0,0.1,0,0.1c0,0.9,0,1.7,0,2.6
						c0,0.1,0,0.1,0,0.2c0,0.4,0,0.9,0,1.4c0,0.1,0,0.1,0,0.2c0,0.2,0,0.5,0,0.8c0,0.1,0,0.1,0,0.2c0,0.6,0.2,1.1,0,1.7
						c0,0.1,0,0.1,0,0.2c0,0.1,0,0.1,0,0.2v0.2v0.2V10c0,0.5,0,1,0,1.5v0.1v0.1v0.1c0,0,0,0,0,0.1c0,0,0,0,0,0.1V12
						c0,0.2,0,0.3,0,0.5v0.1c0,0.7,0,1.3,0,2c0,0.1,0,0.1,0,0.2s0,0.1,0,0.2"/>
					<path class="st12" d="M55.6,2.7c0,0.1,0,0.3,0,0.4c0,0,0,0.1,0,0.1c-0.2,0.2,0.2,0.5,0,0.7c0,0,0,0.1,0,0.1c0,0.8,0,1.6,0,2.4
						c0,0,0,0.1,0,0.1v0.1c0,0.2,0,0.5,0,0.7c0,0,0,0.1,0,0.1c0,0.5,0,1.1,0,1.6c0,0.1,0,0.1,0,0.2c0,0.1,0,0.1,0,0.2s0,0.1,0,0.2
						c0,0.6,0,1.2,0,1.8v0.1c-0.5,0.2,0.2,0.4,0,0.7c0,0,0,0,0,0.1c0,0.1,0,0.2,0,0.4c0,0,0,0,0,0.1v0.7"/>
					<path class="st12" d="M55.9,2.8c0,0.1,0,0.3,0,0.4c0,0,0,0.1,0,0.1c-0.2,0.2,0,0.4,0,0.6v0c0,0.9,0,1.7,0,2.5c0,0,0,0.1,0,0.1
						c-0.2,0.2,0,0.5,0,0.8c0,0.1,0,0.1,0,0.2c-0.2,0.5-0.2,1.1,0,1.5c0,0.1,0,0.1,0,0.2c0,0.1,0,0.2,0,0.4c0,0.1,0,0.1,0,0.2
						c0,0.5,0,1.1,0,1.6v0.1v0.1c0,0,0,0,0,0.1c-0.2,0.2,0,0.3,0,0.5c0,0,0,0,0,0.1c0,0.1,0,0.3,0,0.4v0.1v0.7c0,0,0,0.1,0,0.1
						c-0.2,0.1-0.2,0.2,0,0.4"/>
					<path class="st12" d="M56.3,2.1c0,0.2,0.2,0.3,0,0.5c0,0,0,0.1,0,0.1c0,1.2,0,2.4,0,3.5c0,0,0,0.1,0,0.1c0,0,0,0.1,0,0.1
						c-0.2,0.3,0,0.7,0,1c0,0,0,0.1,0,0.1c-0.2,0.4-0.2,0.9,0,1.4c0,0.1,0,0.1,0,0.2c0,0.2,0,0.3,0,0.5c0,0.1,0,0.1,0,0.2
						c0,0.5,0,1,0,1.5v0.2v0.2c0,0,0,0,0,0.1c-0.2,0.2,0,0.4,0,0.7c0,0,0,0.1,0,0.1v0.8c0,0,0,0.1,0,0.1c-0.2,0.1-0.2,0.3,0,0.4"/>
					<path class="st12" d="M56.8,2.7c0,1.2,0,2.4,0,3.5c0,0.1,0,0.1,0,0.2c0,0,0,0.1,0,0.1c-0.2,0.3,0,0.7,0,1c0,0,0,0.1,0,0.1
						c0,0,0,0.1,0,0.1c-0.2,0.4,0,0.8,0,1.1c0,0.1,0,0.1,0,0.2c0,0.1,0,0.1,0,0.2v0.1v0.1c0,0.1,0,0.2,0,0.3c0,0.1,0,0.1,0,0.2
						c0,0.4,0,0.9,0,1.2v0.1v2.1c0,0,0,0.1,0,0.1v0"/>
					<path class="st12" d="M58.2,2.9c0,0.8,0,1.6,0,2.4c0,0.1,0,0.1,0,0.2c-0.2,0.6,0,1.2,0,1.7c0,0,0,0.1,0,0.1c0,0.1,0,0.1,0,0.2
						v0.1v0.1v0.1c0,0.2-0.2,0.3,0,0.5c0.2,0.4,0.2,0.9,0,1.3c0,0.1,0,0.1,0,0.2c0,0.2,0,0.3,0,0.5c0,0,0,0.1,0,0.1v0.9v0.1
						c0,0.1,0,0.2,0,0.4c0,0,0,0,0,0.1c0,0.2,0,0.4,0,0.6c0,0,0,0.1,0,0.1c0,0.2,0,0.4,0,0.7"/>
					<path class="st12" d="M58.7,2.7c0,0.9,0,1.7,0,2.6c0,0.1,0,0.1,0,0.2c-0.2,0.5,0,1.1,0,1.7v0.2v0.3c0,0.1,0,0.1,0,0.2
						c-0.2,0.5,0.2,1.1,0,1.6c0,0,0,0.1,0,0.1v1.7c0,0,0,0.1,0,0.1c0,0.7-0.2,1.4,0,2.2"/>
					<path class="st12" d="M58.9-0.1c0,0,0,0.1,0,0.1c0,0,0,0.1,0,0.1c0,0.2-0.2,0.5,0,0.7V1v0.8V2c0,0.4,0.2,0.8,0.2,1.2
						c0,0.7,0,1.5-0.2,2.2c0,0.1,0,0.1,0,0.2c0.2,0.5,0,1.1,0,1.6c0,0.1,0,0.1,0,0.2V8c0,0.1,0,0.1,0,0.2c0,0.4,0.2,0.8,0,1.2v0.2
						V11c0,0.1,0,0.1,0,0.2c0,0.8-0.2,1.5,0,2.4c0,0.1,0,0.1,0,0.2c0,0.9,0,1.9,0,2.7"/>
					<path class="st12" d="M59.3,0.4V2v0.1c0,0.4,0.2,0.8,0.2,1.2c0,0.3,0,0.7,0,1c0,0.1,0,0.1,0,0.2c0,0.3,0,0.7,0,1
						c0,0.1,0,0.1,0,0.2c0,0.1,0,0.3,0,0.4v0.1v2.1c0,0.1,0,0.1,0,0.2c0,0.2,0,0.4,0,0.6v0.2v1.8c0,0.1,0,0.1,0,0.2
						c0,0.7-0.2,1.4,0,2.2c0,0.1,0,0.1,0,0.2c0,0.7,0,1.4,0,2.1"/>
					<path class="st12" d="M59.8,3C60,3.4,60,3.8,60,4.2c0,0.1,0,0.1,0,0.2c0,0.4,0,0.9-0.2,1.3c0,0.1,0,0.1,0,0.2c0,0,0,0.1,0,0.1
						v0.1v1c0,0.1,0,0.1,0,0.2c0,0.2,0,0.4,0,0.6c0,0.1,0,0.1,0,0.2v3c0,0,0,0.1,0,0.1c0,0.5-0.2,1.1,0,1.7"/>
					<path class="st12" d="M60.3-1.2v2.3v0.1c0,0.4,0,0.9,0,1.3c0,0.1,0,0.1,0,0.2c0.2,0.4,0.2,0.8,0,1.3c0,0.1,0,0.1,0,0.2
						c0,0.5,0,1.1-0.2,1.6c0,0.1,0,0.1,0,0.2v0.2v4.6v0.1c0,0.1,0,0.1,0,0.2c0,0.1,0,0.1,0,0.2c0,0.7,0,1.3,0,2c0,0.1,0,0.1,0,0.2
						c0,0,0,0.1,0,0.1v0.1c-0.2,0.3,0,0.6,0,0.9c0,0,0,0.1,0,0.1c0,0.9,0.5,1.8,0,2.7c0,0.1,0,0.1,0,0.1"/>
					<path class="st12" d="M60.7,0.9v0.3v0.1c0,0.4,0,0.8,0,1.1c0,0.1,0,0.1,0,0.2c0,0.4,0,0.9,0,1.3c0,0.1,0,0.1,0,0.2
						c0,0.6,0,1.2,0,1.9v0.2v0.5v0.1c0,0.2,0,0.4,0,0.6c0,0,0,0,0,0.1c0,0.1,0,0.1,0,0.2c0,0,0,0,0,0.1v2.9v0.1c0,0.2,0,0.4,0,0.6
						c0,0.1,0,0.1,0,0.2c0,0.4,0,0.9,0,1.4c0,0.1,0,0.1,0,0.2c0,0.1,0,0.2,0,0.3c0,0,0,0.1,0,0.1c-0.2,0.3,0.2,0.7,0,1.1
						c0,0,0,0.1,0,0.1c0,0.2,0,0.5,0,0.7"/>
					<path class="st12" d="M61.2-0.1c0,0.2,0.2,0.3,0,0.5c0,0,0,0,0,0.1v0.1c0,0,0,0,0,0.1c0,0.1,0,0.2,0,0.3c0,0.1,0,0.1,0,0.2
						c0,0.4,0,0.8,0,1.1c0,0.1,0,0.1,0,0.2c0,0.5,0,1,0,1.5c0,0.1,0,0.1,0,0.2c0,0.5-0.2,1.1,0,1.7c0,0,0,0.1,0,0.1v0.6v0.1
						c-0.2,0.2,0,0.4,0,0.7c0,0,0,0,0,0.1c0,0.1,0,0.2,0,0.3c0,0,0,0.1,0,0.1v2.7v0.1c0,0.2,0,0.4,0,0.6c0,0.1,0,0.1,0,0.2
						c0,0.4,0,0.8,0,1.2c0,0.1,0,0.1,0,0.2c0,0.2,0,0.5,0,0.7c0,0,0,0.1,0,0.1c-0.2,0.2,0,0.4,0,0.7c0,0,0,0.1,0,0.1
						c-0.2,0.6,0,1.2,0,1.8"/>
					<path class="st12" d="M61.7,1.7c0,0.2,0,0.4,0,0.7c0,0.1,0,0.1,0,0.2c-0.2,0.4-0.2,0.9-0.2,1.4c0,0.1,0,0.1,0,0.2
						c0,0.6,0,1.1,0,1.7c0,0,0,0.1,0,0.1c0,0.2,0,0.4,0,0.6v0.1c0,0,0,0,0,0.1c0,0.2,0,0.4,0,0.5c0,0,0,0,0,0.1c0,0.1,0,0.2,0,0.3v0
						v3.7c0,0.2,0,0.3,0,0.5c0,0.2,0,0.3,0,0.5c0,0.1,0,0.3,0,0.4v0.8c0,0.1,0,0.1,0,0.2c0,0.3,0.2,0.5,0,0.8c0,0,0,0.1,0,0.1V15"/>
					<path class="st12" d="M61.9-0.9c0,0.1,0,0.3,0.2,0.4c0,0,0,0.1,0,0.1c-0.2,0.1-0.2,0.2-0.2,0.2c0,0.3,0.2,0.5,0,0.8
						c0,0,0,0.1,0,0.1c0,0.5,0,1,0,1.6c0,0.1,0,0.1,0,0.2c-0.2,0.5-0.2,1.1,0,1.6c0,0.1,0,0.1,0,0.2c0,0.5-0.2,1,0,1.5
						c0,0.1,0,0.1,0,0.2c0,0.2,0,0.4,0,0.7c0,0,0,0.1,0,0.1v7c0,0,0,0.1,0,0.1c0,0.1,0,0.2,0,0.3c0,0.1,0,0.1,0,0.2c0,1-0.2,2,0,3"
						/>
					<path class="st12" d="M62.4,0c0.2,0.1,0.2,0.3,0.2,0.4c0,0.1,0,0.1,0,0.2c0,0.5,0,1.1,0,1.6c0,0.1,0,0.1,0,0.2
						c-0.2,0.5-0.2,1.1,0,1.7c0,0.1,0,0.1,0,0.2c0,0.4,0,0.9,0,1.3c0,0.1,0,0.1,0,0.2c0,0.3,0,0.7,0,1v0.2v4.9v0.1
						c0,0.4,0,0.9,0,1.4c0,0.1,0,0.1,0,0.2c0,0.2,0,0.4,0,0.7c0,0.1,0,0.1,0,0.2c0,0.5-0.2,1,0,1.5"/>
					<path class="st12" d="M62.8,2.2c0,0.1,0,0.3,0,0.4c0,0.1,0,0.1,0,0.2c0,0.4,0,0.8,0,1.2c0,0.1,0,0.1,0,0.2c0,0.2,0,0.4,0,0.6
						c0,0.1,0,0.1,0,0.2c0,0.1,0,0.1,0,0.2c0,0.1,0,0.1,0,0.2c0,0.5,0,1.1,0,1.6v0.2v4.7V12c0,0.6,0,1.3,0,1.9"/>
					<path class="st12" d="M63.3,0.7c0,0.7,0,1.4,0,2.1c0,0.1,0,0.1,0,0.2c0,0.3,0,0.5,0,0.8c0,0.1,0,0.1,0,0.2c0,1,0,1.9,0,2.9v0.2
						v4.3v0.1c0,1.3,0,2.7,0,4"/>
					<path class="st12" d="M63.8,0.9c0,2,0,4,0,6.1v0.2v4.4v0.1c0,0,0,0.1,0,0.1c0,0.3,0,0.5,0,0.8c0,0.1,0,0.1,0,0.2
						c0,0.2,0,0.3,0,0.5v0.2c0,0.7,0,1.4,0,2.2"/>
					<path class="st12" d="M64.2-0.7v1.2c0,0.1,0,0.1,0,0.2c0,2,0,4,0,6c0,0.1,0,0.1,0,0.2v1.3c0,0,0,0.1,0,0.1c0,1,0,1.9,0,2.9v0.1
						c0,0.5,0,1,0,1.4c0,0.1,0,0.1,0,0.2c0,0.1,0,0.1,0,0.2c0,1.2-0.5,2.3,0,3.5"/>
					<path class="st12" d="M64.5,2.1c0,0.3,0,0.6,0,0.9c0,0,0,0.1,0,0.1v0.1c0,0,0,0.1,0,0.1c0,1.1,0,2.2,0,3.3c0,0.1,0,0.1,0,0.2
						v1.3c0,0,0,0.1,0,0.1c0,1,0,2,0,3c0,0.1,0,0.1,0,0.2c0,0.5,0,1.1,0,1.6v0.2c0,0.3,0,0.6,0,0.9"/>
					<path class="st12" d="M64.9,0.7c0,0.1,0,0.2,0,0.3v0v3.2v0.1v0.1c0,0.2,0,0.3,0,0.4c0,0.1,0,0.1,0,0.2c0,0.4,0,0.9,0,1.3v0.1V8
						c0,0,0,0.1,0,0.1c0,0.3,0,0.7,0,1c0,0.1,0,0.1,0,0.2c0,0.4,0,0.9,0,1.3c0,0.1,0,0.2,0,0.3c0,0.8,0,1.6,0,2.5c0,0.1,0,0.1,0,0.2
						c0,0.7-0.2,1.3,0,1.9"/>
					<path class="st12" d="M65.4,2.7v1.6v0.1c0,0.3,0,0.7,0,1v0c0,0.1,0,0.3,0,0.4c0,0,0,0.1,0,0.1c0,0.1,0,0.2,0,0.3v0.1v1
						c0,0,0,0.1,0,0.1c0,0.1,0,0.2,0,0.3v0.1V8c0,0,0,0.1,0,0.1c0,0.2,0,0.4,0,0.6c0,0.1,0,0.1,0,0.2c0,0.2,0,0.3,0,0.5
						c0,0.1,0,0.1,0,0.2c0,0.2,0,0.4,0,0.7c0,0.1,0,0.1,0,0.2c0,0.2,0,0.3,0,0.5c0,0.1,0,0.1,0,0.2c0.2,0.7,0,1.3,0,2
						c0,0.1,0,0.1,0,0.2c0,0.1,0,0.1,0,0.2"/>
					<path class="st12" d="M65.9-0.2v0.6c0,0,0,0,0,0.1c0,0.2,0,0.4,0,0.5v0v3.2v0.1c0,0.3,0,0.6,0,0.9c0,0,0,0.1,0,0.1
						c-0.2,0.2,0.2,0.4,0,0.7c0,0,0,0,0,0.1c0,0,0,0,0,0.1v1v0.1c-0.2,0.2,0.2,0.5,0,0.7c0,0,0,0,0,0.1c0,0.2,0,0.4,0,0.6v0.2v0.2
						c0,0.1,0,0.1,0,0.2c0,0.3,0,0.7,0,1c0,0.1,0,0.2,0,0.3c0.2,1.9,0,3.9,0,5.8c0,0.1,0,0.2,0,0.2"/>
					<path class="st12" d="M66.3,2.5v2c0,0,0,0.1,0,0.1c0,0.2,0,0.4,0,0.7c0,0,0,0,0,0.1c-0.2,0.2,0.2,0.4,0,0.6c0,0,0,0.1,0,0.1
						v0.1v1.2c0,0,0,0,0,0.1c0,0.2,0.2,0.4,0,0.6c0,0,0,0,0,0.1c0,0.2,0,0.3,0,0.5c0,0.1,0,0.1,0,0.2c0,0.1,0,0.1,0,0.2
						c0,0.1,0,0.1,0,0.2c-0.2,0.5,0.2,1.1,0,1.6c0,0.1,0,0.1,0,0.2s0,0.1,0,0.2c0.2,0.6,0,1.2,0,1.9v0.1v0.6"/>
					<path class="st12" d="M66.8-1v5.6v0.1c0,0.2,0,0.5,0,0.8c0,0,0,0,0,0.1c0,0.1,0,0.3,0,0.4v0.1v1.5c0,0,0,0,0,0.1
						c0,0.1,0,0.2,0,0.3v0.1V8c0,0,0,0.1,0,0.1c0,0.1,0,0.3,0,0.4c0,0.1,0,0.1,0,0.2s0,0.1,0,0.2c0,0.1,0,0.1,0,0.2
						c-0.2,0.4,0,0.9,0.2,1.4c0,0.1,0,0.1,0,0.2c-0.2,1.9,0,3.8,0,5.8c0,0.1,0,0.1,0,0.2v0.9"/>
					<path class="st12" d="M67.2-0.8v8.7v0.2c0,0.2,0,0.4,0,0.6v0.2V9c0,0.1,0,0.1,0,0.2c-0.2,0.4,0.2,0.9,0.2,1.3
						c0,0.1,0,0.2,0,0.3c-0.2,1.9,0,3.8,0,5.7v0.1v0.3"/>
					<path class="st12" d="M67.5-1v9.3v0.2c0,0.1,0,0.1,0,0.2s0,0.1,0,0.2c0,0.1,0,0.1,0,0.2c0,0.1,0,0.1,0,0.2
						c-0.2,0.4,0.2,0.8,0.2,1.2c0,0.1,0,0.2,0,0.3c-0.2,1.8,0,3.6,0,5.5c0,0.1,0,0.1,0,0.2v0.9"/>
					<path class="st12" d="M67.9,0.1v8.7v0.2c0,0.1,0,0.1,0,0.2c0,0,0,0.1,0,0.1c-0.2,0.5,0.2,1,0,1.5c0,0,0,0.1,0,0.1
						c0,0.1,0,0.1,0,0.2c0,1,0,2,0,2.9c0,0.1,0,0.1,0,0.2s0,0.1,0,0.2c0,0.6,0,1.1,0,1.7c0,0.1,0,0.1,0,0.2c0,0.1,0,0.1,0,0.2"/>
					<path class="st12" d="M68.4,2.3v1.2c0,0.1,0,0.1,0,0.2c0,0.2,0,0.5,0,0.8c0,0,0,0.1,0,0.1v4.7c0,0.1,0,0.1,0,0.1
						c-0.2,0.4,0.2,0.9,0,1.3c0,0,0,0.1,0,0.1c0,0.1,0.2,0.3,0,0.4v0.1v0.1c0,0.1,0,0.1,0,0.2c0,0.8,0,1.6,0,2.5"/>
					<path class="st12" d="M68.9,2.7v0.5c0,0,0,0.1,0,0.1c0,0,0,0.1,0,0.1c0,0,0,0.1,0,0.1c0.2,0.4,0.2,0.8,0,1.2c0,0.1,0,0.1,0,0.2
						v4.6c0,0.1,0,0.1,0,0.2c0,0.2,0,0.4,0,0.6c0,0.1,0,0.1,0,0.2v0.1c-0.2,0.2,0,0.4,0,0.6v0.1v0.1v0.1c0,0.7,0,1.3,0,2"/>
					<path class="st12" d="M69.3-0.4c0,0.1,0,0.1,0,0.2c0,0.1,0,0.1,0,0.2c0,0.4,0,0.9,0,1.3c0,0,0,0.1,0,0.1
						c-0.2,0.2,0.2,0.4,0,0.7c0,0,0,0.1,0,0.1c0,0.3,0,0.5,0,0.8c0,0,0,0.1,0,0.1c0,0.1,0,0.1,0,0.2s0,0.1,0,0.2
						c0.5,0.4,0.2,0.9,0,1.3c0,0.1,0,0.1,0,0.2v0.1v0.1c0,0.3,0,0.7,0,1v0.1v5v0.1c0,1.9,0,3.8,0,5.7"/>
					<path class="st12" d="M69.8,0.6c0,0.3,0,0.5,0,0.8c0,0,0,0.1,0,0.1c0,0.2,0.2,0.4,0,0.7c0,0,0,0.1,0,0.1c0,0.2,0,0.5,0,0.7
						c0,0,0,0.1,0,0.1c0,0.1,0,0.1,0,0.2c0.2,0.6,0.2,1.1,0,1.7c0,0,0,0.1,0,0.1c0,0.1,0,0.1,0,0.2c0,0.3,0,0.7,0,1v0.1v4.9v0.1
						c0,0.2,0,0.4,0,0.6v0.2c0,1.4,0,2.7,0,4.1"/>
					<path class="st12" d="M70.3,2.3c0,0.2,0,0.4,0,0.6c0,0,0,0.1,0,0.1c0,0.1,0,0.1,0,0.2c0.2,0.5,0,1.1,0,1.7c0,0.1,0,0.1,0,0.2
						c0,0.5,0,1.1,0,1.6v0.1v1.1v0.2c0,1,0,2,0,3c0,0.1,0,0.1,0,0.2s0,0.1,0,0.2c0,0.1,0,0.1,0,0.2c0,0.8,0,1.6,0,2.4"/>
					<path class="st12" d="M70.5,2.9c0,0.1,0,0.2,0,0.2c0,0,0,0.1,0,0.1c0,0.5,0,1.1,0,1.7c0,0.1,0,0.1,0,0.2c0,0.5,0,1,0,1.5
						c0,0,0,0.1,0,0.1c0,0.1,0,0.2,0,0.4v0.1V8v0.1c0,1,0,2,0,2.9c0,0.1,0,0.1,0,0.2c0,0.1,0,0.1,0,0.2s0,0.1,0,0.2
						c0,0.6,0,1.1,0,1.7"/>
					<path class="st12" d="M71,2.7c0,0.1,0,0.2,0,0.4c0,0.1,0,0.1,0,0.2c-0.2,0.5-0.2,1.1,0,1.7c0,0.1,0,0.1,0,0.2
						c0,0.5,0,1.1,0,1.7v0.1c0,0.1,0,0.3,0,0.4v0.1v0.4v0.1c0,1.1,0,2.1,0,3.2v0.2c0,0.8,0,1.6,0,2.5"/>
					<path class="st12" d="M71.4,1.8c0,0.3,0,0.6,0,0.9c0,0,0,0.1,0,0.1c0,0.1,0,0.3,0,0.4c0,0,0,0.1,0,0.1c0,0.4,0,0.9,0,1.3
						c0,0.1,0,0.1,0,0.2c0,0.6,0,1.2,0,1.8c0,0.1,0,0.1,0,0.2c0,0.2,0,0.4,0,0.6c0,0,0,0.1,0,0.2v0.1v0.1c0,1.2,0,2.3,0,3.5
						c0,0.1,0,0.1,0,0.2c0,0.9,0,1.8,0,2.7"/>
					<path class="st12" d="M71.9,2.3c0,0,0,0.1,0,0.1c0,0,0,0.1,0,0.1c0,0.3,0.2,0.7,0,1c0,0,0,0.1,0,0.1c0,0.3,0,0.5,0,0.8
						c0,0.1,0,0.1,0,0.2c0,0.7,0,1.4,0,2.1c0,0.1,0,0.1,0,0.2c0,0.3,0,0.5,0,0.8v0.1c0,1.2,0,2.4,0,3.6c0,0.1,0,0.1,0,0.2
						s0,0.1,0,0.2c0,0.1,0,0.1,0,0.2c0,0.5,0,1,0,1.5c0,0.1,0,0.1,0,0.2c0,0.1,0,0.1,0,0.2"/>
					<path class="st12" d="M72.4-0.4v0.2V0v0.2c0,0.8,0,1.5,0,2.2c0,0,0,0.1,0,0.1c-0.2,0.3,0.2,0.7,0,1c0,0,0,0.1,0,0.1
						c0,0.1,0,0.2,0,0.2c0,0.1,0,0.1,0,0.2c0,0.5,0,1.1,0,1.6c0,0.1,0,0.1,0,0.2c0,0.2,0,0.5,0,0.7c0,0.1,0,0.1,0,0.2
						c0,0.3,0,0.6,0,0.9v0.2c0,1.2,0,2.4,0,3.6v0.2c0,0.1,0,0.1,0,0.2c0,0.6,0.2,1.2,0,1.7c0,0.1,0,0.1,0,0.2c0,0.3,0,0.7,0,1
						c0,0.1,0,0.1,0,0.2c0,0.1,0,0.2,0,0.3c0,0,0,0.1,0,0.1c-0.2,0.2,0,0.5,0.2,0.7c0,0.1,0,0.2-0.2,0.3"/>
					<path class="st12" d="M72.8,2.3c0,0,0,0.1,0,0.1c0,0,0,0.1,0,0.1c-0.2,0.3,0.2,0.6,0,0.9c0,0,0,0.1,0,0.1c0,0.4,0,0.9,0,1.3
						c0,0.1,0,0.1,0,0.2c0,0.1,0,0.1,0,0.2c0,0.3,0,0.7,0,1c0,0.1,0,0.1,0,0.2c0,0.4,0,0.8,0,1.2v0.1c0,1.2,0,2.5,0,3.8
						c0,0.1,0,0.1,0,0.2c0,0.6,0,1.3,0,1.9c0,0.1,0,0.1,0,0.2"/>
					<path class="st12" d="M73.3,1.9v0.7c0,0,0,0.1,0,0.1c0,0.2,0.2,0.4,0,0.7c0,0,0,0.1,0,0.1v0.1c0,0.7,0,1.3,0,2v0.1
						c0,0.1,0,0.3,0,0.4c0,0,0,0.1,0,0.1c0,0.2,0,0.4,0,0.7c0,0,0,0.1,0,0.1c0,0.2,0,0.3,0,0.5v0.2c0,1.1,0,2.2,0,3.4
						c0,0.1,0,0.1,0,0.2c0,0.7,0,1.4,0,2.1c0,0.1,0,0.1,0,0.2s0,0.1,0,0.1v0.3"/>
					<path class="st12" d="M73.5,2.9v0.7v0.2c0,0.2,0,0.4,0,0.6c0,0,0,0.1,0,0.1c0,0.2,0,0.4,0,0.5v0.1c0,0.2,0,0.4,0,0.5v0.2v0.1
						v0.1c0,0.2,0,0.4,0,0.6c0,0,0,0,0,0.1c0,0.2,0,0.4,0,0.6c0,0,0,0.1,0,0.1c0,0.1,0,0.2,0,0.3c0,0,0,0,0,0.1c0,0.2,0,0.4,0,0.6
						v0.1v0.1c0,0.2,0,0.4,0,0.5c0,0,0,0.1,0,0.1c0,0.2,0,0.5,0,0.7v0.1c0,0.1,0,0.2,0,0.2v0.1c0,0.3,0,0.5,0,0.8c0,0,0,0.1,0,0.1
						v0.2v0.2c0,0.1,0,0.2,0,0.3c0,0,0,0.1,0,0.1c-0.2,0.2,0,0.4,0,0.7c0,0,0,0,0,0.1c0,0.4,0,0.8,0,1.1"/>
					<path class="st12" d="M74,1.9v1.9V4c0,0.1,0,0.3,0,0.4c0,0,0,0.1,0,0.1c-0.2,0.2,0,0.3,0,0.5c0,0.1-0.2,0.2,0,0.2
						c0,0,0,0.1,0,0.1c0,0.1,0,0.2,0,0.3v0.2v0.2v0.1c-0.2,0.2,0.2,0.4,0,0.7c0,0,0,0,0,0.1c0,0.2,0,0.4,0,0.7c0,0,0,0.1,0,0.1v0.1
						v0.1c-0.2,0.2,0,0.4,0,0.7c0,0,0,0,0,0.1c0,0,0,0.1,0,0.1c0,0,0,0.1,0,0.1V9v0c-0.2,0.3,0,0.5,0,0.8v0.1v0.2c0,0,0,0.1,0,0.1
						c-0.2,0.3,0.2,0.6,0,0.9c0,0,0,0,0,0.1v0.3c0,0,0,0.1,0,0.1s0,0.2,0,0.2c0,0,0,0.1,0,0.1c-0.2,0.2,0,0.5,0,0.7c0,0,0,0.1,0,0.1
						c0,0.4,0,0.8,0,1.1v0.2v0.1"/>
					<path class="st12" d="M74.5-1.1c0,0,0,0.1,0,0.1c-0.2,3.6,0,7.2-0.2,10.7c0,0.2-0.2,0.4-0.2,0.6c0,0.3,0.2,0.5,0.2,0.9
						c0,0.1,0,0.1,0,0.1v0.2c0,0.1,0,0.2,0,0.2c0,0,0,0.1,0,0.1c0,0.2,0,0.4,0,0.7c0,0,0,0.1,0,0.1c0,0.4,0,0.8,0,1.2v0.1v3.6"/>
					<path class="st12" d="M74.9-0.2c0,3.8,0,7.5,0,11.2c0,0.1,0,0.1,0,0.2v0.2c0,0.1,0,0.1,0,0.2c0,0.7,0,1.4,0,2.1V14v0.2v2.1"/>
					<path class="st12" d="M75.4,2.8c0,0.7,0,1.3,0,2c0,0,0,0.1,0,0.1v5.2v0.1c0,0.4,0,0.8,0,1.2c0,0.1,0,0.1,0,0.2
						c0,0.7,0,1.3,0,1.9c0,0.1,0,0.1,0,0.2"/>
					<path class="st12" d="M75.8,0.3c0,0.1,0,0.2,0,0.3c0,0.1,0,0.1,0,0.2v0.5v0.2c0,1.2,0.2,2.3,0,3.5v0.1v0.7v0.6V7v0.6V10v0.1
						c0,0.4,0,0.9,0,1.3c0,0.1,0,0.1,0,0.2c0,0.5,0,1,0,1.5c0,0.1,0,0.1,0,0.2c0,0.3,0,0.7,0,1v0.2v1.6"/>
					<path class="st12" d="M76.1,1.1v0.2v0.2c0,1.2,0.2,2.3,0,3.5c0,0,0,0.1,0,0.1v0.6v0.6V7v0.6v2.2v0.1c0,1.4,0,2.9,0,4.3v0.2v0.9
						"/>
					<path class="st12" d="M76.5,3.2v2v0.5c0,0.6,0,1.2,0,1.7v0.6v1.6v0.1c0,0.7,0,1.4,0,2.2c0,0,0,0.1,0,0.1c0,0.2,0,0.4,0,0.6
						c0,0,0,0.1,0,0.1c0,0,0,0.1,0,0.1"/>
					<path class="st12" d="M77,1.6c-0.2,1.1,0.2,2.3,0,3.4c0,0,0,0.1,0,0.1v0.2v0.6c0,0.4,0,0.8,0,1.2v0.6v2v0.1c0,0.8,0,1.5,0,2.2
						c0,0,0,0.1,0,0.1c0,0.2,0.2,0.4,0,0.7c0,0,0,0.1,0,0.1c0,0.4,0,0.8,0,1.2v0.2v0.1"/>
					<path class="st12" d="M77.5,3.5v2.1v0.5c0,0.4,0,0.8,0,1.2v0.6v2V10c0,0.7,0,1.4,0,2.2c0,0,0,0.1,0,0.1c0,0.2,0,0.4,0,0.6
						c0,0,0,0.1,0,0.1"/>
					<path class="st12" d="M77.9,0.7v1v0.2c0,0.7,0,1.3,0,2c0,0.1,0,0.1,0,0.2c0.2,1.4,0,2.9,0,4.3c0,0.5,0,1,0,1.5
						c0,0.1,0,0.1,0,0.2v0.1c0,0.3,0,0.5,0,0.8c0,0.1,0,0.1,0,0.2c0.2,1.2-0.2,2.4,0,3.5v0.2v0.6"/>
					<path class="st12" d="M78.4-1v4.7c0,0.1,0,0.1,0,0.2c0.2,2-0.2,3.8,0,5.8c0,0.1,0,0.1,0,0.2v1.4v0.2c0,0.2,0,0.5,0,0.8
						c0,0.1,0,0.1,0,0.2v0.4c0,0.1,0,0.1,0,0.2c0,0.3,0,0.6,0,0.9c0,0,0,0.1,0,0.1c0,0.1,0,0.2,0,0.3v0v2.9"/>
					<path class="st12" d="M78.9,2v1.5c0,0,0,0.1,0,0.1c0.2,1.7-0.2,3.4,0,5.1c0,0.1,0,0.1,0,0.2c0,0.5,0,1.1,0,1.6v0.1v2.9v0
						c0,0.1,0,0.2,0,0.4"/>
					<path class="st12" d="M79.1,3v0.4v0.2c0,1.5-0.2,3,0,4.5c0,0.1,0,0.1,0,0.2c0,0.2,0,0.5,0,0.7c0,0.1,0,0.1,0,0.2
						c0,0.4,0,0.8,0,1.2v0.1v2.8"/>
					<path class="st12" d="M79.6,1.4v1.3c0,0.2,0,0.3,0,0.5c0,0.1,0,0.2,0,0.3c0,0,0,0.1,0,0.1c0,1,0,2,0,2.9c0,0.1,0,0.1,0,0.2
						c0,0.1,0,0.1,0,0.2c0.2,0.2,0,0.5,0,0.8c0,0.1,0,0.1,0,0.2c0,0.4,0,0.9,0,1.3c0,0.1,0,0.1,0,0.2c0,0.2,0,0.4,0,0.6v0.1v5"/>
					<path class="st12" d="M80,1c0,0.2,0,0.4,0,0.6c0,0,0,0.1,0,0.1v0.8c0,0.2,0,0.4,0,0.6c0,0.1,0,0.3,0,0.4c0,0,0,0.1,0,0.1
						c-0.2,1-0.2,1.9,0,2.8c0,0.1,0,0.1,0,0.2c0,1.1,0.2,2.2,0,3.4v0.1v3c0,0,0,0,0,0.1c0,0.1,0,0.2,0,0.3c0,0,0,0,0,0.1
						c0,0.2,0,0.4,0,0.7c0,0,0,0.1,0,0.1v1.2"/>
					<path class="st12" d="M80.5-0.3v0.4c0,0,0,0.1,0,0.2c-0.2,0.5,0,1,0,1.5c0,0,0,0.1,0,0.1v0.3c0,0.2,0,0.4,0,0.6
						c0,0.2,0,0.5,0,0.7c0,0.1,0,0.1,0,0.2c-0.2,0.8,0,1.7,0,2.5c0,0.1,0,0.1,0,0.2c0,0.1,0,0.1,0,0.2c0,0.1,0,0.1,0,0.2
						c0,0.5,0,1.1,0,1.6c0,0.1,0,0.1,0,0.2c0,0.3,0,0.5,0,0.8c0,0.1,0,0.1,0,0.2c0,0.1,0,0.1,0,0.2c0,0.2,0,0.4,0,0.6
						c0,0.1,0,0.1,0,0.2c0,0.1,0,0.1,0,0.2c0,0.1,0,0.3,0,0.4c0,0.1,0,0.1,0,0.2c0,0.1,0,0.1,0,0.2c0,1.4,0,2.8,0,4.2
						c0,0,0,0.1,0,0.1v0.5"/>
					<path class="st12" d="M81,1.1c0,0.2,0,0.4,0,0.7V2v0.4c0,0.2,0,0.3,0,0.5c0,0.3,0,0.5,0,0.8c0,0.1,0,0.1,0,0.2
						c-0.2,0.7,0,1.3-0.2,1.9c0,0.1,0,0.1,0,0.2c0,0.2,0,0.4,0,0.7c0,0.1,0,0.1,0,0.2c0,0.5,0,1,0,1.4c0,0.1,0,0.1,0,0.2
						c0.2,2-0.2,4,0,6c0,0.2,0,0.4,0,0.5c0,0.1,0.2,0.3,0.2,0.4"/>
					<path class="st12" d="M81.4-0.9v0.8c0,0.1,0,0.1,0,0.2c-0.2,0.5,0.2,1.1,0,1.6c0,0.1,0,0.1,0,0.2v0.2c0,0.2,0,0.4,0,0.6
						c0,0.4,0,0.9,0,1.3c0,0.1,0,0.1,0,0.2c0,0.2,0,0.3,0,0.5c0,0.1,0,0.1,0,0.2c0,0.1,0,0.1,0,0.2c0,0.4,0,0.8,0,1.2v0.2
						c0,0.5,0,1.1,0,1.6c0,0.1,0,0.1,0,0.2c-0.2,2.6,0.2,5.2,0,7.7c0,0,0,0.1,0,0.1v1.3"/>
					<path class="st12" d="M81.9,2v0.3c0,0.1,0,0.2,0,0.4c-0.2,0.5,0,1,0,1.5c0,0.1,0,0.2,0,0.3c0,0.1,0,0.2,0,0.3
						c0,0.1,0,0.1,0,0.2c0,0.5,0,0.9,0,1.4c0,0.1,0,0.1,0,0.2c0,2,0,4,0,6V13v1"/>
					<path class="st12" d="M82.1,2.6v0.1c0,0.1,0,0.2,0,0.3c0,0.4,0,0.9,0,1.3c0,0.1,0,0.2,0,0.3c0,0.2,0,0.4,0,0.7
						c0,0.1,0,0.1,0,0.2c0,0.3,0,0.5,0,0.8c0,0.1,0,0.1,0,0.2c0,0.1,0,0.1,0,0.2c0,0.1,0,0.1,0,0.2c0,2,0.2,4.1,0,6.1
						c0,0.1,0,0.1,0,0.2v0.5"/>
					<path class="st12" d="M82.6,1.1c0,0.2,0,0.4,0,0.6c0,0,0,0.1,0,0.1v0.7c0,0.2,0,0.3,0,0.5c0,0.3,0,0.7,0,1.1c0,0.1,0,0.2,0,0.4
						c0,0.9,0,1.7,0,2.6v0.2c0,0.3,0,0.5,0,0.8c0,0.1,0,0.1,0,0.2c0,2.3,0,4.5-0.2,6.7"/>
					<path class="st12" d="M83,3.1c0,0,0,0,0,0.1c0,0.2,0,0.4,0,0.7C83,3.9,83,4,83,4c0,0.8,0,1.6,0,2.4v0.1V7v0.2c0,0.3,0,0.6,0,1
						c0,0,0,0.1,0,0.1c0,0.2,0,0.4,0,0.7c0,0,0,0.1,0,0.1c0,0.4,0,0.8,0,1.2v0.1v2.7"/>
					<path class="st12" d="M83.5,2.1v3.2v0.1c0,0.9,0,1.7,0,2.6c0,0,0,0.1,0,0.1c0,0.3,0.2,0.7,0,1c0,0,0,0.1,0,0.1
						c0,0.2,0,0.4,0,0.6V10v3.6c0,0,0,0.1,0,0.1c0,0.2,0,0.4,0,0.5"/>
					<path class="st12" d="M84-1.1v1.7c0,0.1,0,0.1,0,0.2c0,0.3,0,0.7,0,1c0,0,0,0.1,0,0.1v1c0,0,0,0.1,0,0.1c0,0.2,0,0.5,0,0.8
						c0,0,0,0.1,0,0.1v1.3v0.2c0,0.9,0,1.9,0,2.8c0,0,0,0.1,0,0.1c0,0.2,0,0.3,0,0.5c0,0.1,0,0.1,0,0.2c0,0.2-0.2,0.4,0,0.6
						c0,0,0,0.1,0,0.1v0.1c0,1.5,0,3,0,4.6c0,0.1,0,0.1,0,0.2c0,0,0,0.1,0,0.1s0,0.1,0,0.1c0,0.3,0,0.5,0,0.8c0,0,0,0.1,0,0.1v1.6"
						/>
					<path class="st12" d="M84.4,0.2v0.5c0,0,0,0.1,0,0.1c-0.2,0.3,0,0.5,0,0.8c0,0.1,0,0.1,0,0.2v1c0,0,0,0.1,0,0.1
						c-0.2,0.3,0,0.6,0,0.9c0,0,0,0.1,0,0.1V5v0.1c0,1,0,1.9,0,2.9c0,0,0,0.1,0,0.1c-0.2,0.3,0,0.7,0,1c0,0,0,0.1,0,0.1
						c0,0.4,0,0.8,0,1.1v0.1v2.1v0.1c-0.2,0.2,0,0.4,0,0.7c0,0,0,0,0,0.1v0.1c0,0,0,0,0,0.1c-0.2,0.2,0,0.4,0,0.5c0,0,0,0,0,0.1
						c0,0.1,0,0.2,0,0.3v0.1v1.4"/>
					<path class="st12" d="M84.9,3.3c0.2,0.2,0,0.4,0,0.5c0,0,0,0,0,0.1v0.4v0.2c0,1.2,0,2.4,0,3.6c0,0,0,0.1,0,0.1
						c0,0.2,0,0.4,0,0.6c0,0,0,0.1,0,0.1c0,0.4,0,0.8,0,1.2v0.1v0.3c0,0.2,0,0.3,0,0.5v0.4v1c0,0,0,0,0,0.1c0,0.1,0,0.1,0,0.2"/>
					<path class="st12" d="M85.1,1.7v1v0.1c0,0.3,0,0.7,0,1c0,0,0,0,0,0.1v0.8v0.1c0,0.7,0,1.3,0,1.9c0,0,0,0.1,0,0.1
						c0,0.3,0,0.5,0,0.7c0,0,0,0.1,0,0.1c0,0.5,0,1,0,1.4c0,0,0,0.1,0,0.1c0,0.3,0,0.6,0,0.9c0,0,0,0.1,0,0.1c0,0.1,0,0.2,0,0.2
						c0,0,0,0.1,0,0.1c0,0,0,0.1,0,0.1c0,0.4,0,0.8,0,1.1v0.5v0.4c0,0,0,0,0,0.1c0,0.1,0,0.2,0,0.4c0,0,0,0,0,0.1v0.3v0.1
						c0,0.2,0,0.4,0,0.6v0.1v0.6"/>
					<path class="st12" d="M85.6-1v1.4v0.1c0.2,1.1,0,2.1,0,3.2c0,0.3,0,0.6,0,0.9c0,0,0,0.1,0,0.1v0.1V5c0,0.5,0,1,0,1.4
						c0,0,0,0.1,0,0.1c-0.2,0.3,0.2,0.7,0,1c0,0,0,0.1,0,0.1c0,0.4,0,0.8,0,1.2c0,0,0,0.1,0,0.1c-0.2,0.4,0.2,0.7,0,1.1
						c0,0,0,0.1,0,0.1c0,0.6,0,1.1,0,1.7c0,0.1,0,0.1,0,0.2c0,0.1,0,0.3,0,0.4v0.1V15c0,0,0,0,0,0.1c-0.2,0.2,0,0.5,0,0.7v0V17"/>
					<path class="st12" d="M86.3,0.9c0,1.2-0.5,2.5,0,3.7c0,0,0,0.1,0,0.1v0.1v0.1c0,0.5,0,1,0,1.5c0,0,0,0.1,0,0.1
						c-0.2,0.2,0,0.5,0.2,0.7c0,0.1,0,0.2-0.2,0.3c0,0,0,0.1,0,0.1c0,0.4,0,0.8,0,1.1c0,0,0,0.1,0,0.1c-0.2,0.4,0.2,0.8,0,1.2
						c0,0,0,0.1,0,0.1c0,1,0.2,1.9,0,2.9v0.2v1.9v0.1c0,0.1,0,0.2,0,0.3v0v0.1"/>
					<path class="st12" d="M86.5,0.6c0,0.2,0.2,0.4,0,0.7c-0.5,1.1-0.2,2.1-0.2,3.2v0.2v0.2v0.1c0,0.5,0,1.1,0,1.6v0.1
						c-0.2,0.3,0.2,0.6,0,0.9c0,0,0,0.1,0,0.1c0,0.4,0,0.9,0,1.3v0.1c-0.2,0.4,0,0.8,0,1.2c0,0,0,0.1,0,0.1c0,1.1,0,2.2,0,3.4v0.1v2
						"/>
					<path class="st12" d="M87,2.6v2.5v0.1c0,0.5,0,1,0,1.5c0,0,0,0.1,0,0.1c0,0.2,0,0.4,0,0.6c0,0,0,0.1,0,0.1c0,0.5,0,1,0,1.5
						c0,0,0,0.1,0,0.1c0,0.3,0,0.5,0,0.8c0,0,0,0.1,0,0.1c0,1.1,0,2.3,0,3.4c0,0.1,0,0.1,0,0.2"/>
					<path class="st12" d="M87.5,0.9c-0.2,0.7,0,1.4,0,2.2c0,0,0,0.1,0,0.1v3.2v0.1c0,0.1,0,0.1,0,0.2c0,0.1,0,0.1,0,0.2
						c0,0.2,0,0.5,0,0.7c0,0.1,0,0.1,0,0.2c0,0.1,0,0.2,0,0.3c0,0.1,0,0.1,0,0.2c0,0.2,0,0.4,0,0.6c0,0,0,0.1,0,0.1c0,0,0,0.1,0,0.1
						c0,0.1,0,0.1,0,0.2c0,0.1,0,0.1,0,0.2c0,0.2,0,0.4,0,0.6c0,0.1,0,0.1,0,0.2c0,0.1,0,0.2,0,0.4c0,0.1,0,0.1,0,0.2
						c0,0.2,0,0.4,0,0.6c0,0.1,0,0.1,0,0.2s0,0.1,0,0.2c0,1.1,0.5,2.2,0,3.3c0,0.1,0,0.1,0,0.2v0.5"/>
					<path class="st12" d="M87.7,1.8c0,0.2,0,0.4,0,0.7c0,0.1,0,0.1,0,0.2v3.9c0,0.1,0,0.1,0,0.2c0,2.6-0.2,5.3,0.2,7.9"/>
					<path class="st12" d="M88.2,0v0.1c0,0,0,0.1,0,0.2c-0.2,0.6-0.2,1.1,0,1.7c0,0.1,0,0.1,0,0.2s0,0.1,0,0.2c0,0,0,0.1,0,0.1V6
						c0,0.2,0,0.4,0,0.7c0,2.9,0.2,5.9,0,8.8c0,0.1,0,0.1,0,0.2v0.6"/>
					<path class="st12" d="M88.6-0.6v0.4V0c0,0.1,0,0.1,0,0.2c0,0.1,0,0.1,0,0.2c0,0.4,0,0.9,0,1.3c0,0.1,0,0.1,0,0.2
						c0,0.2,0,0.5-0.2,0.8v0.1v3.3c0,0.2,0,0.4,0,0.7c0,2.9,0,5.8,0,8.7c0,0.1,0,0.1,0,0.2c0,0.4,0,0.7,0,1.1"/>
					<path class="st12" d="M89.1,3v3.7c0,0.1,0,0.1,0,0.2c0,0.6,0,1.2,0,1.7c0,0,0,0.1,0,0.1c0,0.1,0,0.3,0,0.4v0.2
						c0,1.2,0,2.4,0,3.7"/>
					<path class="st12" d="M89.6,1.6v4.5c0,0.2,0,0.4,0,0.6c-0.2,2.6,0.2,5.3-0.2,7.9"/>
					<path class="st12" d="M90-1.1v0.9v0.2c0,1,0,2,0,2.9V3v3.3c0,0.2,0,0.4,0,0.7c0,2.8,0,5.6,0,8.4c0,0.1,0,0.1,0,0.2
						c0,0.8,0,1.5,0,2.3"/>
					<path class="st12" d="M90.5-1.4v1c0,0,0,0.1,0,0.2c-0.2,1-0.2,2,0,3c0,0,0,0.1,0,0.1v3.3c0,0.2,0,0.4,0,0.7
						c-0.2,2.7,0,5.4,0,8.1c0,0.1,0,0.1,0,0.2c0,0.8,0,1.6,0,2.4"/>
					<path class="st12" d="M90.7,1.7v0.5v0.1c0,0.3,0,0.6,0,0.9v0.1v3.7c0,0,0,0.1,0,0.1c0,0.4,0,0.8,0,1.2v0.1v2.1
						c0,0.1,0,0.3,0,0.4c0,0.5,0,1,0,1.4v0.3V13c0,0.1,0,0.1,0,0.2c0,0.2,0,0.5,0,0.7c0,0,0,0.1,0,0.1c0,0.2,0.2,0.4,0,0.6
						c0,0,0,0.1,0,0.1c0,0.1,0,0.2,0,0.2"/>
					<path class="st12" d="M91.2,0.8c0.2,0.6,0,1.2,0.2,1.8c0,0.1,0,0.1,0,0.2c0,0.2,0,0.5,0,0.7v0.1v6.8c0,0.1,0,0.3,0,0.4
						c0.2,0.4,0.2,0.8,0,1.2c0,0.1,0,0.3,0,0.4v0.7c0,0.1,0,0.1,0,0.2c0,0.8,0,1.5,0,2.3"/>
					<path class="st12" d="M91.6,1.5c0,0.3,0,0.6,0,0.9c0,0.1,0,0.1,0,0.2c0,0.4,0,0.8,0,1.1v0.1v5.9v0.4c0,0.3,0,0.6,0,0.9
						c0,0,0,0.1,0,0.1c0,0.1,0,0.2,0,0.3c0,0,0,0.1,0,0.1c0,1,0,2,0,2.9c0,0.1,0,0.1,0,0.2c0,0.2,0,0.3,0,0.5"/>
					<path class="st12" d="M92.1-1.1v2.8v0.1c0,0.7,0,1.3,0,2v0.1v0.9v0.1c0,1.5,0,2.9,0,4.4c0,0.1,0,0.3,0,0.4c0,1.5,0.2,3.2,0,4.7
						c0,0.1,0,0.1,0,0.2c0,0.4,0,0.8,0,1.2V16v1.5"/>
					<path class="st12" d="M92.6-1.3v3v0.1c0,0.6,0,1.2,0,1.9v0.1v0.7v0.1c0,1.6,0,3.1,0,4.7c0,0.1,0,0.3,0,0.4
						c-0.2,1.6,0.2,3.2,0,4.8c0,0.1,0,0.1,0,0.2c0,0.3,0,0.7,0,1v0.2v1.3"/>
					<path class="st12" d="M93,2c0,0.5,0,1.1,0,1.7v0.1v0.5v0.1c-0.2,1.6,0,3.3,0,4.9c0,0,0,0.1,0,0.1v0.1c0,1.5,0,3,0,4.5"/>
					<path class="st12" d="M93.5,2.8c0,0.3,0,0.5,0,0.8v0.2v0.4v0.2c-0.2,1.6,0,3.2,0,4.8v0.1v0.3c0,1.3,0,2.6,0,3.9"/>
					<path class="st12" d="M93.7,2.3c0,0.4,0,0.8,0,1.2v0.2v0.7v0.1c0,0.9,0,1.7,0,2.6c0,0,0,0.1,0,0.1v0.1c0,0.2,0,0.4,0,0.7v0.1
						v1.1v0.4c0,1.4,0.2,2.7-0.2,4.1"/>
					<path class="st12" d="M94.2,0.6v1.5v0.2c0,0.3,0,0.6,0,0.9v0.1v0.9v0.2c0,0.8,0,1.6,0,2.4c0,0,0,0.1,0,0.1v1.7v0.1
						c0,0.2,0,0.4,0,0.5c0,0.1,0,0.2,0,0.3c0.2,1.6-0.5,3.2,0,4.8c0,0.1,0,0.1,0,0.2v0.9v0.1c0,0.1,0,0.2,0,0.3"/>
					<path class="st12" d="M94.7,2.4v2.1v0.1c-0.2,0.7,0,1.3,0,2c0,0,0,0.1,0,0.1v1.7v0.2c0,0.4,0,0.7,0,1.1c0,0.1,0,0.2,0,0.4
						c0,1.2,0.2,2.4,0,3.5"/>
					<path class="st12" d="M95.1,1.6v2.9v0.1c0,0.5,0,1,0,1.5v0.1v1.8v0.2c0,0.5,0,1.1,0,1.7c0,0.1,0,0.2,0,0.3c0,0.2,0,0.4,0,0.5
						c0,0,0,0.1,0,0.1c0,0.1,0,0.3,0,0.4c0,0,0,0.1,0,0.1c0,0.2,0,0.4,0,0.6c0,0.1,0,0.1,0,0.2c0,0.1,0,0.1,0,0.2c0,0.2,0,0.3,0,0.5
						c0,0,0,0.1,0,0.1c0,0.2,0.2,0.4,0,0.6v0V15"/>
					<path class="st12" d="M95.6-1v5.9v0.1c0,0.3,0,0.6,0,0.9v0.1c0,0.6,0,1.2,0,1.9c0,0,0,0.1,0,0.1V8v0.2c0,0.2,0,0.3,0,0.5
						c0,0,0,0.1,0,0.1c0,1.4,0,2.8,0,4.2c0,0,0,0.1,0,0.1c0,0.2,0,0.4,0,0.6v0c0,0.7,0,1.3,0,2c0,0,0,0.1,0,0.1c0,0.1,0,0.2,0,0.2
						c0,0,0,0.1,0,0.1c0,0.1,0,0.2,0,0.2c0,0.1,0.2,0.3,0,0.5c0,0,0,0.1,0,0.1v0.6"/>
					<path class="st12" d="M96.1,3.1v5.1v0.1c0,1.5,0,3,0,4.5"/>
					<path class="st12" d="M96.3,1.6v2.9c0,0,0,0,0,0.1c0,0.1,0,0.2,0,0.4c0,0,0,0,0,0.1v2.3c0,0.1,0,0.1,0,0.2c0,0.3,0,0.5,0,0.8
						v0.1c0,1.6,0,3.3,0,4.9c0,0.1,0,0.1,0,0.2c0,0.1,0,0.1,0,0.2V14V15"/>
					<path class="st12" d="M96.8,1.5v1.5v0.1c0,0.2,0,0.4,0,0.7c0,0,0,0,0,0.1v0.5c0,0,0,0.1,0,0.1c0,0.2,0.2,0.4,0,0.6v0.1v2
						c0,0.1,0,0.1,0,0.2c0.2,0.4,0.2,0.8,0,1.3c0,0.1,0,0.1,0,0.2c0,1.5,0,2.9,0,4.4c0,0.1,0,0.1,0,0.2s0,0,0,0.1
						c0,0.2,0.2,0.4,0,0.6c0,0,0,0,0,0.1v0.5"/>
					<path class="st12" d="M97.2,0.3V3V3c-0.2,0.3,0,0.7,0,1c0,0,0,0.1,0,0.1v0.3c0,0,0,0.1,0,0.1c-0.2,0.2,0,0.5,0,0.7v0.1V7
						c0,0.1,0,0.1,0,0.2c0.2,0.4,0.2,0.9,0,1.3c0,0.1,0,0.1,0,0.2c0,1.4,0,2.7,0,4.1c0,0.1,0,0.1,0,0.2c0,0.4,0,0.9,0,1.3
						c0,0,0,0.1,0,0.1v1.2"/>
					<path class="st12" d="M97.7,2.6V3c0,0,0,0,0,0.1c0,0.3,0.2,0.7,0,1v0.1v0.3v0.1c0,0.1,0,0.3,0,0.4v0.1V7c0,0.1,0,0.1,0,0.2
						c0.2,0.6,0.2,1.2,0,1.7v0.1c0,0.2,0,0.4,0,0.6v0.1c0,0.1,0,0.1,0,0.2c0,0.2,0.2,0.5,0,0.8c0,0.1,0,0.1,0,0.2c0,0.6,0,1.2,0,1.9
						c0,0,0,0.1,0,0.1c0.2,0.4,0,0.7,0.2,1.1"/>
					<path class="st12" d="M98.2,2V3c0,0,0,0.1,0,0.1c-0.2,0.3,0.2,0.6,0,0.9c0,0,0,0,0,0.1v3v0.1c0,0.6,0,1.2,0,1.7v0.2v0.6v0.1
						c0,0.9,0,1.9,0,2.8c0,0,0,0.1,0,0.1c0,0.4,0,0.9,0.2,1.3"/>
					<path class="st12" d="M98.6,1.9v1.3c0,0,0,0.1,0,0.1c0,0.2,0,0.4,0,0.6c0,0,0,0,0,0.1v2.9V7c0,0.6-0.2,1.1,0,1.7
						c0,0,0,0.1,0,0.1v0.8v0.1c0,0.9,0,1.7,0,2.5c0,0.1,0,0.2,0,0.4c0,0.6,0.5,1.3,0,1.9"/>
					<path class="st12" d="M99.1-1.4v8.5c0,0.1,0,0.1,0,0.2c-0.2,0.5-0.2,1,0,1.6c0,0,0,0.1,0,0.1v0.7v0.2c0,0.9,0,1.7,0,2.6
						c0,0.1,0,0.1,0,0.2c0,0.6,0,1.2,0,1.9c0,0.1,0,0.2,0,0.4c0,0.8,0,1.6,0,2.5"/>
					<path class="st12" d="M99.3,1.6v5.6c0,0,0,0.1,0,0.1c-0.2,0.5,0,1,0,1.4v0.1v1V10c0,0.8,0,1.6,0,2.4c0,0.1,0,0.1,0,0.2
						c0,0.7-0.5,1.3,0,2"/>
					<path class="st12" d="M99.8,3.2v4.2c0,0,0,0.1,0,0.1c0,0.2,0,0.4,0,0.7c0,0,0,0.1,0,0.1v3.8v0.1c0,0.1,0,0.2,0,0.3"/>
					<path class="st12" d="M100.2,1.4v2.8v0.3c0,0.3,0,0.5,0,0.8v0.3v6.6c0,0,0,0.1,0,0.1c0,0.1,0,0.2,0,0.3c0,0.1,0,0.1,0,0.2
						c0,0.6-0.5,1.3,0,1.9"/>
					<path class="st12" d="M100.7,0.8V4v0.3c0,0.5,0,1,0,1.4V6v6.1c0,0,0,0.1,0,0.1c0,0.2,0,0.3,0,0.5c0,0.1,0,0.1,0,0.2
						c0,0.5,0,1,0,1.4c0,0.1,0,0.1,0,0.2c0,0.2,0,0.3,0,0.5v0.2v0.3"/>
					<path class="st12" d="M101.2,0v4v0.3c0,0.5,0,1,0,1.5v0.3v4.3c0,0,0,0.1,0,0.1c-0.2,0.2,0,0.4,0,0.6c0,0,0,0,0,0.1V12
						c0,0,0,0.1,0,0.1c-0.2,0.6,0,1.2,0,1.7c0,0,0,0.1,0,0.1c0,0.1,0,0.2,0,0.3c0,0,0,0,0,0.1c0,0.1,0,0.3,0,0.4V15V16"/>
					<path class="st12" d="M101.6,2.9V4v0.2c0,0.6,0,1.2,0,1.8v0.3v4.2c0,0,0,0.1,0,0.1c0,0.2,0,0.4,0,0.6c0,0,0,0,0,0.1V12
						c0,0.1,0,0.1,0,0.2c0,0.4,0,0.8,0,1.1"/>
					<path class="st12" d="M102.1,3.2v0.9v0.2c0,0.5,0,1.1,0,1.7v0.3v4.2v0.1c0,0.2,0,0.4,0,0.6v0.1V12v0.2c0,0.4-0.2,0.8,0,1.2"/>
					<path class="st12" d="M102.3,1.6V4v0.2c0,0.6,0,1.1,0,1.7v0.2v0c0,0.2,0,0.3,0,0.5c0,0,0,0.1,0,0.1v5.5c0,0.1,0,0.1,0,0.2
						c-0.2,0.2,0,0.4,0,0.7c0,0,0,0.1,0,0.1c0,0.1,0,0.2,0,0.3c0,0,0,0,0,0.1c-0.2,0.2,0.5,0.4,0,0.6c0,0,0,0,0,0.1s0,0,0,0.1
						c0,0.1,0,0.1,0,0.2"/>
					<path class="st12" d="M102.8,2.1v2v0.1c0,0,0,0.1,0,0.1c0,0.2,0,0.4,0,0.7c0,0.1,0,0.1,0,0.2c0,0.2,0,0.3,0,0.5v0.3v0.1v0.1
						c0,0.2,0.2,0.5,0,0.8v0c0,0.2,0.2,0.4,0,0.6v0v1.4c0,0.1,0,0.1,0,0.2c0.2,0.3,0,0.5,0,0.8v0.2v1.8c0,0,0,0.1,0,0.1
						c0.2,0.4,0.2,0.8,0,1.2c0,0.1,0,0.1,0,0.1c0,0,0,0.1,0,0.1c-0.2,0.2,0.2,0.4,0,0.5c0,0,0,0.1,0,0.1c0,0,0,0,0,0.1"/>
					<path class="st12" d="M103.3-0.8L103.3-0.8c0,0.3,0,0.7,0,1c0,0.1,0,0.1,0,0.2c0,1.2,0,2.3-0.2,3.5c0,0.1,0,0.1,0,0.2
						c0,0.1,0,0.1,0,0.2c0,0.1,0,0.1,0,0.2c0,0.2,0,0.4,0,0.7c0,0.1,0,0.1,0,0.2c0,0.1,0,0.1,0,0.2c0,0.1,0,0.1,0,0.2
						c0,0.2,0,0.4,0,0.6c0,0,0,0.1,0,0.1c0,0.2,0,0.4,0,0.6c0,0,0,0.1,0,0.1c-0.2,0.2,0.2,0.4,0,0.7c0,0,0,0.1,0,0.1
						c0,0.2,0,0.3,0,0.5v0.1v0.4c0,0.1,0,0.1,0,0.2c0.2,0.4,0.2,0.9,0,1.2c0,0.1,0,0.1,0,0.2v1.5c0,0.1,0,0.1,0,0.2
						c0.2,0.5,0.5,1,0,1.4c0,0.1,0,0.1,0,0.2c0,0.8,0,1.6,0,2.4v0.1V17"/>
					<path class="st12" d="M104,0.4c0,1.2-0.2,2.3-0.2,3.5c0,0.1,0,0.1,0,0.2c0,0.5,0.2,0.9,0,1.4c0,0.1,0,0.1,0,0.2
						c0,0.4,0,0.8,0,1.2v0.1c0,0.2,0,0.4,0,0.6v0c0,0.3,0,0.6,0,0.9v0.1c0,0.1,0,0.1,0,0.2c0.2,0.5,0.2,1.1,0,1.6c0,0.1,0,0.1,0,0.2
						v1.3c0,0.1,0,0.1,0,0.2c0,0.2,0,0.3,0.2,0.5c0,0.1,0,0.1,0,0.2c-0.2,1.1,0,2.1,0,3.2"/>
					<path class="st12" d="M104.2,0.5c-0.2,1-0.2,2.1-0.2,3.1c0,0.1,0,0.1,0,0.2s0,0.1,0,0.2c0,0.5,0.5,1,0.2,1.5c0,0.1,0,0.1,0,0.2
						c0,0.9,0,1.8,0,2.7v0.1c0,0.1,0,0.1,0,0.2c0.2,0.6,0.2,1.2,0,1.8v0.2v0.9v0.1c0,0,0,0.1,0,0.1c0,0.2,0,0.5,0,0.7
						c0,0.1,0,0.1,0,0.2c-0.2,1,0,2,0.2,3"/>
					<path class="st12" d="M104.7,1.1c0,0.9,0,1.7,0,2.5c0,0.1,0,0.1,0,0.2c-0.2,0.6,0.2,1.2,0,1.9v0.2c0,0.9,0,1.8,0,2.7v0.2
						c0,0.5,0,1.1,0,1.6v0.2v1.1v0.1c0,0,0,0.1,0,0.1c0,0.1,0,0.1,0,0.2c-0.2,0.5-0.2,1.1,0,1.6c0,0.1,0,0.1,0,0.2
						c0,0.2,0,0.4,0,0.7c0,0.1,0,0.1,0,0.2c0,0.2,0,0.4,0,0.6"/>
					<path class="st12" d="M105.1,0.1c-0.2,1.2-0.2,2.3-0.2,3.5v0.2c-0.2,0.5,0.2,1.1,0,1.6c0,0.1,0,0.1,0,0.2c0,0.9,0,1.8,0,2.7
						v0.1v0.2c0,0.1,0,0.1,0,0.2c0,0.5-0.2,1,0,1.5c0,0.1,0,0.1,0,0.2v0.9v0.2c0,0.1,0,0.1,0,0.2c0,0.1,0,0.1,0,0.2
						c-0.2,0.2-0.2,0.5-0.2,0.8c0,0.1,0,0.1,0,0.2c0.5,1,0,2,0.2,3.1"/>
					<path class="st12" d="M105.4,1.3c0,0.8,0,1.6,0,2.4c0,0.1,0,0.1,0,0.2c-0.2,0.5,0.2,1.1,0,1.6c0,0.1,0,0.1,0,0.2
						c0,0.9,0,1.9,0,2.8v0.2c0,0.1,0,0.1,0,0.2c-0.2,0.5,0,1.1,0,1.6c0,0.1,0,0.1,0,0.2v0.8v0.2c0,0.2,0,0.3,0,0.5
						c0,0.1,0,0.1,0,0.2c-0.2,0.4-0.2,0.9,0,1.3c0,0.1,0,0.1,0,0.2c0,0.1,0,0.2,0,0.3c0,0.1,0,0.1,0,0.2c0,0.2,0,0.5,0,0.8"/>
					<path class="st12" d="M105.8,3.1c0,0.2,0,0.4,0,0.7v0.1c0,0.5,0,1,0,1.6c0,0.1,0,0.1,0,0.2c0,1,0,2,0,2.9v0.2
						c0,0.1,0,0.1,0,0.2c-0.2,0.4,0,0.8,0,1.2c0,0.1,0,0.1,0,0.2v1.1v0.2c0,0.2,0,0.4,0,0.6c0,0.1,0,0.1,0,0.2c0,0.3,0,0.5,0,0.8
						c0,0.1,0,0.1,0,0.2s0,0.1,0,0.2"/>
					<path class="st12" d="M106.3,3.3c0,0.2,0,0.4,0,0.6c0,0,0,0.1,0,0.1c0,0.4,0,0.8,0,1.2c0,0.1,0,0.1,0,0.1c0,0.1,0,0.3,0,0.4
						v0.1c0,0.3,0,0.6,0,0.9c0,0,0,0.1,0,0.1c0,0.2,0,0.5,0,0.7c0,0,0,0.1,0,0.1c0,0.1,0,0.2,0,0.4v0.2c0,0.3,0,0.5,0,0.8
						c0,0,0,0.1,0,0.1c0,0.2,0,0.4,0,0.7v0.2v1.2v0.2c0,0.5,0,1.1,0,1.6"/>
					<path class="st12" d="M106.7,1.9c0.2,2-0.2,3.9,0,5.9c0,0.1,0,0.1,0,0.2V8v0.1c0,0.1,0,0.1,0,0.2c0.2,0.4,0,0.9,0,1.3v0.2v0.9
						v0.3c0,0.2,0,0.4,0,0.7c0,0,0,0.1,0,0.1c0,0.8,0,1.7,0,2.5"/>
					<path class="st12" d="M107.2,1.3C107.2,1.3,107.2,1.3,107.2,1.3c0,0.1,0,0.2,0,0.3c0,0,0,0,0,0.1c0,0.1,0,0.1,0,0.2
						c0,0.3,0.2,0.5,0.2,0.8c-0.2,1.8,0,3.6-0.2,5.3c0,0.1,0,0.1,0,0.2c0,0.5,0,1,0,1.5c0,0.1,0,0.1,0,0.2v0.7v0.1v0.1
						c0,0.2,0,0.5,0,0.7c0,0,0,0.1,0,0.1c0,0,0,0.1,0,0.1c0,0.1,0,0.1,0,0.2s0,0.1,0,0.2v0.2c0,1.1,0,2.1,0,3.2"/>
					<path class="st12" d="M107.7,2.7c-0.2,1.7,0,3.4-0.2,5c0,0.1,0,0.1,0,0.2c0,0.6,0,1.1,0,1.7c0,0.1,0,0.1,0,0.2
						c0,0.2,0,0.4,0,0.6c0,0,0,0.1,0,0.1c-0.2,0.3,0.2,0.7,0,1c0,0,0,0.1,0,0.1c0,0,0,0.1,0,0.1c0,0.1,0,0.1,0,0.2c0,0.7,0,1.4,0,2"
						/>
					<path class="st12" d="M108.1,2.6c-0.2,1.8,0,3.5,0,5.3c0,0.1,0,0.1,0,0.2c0,0.5,0,1.1,0,1.7c0,0,0,0.1,0,0.1c0,0.1,0,0.2,0,0.4
						c0,0.1,0,0.1,0,0.2c0,0,0,0.1,0,0.1c0,0,0,0.1,0,0.1c-0.2,0.3,0.2,0.7,0,1c0,0,0,0.1,0,0.1c0,0.7,0,1.3,0,2"/>
					<path class="st12" d="M108.4,3c0,1.6,0,3.2,0,4.7c0,0.1,0,0.1,0,0.2c0,0.6,0,1.2,0,1.7c0,0.1,0,0.1,0,0.2s0,0.1,0,0.2
						c0,0.1,0,0.2,0,0.4c0,0,0,0.1,0,0.1c-0.2,0.3,0.2,0.7,0,1v0.1c0,0.5,0,1.1,0,1.6"/>
				</g>
			</g>
		</g>
		
			<radialGradient id="SVGID_21_" cx="1477.4855" cy="223.083" r="33.8254" gradientTransform="matrix(2.689937e-17 6.477479e-02 2.2234 -2.007443e-17 -491.953 -90.4963)" gradientUnits="userSpaceOnUse">
			<stop  offset="0" style="stop-color:#FFFFFF"/>
			<stop  offset="8.962709e-02" style="stop-color:#FFFFFF;stop-opacity:0.9104"/>
			<stop  offset="1" style="stop-color:#FFFFFF;stop-opacity:0"/>
		</radialGradient>
		<ellipse class="st13" cx="4" cy="5.2" rx="75.3" ry="2.2"/>
		
			<radialGradient id="SVGID_22_" cx="1556.5345" cy="239.677" r="33.85" gradientTransform="matrix(2.689937e-17 6.477479e-02 2.6289 -2.373557e-17 -577.4765 -90.4963)" gradientUnits="userSpaceOnUse">
			<stop  offset="0" style="stop-color:#FFFFFF"/>
			<stop  offset="1" style="stop-color:#FFFFFF;stop-opacity:0"/>
		</radialGradient>
		<ellipse class="st14" cx="52.6" cy="10.3" rx="89" ry="2.2"/>
		
			<radialGradient id="SVGID_23_" cx="1511.3345" cy="216.8745" r="33.8398" gradientTransform="matrix(2.689937e-17 6.477479e-02 2.6289 -2.373557e-17 -577.4765 -90.4963)" gradientUnits="userSpaceOnUse">
			<stop  offset="0" style="stop-color:#FFFFFF"/>
			<stop  offset="1" style="stop-color:#FFFFFF;stop-opacity:0"/>
		</radialGradient>
		<ellipse class="st15" cx="-7.3" cy="7.4" rx="89" ry="2.2"/>
		
			<radialGradient id="SVGID_24_" cx="2097.1277" cy="272.6163" r="33.8966" gradientTransform="matrix(2.111903e-17 5.085551e-02 2.2234 -2.007443e-17 -491.953 -103.1745)" gradientUnits="userSpaceOnUse">
			<stop  offset="0" style="stop-color:#FFFFFF"/>
			<stop  offset="8.962709e-02" style="stop-color:#FFFFFF;stop-opacity:0.9104"/>
			<stop  offset="1" style="stop-color:#FFFFFF;stop-opacity:0"/>
		</radialGradient>
		<ellipse class="st16" cx="114.2" cy="3.5" rx="75.3" ry="1.7"/>
		
			<radialGradient id="SVGID_25_" cx="4034.4207" cy="190.8194" r="33.8329" gradientTransform="matrix(1.235056e-17 2.974067e-02 2.741 -2.474769e-17 -519.6832 -113.2804)" gradientUnits="userSpaceOnUse">
			<stop  offset="0" style="stop-color:#1B171B"/>
			<stop  offset="8.962709e-02" style="stop-color:#1B171B;stop-opacity:0.9104"/>
			<stop  offset="1" style="stop-color:#1B171B;stop-opacity:0"/>
		</radialGradient>
		<ellipse class="st17" cx="3.4" cy="6.7" rx="92.7" ry="1"/>
		
			<radialGradient id="SVGID_26_" cx="4224.0635" cy="234.2202" r="33.8386" gradientTransform="matrix(1.235056e-17 2.974067e-02 2.741 -2.474769e-17 -519.6832 -113.2804)" gradientUnits="userSpaceOnUse">
			<stop  offset="0" style="stop-color:#1B171B"/>
			<stop  offset="8.962709e-02" style="stop-color:#1B171B;stop-opacity:0.9104"/>
			<stop  offset="1" style="stop-color:#1B171B;stop-opacity:0"/>
		</radialGradient>
		<path class="st18" d="M122.3,13.3c-51.3,0-92.7-0.4-92.7-1c0-0.5,41.6-1,92.7-1c51.3,0,92.7,0.4,92.7,1
			C215,12.9,173.4,13.3,122.3,13.3z"/>
		
			<radialGradient id="SVGID_27_" cx="3973.8279" cy="237.6957" r="33.8338" gradientTransform="matrix(1.235056e-17 2.974067e-02 2.741 -2.474769e-17 -519.6832 -113.2804)" gradientUnits="userSpaceOnUse">
			<stop  offset="0" style="stop-color:#1B171B"/>
			<stop  offset="8.962709e-02" style="stop-color:#1B171B;stop-opacity:0.9104"/>
			<stop  offset="1" style="stop-color:#1B171B;stop-opacity:0"/>
		</radialGradient>
		<path class="st19" d="M131.8,5.9c-51.3,0-92.7-0.4-92.7-1s41.6-1,92.7-1c51.3,0,92.7,0.4,92.7,1C224.5,5.5,183,5.9,131.8,5.9z"/>
		
			<radialGradient id="SVGID_28_" cx="2291.3384" cy="263.7338" r="33.8342" gradientTransform="matrix(2.111903e-17 5.085551e-02 2.2234 -2.007443e-17 -491.953 -103.1745)" gradientUnits="userSpaceOnUse">
			<stop  offset="0" style="stop-color:#FFFFFF"/>
			<stop  offset="8.962709e-02" style="stop-color:#FFFFFF;stop-opacity:0.9104"/>
			<stop  offset="1" style="stop-color:#FFFFFF;stop-opacity:0"/>
		</radialGradient>
		<ellipse class="st20" cx="94.4" cy="13.3" rx="75.3" ry="1.7"/>
	</g>
</g>
</svg>
