<?xml version="1.0" encoding="utf-8"?>
<!-- Generator: Adobe Illustrator 22.1.0, SVG Export Plug-In . SVG Version: 6.00 Build 0)  -->
<svg version="1.1" id="Layer_1" xmlns="http://www.w3.org/2000/svg" xmlns:xlink="http://www.w3.org/1999/xlink" x="0px" y="0px"
	 viewBox="0 0 150 240" style="enable-background:new 0 0 150 240;" xml:space="preserve">
<style type="text/css">
	.st0{fill:#F15A24;}
	.st1{fill:none;stroke:#333333;stroke-width:0.75;stroke-miterlimit:10;}
	.st2{fill:#474747;stroke:#333333;stroke-width:0.75;stroke-miterlimit:10;}
</style>
<g>
	<path class="st0" d="M130.3,228H19.8c-4.3,0-7.8-3.5-7.8-7.8v-18c0-4.3,3.5-7.8,7.8-7.8h110.5c4.3,0,7.8,3.5,7.8,7.8v18
		C138,224.5,134.5,228,130.3,228z"/>
</g>
<g>
	<path class="st0" d="M130.3,185.9H19.8c-4.3,0-7.8-3.5-7.8-7.8v-18c0-4.3,3.5-7.8,7.8-7.8h110.5c4.3,0,7.8,3.5,7.8,7.8v18
		C138,182.4,134.5,185.9,130.3,185.9z"/>
</g>
<g>
	<path class="st1" d="M12.8,237c-5.6,0-10.2-4.6-10.2-10.3V28.3C2.6,22.6,7.2,18,12.8,18h41.4V6.3C54.2,4,56.1,2,58.5,2h32.5
		c2.3,0,4.3,1.9,4.3,4.3v11.8h41.4c5.6,0,10.2,4.6,10.2,10.3v198.4c0,5.7-4.6,10.3-10.2,10.3L12.8,237L12.8,237z"/>
	<path class="st2" d="M91.1,2.5c2,0,3.7,1.7,3.7,3.8v11.3v1h1h40.4c5.3,0,9.6,4.4,9.6,9.8v198.4c0,5.4-4.4,9.8-9.6,9.8H13.7
		c-5.3,0-9.6-4.4-9.6-9.8V28.3c0-5.4,4.4-9.8,9.6-9.8h40.4h1v-1V6.3c0-2.1,1.7-3.8,3.8-3.8H91.1 M91.4,3.1H59.2
		c-2.7,0-4.8,2.1-4.8,4.8v11.2H13.8c-5.9,0-10.6,4.8-10.6,10.7v197c0,5.9,4.8,10.7,10.6,10.7h122.9c5.9,0,10.6-4.8,10.6-10.7V29.7
		c0-5.9-4.8-10.7-10.6-10.7H96.1V7.9C96.1,5.2,94,3.1,91.4,3.1L91.4,3.1z"/>
</g>
</svg>
