<?xml version="1.0" encoding="utf-8"?>
<!-- Generator: Adobe Illustrator 22.1.0, SVG Export Plug-In . SVG Version: 6.00 Build 0)  -->
<svg version="1.1" id="Layer_1" xmlns="http://www.w3.org/2000/svg" xmlns:xlink="http://www.w3.org/1999/xlink" x="0px" y="0px"
	 viewBox="0 0 450 450" style="enable-background:new 0 0 450 450;" xml:space="preserve">
<style type="text/css">
	.st0{fill:url(#SVGID_1_);}
	.st1{fill:url(#SVGID_2_);}
	.st2{fill:url(#SVGID_3_);}
</style>
<g>
	
		<linearGradient id="SVGID_1_" gradientUnits="userSpaceOnUse" x1="106.3713" y1="128.9739" x2="360.5151" y2="383.1176" gradientTransform="matrix(1 0 0 -1 0 450)">
		<stop  offset="0" style="stop-color:#990000"/>
		<stop  offset="1" style="stop-color:#CC0000"/>
	</linearGradient>
	<path class="st0" d="M395.2,168.4c0,115-120.8,239.5-153.6,271.3c-4.5,4.4-11.7,4.4-16.3,0C192.4,408,71.6,283.5,71.6,168.4
		c0.3-89.2,72.7-161.6,162-161.6C322.8,6.9,395.2,79.2,395.2,168.4z"/>
	
		<linearGradient id="SVGID_2_" gradientUnits="userSpaceOnUse" x1="142.197" y1="190.3194" x2="324.6408" y2="372.7632" gradientTransform="matrix(1 0 0 -1 0 450)">
		<stop  offset="0" style="stop-color:#CC0000"/>
		<stop  offset="1" style="stop-color:#990000"/>
	</linearGradient>
	<path class="st1" d="M362.5,168.4c0,71.3-57.7,129-129,129s-129-57.7-129-129s57.7-129,129-129C304.7,39.5,362.5,97.3,362.5,168.4z
		"/>
	
		<radialGradient id="SVGID_3_" cx="233.4481" cy="281.5705" r="117.3618" gradientTransform="matrix(1 0 0 -1 0 450)" gradientUnits="userSpaceOnUse">
		<stop  offset="0.7092" style="stop-color:#FFFFFF"/>
		<stop  offset="0.8395" style="stop-color:#FDFDFD"/>
		<stop  offset="0.8864" style="stop-color:#F6F6F6"/>
		<stop  offset="0.9198" style="stop-color:#EBEBEB"/>
		<stop  offset="0.9469" style="stop-color:#DADADA"/>
		<stop  offset="0.97" style="stop-color:#C4C4C4"/>
		<stop  offset="0.9902" style="stop-color:#A9A9A9"/>
		<stop  offset="1" style="stop-color:#999999"/>
	</radialGradient>
	<path class="st2" d="M350.8,168.4c0,64.8-52.5,117.4-117.4,117.4c-64.8,0-117.4-52.5-117.4-117.4c0-64.8,52.5-117.4,117.4-117.4
		C298.4,51.2,350.8,103.7,350.8,168.4z"/>
</g>
</svg>
