<?xml version="1.0" encoding="utf-8"?>
<!-- Generator: Adobe Illustrator 22.1.0, SVG Export Plug-In . SVG Version: 6.00 Build 0)  -->
<svg version="1.1" id="Layer_1" xmlns="http://www.w3.org/2000/svg" xmlns:xlink="http://www.w3.org/1999/xlink" x="0px" y="0px"
	 viewBox="0 0 75 75" style="enable-background:new 0 0 75 75;" xml:space="preserve">
<style type="text/css">
	.st0{fill:url(#SVGID_1_);stroke:#000000;stroke-miterlimit:10;}
	.st1{fill:#46B200;}
	.st2{fill:#FFFFFF;}
</style>
<g>
	<g>
		<g>
			<g>
				<g>
					
						<linearGradient id="SVGID_1_" gradientUnits="userSpaceOnUse" x1="11.7" y1="-410.3" x2="63.3" y2="-410.3" gradientTransform="matrix(1 0 0 -1 0 -372)">
						<stop  offset="0" style="stop-color:#FFFFFF"/>
						<stop  offset="0.6051" style="stop-color:#FFFFFF"/>
						<stop  offset="1" style="stop-color:#FFFFFF"/>
					</linearGradient>
					<circle class="st0" cx="37.5" cy="38.3" r="25.8"/>
				</g>
			</g>
		</g>
	</g>
	<g>
		<circle class="st1" cx="37.5" cy="38.2" r="22.1"/>
	</g>
</g>
<path class="st2" d="M52.1,30.7c0,0-1.9-4.8-6.8-4.6s-7,7.6-7,7.6l0,0.1c0,0,0,0,0,0c-0.1,0-0.2,0-0.4-0.1c-0.1,0-0.3,0-0.4,0
	c0,0,0,0,0,0s0,0,0,0c-0.1,0-0.3,0-0.4,0c0,0-0.1,0-0.1,0c-0.1,0-0.2,0-0.4,0.1c0,0-0.1,0-0.1,0c-0.1,0-0.2,0-0.3,0.1
	c-0.1,0-0.1,0-0.2,0.1c-0.1,0-0.1,0-0.2,0.1c-0.1,0-0.2,0.1-0.3,0.1c0,0-0.1,0-0.1,0.1c-0.1,0-0.1,0.1-0.2,0.1c0,0,0,0,0,0l0-0.1
	c0,0-0.3-1.2-0.5-3.7c-0.3-2.5,1.1-4.9,1.7-6.2c0.6-1.3,0.5-1.4-1.2-1.9c-1.7-0.4-5.2,1.2-5.2,1.2s-4.8,1.9-4.6,6.8
	c0.1,4.9,7.6,7,7.6,7l0.1,0c0,0,0,0,0,0.1c0,0.1,0,0.2,0,0.3c0,0.1,0,0.3,0,0.4c0,0,0,0,0,0s0,0,0,0c0,0.1,0,0.3,0,0.4
	c0,0,0,0.1,0,0.1c0,0.1,0,0.3,0.1,0.4c0,0,0,0,0,0c0,0.1,0.1,0.2,0.1,0.4c0,0,0,0,0,0.1c0,0,0,0,0,0.1c0,0.1,0.1,0.2,0.1,0.3
	c0,0.1,0.1,0.2,0.1,0.2c0,0.1,0.1,0.1,0.1,0.2c0,0.1,0.1,0.1,0.1,0.2c0,0,0,0,0,0l-0.1,0c0,0-1.2,0.3-3.7,0.5
	c-2.5,0.3-4.9-1.1-6.2-1.7c-1.3-0.6-1.4-0.5-1.9,1.2c-0.4,1.7,1.2,5.2,1.2,5.2s1.9,4.8,6.8,4.6s7-7.6,7-7.6l0-0.1c0,0,0,0,0,0
	c0.1,0,0.2,0,0.4,0.1c0.1,0,0.3,0,0.4,0c0,0,0,0,0,0s0,0,0,0c0.1,0,0.3,0,0.4,0c0,0,0.1,0,0.1,0c0.1,0,0.2,0,0.4-0.1
	c0,0,0.1,0,0.1,0c0.1,0,0.2,0,0.3-0.1c0.1,0,0.1,0,0.2-0.1c0.1,0,0.1,0,0.2-0.1c0.1,0,0.2-0.1,0.3-0.1c0,0,0.1,0,0.1-0.1
	c0.1,0,0.1-0.1,0.2-0.1c0,0,0,0,0,0l0,0.1c0,0,0.3,1.2,0.5,3.7c0.3,2.5-1.1,4.9-1.7,6.2c-0.6,1.3-0.5,1.4,1.2,1.9
	c1.7,0.4,5.2-1.2,5.2-1.2s4.8-1.9,4.6-6.8s-7.6-7-7.6-7l-0.1,0c0,0,0,0,0-0.1c0-0.1,0-0.2,0-0.3c0-0.1,0-0.3,0-0.4c0,0,0,0,0,0
	s0,0,0,0c0-0.1,0-0.3,0-0.4c0,0,0-0.1,0-0.1c0-0.1,0-0.3-0.1-0.4c0,0,0,0,0,0c0-0.1-0.1-0.2-0.1-0.4c0,0,0,0,0-0.1c0,0,0,0,0-0.1
	c0-0.1-0.1-0.2-0.1-0.3c0-0.1-0.1-0.2-0.1-0.2c0-0.1-0.1-0.1-0.1-0.2c0-0.1-0.1-0.1-0.1-0.2c0,0,0,0,0,0l0.1,0c0,0,1.2-0.3,3.7-0.5
	c2.5-0.3,4.9,1.1,6.2,1.7c1.3,0.6,1.4,0.5,1.9-1.2C53.7,34.3,52.1,30.7,52.1,30.7z"/>
</svg>
