<?xml version="1.0" encoding="utf-8"?>
<!-- Generator: Adobe Illustrator 19.0.0, SVG Export Plug-In . SVG Version: 6.00 Build 0)  -->
<svg version="1.0" id="Layer_1" xmlns="http://www.w3.org/2000/svg" xmlns:xlink="http://www.w3.org/1999/xlink" x="0px" y="0px"
	 viewBox="0 0 500 500" enable-background="new 0 0 500 500" xml:space="preserve">
<g id="XMLID_986_">
	<g id="XMLID_1636_">
		<g id="XMLID_1637_">
			<path id="XMLID_1639_" fill="#999999" d="M267.4,242.3c-2-4.7-5.5-8.2-10.2-10.2c-2.4-1-4.9-1.5-7.5-1.5c-2.6,0-5.1,0.5-7.5,1.5
				c-4.7,2-8.2,5.5-10.2,10.2c-1,2.4-1.5,4.9-1.5,7.5c0,2.6,0.5,5.1,1.5,7.5c2,4.7,5.5,8.2,10.2,10.2c2.4,1,4.9,1.5,7.5,1.5
				c2.6,0,5.1-0.5,7.5-1.5c4.8-2,8.2-5.5,10.2-10.2c1-2.4,1.5-4.9,1.5-7.5C269,247.1,268.4,244.7,267.4,242.3z M264.4,258.2
				c-1.5,2.6-3.6,4.6-6.2,6.2c-2.6,1.5-5.4,2.3-8.5,2.3c-2.3,0-4.5-0.4-6.6-1.3c-2.1-0.9-3.9-2.1-5.4-3.6c-1.5-1.5-2.7-3.3-3.6-5.4
				c-0.9-2.1-1.3-4.3-1.3-6.6c0-3,0.7-5.9,2.2-8.4c1.5-2.6,3.6-4.6,6.2-6.2c2.6-1.5,5.4-2.3,8.4-2.3c3,0,5.9,0.8,8.5,2.3
				c2.6,1.5,4.7,3.6,6.2,6.2c1.5,2.6,2.3,5.4,2.3,8.4C266.6,252.8,265.9,255.6,264.4,258.2z"/>
			<path id="XMLID_1638_" fill="#999999" d="M250.9,249.6v-10.9c0-0.7-0.6-1.2-1.2-1.2c-0.6,0-1.2,0.5-1.2,1.2v11c0,0,0,0.1,0,0.2
				c0,0.4,0.1,0.7,0.3,0.9l6.3,6.3c0.4,0.4,1.2,0.4,1.6,0c0.5-0.5,0.5-1.2,0-1.6L250.9,249.6z"/>
		</g>
	</g>
	<g id="XMLID_987_">
		<g id="XMLID_1634_">
			<path id="XMLID_1635_" fill="#999999" d="M249.7,269c-8.2,0-15.4-5.2-18.1-13c-0.2-0.6,0.1-1.2,0.7-1.4c0.6-0.2,1.2,0.1,1.4,0.7
				c2.3,6.9,8.8,11.5,16,11.5c9.3,0,16.9-7.6,16.9-17c0-0.6,0.5-1.1,1.1-1.1s1.1,0.5,1.1,1.1C268.8,260.4,260.3,269,249.7,269z"/>
		</g>
		<g id="XMLID_1632_">
			<path id="XMLID_1633_" fill="#999999" d="M231.7,250.9c-0.6,0-1.1-0.5-1.1-1.1c0-10.6,8.6-19.2,19.1-19.2c8.1,0,15.4,5.2,18.1,13
				c0.2,0.6-0.1,1.2-0.7,1.4c-0.6,0.2-1.2-0.1-1.4-0.7c-2.3-6.9-8.8-11.5-16-11.5c-9.3,0-16.9,7.6-16.9,17
				C232.8,250.4,232.4,250.9,231.7,250.9z"/>
		</g>
		<g id="XMLID_1630_">
			<path id="XMLID_1631_" fill="#999999" d="M266.7,245.2c-0.1,0-0.2,0-0.3-0.1l-7.6-2.4c-0.6-0.2-0.9-0.8-0.7-1.4
				c0.2-0.6,0.8-0.9,1.4-0.7l6.6,2.1l2.5-6.3c0.2-0.6,0.9-0.8,1.4-0.6c0.6,0.2,0.8,0.9,0.6,1.4l-2.9,7.2
				C267.6,244.9,267.2,245.2,266.7,245.2z"/>
		</g>
		<g id="XMLID_988_">
			<path id="XMLID_989_" fill="#999999" d="M229.9,263.7c-0.1,0-0.3,0-0.4-0.1c-0.6-0.2-0.8-0.9-0.6-1.4l2.9-7.2
				c0.2-0.5,0.8-0.8,1.3-0.6l7.6,2.4c0.6,0.2,0.9,0.8,0.7,1.4c-0.2,0.6-0.8,0.9-1.4,0.7l-6.6-2.1l-2.5,6.3
				C230.7,263.5,230.3,263.7,229.9,263.7z"/>
		</g>
	</g>
</g>
</svg>
