<?xml version="1.0" encoding="utf-8"?>
<!-- Generator: Adobe Illustrator 22.1.0, SVG Export Plug-In . SVG Version: 6.00 Build 0)  -->
<svg version="1.1" id="Layer_1" xmlns="http://www.w3.org/2000/svg" xmlns:xlink="http://www.w3.org/1999/xlink" x="0px" y="0px"
	 viewBox="0 0 150 240" style="enable-background:new 0 0 150 240;" xml:space="preserve">
<style type="text/css">
	.st0{fill:#0071BC;}
	.st1{fill:none;stroke:#333333;stroke-width:0.75;stroke-miterlimit:10;}
	.st2{fill:#474747;stroke:#333333;stroke-width:0.75;stroke-miterlimit:10;}
</style>
<g>
	<path class="st0" d="M130.3,228H19.8c-4.3,0-7.8-3.5-7.8-7.8v-18c0-4.3,3.5-7.8,7.8-7.8h110.5c4.3,0,7.8,3.5,7.8,7.8v18
		C138,224.5,134.5,228,130.3,228z"/>
</g>
<g>
	<path class="st0" d="M130.3,185.9H19.8c-4.3,0-7.8-3.5-7.8-7.8v-18c0-4.3,3.5-7.8,7.8-7.8h110.5c4.3,0,7.8,3.5,7.8,7.8v18
		C138,182.4,134.5,185.9,130.3,185.9z"/>
</g>
<g>
	<path class="st0" d="M130.3,143.7H19.8c-4.3,0-7.8-3.5-7.8-7.8v-18c0-4.3,3.5-7.8,7.8-7.8h110.5c4.3,0,7.8,3.5,7.8,7.8v18
		C138,140.3,134.5,143.7,130.3,143.7z"/>
</g>
<g>
	<path class="st0" d="M130.3,101.6H19.8c-4.3,0-7.8-3.5-7.8-7.8v-18c0-4.3,3.5-7.8,7.8-7.8h110.5c4.3,0,7.8,3.5,7.8,7.8v18
		C138,98.1,134.5,101.6,130.3,101.6z"/>
</g>
<g>
	<path class="st1" d="M12.9,237.2c-5.6,0-10.2-4.6-10.2-10.3V28.5c0-5.7,4.6-10.3,10.2-10.3h41.4V6.5c0-2.3,1.9-4.3,4.3-4.3h32.5
		c2.3,0,4.3,1.9,4.3,4.3v11.8h41.4c5.6,0,10.2,4.6,10.2,10.3V227c0,5.7-4.6,10.3-10.2,10.3L12.9,237.2L12.9,237.2z"/>
	<path class="st2" d="M91.1,2.7c2,0,3.7,1.7,3.7,3.8v11.3v1h1h40.4c5.3,0,9.6,4.4,9.6,9.8V227c0,5.4-4.4,9.8-9.6,9.8H13.8
		c-5.3,0-9.6-4.4-9.6-9.8V28.5c0-5.4,4.4-9.8,9.6-9.8h40.4h1v-1V6.5c0-2.1,1.7-3.8,3.8-3.8H91.1 M91.5,3.3H59.2
		c-2.7,0-4.8,2.1-4.8,4.8v11.2H13.8C8,19.3,3.2,24.1,3.2,30v197c0,5.9,4.8,10.7,10.6,10.7h122.9c5.9,0,10.6-4.8,10.6-10.7V29.9
		c0-5.9-4.8-10.7-10.6-10.7H96.2V8.1C96.2,5.4,94.1,3.3,91.5,3.3L91.5,3.3z"/>
</g>
</svg>
