<?xml version="1.0" encoding="utf-8"?>
<!-- Generator: Adobe Illustrator 19.0.0, SVG Export Plug-In . SVG Version: 6.00 Build 0)  -->
<svg version="1.0" id="Layer_1" xmlns="http://www.w3.org/2000/svg" xmlns:xlink="http://www.w3.org/1999/xlink" x="0px" y="0px"
	 viewBox="0 0 500 500" enable-background="new 0 0 500 500" xml:space="preserve">
<g id="XMLID_2503_">
	<g id="XMLID_2504_">
		<path id="XMLID_2505_" fill="#C1272D" d="M256,224.2h-12.9c-3.4,0-6.2,3.8-6.2,7.2v38.2c0,3.4,2.8,6.2,6.2,6.2H256
			c3.4,0,6.2-2.8,6.2-6.2v-38.2C262.2,228,259.4,224.2,256,224.2z M261.1,239.8v12.8l-3,0.4v-5.3L261.1,239.8z M259.5,236
			c-1.1,4.3-2.4,9.3-2.4,9.3H242l-2.4-9.3C239.5,236,249.3,232.7,259.5,236z M241,248v4.9l-3-0.4v-12.4L241,248z M238,265.8v-11.4
			l3,0.4v9L238,265.8z M239.7,269l2.4-3.7h15.1l2.4,3.7H239.7z M258.1,263.5v-8.6l3-0.4v11L258.1,263.5z"/>
	</g>
</g>
</svg>
