<?xml version="1.0" encoding="utf-8"?>
<!-- Generator: Adobe Illustrator 22.1.0, SVG Export Plug-In . SVG Version: 6.00 Build 0)  -->
<svg version="1.1" id="Layer_1" xmlns="http://www.w3.org/2000/svg" xmlns:xlink="http://www.w3.org/1999/xlink" x="0px" y="0px"
	 viewBox="0 0 26 9" style="enable-background:new 0 0 26 9;" xml:space="preserve">
<style type="text/css">
	.st0{clip-path:url(#SVGID_2_);}
	.st1{clip-path:url(#SVGID_12_);}
	.st2{clip-path:url(#SVGID_13_);}
	.st3{clip-path:url(#SVGID_14_);}
	.st4{clip-path:url(#SVGID_15_);}
	.st5{clip-path:url(#SVGID_16_);}
	.st6{clip-path:url(#SVGID_17_);}
	.st7{clip-path:url(#SVGID_18_);}
	.st8{clip-path:url(#SVGID_19_);}
	.st9{clip-path:url(#SVGID_20_);}
	.st10{fill:url(#SVGID_21_);}
	.st11{fill:url(#SVGID_22_);}
	.st12{opacity:0.25;}
	.st13{fill:#1A171B;}
	.st14{opacity:0.7;clip-path:url(#SVGID_20_);fill:url(#SVGID_23_);enable-background:new    ;}
	.st15{opacity:0.7;clip-path:url(#SVGID_20_);fill:url(#SVGID_24_);enable-background:new    ;}
	.st16{opacity:0.7;clip-path:url(#SVGID_20_);fill:url(#SVGID_25_);enable-background:new    ;}
	.st17{opacity:0.55;clip-path:url(#SVGID_20_);fill:url(#SVGID_26_);enable-background:new    ;}
	.st18{opacity:0.3;clip-path:url(#SVGID_20_);fill:url(#SVGID_27_);enable-background:new    ;}
	.st19{opacity:0.3;clip-path:url(#SVGID_20_);fill:url(#SVGID_28_);enable-background:new    ;}
	.st20{opacity:0.3;clip-path:url(#SVGID_20_);fill:url(#SVGID_29_);enable-background:new    ;}
	.st21{opacity:0.7;clip-path:url(#SVGID_20_);fill:url(#SVGID_30_);enable-background:new    ;}
	.st22{fill:url(#SVGID_31_);}
</style>
<g>
	<defs>
		<path id="SVGID_1_" d="M24.4,8H1.6C1.3,8,1,7.7,1,7.4V1.6C1,1.3,1.3,1,1.6,1h22.8C24.7,1,25,1.3,25,1.6v5.8C25,7.7,24.7,8,24.4,8z
			"/>
	</defs>
	<clipPath id="SVGID_2_">
		<use xlink:href="#SVGID_1_"  style="overflow:visible;"/>
	</clipPath>
	<g class="st0">
		<g>
			<defs>
				<rect id="SVGID_3_" x="0.2" y="-2.4" width="25.6" height="14.6"/>
			</defs>
			<defs>
				<rect id="SVGID_4_" x="0.2" y="-2.4" width="25.6" height="14.6"/>
			</defs>
			<defs>
				<rect id="SVGID_5_" x="0.2" y="-2.4" width="25.6" height="14.6"/>
			</defs>
			<defs>
				<rect id="SVGID_6_" x="0.2" y="-2.4" width="25.6" height="14.6"/>
			</defs>
			<defs>
				<rect id="SVGID_7_" x="0.2" y="-2.4" width="25.6" height="14.6"/>
			</defs>
			<defs>
				<rect id="SVGID_8_" x="0.2" y="-2.4" width="25.6" height="14.6"/>
			</defs>
			<defs>
				<rect id="SVGID_9_" x="0.2" y="-2.4" width="25.6" height="14.6"/>
			</defs>
			<defs>
				<rect id="SVGID_10_" x="0.2" y="-2.4" width="25.6" height="14.6"/>
			</defs>
			<defs>
				<rect id="SVGID_11_" x="0.2" y="-2.4" width="25.6" height="14.6"/>
			</defs>
			<clipPath id="SVGID_12_">
				<use xlink:href="#SVGID_3_"  style="overflow:visible;"/>
			</clipPath>
			<clipPath id="SVGID_13_" class="st1">
				<use xlink:href="#SVGID_4_"  style="overflow:visible;"/>
			</clipPath>
			<clipPath id="SVGID_14_" class="st2">
				<use xlink:href="#SVGID_5_"  style="overflow:visible;"/>
			</clipPath>
			<clipPath id="SVGID_15_" class="st3">
				<use xlink:href="#SVGID_6_"  style="overflow:visible;"/>
			</clipPath>
			<clipPath id="SVGID_16_" class="st4">
				<use xlink:href="#SVGID_7_"  style="overflow:visible;"/>
			</clipPath>
			<clipPath id="SVGID_17_" class="st5">
				<use xlink:href="#SVGID_8_"  style="overflow:visible;"/>
			</clipPath>
			<clipPath id="SVGID_18_" class="st6">
				<use xlink:href="#SVGID_9_"  style="overflow:visible;"/>
			</clipPath>
			<clipPath id="SVGID_19_" class="st7">
				<use xlink:href="#SVGID_10_"  style="overflow:visible;"/>
			</clipPath>
			<clipPath id="SVGID_20_" class="st8">
				<use xlink:href="#SVGID_11_"  style="overflow:visible;"/>
			</clipPath>
			<g class="st9">
				
					<linearGradient id="SVGID_21_" gradientUnits="userSpaceOnUse" x1="3.8847" y1="-63.7714" x2="3.8847" y2="-38.1699" gradientTransform="matrix(0 1 1 0 64 1.0003)">
					<stop  offset="0" style="stop-color:#1A171B"/>
					<stop  offset="2.936574e-02" style="stop-color:#282529"/>
					<stop  offset="0.1742" style="stop-color:#676669"/>
					<stop  offset="0.2962" style="stop-color:#959598"/>
					<stop  offset="0.3893" style="stop-color:#B1B2B4"/>
					<stop  offset="0.4424" style="stop-color:#BCBDBF"/>
					<stop  offset="0.5185" style="stop-color:#B7B8BA"/>
					<stop  offset="0.6062" style="stop-color:#AAAAAC"/>
					<stop  offset="0.6998" style="stop-color:#939396"/>
					<stop  offset="0.7975" style="stop-color:#737376"/>
					<stop  offset="0.8983" style="stop-color:#4B494C"/>
					<stop  offset="1" style="stop-color:#1A171B"/>
				</linearGradient>
				<rect x="0.2" y="-2.4" class="st10" width="25.6" height="14.6"/>
				
					<linearGradient id="SVGID_22_" gradientUnits="userSpaceOnUse" x1="0.1202" y1="9.2078" x2="25.7217" y2="9.2078" gradientTransform="matrix(1 0 0 -1 0 14)">
					<stop  offset="0" style="stop-color:#1A171B;stop-opacity:0"/>
					<stop  offset="0.1694" style="stop-color:#686669;stop-opacity:0.2768"/>
					<stop  offset="0.3257" style="stop-color:#A9A8A9;stop-opacity:0.5321"/>
					<stop  offset="0.456" style="stop-color:#D7D7D8;stop-opacity:0.745"/>
					<stop  offset="0.5554" style="stop-color:#F4F4F4;stop-opacity:0.9074"/>
					<stop  offset="0.6121" style="stop-color:#FFFFFF"/>
					<stop  offset="0.656" style="stop-color:#FAFAFA;stop-opacity:0.887"/>
					<stop  offset="0.7065" style="stop-color:#ECECED;stop-opacity:0.7566"/>
					<stop  offset="0.7605" style="stop-color:#D6D5D6;stop-opacity:0.6174"/>
					<stop  offset="0.8169" style="stop-color:#B6B5B6;stop-opacity:0.4721"/>
					<stop  offset="0.8751" style="stop-color:#8C8B8D;stop-opacity:0.3221"/>
					<stop  offset="0.9348" style="stop-color:#5A585B;stop-opacity:0.1681"/>
					<stop  offset="0.9948" style="stop-color:#1F1D20;stop-opacity:1.352042e-02"/>
					<stop  offset="1" style="stop-color:#1A171B;stop-opacity:0"/>
				</linearGradient>
				<rect x="0.1" y="-2.5" class="st11" width="25.6" height="14.6"/>
				<g class="st12">
					<g>
						<path class="st13" d="M4.7,12c1.2,0,2.5,0,3.7,0c0.1,0,0.2,0,0.3,0c0.9,0,1.8,0,2.8,0c0.1,0,0.1,0,0.2,0c0.1,0,0.2,0,0.4,0
							h0.1h0.2h0.2c0.3,0,0.5,0,0.8,0c0.7,0,1.4,0,2.1,0c0.1,0,0.2,0,0.3,0c0.3,0,0.5,0,0.8,0c0.1,0,0.1,0,0.1,0h1.4h0.2
							c0.2,0,0.4,0,0.6,0c0.1,0,0.1,0,0.1,0c0.3,0,0.7,0,0.9,0c0.1,0,0.1,0,0.1,0c0.4,0,0.7,0,1.1,0"/>
						<path class="st13" d="M4.5,11.9c1.4,0,2.8,0,4.2,0c0.1,0,0.2,0,0.3,0c0.9,0,1.8,0,2.7,0h0.3h0.5c0.1,0,0.2,0,0.3,0
							c0.8,0,1.7,0,2.5,0c0.1,0,0.1,0,0.2,0h2.7c0.1,0,0.1,0,0.2,0c1.1,0,2.3,0,3.4,0"/>
						<path class="st13" d="M0.1,11.9c0.1,0,0.2,0,0.2,0c0.1,0,0.2,0,0.2,0c0.3,0,0.8,0,1.1,0h0.2h1.3h0.2c0.6,0,1.2,0,1.8,0
							c1.1,0,2.3,0,3.5,0c0.1,0,0.2,0,0.3,0c0.8,0,1.7,0,2.5,0c0.1,0,0.2,0,0.3,0h1.1c0.1,0,0.2,0,0.3,0c0.7,0,1.3,0,2,0h0.3h2.2
							c0.1,0,0.2,0,0.3,0c1.2,0,2.4,0,3.7,0c0.1,0,0.2,0,0.3,0c1.5,0,2.9,0,4.3,0"/>
						<path class="st13" d="M0.8,11.8h2.4h0.3c0.7,0,1.3,0,2,0c0.5,0,1,0,1.5,0c0.1,0,0.2,0,0.3,0c0.5,0,1,0,1.6,0
							c0.1,0,0.2,0,0.3,0c0.2,0,0.4,0,0.6,0H10h3.3c0.1,0,0.2,0,0.3,0c0.3,0,0.7,0,1,0h0.3h2.9c0.1,0,0.2,0,0.3,0c1.1,0,2.3,0,3.4,0
							c0.1,0,0.2,0,0.3,0c1.1,0,2.2,0,3.3,0"/>
						<path class="st13" d="M4.9,11.7c0.7,0,1.3,0,2,0c0.1,0,0.2,0,0.3,0c0.7,0,1.4,0,2,0c0.1,0,0.2,0,0.3,0c0.1,0,0.2,0,0.2,0h0.2
							h1.6c0.1,0,0.2,0,0.3,0c0.3,0,0.7,0,1,0c0.1,0,0.2,0,0.3,0h4.8c0.1,0,0.1,0,0.2,0c0.9,0,1.7,0,2.7,0"/>
						<path class="st13" d="M-1.7,11.7h3.6h0.2c0.7,0,1.4,0,2,0c0.1,0,0.2,0,0.3,0c0.7,0,1.3,0,2,0c0.1,0,0.2,0,0.3,0
							c0.9,0,1.7,0,2.6,0c0.1,0,0.2,0,0.3,0h0.3h7.2h0.2c0.1,0,0.2,0,0.3,0c0.1,0,0.2,0,0.3,0c1,0,2.1,0,3.1,0c0.1,0,0.2,0,0.3,0
							c0.1,0,0.1,0,0.2,0h0.2c0.5,0,1,0,1.5,0c0.1,0,0.1,0,0.2,0c1.4,0,2.8-0.1,4.2,0c0.1,0,0.2,0,0.2,0"/>
						<path class="st13" d="M1.5,11.6H2h0.2c0.6,0,1.2,0,1.8,0c0.1,0,0.2,0,0.3,0c0.7,0,1.4,0,2,0c0.1,0,0.2,0,0.3,0
							c1,0,1.9,0,2.9,0h0.3h0.8h0.1c0.3,0,0.7,0,1,0c0.1,0,0.1,0,0.1,0c0.1,0,0.2,0,0.3,0c0.1,0,0.1,0,0.1,0h4.7h0.2
							c0.3,0,0.7,0,0.9,0c0.1,0,0.2,0,0.3,0c0.7,0,1.5,0,2.2,0c0.1,0,0.2,0,0.3,0c0.2,0,0.4,0,0.5,0c0.1,0,0.1,0,0.2,0
							c0.5,0,1.1,0,1.7,0c0.1,0,0.1,0,0.2,0c0.4,0,0.8,0,1.1,0"/>
						<path class="st13" d="M0.1,11.6c0.3,0,0.5,0,0.8,0c0.1,0,0.1,0,0.1,0h0.1c0.1,0,0.1,0,0.1,0c0.2,0,0.3,0,0.5,0
							c0.1,0,0.2,0,0.3,0c0.6,0,1.2,0,1.8,0c0.1,0,0.2,0,0.3,0c0.8,0,1.6,0,2.4,0c0.1,0,0.2,0,0.3,0c0.9,0,1.8,0,2.7,0
							c0.1,0,0.2,0,0.2,0h0.9h0.1c0.4,0,0.7,0,1.1,0c0.1,0,0.1,0,0.1,0c0.2,0,0.3,0,0.4,0c0.1,0,0.1,0,0.1,0h4.3h0.2
							c0.3,0,0.6,0,0.9,0c0.1,0,0.2,0,0.3,0c0.6,0,1.2,0,1.9,0c0.1,0,0.2,0,0.3,0c0.4,0,0.8,0,1.1,0c0.1,0,0.1,0,0.2,0
							c0.3,0,0.7,0,1.1,0c0.1,0,0.2,0,0.2,0c1,0,1.9,0,2.8,0"/>
						<path class="st13" d="M2.8,11.5c0.3,0,0.7,0,1,0c0.1,0,0.2,0,0.3,0c0.7,0,1.5,0,2.2,0c0.1,0,0.2,0,0.3,0c0.9,0,1.8,0,2.7,0
							c0.1,0,0.1,0,0.2,0c0.3,0,0.6,0,0.9,0h0.2c0.1,0,0.1,0,0.1,0c0.3,0,0.6,0,0.9,0c0.1,0,0.1,0,0.1,0c0.2,0,0.3,0,0.5,0h0.1h5.9
							c0.3,0,0.5,0,0.8,0c0.3,0,0.5,0,0.8,0c0.2,0,0.5,0,0.7,0h1.2c0.1,0,0.2,0,0.3,0c0.4,0,0.9,0,1.3,0c0.1,0,0.1,0,0.2,0h0.4"/>
						<path class="st13" d="M-1.3,11.5c0.2,0,0.4,0,0.7,0c0.1,0,0.1,0,0.2,0c0.1,0,0.3,0,0.4,0c0.4,0,0.8,0,1.3,0c0.1,0,0.1,0,0.2,0
							c0.8,0,1.6,0,2.5,0c0.1,0,0.2,0,0.3,0c0.9,0,1.7,0,2.6,0c0.1,0,0.2,0,0.3,0c0.8,0,1.6,0,2.3,0c0.1,0,0.2,0,0.3,0
							c0.3,0,0.7,0,1,0c0.1,0,0.2,0,0.2,0h11.1c0.1,0,0.1,0,0.2,0c0.2,0,0.4,0,0.5,0c0.1,0,0.2,0,0.3,0c1.6,0,3.2,0,4.8,0"/>
						<path class="st13" d="M0.2,11.4c0.2,0,0.5,0,0.7,0c0.1,0,0.2,0,0.3,0c0.9,0,1.7,0,2.6,0c0.1,0,0.2,0,0.3,0c0.9,0,1.8,0,2.7,0
							c0.1,0,0.2,0,0.3,0c0.7,0,1.4,0,2.1,0c0.1,0,0.2,0,0.3,0c0.5,0,1,0,1.5,0h0.3H19h0.2c0.7,0,1.5,0,2.2,0c0.1,0,0.2,0,0.3,0
							c0.4,0,0.7,0,1.1,0c0.1,0,0.2,0,0.3,0c0.9,0,1.6,0,2.4,0"/>
						<path class="st13" d="M3.6,11.3c0.2,0,0.4,0,0.7,0c0.1,0,0.2,0,0.3,0c0.7,0,1.2,0,1.9,0c0.1,0,0.2,0,0.3,0c0.3,0,0.7,0,1,0
							c0.1,0,0.2,0,0.3,0c0.1,0,0.2,0,0.3,0c0.1,0,0.2,0,0.3,0c0.9,0,1.7,0,2.5,0h0.3h7.4h0.2c1,0,2,0,3,0"/>
						<path class="st13" d="M1.3,11.3c1.1,0,2.2,0,3.3,0c0.1,0,0.2,0,0.3,0c0.4,0,0.9,0,1.3,0c0.1,0,0.2,0,0.3,0c1.5,0,3,0,4.6,0
							h0.3h6.8h0.2c2.1,0,4.2,0,6.3,0"/>
						<path class="st13" d="M1.5,11.2c3.2,0,6.4,0,9.6,0h0.3h7h0.2c0.1,0,0.2,0,0.2,0c0.4,0,0.8,0,1.2,0c0.1,0,0.2,0,0.3,0
							c0.3,0,0.5,0,0.8,0c0.1,0,0.2,0,0.3,0c1.1,0,2.3,0,3.5,0"/>
						<path class="st13" d="M-0.9,11.2h2c0.1,0,0.2,0,0.3,0c3.1,0,6.3,0,9.5,0c0.1,0,0.2,0,0.3,0h2.1c0.1,0,0.2,0,0.2,0
							c1.5,0,3,0,4.6,0h0.2c0.8,0,1.5,0,2.3,0c0.1,0,0.2,0,0.3,0c0.1,0,0.2,0,0.3,0c1.8,0,3.6,0.1,5.5,0"/>
						<path class="st13" d="M3.4,11.1c0.5,0,0.9,0,1.4,0c0.1,0,0.1,0,0.2,0h0.2c0.1,0,0.1,0,0.2,0c1.7,0,3.4,0,5.1,0
							c0.1,0,0.2,0,0.3,0h2.1h0.2c1.6,0,3.1,0,4.7,0c0.1,0,0.2,0,0.3,0c0.9,0,1.7,0,2.6,0H21c0.5,0,1,0,1.5,0"/>
						<path class="st13" d="M1.3,11.1c0.2,0,0.3,0,0.4,0h0.1h5.1h0.1h0.1c0.3,0,0.5,0,0.7,0c0.1,0,0.2,0,0.3,0c0.7,0,1.4,0,2,0h0.2
							h2.5c0.1,0,0.2,0,0.2,0c0.5,0,1,0,1.6,0c0.1,0,0.2,0,0.3,0c0.7,0,1.4,0,2.1,0c0.2,0,0.3,0,0.5,0c1.3,0,2.6,0,4,0
							c0.1,0,0.2,0,0.3,0c1,0,2,0,3,0"/>
						<path class="st13" d="M4.5,11h2.5h0.2c0.5,0,1.1,0,1.6,0h0.1c0.2,0,0.4,0,0.7,0c0.1,0,0.1,0,0.1,0c0.2,0,0.3,0,0.5,0h0.2h1.6
							c0.1,0,0.1,0,0.2,0c0.2,0,0.3,0,0.5,0h0.1h0.1c0.1,0,0.2,0,0.2,0c0.3,0,0.7,0,1,0c0.1,0,0.2,0,0.3,0c0.3,0,0.5,0,0.8,0
							c0.1,0,0.2,0,0.3,0c0.4,0,0.7,0,1.1,0c0.1,0,0.2,0,0.3,0c0.3,0,0.5,0,0.8,0c0.1,0,0.2,0,0.3,0c1.1,0,2.1,0,3.2,0
							c0.1,0,0.2,0,0.3,0c0.1,0,0.2,0,0.3,0"/>
						<path class="st13" d="M-0.2,10.9h0.9c0.1,0,0.1,0,0.1,0c0.3,0,0.6,0,0.9,0h0.1h5.1h0.2c0.5,0,1,0,1.4,0c0.1,0,0.1,0,0.1,0
							c0.3,0,0.7,0,1,0c0.1,0,0.1,0,0.1,0c0.1,0,0.1,0,0.1,0h1.6h0.2c0.4,0,0.8,0,1.1,0c0.1,0,0.1,0,0.1,0c0.3,0,0.7,0,1,0h0.3h0.3
							c0.1,0,0.2,0,0.3,0c0.5,0,1.1,0,1.6,0c0.2,0,0.4,0,0.5,0c3,0,6.1,0,9.2,0c0.2,0,0.3,0,0.3,0"/>
						<path class="st13" d="M4.1,10.9h3.1c0.1,0,0.1,0,0.2,0c0.4,0,0.7,0,1.1,0c0.1,0,0.1,0,0.1,0c0.3,0,0.6,0,1,0
							c0.1,0,0.1,0,0.1,0h0.1h1.8c0.1,0,0.1,0,0.1,0c0.3,0,0.7,0,1,0c0.1,0,0.1,0,0.1,0c0.3,0,0.5,0,0.8,0c0.1,0,0.2,0,0.3,0
							c0.1,0,0.2,0,0.3,0c0.1,0,0.2,0,0.3,0c0.9,0,1.7,0,2.6,0c0.1,0,0.2,0,0.3,0s0.2,0,0.3,0c1,0,1.9,0,2.9,0h0.2h1"/>
						<path class="st13" d="M-1.5,10.8h8.8h0.2c0.4,0,0.8,0,1.2,0c0.1,0,0.1,0,0.1,0c0.2,0,0.4,0,0.6,0h0.1h2.3c0.1,0,0.1,0,0.1,0
							c0.2,0,0.4,0,0.5,0h0.2h0.1c0.1,0,0.2,0,0.2,0c0.2,0,0.4,0,0.6,0c0.1,0,0.2,0,0.3,0c0.1,0,0.2,0,0.3,0c0.1,0,0.2,0,0.3,0
							c0.7,0,1.5,0,2.2,0c0.1,0,0.2,0,0.3,0c3,0,6.1,0,9.1,0c0.1,0,0.2,0,0.3,0h1.4"/>
						<path class="st13" d="M-1.1,10.8h13.7h0.3c0.3,0,0.7,0,0.9,0h0.3h0.3c0.1,0,0.2,0,0.3,0c0.7,0,1.4,0,2,0c0.2,0,0.3,0,0.5,0
							c3,0,6,0,8.9,0h0.2h0.5"/>
						<path class="st13" d="M-1.4,10.7h14.7h0.3c0.1,0,0.2,0,0.3,0c0.1,0,0.2,0,0.3,0c0.1,0,0.2,0,0.3,0c0.1,0,0.2,0,0.3,0
							c0.7,0,1.3,0,2,0c0.2,0,0.3,0,0.5,0c2.9,0,5.7,0,8.7,0c0.1,0,0.2,0,0.3,0h1.4"/>
						<path class="st13" d="M0.3,10.7H14h0.3c0.1,0,0.2,0,0.3,0c0.1,0,0.2,0,0.2,0c0.8,0,1.6,0,2.4,0c0.1,0,0.1,0,0.2,0
							c0.1,0,0.2,0,0.3,0c1.6,0,3.1,0,4.7,0c0.1,0,0.2,0,0.3,0c0.1,0,0.2,0,0.3,0c0.9,0,1.8,0,2.7,0c0.1,0,0.2,0,0.3,0
							c0.1,0,0.2,0,0.3,0"/>
						<path class="st13" d="M3.8,10.6h1.9c0.1,0,0.2,0,0.3,0c0.4,0,0.8,0,1.2,0c0.1,0,0.1,0,0.2,0h7.4c0.1,0,0.2,0,0.2,0
							c0.7,0,1.4,0,2,0c0.1,0,0.1,0,0.2,0c0.2,0,0.5,0,0.7,0h0.1h0.2h0.3c1.3,0,2.6,0,3.9,0"/>
						<path class="st13" d="M4.4,10.6h0.8c0.1,0,0.1,0,0.1,0c0.1,0,0.1,0,0.2,0c0.1,0,0.1,0,0.2,0c0.7,0,1.2,0,1.9,0
							c0.1,0,0.2,0,0.3,0h7.3c0.1,0,0.2,0,0.3,0c0.3,0,0.7,0,1,0c0.1,0,0.2,0,0.3,0h0.2c0.3,0,0.6,0,0.9,0h0.2h0.2h0.2
							c1,0,2.1,0,3.1,0"/>
						<path class="st13" d="M-0.5,10.5c0.1,0,0.2,0,0.3,0c0.1,0,0.2,0,0.3,0c0.7,0,1.4,0,2.1,0c0.1,0,0.1,0,0.1,0c0.3,0,0.7,0,1.1,0
							c0.1,0,0.1,0,0.1,0c0.4,0,0.9,0,1.2,0c0.1,0,0.1,0,0.2,0c0.1,0,0.2,0,0.3,0s0.2,0,0.3,0c0.7-0.1,1.4,0,2,0c0.1,0,0.2,0,0.3,0
							h0.2h0.3c0.5,0,1,0,1.5,0h0.2H18h0.2c3,0,6,0,8.9,0"/>
						<path class="st13" d="M1,10.4c0.4,0,0.9,0,1.3,0c0.1,0,0.1,0,0.1,0c0.3,0,0.7,0,1,0c0.1,0,0.1,0,0.1,0c0.4,0,0.8,0,1.1,0
							c0.1,0,0.1,0,0.2,0c0.1,0,0.2,0,0.3,0c0.9,0,1.8,0,2.7,0c0.1,0,0.2,0,0.2,0c0.1,0,0.2,0,0.3,0c0.5,0,1.1,0,1.6,0h0.2h7.7h0.3
							c0.3,0,0.7,0,1,0h0.3c2.2,0,4.3,0,6.4,0"/>
						<path class="st13" d="M3.9,10.4c0.3,0,0.7,0,1,0c0.1,0,0.1,0,0.2,0c0.1,0,0.2,0,0.3,0c0.9,0,1.8,0,2.7,0c0.1,0,0.2,0,0.3,0
							c0.9,0,1.7,0,2.6,0h0.3h1.7h0.3c1.6,0,3.2,0,4.8,0c0.1,0,0.2,0,0.3,0c0.1,0,0.2,0,0.3,0c0.1,0,0.2,0,0.3,0c1.2,0,2.5,0,3.7,0"
							/>
						<path class="st13" d="M4.7,10.3c0.1,0,0.3,0,0.4,0c0.1,0,0.1,0,0.2,0c0.9,0,1.8,0,2.7,0c0.1,0,0.2,0,0.3,0c0.8,0,1.6,0,2.4,0
							c0.1,0,0.2,0,0.2,0c0.2,0,0.4,0,0.6,0h0.2h1.1h0.2c1.6,0,3.1,0,4.7,0c0.1,0,0.2,0,0.3,0c0.1,0,0.2,0,0.3,0s0.2,0,0.3,0
							c0.9,0,1.8,0,2.7,0"/>
						<path class="st13" d="M4.4,10.3c0.2,0,0.4,0,0.6,0c0.1,0,0.2,0,0.3,0c0.9,0,1.8,0,2.7,0h0.3c0.9,0,1.8,0,2.7,0h0.2
							c0.2,0,0.5,0,0.7,0H12h0.7H13c1.7,0,3.4,0,5.1,0h0.3c1.3,0,2.5,0,3.9,0"/>
						<path class="st13" d="M3,10.2c0.4,0,0.9,0,1.4,0c0.1,0,0.1,0,0.2,0c0.2,0,0.5,0,0.7,0c0.1,0,0.2,0,0.2,0c0.7,0,1.4,0,2.1,0
							c0.1,0,0.2,0,0.3,0c0.9,0,1.9,0,2.8,0c0.1,0,0.2,0,0.3,0c0.3,0,0.6,0,0.9,0c0.1,0,0.2,0,0.3,0h0.2h0.2c1.8,0,3.7,0,5.6,0
							c0.1,0,0.2,0,0.3,0c1.4,0,2.8,0,4.3,0"/>
						<path class="st13" d="M3.8,10.2c0.1,0,0.1,0,0.2,0c0.1,0,0.1,0,0.2,0c0.5,0,1,0,1.5,0c0.1,0,0.1,0,0.2,0c0.4,0,0.8,0,1.2,0
							c0.1,0,0.2,0,0.3,0c1.1,0,2.2,0,3.3,0c0.1,0,0.2,0,0.3,0c0.4,0,0.9,0,1.3,0h0.2c2,0,3.8,0,5.7,0c0.1,0,0.2,0,0.3,0
							c0.1,0,0.2,0,0.3,0c0.1,0,0.2,0,0.3,0c0.8,0,1.6,0,2.4,0c0.1,0,0.2,0,0.3,0c0.1,0,0.2,0,0.3,0"/>
						<path class="st13" d="M-0.4,10.1h0.3h0.3h0.3c1.2,0,2.3,0,3.5,0c0.1,0,0.1,0,0.2,0c0.5,0,1,0,1.6,0c0.1,0,0.1,0,0.2,0
							c0.1,0,0.3,0,0.4,0s0.2,0,0.3,0c0.8,0,1.7,0,2.5,0c0.1,0,0.2,0,0.3,0c0.4,0,0.8,0,1.1,0c0.1,0,0.2,0,0.3,0c0.5,0,1,0,1.5,0
							h0.3c1.8,0,3.8,0,5.7,0h0.3H19c0.9,0,1.8,0,2.8,0c0.1,0,0.2,0,0.3,0c0.5,0,1,0,1.5,0c0.1,0,0.2,0,0.3,0c0.2,0,0.3,0,0.4,0
							c0.1,0,0.1,0,0.2,0c0.4,0,0.8,0,1.1,0c0.2,0,0.3,0,0.5,0"/>
						<path class="st13" d="M3.8,10c0.1,0,0.1,0,0.2,0c0.1,0,0.1,0,0.2,0c0.5,0,1,0,1.5,0c0.1,0,0.1,0,0.2,0c0.7,0,1.4,0,2.1,0
							c0.1,0,0.2,0,0.3,0c0.1,0,0.2,0,0.3,0c0.5,0,1.1,0,1.6,0c0.1,0,0.2,0,0.3,0c0.6,0,1.2,0,1.8,0h0.2c2,0,4,0,6,0
							c0.1,0,0.2,0,0.3,0c1,0,2,0,3,0c0.1,0,0.2,0,0.3,0"/>
						<path class="st13" d="M3.2,10h1.1c0.1,0,0.2,0,0.2,0c0.4,0,0.7,0,1,0c0.1,0,0.2,0,0.2,0H6c1,0,2.1,0,3.2,0h0.2
							c0.2,0,0.5,0,0.7,0c0.1,0,0.1,0,0.2,0c0.4,0,0.7,0,1.1,0c0.1,0,0.1,0,0.2,0c0.3,0,0.5,0,0.8,0h0.3c1.8,0,3.5,0,5.3,0
							c0.1,0,0.2,0,0.3,0c1.1,0,2.2,0,3.4,0c0.1,0,0.2,0,0.3,0s0.2,0,0.2,0h0.4"/>
						<path class="st13" d="M4.7,9.9h1.1h0.3c0.3,0,0.7,0,1,0c0.1,0,0.1,0,0.1,0c0.3,0,0.6,0,0.9,0h0.1c0.3,0,0.6,0,0.9,0h0.3h0.2
							h0.1c0.3,0,0.6,0,0.9,0c0.1,0,0.1,0,0.1,0c0.3,0,0.6,0,0.9,0c0.1,0,0.1,0,0.2,0c0.2,0,0.3,0,0.4,0c0.1,0,0.1,0,0.1,0
							c0.3,0,0.6,0,0.9,0h0.1h0.1c0.3,0,0.6,0,0.9,0h0.1c0.4,0,0.8,0,1.1,0h0.1c0.1,0,0.3,0,0.4,0h0.1c0.4,0,0.9,0,1.3,0
							c0.1,0,0.1,0,0.1,0h0.4c0.1,0,0.2,0,0.3,0c0.2,0,0.3,0,0.5,0c0.1,0,0.1,0,0.1,0c0.3,0,0.7,0,1,0c0.1,0,0.1,0,0.1,0
							c0.6,0,1.2,0,1.7,0"/>
						<path class="st13" d="M3.2,9.8h3h0.2c0.2,0,0.4,0,0.6,0c0.1,0,0.1,0,0.1,0c0.3,0,0.5,0,0.8,0c0.1,0,0.3,0,0.4,0
							c0.1,0,0.1,0,0.1,0c0.2,0,0.3,0,0.5,0h0.3h0.3h0.1c0.4,0,0.7,0,1.1,0c0.1,0,0.1,0,0.1,0c0.4,0,0.7,0,1.1,0c0.1,0,0.1,0,0.2,0
							h0.1h0.1c0.4,0,0.7,0,1.1,0c0.1,0,0.1,0,0.1,0c0.1,0,0.2,0,0.2,0c0.1,0,0.1,0,0.1,0h0.6h0.1c0.4,0,0.8,0,1.2,0h0.1H16
							c0.1,0,0.1,0,0.1,0c0.5,0,1,0,1.5,0c0.1,0,0.1,0,0.1,0h0.5c0.1,0,0.1,0,0.2,0s0.3,0,0.4,0c0.1,0,0.1,0,0.1,0
							c0.4,0,0.8,0,1.1,0c0.1,0,0.1,0,0.1,0c0.6,0,1.2,0,1.7,0h0.3h0.2"/>
						<path class="st13" d="M-1.7,9.8c0.1,0,0.2,0,0.2,0c5.7,0,11.3,0,17,0c0.3,0,0.7,0,1,0c0.4,0,0.9,0,1.4,0c0.1,0,0.2,0,0.2,0
							h0.3c0.1,0,0.3,0,0.4,0c0.1,0,0.1,0,0.1,0c0.3,0,0.7,0,1,0c0.1,0,0.1,0,0.1,0c0.7,0,1.2,0,1.9,0h0.2h5.9"/>
						<path class="st13" d="M-0.1,9.8c6,0,11.9,0,17.8,0h0.3h0.3c0.1,0,0.2,0,0.3,0c1.1,0,2.2,0,3.4,0h0.3h0.3h3.3"/>
						<path class="st13" d="M4.6,9.7c1,0,2.1,0,3.1,0c0.1,0,0.1,0,0.2,0h8.2h0.2c0.6,0,1.2,0,1.8,0c0.1,0,0.2,0,0.3,0c1,0,2,0,3,0
							c0.1,0,0.2,0,0.3,0"/>
						<path class="st13" d="M0.6,9.6c0.2,0,0.4,0,0.5,0c0.1,0,0.2,0,0.3,0h0.8h0.2c1.8,0,3.6,0,5.5,0h0.2h1.1h1h1h1h3.7h0.2
							c0.7,0,1.4,0,2.1,0c0.1,0,0.2,0,0.3,0c0.8,0,1.6,0,2.4,0c0.1,0,0.2,0,0.3,0c0.5,0,1,0,1.5,0H23h2.6"/>
						<path class="st13" d="M2,9.6h0.3h0.3c1.9,0,3.7,0,5.5,0c0.1,0,0.2,0,0.2,0h1h0.9h1h1h3.5h0.2c2.3,0,4.6,0,6.8,0h0.3h1.4"/>
						<path class="st13" d="M5.3,9.5h3.2h0.8c0.9,0,1.8,0,2.8,0h1h2.6h0.2c1.1,0,2.3,0,3.5,0c0.1,0,0.1,0,0.1,0c0.3,0,0.6,0,0.9,0
							c0.1,0,0.1,0,0.1,0c0.1,0,0.1,0,0.1,0"/>
						<path class="st13" d="M2.7,9.4c1.8,0,3.6,0,5.4,0c0.1,0,0.2,0,0.2,0h0.3h0.9c0.7,0,1.3,0,1.9,0h1h3.2h0.2c1.2,0,2.3,0,3.5,0
							c0.1,0,0.1,0,0.1,0c0.3,0,0.7,0,1,0c0.1,0,0.1,0,0.1,0c0.7,0,1.3,0,2,0h0.3H23"/>
						<path class="st13" d="M5.6,9.4H9h0.9c0.6,0,1.2,0,1.8,0h1h3.1H16c1.1,0,2.3,0,3.4,0c0.1,0,0.1,0,0.1,0c0.3,0,0.6,0,0.9,0
							c0.1,0,0.1,0,0.1,0"/>
						<path class="st13" d="M1.3,9.4h1.5h0.3c1,0,2.1,0,3.1,0c0.1,0,0.2,0,0.3,0c2.3,0,4.6,0,6.8,0c0.8,0,1.6,0,2.4,0
							c0.1,0,0.2,0,0.3,0h0.2c0.4,0,0.8,0,1.2,0c0.1,0,0.2,0,0.3,0c1.9,0,3.7,0,5.6,0h0.3h1"/>
						<path class="st13" d="M-1.5,9.3H6c0.1,0,0.2,0,0.3,0c3.1,0,6.1,0,9.1,0c0.1,0,0.2,0,0.3,0h2.2h0.3c0.4,0,0.8,0,1.2,0
							c0.1,0,0.2,0,0.3,0h0.6c0.1,0,0.2,0,0.3,0c0.5,0,0.9,0,1.4,0c0.1,0,0.2,0,0.2,0c0.2,0,0.3,0,0.5,0h0.1h4.7"/>
						<path class="st13" d="M3.4,9.2h2.3c0.1,0,0.2,0,0.2,0c2.7,0,5.4,0,8,0c0.1,0,0.2,0,0.3,0c0.9,0,1.7,0,2.5,0H17h4.6h0.1
							c0.2,0,0.4,0,0.6,0"/>
						<path class="st13" d="M4.8,9.2h0.7h0.3c2.4,0,4.7,0,7.1,0c0.1,0,0.2,0,0.3,0c0.4,0,0.8,0,1.1,0c0.1,0,0.2,0,0.3,0
							c0.6,0,1.2,0,1.8,0h0.2h4.5"/>
						<path class="st13" d="M2.4,9.1h2.1c0.3,0,0.5,0,0.8,0c0.2,0,0.3,0,0.4,0c0.1,0,0.2,0,0.2,0c1.6,0,3.1,0,4.7,0
							c0.1,0,0.2,0,0.3,0c0.1,0,0.2,0,0.3,0c0.4,0,0.8,0,1.2,0c0.1,0,0.2,0,0.3,0c0.7,0,1.4,0,2.1,0c0.1,0,0.2,0,0.3,0
							c0.3,0,0.6,0,0.9,0h0.3h8"/>
						<path class="st13" d="M1.7,9c0.3,0,0.6,0,0.9,0c0.1,0,0.1,0,0.2,0h1.2c0.3,0,0.6,0,1,0c0.2,0,0.4,0,0.7,0c0.1,0,0.2,0,0.2,0
							c1.5,0,3,0,4.4,0c0.1,0,0.2,0,0.3,0c1.7,0,3.5,0,5.3,0h0.2H21c0.1,0,0.1,0,0.1,0c0.2,0,0.3,0,0.4,0c0.1,0,0.1,0,0.1,0
							c0.4,0,0.7,0,1.1,0c0.1,0,0.1,0,0.1,0h1.9"/>
						<path class="st13" d="M-0.3,9h0.6c0.1,0,0.2,0,0.3,0C1.4,9,2.2,9,3,9C3,9,3.2,9,3.2,9h0.5C4,9,4.3,9,4.6,9C5,9,5.4,9,5.8,9
							C5.9,9,6,9,6,9c1.3,0,2.7,0,4,0c0.1,0,0.2,0,0.3,0c0.1,0,0.2,0,0.3,0c0.1,0,0.2,0,0.3,0c0.9,0,1.7,0,2.5,0c0.1,0,0.2,0,0.3,0
							c0.4,0,0.8,0,1.3,0c0.1,0,0.2,0,0.3,0c0.1,0,0.2,0,0.3,0c0.3,0,0.6,0,1,0c0.1,0,0.2,0,0.3,0c0.1,0,0.2,0,0.3,0
							c0.2,0,0.4,0,0.7,0c0.1,0,0.2,0,0.3,0c0.1,0,0.2,0,0.3,0c2.2,0,4.4,0,6.7,0c0.1,0,0.1,0,0.2,0h0.9"/>
						<path class="st13" d="M1.9,8.9c0.4,0,0.7,0,1.1,0h0.2h0.7c0.3,0,0.5,0,0.8,0c0.4,0,0.9,0,1.3,0c0.1,0,0.2,0,0.3,0
							c1,0,2.1,0,3,0c0.1,0,0.2,0,0.3,0c0.3,0,0.7,0,1,0c0.1,0,0.2,0,0.3,0c0.8,0,1.5,0,2.3,0c0.1,0,0.2,0,0.3,0c3.2,0,6.3,0,9.5,0
							c0.3,0,0.6,0,0.9,0c0.2,0,0.4,0,0.7,0"/>
						<path class="st13" d="M-1.2,8.9h1.3c0.1,0,0.2,0,0.3,0c0.9,0,1.7,0,2.6,0c0.1,0,0.2,0,0.3,0h0.3c0.3,0,0.7,0,1,0
							c0.7,0,1.4,0,2.1,0c0.1,0,0.2,0,0.3,0c0.3,0,0.5,0,0.9,0c0.1,0,0.2,0,0.3,0c0.1,0,0.2,0,0.3,0c0.6,0,1.2,0,1.9,0h0.3
							c0.9,0,1.7,0,2.5,0c0.1,0,0.2,0,0.3,0c4.1,0,8.2,0,12.2,0c0.1,0,0.2,0,0.2,0h2.1"/>
						<path class="st13" d="M3.4,8.8h0.5c0.2,0,0.4,0,0.7,0c0.8,0,1.5,0,2.3,0c0.2,0,0.4,0,0.5,0c0.2,0,0.4,0,0.5,0
							c0.1,0,0.2,0,0.3,0c0.8,0,1.5,0,2.2,0c0.1,0,0.2,0,0.3,0c3.2,0,6.3,0,9.5,0h0.3h1.6"/>
						<path class="st13" d="M4.2,8.8h0.2c0.1,0,0.3,0,0.4,0c0.7,0,1.4,0,2,0c0.2,0,0.3,0,0.5,0c0.3,0,0.7,0,1,0c0.1,0,0.2,0,0.3,0
							c0.4,0,0.9,0,1.3,0c0.1,0,0.2,0,0.3,0c0.1,0,0.2,0,0.3,0c0.1,0,0.2,0,0.3,0c3.2,0,6.4,0,9.7,0c0.1,0,0.2,0,0.3,0h0.8"/>
						<path class="st13" d="M1.9,8.7c0.3,0,0.6,0,0.9,0c0.1,0,0.1,0,0.2,0h1c0.3,0,0.5,0,0.8,0c0.5,0,1.1,0,1.7,0c0.2,0,0.4,0,0.6,0
							c1.4,0,2.8,0,4.1,0h0.3c0.4,0,0.9,0,1.3,0c0.1,0,0.2,0,0.3,0c3.6,0,7.2,0,10.7,0"/>
						<path class="st13" d="M5.1,8.6c0,0,0.1,0,0.2,0c0.3,0,0.7,0,1,0c0.1,0,0.2,0,0.3,0c1.2,0,2.5,0,3.8,0h0.3h0.7h0.3
							c0.5,0,1,0,1.5,0c0.1,0,0.1,0,0.2,0c0.4,0,0.7,0,1.1,0c0.1,0,0.1,0,0.2,0c0.6,0,1.2,0,1.9,0h0.2H21"/>
						<path class="st13" d="M3.5,8.6h5h0.2c1.4,0,2.7,0,4.1,0c0.1,0,0.1,0,0.2,0c0.5,0,1,0,1.5,0c0.1,0,0.1,0,0.2,0c0.3,0,0.7,0,1,0
							H16h5.6c0.1,0,0.1,0,0.2,0c0.3,0,0.6,0,0.9,0"/>
						<path class="st13" d="M-1.6,8.6h2.7c0.1,0,0.2,0,0.3,0c0.5,0,1,0,1.6,0c0.1,0,0.2,0,0.2,0h1.5c0.1,0,0.1,0,0.2,0
							c0.4,0,0.8,0,1.2,0c0.1,0,0.1,0,0.2,0h2.1h0.3c1.5,0,2.9,0,4.4,0c0.1,0,0.1,0,0.2,0c0.3,0,0.5,0,0.8,0c0.1,0,0.2,0,0.3,0
							c0.3,0,0.6,0,0.9,0c0.1,0,0.2,0,0.2,0h0.1c2.4,0,4.8,0,7.2,0c0.1,0,0.2,0,0.3,0c0.1,0,0.2,0,0.2,0c0.1,0,0.2,0,0.2,0
							c0.4,0,0.8,0,1.3,0c0.1,0,0.1,0,0.1,0h2.6"/>
						<path class="st13" d="M0.4,8.5h0.8c0.1,0,0.1,0,0.2,0c0.4,0,0.9,0,1.3,0c0.1,0,0.2,0,0.3,0h1.5c0.1,0,0.1,0,0.2,0
							c0.5,0,1,0,1.5,0c0.1,0,0.1,0,0.2,0H8h0.2c1.5,0,3,0,4.6,0c0.1,0,0.1,0,0.2,0c0.5,0,1,0,1.6,0c0.1,0,0.1,0,0.2,0
							c0.6,0,1.2,0,1.8,0h0.2h3.3h0.1c0.4,0,0.7,0,1.1,0c0.1,0,0.1,0,0.1,0h0.2c0.1,0,0.1,0,0.1,0c0.3,0,0.6,0,0.9,0
							c0.1,0,0.1,0,0.1,0c0.2,0,0.4,0,0.5,0h0.2h2.2"/>
						<path class="st13" d="M5.4,8.4c0.3,0,0.6,0,0.9,0c0.1,0,0.1,0,0.1,0h0.7h0.3c1.9,0,3.8,0,5.7,0c0.1,0,0.1,0,0.2,0
							c0.3,0,0.7,0,1,0c0.1,0,0.1,0,0.2,0c0.7,0,1.3,0,2,0h0.2H17c0.3,0,0.5,0,0.8,0h0.7H20c0.1,0,0.1,0,0.1,0c0.1,0,0.2,0,0.3,0"/>
						<path class="st13" d="M2.8,8.4h1.6h0.1c0.5,0,1.1,0,1.6,0c0.1,0,0.1,0,0.1,0h1.2h0.2c1,0,2.1,0,3,0c0.1,0,0.1,0,0.2,0
							c0.4,0,0.8,0,1.1,0c0.1,0,0.1,0,0.2,0c0.8,0,1.5,0,2.3,0c0.1,0,0.1,0,0.2,0c0.4,0,0.9,0,1.4,0c0.1,0,0.1,0,0.2,0
							c0.1,0,0.3,0,0.4,0c0.1,0,0.2,0,0.2,0c0.1,0,0.2,0,0.2,0c0.6,0,1.2,0,1.8,0h0.8h0.7c0.1,0,0.1,0,0.1,0c0.2,0,0.4,0,0.6,0
							c0.1,0,0.1,0,0.1,0h0.4h0.1c0.3,0,0.6,0,0.9,0h0.1h1"/>
						<path class="st13" d="M-1.4,8.3h2.2H1c1.7,0,3.3,0,5,0c0.5,0,1,0,1.5,0c0.1,0,0.2,0,0.2,0h0.2h0.2c0.8,0,1.5,0,2.3,0
							c0.1,0,0.1,0,0.2,0c0.5,0,1.1,0,1.6,0c0.1,0,0.1,0,0.2,0c0.7,0,1.2,0,1.9,0c0.1,0,0.1,0,0.2,0c0.6,0,1.1,0,1.7,0
							c0.1,0,0.1,0,0.2,0c0.9,0,1.8,0,2.7,0c0.1,0,0.2,0,0.3,0c0.2,0,0.4,0,0.7,0h0.2h3.8c0.1,0,0.1,0,0.1,0c0.4,0,0.8,0,1.1,0h0.1
							H27"/>
						<path class="st13" d="M1.6,8.2c2,0,3.9,0.1,5.8,0c0.1,0,0.1,0,0.2,0h0.2h0.2c0.8,0,1.6,0,2.4,0c0.1,0,0.1,0,0.2,0
							c0.4,0,0.8,0,1.1,0c0.2,0,0.4,0,0.5,0c0.1,0,0.1,0,0.2,0c0.6,0,1.2,0,1.8,0c0.1,0,0.1,0,0.2,0c0.7,0,1.2,0,1.8,0
							c0.1,0,0.1,0,0.2,0c1.6,0,3,0,4.6,0h0.3h3h0.1c0.2,0,0.3,0,0.4,0h0.1H25"/>
						<path class="st13" d="M1.1,8.2c0.4,0,0.7,0,1.1,0c1.7,0.1,3.4,0,5,0h0.3h0.3H8c0.8,0,1.7,0,2.5,0h0.2c0.5,0,0.9,0,1.4,0
							c0.1,0,0.2,0,0.2,0c0.7,0,1.4,0,2,0h0.2c0.6,0,1.2,0,1.8,0c0.1,0,0.1,0,0.2,0c1.8,0,3.5,0,5.3,0h0.2h3.1"/>
						<path class="st13" d="M4.2,8.1h3.9h0.2c0.8,0,1.6,0,2.4,0c0.1,0,0.1,0,0.2,0c0.3,0,0.7,0,1,0c0.1,0,0.1,0,0.2,0
							c0.8,0,1.6,0,2.4,0c0.1,0,0.1,0,0.2,0c0.4,0,0.9,0,1.3,0c0.1,0,0.1,0,0.2,0c1.8,0,3.6,0,5.4,0c0.1,0,0.2,0,0.3,0"/>
						<path class="st13" d="M1.5,8.1c1.1,0,2.3,0,3.5,0c0.1,0,0.1,0,0.2,0h5.1h0.2c0.1,0,0.2,0,0.3,0c0.1,0,0.2,0,0.3,0
							c0.4,0,0.8,0,1.1,0c0.1,0,0.2,0,0.3,0c0.2,0,0.4,0,0.5,0c0.1,0,0.2,0,0.3,0c0.3,0,0.7,0,1,0c0.1,0,0.1,0,0.2,0s0.1,0,0.2,0
							c0.1,0,0.2,0,0.3,0c0.1,0,0.2,0,0.3,0c0.3,0,0.7,0,0.9,0c0.1,0,0.2,0,0.3,0c0.2,0,0.4,0,0.6,0c0.1,0,0.2,0,0.3,0
							c0.3,0,0.6,0,0.9,0c0.1,0,0.2,0,0.3,0c0.1,0,0.2,0,0.3,0c1.7,0,3.5-0.1,5.3,0c0.1,0,0.2,0,0.3,0h0.9"/>
						<path class="st13" d="M2.9,8C3.3,8,3.6,8,4,8c0.1,0,0.2,0,0.3,0h6.2c0.1,0,0.2,0,0.3,0c4.2,0,8.4,0,12.6,0"/>
						<path class="st13" d="M0.1,8h0.2c0.1,0,0.2,0,0.3,0c0.9,0,1.8,0,2.7,0c0.1,0,0.2,0,0.3,0s0.2,0,0.3,0C3.9,8,4,8,4.1,8h5.6
							c0.3,0,0.7,0,1,0c4.6,0,9.3,0,13.9,0c0.1,0,0.2,0,0.3,0h0.9"/>
						<path class="st13" d="M-0.7,7.9h0.7h0.2c0.1,0,0.2,0,0.3,0c0.1,0,0.2,0,0.3,0c0.7,0,1.4,0,2.1,0c0.1,0,0.2,0,0.3,0
							c0.4,0,0.8,0,1.2,0h0.2h5.1c0.3,0,0.7,0,1,0c4.6,0,9.2,0,13.8,0c0.1,0,0.2,0,0.3,0c0.6,0,1.1,0,1.7,0"/>
						<path class="st13" d="M4.9,7.8h5.9c0.1,0,0.2,0,0.3,0c0.9,0,1.9,0,2.8,0H14c0.2,0,0.5,0,0.7,0H15c2,0,3.8,0,5.8,0"/>
						<path class="st13" d="M2.7,7.8h7.1c0.3,0,0.7,0,1,0c4.1,0,8.3,0,12.5,0"/>
						<path class="st13" d="M-1.7,7.7h1.4H0c1.6,0,3.1,0,4.7,0h0.2H10c0.3,0,0.7,0,1,0c4.4,0,8.8,0,13.2,0c0.1,0,0.2,0,0.3,0
							c1.2,0,2.4,0,3.6,0"/>
						<path class="st13" d="M-2,7.7h1.5c0.1,0,0.2,0,0.3,0c1.6,0,3.2,0,4.8,0c0.1,0,0.2,0,0.2,0H10c0.3,0,0.7,0,1,0
							c4.2,0,8.6,0,12.8,0c0.1,0,0.2,0,0.3,0c1.2,0,2.5,0,3.7,0"/>
						<path class="st13" d="M2.9,7.6h0.8h0.2c0.5,0,0.9,0,1.4,0h0.2h5.9c0.1,0,0.1,0,0.2,0c0.6,0,1.2,0,1.8,0h0.2h3.3
							c0.2,0,0.4,0,0.7,0c0.8,0,1.5,0,2.3,0h0.5h0.5c0.1,0,0.2,0,0.3,0c0.4,0,0.8,0,1.1,0c0.1,0,0.1,0,0.1,0c0.3,0,0.7,0,1,0
							c0.1,0,0.1,0,0.1,0c0.1,0,0.3,0,0.4,0"/>
						<path class="st13" d="M1.4,7.6c1,0,1.9,0,2.9,0c0.1,0,0.2,0,0.3,0c0.4,0,0.8,0,1.1,0h0.2h10.7c0.2,0,0.4,0,0.7,0
							c0.7,0,1.2,0,1.9,0c0.2,0,0.4,0,0.7,0H21c0.1,0,0.2,0,0.3,0c1.2,0,2.4,0,3.7,0"/>
						<path class="st13" d="M2.5,7.5c0.4,0,0.9,0,1.4,0c0.1,0,0.2,0,0.3,0c0.6,0,1.2,0,1.7,0H6h9.4h0.7c0.4,0,0.9,0,1.4,0
							c0.1,0,0.2,0,0.2,0c0.2,0,0.3,0,0.5,0c0.1,0,0.2,0,0.2,0c1.6,0,3.1,0,4.7,0c0.1,0,0.2,0,0.3,0c0.3,0,0.5,0,0.8,0"/>
						<path class="st13" d="M-1.6,7.5h4.4H3c1,0,2.1,0,3.1,0h0.2h1.4h0.2c2.3,0,4.7,0,7,0c0.2,0,0.4,0,0.7,0c2.4,0,5,0,7.4,0
							c0.1,0,0.2,0,0.3,0c0.7,0,1.2,0,1.9,0h0.3h2.3"/>
						<path class="st13" d="M-1.8,7.4h4.8h0.2c1,0,2,0,2.9,0h0.2h1h0.2c2.5,0,4.9,0,7.4,0c0.2,0,0.4,0,0.6,0c2.5,0,5.1,0,7.6,0
							c0.1,0,0.2,0,0.3,0c0.5,0,1,0,1.5,0h0.3h2.1"/>
						<path class="st13" d="M3.4,7.3c0.9,0,1.8,0,2.7,0h0.2h0.9h0.2c2.6,0,5.2,0,7.7,0c0.1,0,0.2,0,0.2,0h0.2c2.4,0,4.8,0,7.2,0"/>
						<path class="st13" d="M4.6,7.3c0.4,0,0.9,0,1.3,0h0.3h0.6h0.3c2.5,0,5,0,7.6,0h0.2h0.4c2,0,4.1,0,6.1,0"/>
						<path class="st13" d="M3.8,7.2c0.6,0,1.2,0,1.8,0h0.3h1.1h0.2c1.4,0,2.7,0,4.1,0c0.1,0,0.2,0,0.2,0h0.2c0.4,0,0.7,0,1.1,0H13
							h1.8h0.6c2.2,0,4.3,0,6.4,0"/>
						<path class="st13" d="M1.1,7.2h2.4h0.3c0.5,0,1,0,1.5,0h0.2H7h0.3c1.3,0,2.5,0,3.7,0c0.1,0,0.1,0,0.2,0H14h0.2
							c0.3,0,0.6,0,0.9,0c0.2,0,0.3,0,0.4,0c2.5,0,5.1,0.1,7.6,0c0.1,0,0.2,0,0.3,0h1.4h0.1c0.2,0,0.4,0,0.5,0"/>
						<path class="st13" d="M4,7.1h3.3h0.2c1,0,2.1,0,3.1,0c0.1,0,0.2,0,0.2,0h2.8h0.3c0.6,0,1.1,0,1.7,0c0.2,0,0.4,0,0.6,0
							c1.8,0,3.7,0,5.6,0"/>
						<path class="st13" d="M2.6,7.1h4.6h0.2c0.9,0,1.6,0,2.4,0h0.2H13h0.3c0.9,0,1.8,0,2.7,0c0.2,0,0.4,0,0.5,0c0.3,0,0.6,0,0.9,0
							c0.1,0,0.2,0,0.2,0c0.2,0,0.4,0,0.7,0c0.1,0,0.2,0,0.2,0c0.3,0,0.6,0,0.9,0c0.1,0,0.2,0,0.3,0c0.1,0,0.2,0,0.3,0
							c0.3,0,0.5,0,0.8,0c0.1,0,0.1,0,0.1,0c0.3,0,0.7,0,1,0h0.1h2"/>
						<path class="st13" d="M-1.5,7h9.3H8c0.5,0,0.9,0,1.4,0h0.1c1,0,2,0,2.9,0c0.1,0,0.1,0,0.2,0h0.2H13c0.3,0,0.5,0,0.8,0
							c0.1,0,0.1,0,0.2,0c2.2,0,4.4,0,6.6,0c0.1,0,0.1,0,0.1,0c0.3,0,0.7,0,0.9,0h0.1c1,0,2.1,0,3.1,0c0.1,0,0.1,0,0.1,0
							c0.1,0,0.3,0,0.4,0c0.1,0,0.1,0,0.1,0c0.1,0,0.3,0,0.4,0c0.2,0,0.5,0,0.8,0c0.1,0,0.1,0,0.2,0h0.8"/>
						<path class="st13" d="M5.1,6.9h8.1h0.2c2.4,0,4.8,0,7.2,0"/>
						<path class="st13" d="M2.7,6.9h4.7c0.1,0,0.1,0,0.1,0c0.2,0,0.4,0,0.6,0c0.1,0,0.1,0,0.1,0h3.7c0.1,0,0.2,0,0.3,0
							c0.4,0,0.8,0,1.2,0h0.2c2.6,0,5.2,0,7.7,0c0.1,0,0.2,0,0.3,0c0.1,0,0.2,0,0.3,0h0.3h1.7"/>
						<path class="st13" d="M2.6,6.8H5h0.2c0.4,0,0.7,0,1.1,0c0.1,0,0.1,0,0.1,0h0.8c0.1,0,0.1,0,0.1,0c0.3,0,0.7,0,1,0h0.1h3.1
							c0.1,0,0.2,0,0.3,0c0.7,0,1.3,0,2,0c0.1,0,0.2,0,0.3,0c2.3,0,4.7,0,7,0c0.1,0,0.2,0,0.3,0s0.1,0,0.1,0c0.3,0,0.7,0,0.9,0
							c0.1,0,0.1,0,0.1,0h0.8"/>
						<path class="st13" d="M0.7,6.8h4.2h0.1c0.5,0,1,0,1.6,0c0.1,0,0.1,0,0.1,0h0.5c0.1,0,0.1,0,0.1,0c0.4,0,0.8,0,1.1,0h0.1h2.8
							c0.1,0,0.2,0,0.3,0c0.7,0,1.4,0,2.1,0c0.1,0,0.2,0,0.3,0c2.2,0,4.3,0,6.5,0c0.1,0,0.2,0,0.3,0c0.7,0,1.4,0,2.1,0
							c0.1,0,0.2,0,0.2,0h1.9"/>
						<path class="st13" d="M4.2,6.7h0.7c0.1,0,0.1,0,0.1,0c0.5,0,1.1,0,1.6,0h0.2h0.5h0.1c0.2,0,0.5,0,0.7,0h0.1h2.9
							c0.1,0,0.2,0,0.3,0c0.9,0,1.8,0,2.8,0h0.2c0.3,0,0.6,0,0.9,0h0.2c0.1,0,0.2,0,0.3,0c0.4,0,0.8,0,1.2,0c0.1,0,0.2,0,0.3,0
							c1,0,2,0,2.9,0c0.1,0,0.1,0,0.1,0c0.6,0,1.1,0,1.7,0"/>
						<path class="st13" d="M3.3,6.7h1.7c0.1,0,0.1,0,0.2,0c0.4,0,0.9,0,1.4,0c0.1,0,0.1,0,0.1,0h4.8h0.2c0.9,0,1.8,0,2.7,0h0.3h0.9
							h0.2c1.5,0,2.9,0,4.4,0c0.1,0,0.1,0,0.1,0c0.7,0,1.4,0,2.1,0"/>
						<path class="st13" d="M3.1,6.6h2c0.1,0,0.1,0,0.2,0c0.3,0,0.7,0,1,0c0.1,0,0.1,0,0.1,0H11h0.3c0.9,0,1.8,0,2.7,0
							c0.1,0,0.1,0,0.2,0h1.2h0.2c1.4,0,2.7,0,4,0c0.2,0,0.4,0,0.6,0c1,0,2-0.1,3,0"/>
						<path class="st13" d="M-2.1,6.5h13.4c0.1,0,0.2,0,0.3,0c0.9,0,1.6,0,2.5,0c0.1,0,0.2,0,0.2,0h1.1h0.3c1.4,0,2.8,0,4.1,0
							c0.1,0,0.2,0,0.3,0c0.9,0,2,0,2.9,0c0.2,0,0.4,0,0.6,0c1.3,0,2.6,0,3.9,0"/>
						<path class="st13" d="M2.7,6.5h8.8c0.1,0,0.2,0,0.2,0c0.8,0,1.5,0,2.3,0h0.2h1.6H16c1.3,0,2.6,0,3.8,0c0.1,0,0.2,0,0.3,0
							c1,0,2.1,0.1,3.1,0"/>
						<path class="st13" d="M5.3,6.4H12c0.1,0,0.2,0,0.2,0c0.4,0,0.7,0,1.1,0c0.1,0,0.2,0,0.2,0h6.1h0.2c0.2,0,0.3,0,0.5,0"/>
						<path class="st13" d="M2.4,6.4h4.4h0.4c0.4,0,0.9,0,1.3,0H9h10.4c0.1,0,0.1,0,0.2,0c0.2,0,0.4,0,0.5,0c0.1,0,0.2,0,0.3,0
							c1,0,2,0.1,3,0"/>
						<path class="st13" d="M1.4,6.3h5h0.4c0.8,0,1.5,0,2.3,0h0.5h9.7c0.1,0,0.1,0,0.2,0c0.3,0,0.5,0,0.9,0c0.1,0,0.2,0,0.3,0
							c0.8,0,1.5,0,2.3,0c0.1,0,0.2,0,0.3,0c0.3,0,0.5,0,0.9,0h0.3h0.4"/>
						<path class="st13" d="M0.2,6.3h6.4h0.4c0.8,0,1.6,0,2.3,0h0.5h6.8c0.1,0,0.1,0,0.1,0c0.3,0,0.6,0,0.9,0c0.1,0,0.1,0,0.1,0h1.5
							c0.1,0,0.1,0,0.2,0c0.9,0,1.8,0,2.8,0c0.1,0,0.1,0,0.1,0c0.2,0,0.4,0,0.5,0c0.1,0,0.1,0,0.1,0c0.2,0,0.4,0,0.7,0h0.3h1.7"/>
						<path class="st13" d="M4.7,6.2h1.7h0.3c0.9,0,1.9,0,2.8,0H10h6.7c0.1,0,0.1,0,0.1,0c0.3,0,0.7,0,1,0c0.1,0,0.1,0,0.1,0h1.2
							c0.1,0,0.2,0,0.3,0c0.7,0,1.2,0,1.8,0"/>
						<path class="st13" d="M5.2,6.1h1.4h0.3c0.9,0,1.7,0,2.7,0h0.4h6.7h0.1c0.3,0,0.7,0,1,0h0.1H19h0.3c0.7,0,1.3,0,2,0"/>
						<path class="st13" d="M2.7,6.1h3.8h0.4c0.9,0,1.8,0,2.7,0h0.4H10c0.3,0,0.5,0,0.8,0c0.1,0,0.1,0,0.1,0h8.7c0.1,0,0.2,0,0.3,0
							c0.4,0,0.7,0,1.1,0c0.1,0,0.2,0,0.2,0c0.2,0,0.3,0,0.4,0c0.1,0,0.1,0,0.1,0c0.4,0,0.7-0.1,1,0c0.1,0,0.1,0,0.1,0s0.1,0,0.1,0
							c0.1,0,0.2,0,0.3,0"/>
						<path class="st13" d="M3.5,6h3.2h0.2C6.9,6,7,6,7.1,6c0.3,0,0.7,0,1.1,0c0.1,0,0.2,0,0.3,0C8.7,6,9,6,9.3,6h0.5h0.1H10
							c0.4,0,0.8,0,1.2,0h0.1c0.3,0,0.7,0,1,0h0.1h2.3c0.1,0,0.2,0,0.3,0c0.4,0,0.9,0,1.2,0h0.3h2.9c0.1,0,0.2,0,0.2,0
							c0.6,0,1.2,0,1.9,0c0.1,0,0.2,0,0.2,0c0.1,0,0.1,0,0.1,0c0.3,0,0.6,0,0.9,0c0.1,0,0.1,0,0.1,0c0.1,0,0.1,0,0.1,0"/>
						<path class="st13" d="M-1.1,6L-1.1,6c0.5,0,1,0,1.5,0c0.1,0,0.2,0,0.3,0c1.8,0,3.7,0,5.6,0c0.1,0,0.2,0,0.3,0s0.2,0,0.3,0
							S7,6,7.1,6c0.4,0,0.7,0,1.1,0c0.1,0,0.2,0,0.3,0c0.1,0,0.2,0,0.3,0C8.8,6,9,6,9.1,6C9.4,6,9.7,6,10,6c0.1,0,0.1,0,0.1,0
							c0.3,0,0.6,0,0.9,0c0.1,0,0.1,0,0.1,0c0.4,0,0.7,0,1.1,0c0.1,0,0.1,0,0.1,0c0.3,0,0.5,0,0.8,0h0.2H14c0.1,0,0.2,0,0.3,0
							c0.7,0,1.4,0,2,0c0.1,0,0.2,0,0.3,0H19c0.1,0,0.2,0,0.3,0c0.8,0,1.5-0.1,2.2,0c0.1,0,0.2,0,0.3,0c1.2,0,2.5,0,3.7,0h0.2H27"/>
						<path class="st13" d="M0.7,5.9c1.8,0,3.6,0,5.5,0c0.1,0,0.2,0,0.3,0c0.8,0,1.5,0,2.2,0c0.1,0,0.2,0,0.3,0c0.7,0,1.3,0,2,0h0.1
							c0.3,0,0.6,0,0.9,0h0.1c0.5,0,0.9,0,1.4,0h0.2c0.1,0,0.2,0,0.3,0c0.8,0,1.7,0,2.5,0c0.1,0,0.2,0,0.3,0h2.1c0.1,0,0.2,0,0.3,0
							c0.3,0,0.5,0,0.8,0c0.1,0,0.2,0,0.3,0c1.7,0,3.4,0,5.1,0"/>
						<path class="st13" d="M0.9,5.8c1.6,0,3.3,0,4.9,0c0.1,0,0.2,0,0.3,0s0.2,0,0.3,0c0.8,0,1.6-0.1,2.4,0c0.1,0,0.2,0,0.3,0
							c1.4,0,2.9,0,4.3,0h0.2c0.1,0,0.2,0,0.3,0c1,0,1.9,0,2.8,0h0.3h1.5h0.2c0.1,0,0.2,0,0.2,0c0.4,0,0.8,0,1.1,0
							c0.1,0,0.2,0,0.3,0c1.6,0,3.1,0,4.7,0"/>
						<path class="st13" d="M1.9,5.8c1.4,0,2.7,0,4,0c0.1,0,0.2,0,0.3,0c1,0,2,0,3,0c0.1,0,0.2,0,0.3,0c1.4,0,2.9,0,4.3,0H14
							c0.9,0,1.8,0,2.6,0h0.3h1.7h0.2c0.1,0,0.2,0,0.2,0c0.1,0,0.2,0,0.3,0c0.9,0,1.7,0,2.6,0c0.1,0,0.2,0,0.3,0c0.3,0,0.7,0,1.1,0
							c0.1,0,0.2,0,0.3,0c0.3,0,0.7,0,1,0"/>
						<path class="st13" d="M0.3,5.7c1.8,0,3.7,0,5.5,0c0.1,0,0.2,0,0.3,0c0.9,0,1.7,0,2.6,0c0.1,0,0.2,0,0.3,0c1.4,0,2.8,0,4.2,0
							h0.2h0.3c0.1,0,0.2,0,0.4,0c0.8,0,1.6,0,2.4,0c0.1,0,0.2,0,0.3,0h1.5h0.3c0.1,0,0.2,0,0.3,0s0.2,0,0.3,0c0.4,0,0.8,0,1.2,0
							c0.1,0,0.2,0,0.3,0c1.6-0.1,3.2,0,4.9,0"/>
						<path class="st13" d="M2.2,5.7c1.2,0,2.5,0,3.7,0c0.1,0,0.2,0,0.3,0c0.8,0,1.7,0,2.5,0c0.1,0,0.2,0,0.3,0c1.5,0,2.9,0,4.4,0
							h0.3c0.1,0,0.2,0,0.3,0c0.9,0,1.7,0,2.5,0c0.1,0,0.2,0,0.3,0h1.2h0.3c0.3,0,0.5,0,0.8,0c0.1,0,0.2,0,0.3,0c0.7,0,1.4,0,2.1,0
							c0.1,0,0.2,0,0.3,0c0.2,0,0.3,0,0.5,0c0.1,0,0.2,0,0.3,0c0.4,0,0.8,0,1.2,0"/>
						<path class="st13" d="M5.1,5.6c0.3,0,0.7,0,1,0c0.1,0,0.2,0,0.2,0c0.8,0,1.6,0,2.5,0c0.1,0,0.2,0,0.3,0c1.6,0,3.1,0,4.7,0H14
							c0.1,0,0.2,0,0.3,0c0.7,0,1.3,0,2,0c0.1,0,0.2,0,0.3,0h1.7h0.3c0.3,0,0.6,0,0.9,0c0.1,0,0.2,0,0.3,0c0.4,0,0.8,0,1.2,0
							c0.1,0,0.2,0,0.3,0c0.1,0,0.2,0,0.3,0"/>
						<path class="st13" d="M5.4,5.5c0.3,0,0.7,0,1,0c0.1,0,0.1,0,0.2,0c0.7,0,1.2,0,1.9,0c0.1,0,0.2,0,0.2,0c0.2,0,0.4,0,0.7,0
							c0.1,0,0.1,0,0.1,0c0.5,0,1,0,1.5,0c0.1,0,0.1,0,0.2,0c0.4,0,0.8,0,1.1,0c0.1,0,0.1,0,0.2,0c0.2,0,0.4,0,0.6,0h0.3
							c0.4,0,0.9,0,1.3,0c0.1,0,0.2,0,0.2,0c0.4,0,0.7,0,1,0h0.3h2h0.3c0.8,0,1.7,0,2.5,0"/>
						<path class="st13" d="M3.1,5.5c3.1,0,6.2,0,9.3,0c0.1,0,0.2,0,0.3,0h0.1h0.1c0.1,0,0.2,0,0.3,0c0.7,0,1.4,0,2.1,0h0.3H17h0.4
							c0.3,0,0.7,0,1,0c0.1,0,0.2,0,0.2,0c1.3,0,2.7,0,4,0"/>
						<path class="st13" d="M2.2,5.5c0.1,0,0.1,0,0.1,0c0.1,0,0.2,0,0.3,0c0.1,0,0.1,0,0.1,0c0.1,0,0.2,0,0.3,0c0.4,0,0.9,0,1.3,0
							c2.8,0,5.6,0,8.4,0c0.1,0,0.2,0,0.3,0c0.8,0,1.6,0,2.4,0c0.1,0,0.2,0,0.3,0h1.1H17h0.1c0.4,0,0.8,0,1.1,0c0.1,0,0.1,0,0.2,0
							h0.2c0.1,0,0.2,0,0.3,0c0.1,0,0.2,0,0.3,0h0.3c1.7,0,3.4,0,5,0"/>
						<path class="st13" d="M4.5,5.4c2.7,0,5.3,0,8,0c0.1,0,0.2,0,0.3,0c0.9,0,1.8,0,2.7,0c0.1,0,0.2,0,0.3,0c0.3,0,0.7,0,1,0
							c0.1,0,0.1,0,0.2,0c0.5,0,1,0,1.5,0c0.1,0,0.1,0,0.2,0s0.1,0,0.2,0c0.1,0,0.2,0,0.3,0c1,0,2.2,0,3.1,0"/>
						<path class="st13" d="M4.2,5.3c2.8,0,5.6,0,8.3,0c0.1,0,0.2,0,0.3,0c0.9,0,1.7,0,2.7,0c0.1,0,0.1,0,0.2,0c0.2,0,0.4,0,0.6,0
							c0.1,0,0.2,0,0.3,0c0.1,0,0.1,0,0.1,0c0.1,0,0.1,0,0.1,0c0.5,0,1,0,1.6,0c0.1,0,0.1,0,0.2,0c1,0,2.1,0,3.1,0"/>
						<path class="st13" d="M4.9,5.3c2.5,0,5,0,7.5,0c0.1,0,0.2,0,0.3,0c0.9,0,1.8,0,2.8,0c0.1,0,0.2,0,0.3,0c0.1,0,0.2,0,0.3,0
							c0.2,0,0.4,0,0.6,0c0.1,0,0.1,0,0.2,0c0.5,0,1,0,1.5,0h0.2c0.8,0,1.7,0,2.5,0"/>
						<path class="st13" d="M4.1,5.2c2.8,0,5.7,0,8.5,0c0.1,0,0.2,0,0.3,0c0.8,0,1.5,0,2.3,0c0.1,0,0.2,0,0.3,0c0.1,0,0.2,0,0.3,0
							c0.3,0,0.7,0,1,0c0.1,0,0.1,0,0.2,0c0.4,0,0.8,0,1.1,0h0.2c1.2,0,2.4,0,3.6,0"/>
						<path class="st13" d="M4.5,5.2c2.7,0,5.3,0,8,0c0.1,0,0.2,0,0.3,0c0.1,0,0.2,0,0.3,0c0.7,0,1.2,0,1.9,0c0.1,0,0.2,0,0.3,0
							c2,0,4,0,6,0"/>
						<path class="st13" d="M1,5.1c0.4,0,0.9,0,1.3,0c0.1,0,0.2,0,0.3,0s0.2,0,0.3,0s0.2,0,0.3,0c3.1,0,6.3,0,9.4,0
							c0.1,0,0.2,0,0.3,0c0.2,0,0.3,0,0.4,0c0.1,0,0.2,0,0.2,0c0.4,0,0.8,0,1.1,0c0.1,0,0.2,0,0.3,0c2.9,0,5.9,0,8.8,0
							c0.1,0,0.2,0,0.3,0c0.6,0,1.2,0,1.8,0"/>
						<path class="st13" d="M2,5c0.2,0,0.4,0,0.7,0c0.1,0,0.2,0,0.2,0S3,5,3,5c1.1,0,2.2,0,3.3,0c0.1,0,0.2,0,0.3,0
							c0.1,0,0.2,0,0.3,0h0.3c0.1,0,0.2,0,0.3,0c0.9,0,1.8,0,2.8,0c0.1,0,0.2,0,0.3,0c0.4,0,0.8,0,1.2,0c0.1,0,0.2,0,0.3,0
							c0.8,0,1.7,0,2.5,0c0.1,0,0.2,0,0.3,0c0.4,0,0.8,0,1.2,0c0.1,0,0.2,0,0.3,0c0.4,0,0.9,0,1.3,0c0.1,0,0.2,0,0.3,0
							c1.8,0,3.7,0,5.6,0"/>
						<path class="st13" d="M4.7,5c0.7,0,1.4,0,2,0c0.1,0,0.2,0,0.3,0C8,5,9.1,5,10.2,5c0.1,0,0.2,0,0.3,0c0.4,0,0.8,0,1.2,0
							c0.1,0,0.2,0,0.3,0c0.9,0,1.7,0,2.6,0c0.1,0,0.2,0,0.3,0c0.1,0,0.2,0,0.3,0h0.2c0.1,0,0.2,0,0.3,0c0.1,0,0.2,0,0.3,0
							c0.7,0,1.4,0,2,0h0.3c0.9,0,1.7,0,2.6,0"/>
						<path class="st13" d="M2,4.9c0.2,0,0.3,0,0.4,0c0.1,0,0.1,0,0.2,0c0.2,0,0.4,0,0.6,0c0.1,0,0.1,0,0.2,0c1.4,0,2.7,0,4.1,0
							c0.1,0,0.2,0,0.3,0c0.7,0,1.5,0,2.2,0c0.1,0,0.2,0,0.3,0c0.4,0,0.8,0,1.2,0c0.1,0,0.2,0,0.3,0c0.9,0,1.8,0,2.7,0
							c0.1,0,0.2,0,0.3,0c0.1,0,0.2,0,0.3,0h0.3h0.3h0.2c0.8,0,1.6,0,2.3,0h0.3h0.2h0.2c0.1,0,0.1,0,0.1,0c0.1,0,0.1,0,0.1,0h0.1
							c0.3,0,0.5,0,0.8,0h0.2c1,0,2.1,0,3.1,0c0.1,0,0.2,0,0.3,0s0.2,0,0.3,0"/>
						<path class="st13" d="M4.5,4.8c0.2,0,0.4,0,0.7,0c0.1,0,0.1,0,0.1,0c0.4,0,0.8,0,1.1,0c0.1,0,0.1,0,0.1,0c1.3,0,2.5,0,3.8,0
							c0.1,0,0.1,0,0.2,0h0.2c0.4,0,0.8,0,1.1,0c0.1,0,0.1,0,0.2,0c0.9,0,1.7,0,2.6,0c0.1,0,0.2,0,0.3,0c0.1,0,0.2,0,0.3,0
							c0.1,0,0.2,0,0.3,0c1,0,1.9,0,2.9,0h0.1c0.4,0.1,0.7,0,1,0c0.1,0,0.1,0,0.1,0c0.2,0,0.4,0,0.6,0c0.1,0,0.1,0,0.1,0h1.1"/>
						<path class="st13" d="M4.6,4.8c0.2,0,0.4,0,0.7,0c0.1,0,0.1,0,0.1,0c0.3,0,0.6,0,0.9,0h0.1c1.4,0,2.7,0,4,0c0.1,0,0.1,0,0.2,0
							c0.4,0,0.8,0,1.2,0c0.1,0,0.2,0,0.3,0c0.9,0,1.7,0,2.4,0c0.1,0,0.2,0,0.3,0c0.2,0,0.4,0,0.6,0c0.1,0,0.2,0,0.3,0
							c0.8,0,1.7,0,2.5,0h0.2h0.1c0.1,0,0.1,0,0.1,0c0.3,0,0.5,0,0.8,0c0.1,0,0.1,0,0.1,0c0.2,0,0.4,0,0.7,0h0.2h1
							c0.1,0,0.1,0,0.2,0c0.2,0,0.4,0,0.7,0"/>
						<path class="st13" d="M3.5,4.7c0.3,0,0.5,0,0.8,0c0.1,0,0.1,0,0.1,0c1.8,0,3.7,0,5.6,0c0.1,0,0.1,0,0.2,0s0.1,0,0.2,0
							c0.5,0,1,0,1.5,0c0.1,0,0.2,0,0.2,0c0.7,0,1.4,0,2.2,0c0.1,0,0.2,0,0.3,0c0.3,0,0.5,0,0.8,0c0.1,0,0.2,0,0.3,0
							c0.8,0,1.6,0,2.4,0h0.3h0.4c0.1,0,0.1,0,0.1,0c0.4,0,0.7,0,1.1,0c0.1,0,0.1,0,0.2,0h1.3c0.1,0,0.1,0,0.2,0c0.2,0,0.5,0,0.7,0"
							/>
						<path class="st13" d="M4.5,4.7c1.8,0,3.7,0,5.6,0c0.1,0,0.2,0,0.3,0c0.1,0,0.1,0,0.2,0c0.5,0,1,0,1.6,0c0.1,0,0.1,0,0.2,0
							c0.1,0,0.1,0,0.1,0c0.6,0,1.2,0,1.7,0c0.1,0,0.2,0,0.3,0c0.1,0,0.2,0,0.3,0h0.2h0.2c0.2,0,0.3,0,0.5,0c0.1,0,0.2,0,0.3,0
							c0.7,0,1.4,0,2,0H18h3.4c0.1,0,0.1,0,0.1,0h0.1"/>
						<path class="st13" d="M4.7,4.5c1.2,0,2.5,0,3.7,0c0.1,0,0.2,0,0.3,0c0.9,0,1.8,0,2.8,0c0.1,0,0.1,0,0.2,0c0.1,0,0.2,0,0.4,0
							h0.1h0.2h0.2c0.3,0,0.5,0,0.8,0c0.7,0,1.4,0,2.1,0c0.1,0,0.2,0,0.3,0c0.3,0,0.5,0,0.8,0c0.1,0,0.1,0,0.1,0h1.4h0.2
							c0.2,0,0.4,0,0.6,0c0.1,0,0.1,0,0.1,0c0.3,0,0.7,0,0.9,0c0.1,0,0.1,0,0.1,0c0.4,0,0.7,0,1.1,0"/>
						<path class="st13" d="M4.5,4.4c1.4,0,2.8,0,4.2,0c0.1,0,0.2,0,0.3,0c0.9,0,1.8,0,2.7,0h0.3h0.5c0.1,0,0.2,0,0.3,0
							c0.8,0,1.7,0,2.5,0c0.1,0,0.1,0,0.2,0h2.7c0.1,0,0.1,0,0.2,0c1.1,0,2.3,0,3.4,0"/>
						<path class="st13" d="M0.1,4.4c0.1,0,0.2,0,0.2,0c0.1,0,0.2,0,0.2,0c0.3,0,0.8,0,1.1,0h0.2h1.3h0.2c0.6,0,1.2,0,1.8,0
							c1.1,0,2.3,0,3.5,0c0.1,0,0.2,0,0.3,0c0.8,0,1.7,0,2.5,0c0.1,0,0.2,0,0.3,0h1.1c0.1,0,0.2,0,0.3,0c0.7,0,1.3,0,2,0h0.3h2.2
							c0.1,0,0.2,0,0.3,0c1.2,0,2.4,0,3.7,0c0.1,0,0.2,0,0.3,0c1.5,0,2.9,0,4.3,0"/>
						<path class="st13" d="M0.8,4.3h2.4h0.3c0.7,0,1.3,0,2,0c0.5,0,1,0,1.5,0c0.1,0,0.2,0,0.3,0c0.5,0,1,0,1.6,0c0.1,0,0.2,0,0.3,0
							c0.2,0,0.4,0,0.6,0H10h3.3c0.1,0,0.2,0,0.3,0c0.3,0,0.7,0,1,0h0.3h2.9c0.1,0,0.2,0,0.3,0c1.1,0,2.3,0,3.4,0c0.1,0,0.2,0,0.3,0
							c1.1,0,2.2,0,3.3,0"/>
						<path class="st13" d="M4.9,4.3c0.7,0,1.3,0,2,0c0.1,0,0.2,0,0.3,0c0.7,0,1.4,0,2,0c0.1,0,0.2,0,0.3,0c0.1,0,0.2,0,0.2,0h0.2
							h1.6c0.1,0,0.2,0,0.3,0c0.3,0,0.7,0,1,0c0.1,0,0.2,0,0.3,0h4.8c0.1,0,0.1,0,0.2,0c0.9,0,1.7,0,2.7,0"/>
						<path class="st13" d="M-1.7,4.2h3.6h0.2c0.7,0,1.4,0,2,0c0.1,0,0.2,0,0.3,0c0.7,0,1.3,0,2,0c0.1,0,0.2,0,0.3,0
							c0.9,0,1.7,0,2.6,0c0.1,0,0.2,0,0.3,0h0.3h7.2h0.2c0.1,0,0.2,0,0.3,0c0.1,0,0.2,0,0.3,0c1,0,2.1,0,3.1,0c0.1,0,0.2,0,0.3,0
							c0.1,0,0.1,0,0.2,0h0.2c0.5,0,1,0,1.5,0c0.1,0,0.1,0,0.2,0c1.4,0,2.8-0.1,4.2,0c0.1,0,0.2,0,0.2,0"/>
						<path class="st13" d="M1.5,4.1H2h0.2c0.6,0,1.2,0,1.8,0c0.1,0,0.2,0,0.3,0c0.7,0,1.4,0,2,0c0.1,0,0.2,0,0.3,0c1,0,1.9,0,2.9,0
							h0.3h0.8h0.1c0.3,0,0.7,0,1,0c0.1,0,0.1,0,0.1,0c0.1,0,0.2,0,0.3,0c0.1,0,0.1,0,0.1,0h4.7h0.2c0.3,0,0.7,0,0.9,0
							c0.1,0,0.2,0,0.3,0c0.7,0,1.5,0,2.2,0c0.1,0,0.2,0,0.3,0c0.2,0,0.4,0,0.5,0c0.1,0,0.1,0,0.2,0c0.5,0,1.1,0,1.7,0
							c0.1,0,0.1,0,0.2,0c0.4,0,0.8,0,1.1,0"/>
						<path class="st13" d="M0.1,4.1c0.3,0,0.5,0,0.8,0c0.1,0,0.1,0,0.1,0h0.1c0.1,0,0.1,0,0.1,0c0.2,0,0.3,0,0.5,0
							c0.1,0,0.2,0,0.3,0c0.6,0,1.2,0,1.8,0c0.1,0,0.2,0,0.3,0c0.8,0,1.6,0,2.4,0c0.1,0,0.2,0,0.3,0c0.9,0,1.8,0,2.7,0
							c0.1,0,0.2,0,0.2,0h0.9h0.1c0.4,0,0.7,0,1.1,0c0.1,0,0.1,0,0.1,0c0.2,0,0.3,0,0.4,0c0.1,0,0.1,0,0.1,0h4.3h0.2
							c0.3,0,0.6,0,0.9,0c0.1,0,0.2,0,0.3,0c0.6,0,1.2,0,1.9,0c0.1,0,0.2,0,0.3,0c0.4,0,0.8,0,1.1,0c0.1,0,0.1,0,0.2,0
							c0.3,0,0.7,0,1.1,0c0.1,0,0.2,0,0.2,0c1,0,1.9,0,2.8,0"/>
						<path class="st13" d="M2.8,4c0.3,0,0.7,0,1,0C4,4,4,4,4.1,4c0.7,0,1.5,0,2.2,0c0.1,0,0.2,0,0.3,0c0.9,0,1.8,0,2.7,0
							c0.1,0,0.1,0,0.2,0c0.3,0,0.6,0,0.9,0h0.2c0.1,0,0.1,0,0.1,0c0.3,0,0.6,0,0.9,0c0.1,0,0.1,0,0.1,0c0.2,0,0.3,0,0.5,0h0.1h5.9
							c0.3,0,0.5,0,0.8,0c0.3,0,0.5,0,0.8,0c0.2,0,0.5,0,0.7,0h1.2c0.1,0,0.2,0,0.3,0c0.4,0,0.9,0,1.3,0c0.1,0,0.1,0,0.2,0h0.4"/>
						<path class="st13" d="M-1.3,4c0.2,0,0.4,0,0.7,0c0.1,0,0.1,0,0.2,0c0.1,0,0.3,0,0.4,0c0.4,0,0.8,0,1.3,0c0.1,0,0.1,0,0.2,0
							C2.2,4,3,4,3.9,4C4,4,4.1,4,4.2,4c0.9,0,1.7,0,2.6,0C6.9,4,7,4,7.1,4c0.8,0,1.6,0,2.3,0c0.1,0,0.2,0,0.3,0c0.3,0,0.7,0,1,0
							c0.1,0,0.2,0,0.2,0h11.1c0.1,0,0.1,0,0.2,0c0.2,0,0.4,0,0.5,0c0.1,0,0.2,0,0.3,0c1.6,0,3.2,0,4.8,0"/>
						<path class="st13" d="M0.2,3.9c0.2,0,0.5,0,0.7,0c0.1,0,0.2,0,0.3,0c0.9,0,1.7,0,2.6,0c0.1,0,0.2,0,0.3,0c0.9,0,1.8,0,2.7,0
							c0.1,0,0.2,0,0.3,0c0.7,0,1.4,0,2.1,0c0.1,0,0.2,0,0.3,0c0.5,0,1,0,1.5,0h0.3H19h0.2c0.7,0,1.5,0,2.2,0c0.1,0,0.2,0,0.3,0
							c0.4,0,0.7,0,1.1,0c0.1,0,0.2,0,0.3,0c0.9,0,1.6,0,2.4,0"/>
						<path class="st13" d="M3.6,3.8c0.2,0,0.4,0,0.7,0c0.1,0,0.2,0,0.3,0c0.7,0,1.2,0,1.9,0c0.1,0,0.2,0,0.3,0c0.3,0,0.7,0,1,0
							c0.1,0,0.2,0,0.3,0c0.1,0,0.2,0,0.3,0c0.1,0,0.2,0,0.3,0c0.9,0,1.7,0,2.5,0h0.3h7.4h0.2c1,0,2,0,3,0"/>
						<path class="st13" d="M1.3,3.8c1.1,0,2.2,0,3.3,0c0.1,0,0.2,0,0.3,0c0.4,0,0.9,0,1.3,0c0.1,0,0.2,0,0.3,0c1.5,0,3,0,4.6,0h0.3
							h6.8h0.2c2.1,0,4.2,0,6.3,0"/>
						<path class="st13" d="M1.5,3.7c3.2,0,6.4,0,9.6,0h0.3h7h0.2c0.1,0,0.2,0,0.2,0c0.4,0,0.8,0,1.2,0c0.1,0,0.2,0,0.3,0
							c0.3,0,0.5,0,0.8,0h0.3c1.1,0,2.3,0,3.5,0"/>
						<path class="st13" d="M-0.9,3.7h2c0.1,0,0.2,0,0.3,0c3.1,0,6.3,0,9.5,0c0.1,0,0.2,0,0.3,0h2.1c0.1,0,0.2,0,0.2,0
							c1.5,0,3,0,4.6,0h0.2c0.8,0,1.5,0,2.3,0c0.1,0,0.2,0,0.3,0c0.1,0,0.2,0,0.3,0c1.8,0,3.6,0.1,5.5,0"/>
						<path class="st13" d="M3.4,3.6c0.5,0,0.9,0,1.4,0c0.1,0,0.1,0,0.2,0h0.2c0.1,0,0.1,0,0.2,0c1.7,0,3.4,0,5.1,0
							c0.1,0,0.2,0,0.3,0h2.1c0.1,0,0.2,0,0.2,0c1.6,0,3.1,0,4.7,0c0.1,0,0.2,0,0.3,0c0.9,0,1.7,0,2.6,0H21c0.5,0,1,0,1.5,0"/>
						<path class="st13" d="M1.3,3.6c0.2,0,0.3,0,0.4,0h0.1h5.1h0.1h0.1c0.3,0,0.5,0,0.7,0c0.1,0,0.2,0,0.3,0c0.7,0,1.4,0,2,0h0.2
							h2.5c0.1,0,0.2,0,0.2,0c0.5,0,1,0,1.6,0c0.1,0,0.2,0,0.3,0c0.7,0,1.4,0,2.1,0c0.2,0,0.3,0,0.5,0c1.3,0,2.6,0,4,0
							c0.1,0,0.2,0,0.3,0c1,0,2,0,3,0"/>
						<path class="st13" d="M4.5,3.5h2.5h0.2c0.5,0,1.1,0,1.6,0h0.1c0.2,0,0.4,0,0.7,0c0.1,0,0.1,0,0.1,0c0.2,0,0.3,0,0.5,0h0.2h1.6
							c0.1,0,0.1,0,0.2,0c0.2,0,0.3,0,0.5,0h0.1h0.1c0.1,0,0.2,0,0.2,0c0.3,0,0.7,0,1,0c0.1,0,0.2,0,0.3,0c0.3,0,0.5,0,0.8,0
							c0.1,0,0.2,0,0.3,0c0.4,0,0.7,0,1.1,0c0.1,0,0.2,0,0.3,0c0.3,0,0.5,0,0.8,0c0.1,0,0.2,0,0.3,0c1.1,0,2.1,0,3.2,0
							c0.1,0,0.2,0,0.3,0c0.1,0,0.2,0,0.3,0"/>
						<path class="st13" d="M-0.2,3.4h0.9c0.1,0,0.1,0,0.1,0c0.3,0,0.6,0,0.9,0h0.1h5.1h0.2c0.5,0,1,0,1.4,0c0.1,0,0.1,0,0.1,0
							c0.3,0,0.7,0,1,0c0.1,0,0.1,0,0.1,0c0.1,0,0.1,0,0.1,0h1.6h0.2c0.4,0,0.8,0,1.1,0c0.1,0,0.1,0,0.1,0c0.3,0,0.7,0,1,0h0.3h0.3
							c0.1,0,0.2,0,0.3,0c0.5,0,1.1,0,1.6,0c0.2,0,0.4,0,0.5,0c3,0,6.1,0,9.2,0c0.2,0,0.3,0,0.3,0"/>
						<path class="st13" d="M4.1,3.4h3.1c0.1,0,0.1,0,0.2,0c0.4,0,0.7,0,1.1,0c0.1,0,0.1,0,0.1,0c0.3,0,0.6,0,1,0c0.1,0,0.1,0,0.1,0
							h0.1h1.8c0.1,0,0.1,0,0.1,0c0.3,0,0.7,0,1,0c0.1,0,0.1,0,0.1,0c0.3,0,0.5,0,0.8,0c0.1,0,0.2,0,0.3,0c0.1,0,0.2,0,0.3,0
							c0.1,0,0.2,0,0.3,0c0.9,0,1.7,0,2.6,0c0.1,0,0.2,0,0.3,0s0.2,0,0.3,0c1,0,1.9,0,2.9,0h0.2h1"/>
						<path class="st13" d="M-1.5,3.3h8.8h0.2c0.4,0,0.8,0,1.2,0c0.1,0,0.1,0,0.1,0c0.2,0,0.4,0,0.6,0h0.1h2.3c0.1,0,0.1,0,0.1,0
							c0.2,0,0.4,0,0.5,0h0.1h0.1c0.1,0,0.2,0,0.2,0c0.2,0,0.4,0,0.6,0c0.1,0,0.2,0,0.3,0c0.1,0,0.2,0,0.3,0c0.1,0,0.2,0,0.3,0
							c0.7,0,1.5,0,2.2,0c0.1,0,0.2,0,0.3,0c3,0,6.1,0,9.1,0c0.1,0,0.2,0,0.3,0h1.4"/>
						<path class="st13" d="M-1.1,3.3h13.7h0.3c0.3,0,0.7,0,0.9,0h0.3h0.3c0.1,0,0.2,0,0.3,0c0.7,0,1.4,0,2,0c0.2,0,0.3,0,0.5,0
							c3,0,6,0,8.9,0h0.2h0.5"/>
						<path class="st13" d="M-1.4,3.2h14.7h0.3c0.1,0,0.2,0,0.3,0c0.1,0,0.2,0,0.3,0c0.1,0,0.2,0,0.3,0c0.1,0,0.2,0,0.3,0
							c0.7,0,1.3,0,2,0c0.2,0,0.3,0,0.5,0c2.9,0,5.7,0,8.7,0c0.1,0,0.2,0,0.3,0h1.4"/>
						<path class="st13" d="M0.3,3.2H14h0.3c0.1,0,0.2,0,0.3,0c0.1,0,0.2,0,0.2,0c0.8,0,1.6,0,2.4,0c0.1,0,0.1,0,0.2,0
							c0.1,0,0.2,0,0.3,0c1.6,0,3.1,0,4.7,0c0.1,0,0.2,0,0.3,0c0.1,0,0.2,0,0.3,0c0.9,0,1.8,0,2.7,0c0.1,0,0.2,0,0.3,0
							c0.1,0,0.2,0,0.3,0"/>
						<path class="st13" d="M3.8,3.1h1.9c0.1,0,0.2,0,0.3,0c0.4,0,0.8,0,1.2,0c0.1,0,0.1,0,0.2,0h7.4c0.1,0,0.2,0,0.2,0
							c0.7,0,1.4,0,2,0c0.1,0,0.1,0,0.2,0c0.2,0,0.5,0,0.7,0h0.1h0.2c0.1,0,0.2,0,0.3,0c1.3,0,2.6,0,3.9,0"/>
						<path class="st13" d="M4.4,3h0.8c0.1,0,0.1,0,0.1,0c0.1,0,0.1,0,0.2,0c0.1,0,0.1,0,0.2,0c0.7,0,1.2,0,1.9,0c0.1,0,0.2,0,0.3,0
							h7.3c0.1,0,0.2,0,0.3,0c0.3,0,0.7,0,1,0c0.1,0,0.2,0,0.3,0h0.2c0.3,0,0.6,0,0.9,0h0.2h0.2h0.2c1,0,2.1,0,3.1,0"/>
						<path class="st13" d="M-0.5,3c0.1,0,0.2,0,0.3,0C0,3,0.1,3,0.2,3c0.7,0,1.4,0,2.1,0c0.1,0,0.1,0,0.1,0c0.3,0,0.7,0,1.1,0
							c0.1,0,0.1,0,0.1,0C4,3,4.5,3,4.8,3c0.1,0,0.1,0,0.2,0c0.1,0,0.2,0,0.3,0s0.2,0,0.3,0c0.7-0.1,1.4,0,2,0c0.1,0,0.2,0,0.3,0
							h0.2h0.2c0.5,0,1,0,1.5,0h0.2h7.9h0.2c3,0,6,0,8.9,0"/>
						<path class="st13" d="M1,2.9c0.4,0,0.9,0,1.3,0c0.1,0,0.1,0,0.1,0c0.3,0,0.7,0,1,0c0.1,0,0.1,0,0.1,0c0.4,0,0.8,0,1.1,0
							c0.1,0,0.1,0,0.2,0c0.1,0,0.2,0,0.3,0c0.9,0,1.8,0,2.7,0c0.1,0,0.2,0,0.2,0c0.1,0,0.2,0,0.3,0c0.5,0,1.1,0,1.6,0h0.2h7.7h0.3
							c0.3,0,0.7,0,1,0h0.3c2.2,0,4.3,0,6.4,0"/>
						<path class="st13" d="M3.9,2.9c0.3,0,0.7,0,1,0c0.1,0,0.1,0,0.2,0c0.1,0,0.2,0,0.3,0c0.9,0,1.8,0,2.7,0c0.1,0,0.2,0,0.3,0
							c0.9,0,1.7,0,2.6,0H11h1.7H13c1.6,0,3.2,0,4.8,0c0.1,0,0.2,0,0.3,0c0.1,0,0.2,0,0.3,0c0.1,0,0.2,0,0.3,0c1.2,0,2.5,0,3.7,0"/>
						<path class="st13" d="M4.7,2.8c0.1,0,0.3,0,0.4,0c0.1,0,0.1,0,0.2,0c0.9,0,1.8,0,2.7,0c0.1,0,0.2,0,0.3,0c0.8,0,1.6,0,2.4,0
							c0.1,0,0.2,0,0.2,0c0.2,0,0.4,0,0.6,0h0.2h1.1h0.2c1.6,0,3.1,0,4.7,0c0.1,0,0.2,0,0.3,0c0.1,0,0.2,0,0.3,0s0.2,0,0.3,0
							c0.9,0,1.8,0,2.7,0"/>
						<path class="st13" d="M4.4,2.8c0.2,0,0.4,0,0.6,0c0.1,0,0.2,0,0.3,0c0.9,0,1.8,0,2.7,0c0.1,0,0.2,0,0.3,0c0.9,0,1.8,0,2.7,0
							h0.2c0.2,0,0.5,0,0.7,0H12h0.7H13c1.7,0,3.4,0,5.1,0h0.3c1.3,0,2.5,0,3.9,0"/>
						<path class="st13" d="M3,2.7c0.4,0,0.9,0,1.4,0c0.1,0,0.1,0,0.2,0c0.2,0,0.5,0,0.7,0c0.1,0,0.2,0,0.2,0c0.7,0,1.4,0,2.1,0
							c0.1,0,0.2,0,0.3,0c0.9,0,1.9,0,2.8,0c0.1,0,0.2,0,0.3,0c0.3,0,0.6,0,0.9,0c0.1,0,0.2,0,0.3,0h0.2h0.2c1.8,0,3.7,0,5.6,0
							c0.1,0,0.2,0,0.3,0c1.4,0,2.8,0,4.3,0"/>
						<path class="st13" d="M3.8,2.6c0.1,0,0.1,0,0.2,0c0.1,0,0.1,0,0.2,0c0.5,0,1,0,1.5,0c0.1,0,0.1,0,0.2,0c0.4,0,0.8,0,1.2,0
							c0.1,0,0.2,0,0.3,0c1.1,0,2.2,0,3.3,0c0.1,0,0.2,0,0.3,0c0.4,0,0.9,0,1.3,0h0.2c2,0,3.8,0,5.7,0c0.1,0,0.2,0,0.3,0
							c0.1,0,0.2,0,0.3,0c0.1,0,0.2,0,0.3,0c0.8,0,1.6,0,2.4,0c0.1,0,0.2,0,0.3,0c0.1,0,0.2,0,0.3,0"/>
						<path class="st13" d="M-0.4,2.6h0.3h0.3h0.3c1.2,0,2.3,0,3.5,0c0.1,0,0.1,0,0.2,0c0.5,0,1,0,1.6,0c0.1,0,0.1,0,0.2,0
							c0.1,0,0.3,0,0.4,0s0.2,0,0.3,0c0.8,0,1.7,0,2.5,0c0.1,0,0.2,0,0.3,0c0.4,0,0.8,0,1.1,0c0.1,0,0.2,0,0.3,0c0.5,0,1,0,1.5,0
							h0.3c1.8,0,3.8,0,5.7,0h0.3c0.1,0,0.2,0,0.3,0c0.9,0,1.8,0,2.8,0c0.1,0,0.2,0,0.3,0c0.5,0,1,0,1.5,0c0.1,0,0.2,0,0.3,0
							c0.2,0,0.3,0,0.4,0c0.1,0,0.1,0,0.2,0c0.4,0,0.8,0,1.1,0c0.2,0,0.3,0,0.5,0"/>
						<path class="st13" d="M3.8,2.5c0.1,0,0.1,0,0.2,0c0.1,0,0.1,0,0.2,0c0.5,0,1,0,1.5,0c0.1,0,0.1,0,0.2,0c0.7,0,1.4,0,2.1,0
							c0.1,0,0.2,0,0.3,0c0.1,0,0.2,0,0.3,0c0.5,0,1.1,0,1.6,0c0.1,0,0.2,0,0.3,0c0.6,0,1.2,0,1.8,0h0.2c2,0,4,0,6,0
							c0.1,0,0.2,0,0.3,0c1,0,2,0,3,0c0.1,0,0.2,0,0.3,0"/>
						<path class="st13" d="M3.2,2.5h1.1c0.1,0,0.2,0,0.2,0c0.4,0,0.7,0,1,0c0.1,0,0.2,0,0.2,0H6c1,0,2.1,0,3.2,0h0.2
							c0.2,0,0.5,0,0.7,0c0.1,0,0.1,0,0.2,0c0.4,0,0.7,0,1.1,0c0.1,0,0.1,0,0.2,0c0.3,0,0.5,0,0.8,0h0.3c1.8,0,3.5,0,5.3,0
							c0.1,0,0.2,0,0.3,0c1.1,0,2.2,0,3.4,0c0.1,0,0.2,0,0.3,0s0.2,0,0.2,0h0.4"/>
						<path class="st13" d="M4.7,2.4h1.1h0.3c0.3,0,0.7,0,1,0c0.1,0,0.1,0,0.1,0c0.3,0,0.6,0,0.9,0h0.1c0.3,0,0.6,0,0.9,0h0.3h0.2
							h0.1c0.3,0,0.6,0,0.9,0c0.1,0,0.1,0,0.1,0c0.3,0,0.6,0,0.9,0c0.1,0,0.1,0,0.2,0c0.2,0,0.3,0,0.4,0c0.1,0,0.1,0,0.1,0
							c0.3,0,0.6,0,0.9,0h0.1h0.1c0.3,0,0.6,0,0.9,0c0.1,0,0.1,0,0.1,0c0.4,0,0.8,0,1.1,0h0.1c0.1,0,0.3,0,0.4,0h0.1
							c0.4,0,0.9,0,1.3,0c0.1,0,0.1,0,0.1,0h0.4h0.3c0.2,0,0.3,0,0.5,0c0.1,0,0.1,0,0.1,0c0.3,0,0.7,0,1,0c0.1,0,0.1,0,0.1,0
							c0.6,0,1.2,0,1.7,0"/>
						<path class="st13" d="M3.2,2.4h3h0.2c0.2,0,0.4,0,0.6,0c0.1,0,0.1,0,0.1,0c0.3,0,0.5,0,0.8,0c0.1,0,0.3,0,0.4,0
							c0.1,0,0.1,0,0.1,0c0.2,0,0.3,0,0.5,0h0.3h0.3h0.1c0.4,0,0.7,0,1.1,0c0.1,0,0.1,0,0.1,0c0.4,0,0.7,0,1.1,0c0.1,0,0.1,0,0.2,0
							h0.1h0.1c0.4,0,0.7,0,1.1,0c0.1,0,0.1,0,0.1,0c0.1,0,0.2,0,0.2,0c0.1,0,0.1,0,0.1,0h0.6h0.1c0.4,0,0.8,0,1.2,0h0.1H16
							c0.1,0,0.1,0,0.1,0c0.5,0,1,0,1.5,0c0.1,0,0.1,0,0.1,0h0.5c0.1,0,0.1,0,0.2,0s0.3,0,0.4,0c0.1,0,0.1,0,0.1,0
							c0.4,0,0.8,0,1.1,0c0.1,0,0.1,0,0.1,0c0.6,0,1.2,0,1.7,0h0.3h0.2"/>
						<path class="st13" d="M-1.7,2.3c0.1,0,0.2,0,0.2,0c5.7,0,11.3,0,17,0c0.3,0,0.7,0,1,0c0.4,0,0.9,0,1.4,0c0.1,0,0.2,0,0.2,0
							h0.3c0.1,0,0.3,0,0.4,0c0.1,0,0.1,0,0.1,0c0.3,0,0.7,0,1,0c0.1,0,0.1,0,0.1,0c0.7,0,1.2,0,1.9,0h0.2h5.9"/>
						<path class="st13" d="M-0.1,2.2c6,0,11.9,0,17.8,0c0.1,0,0.2,0,0.3,0h0.3c0.1,0,0.2,0,0.3,0c1.1,0,2.2,0,3.4,0h0.3h0.3h3.3"/>
						<path class="st13" d="M4.6,2.2c1,0,2.1,0,3.1,0c0.1,0,0.1,0,0.2,0h8.2h0.2c0.6,0,1.2,0,1.8,0c0.1,0,0.2,0,0.3,0c1,0,2,0,3,0
							c0.1,0,0.2,0,0.3,0"/>
						<path class="st13" d="M0.6,2.1c0.2,0,0.4,0,0.5,0c0.1,0,0.2,0,0.3,0h0.8h0.2c1.8,0,3.6,0,5.5,0h0.2h1.1h1h1h1h3.7h0.2
							c0.7,0,1.4,0,2.1,0c0.1,0,0.2,0,0.3,0c0.8,0,1.6,0,2.4,0c0.1,0,0.2,0,0.3,0c0.5,0,1,0,1.5,0H23h2.6"/>
						<path class="st13" d="M2,2.1h0.3h0.3c1.9,0,3.7,0,5.5,0c0.1,0,0.2,0,0.2,0h1h0.9h1h1h3.5h0.2c2.3,0,4.6,0,6.8,0h0.3h1.4"/>
						<path class="st13" d="M5.3,2h3.2h0.8c0.9,0,1.8,0,2.8,0h1h2.6h0.2c1.1,0,2.3,0,3.5,0c0.1,0,0.1,0,0.1,0c0.3,0,0.6,0,0.9,0
							c0.1,0,0.1,0,0.1,0c0.1,0,0.1,0,0.1,0"/>
						<path class="st13" d="M2.7,2c1.8,0,3.6,0,5.4,0c0.1,0,0.2,0,0.2,0h0.3h0.9c0.7,0,1.3,0,1.9,0h1h3.2h0.2c1.2,0,2.3,0,3.5,0
							c0.1,0,0.1,0,0.1,0c0.3,0,0.7,0,1,0c0.1,0,0.1,0,0.1,0c0.7,0,1.3,0,2,0h0.3H23"/>
						<path class="st13" d="M5.6,1.9H9h0.9c0.6,0,1.2,0,1.8,0h1h3.1H16c1.1,0,2.3,0,3.4,0c0.1,0,0.1,0,0.1,0c0.3,0,0.6,0,0.9,0
							c0.1,0,0.1,0,0.1,0"/>
						<path class="st13" d="M1.3,1.8h1.5h0.3c1,0,2.1,0,3.1,0c0.1,0,0.2,0,0.3,0c2.3,0,4.6,0,6.8,0c0.8,0,1.6,0,2.4,0
							c0.1,0,0.2,0,0.3,0h0.2c0.4,0,0.8,0,1.2,0c0.1,0,0.2,0,0.3,0c1.9,0,3.7,0,5.6,0h0.3h1"/>
						<path class="st13" d="M-1.5,1.8H6c0.1,0,0.2,0,0.3,0c3.1,0,6.1,0,9.1,0c0.1,0,0.2,0,0.3,0h2.2h0.3c0.4,0,0.8,0,1.2,0
							c0.1,0,0.2,0,0.3,0h0.6c0.1,0,0.2,0,0.3,0c0.5,0,0.9,0,1.4,0c0.1,0,0.2,0,0.2,0c0.2,0,0.3,0,0.5,0h0.1h4.7"/>
						<path class="st13" d="M3.4,1.7h2.3c0.1,0,0.2,0,0.2,0c2.7,0,5.4,0,8,0c0.1,0,0.2,0,0.3,0c0.9,0,1.7,0,2.5,0H17h4.6h0.1
							c0.2,0,0.4,0,0.6,0"/>
						<path class="st13" d="M4.8,1.7h0.7h0.3c2.4,0,4.7,0,7.1,0c0.1,0,0.2,0,0.3,0c0.4,0,0.8,0,1.1,0c0.1,0,0.2,0,0.3,0
							c0.6,0,1.2,0,1.8,0h0.2h4.5"/>
						<path class="st13" d="M2.4,1.6h2.1c0.3,0,0.5,0,0.8,0c0.2,0,0.3,0,0.4,0c0.1,0,0.2,0,0.2,0c1.6,0,3.1,0,4.7,0
							c0.1,0,0.2,0,0.3,0c0.1,0,0.2,0,0.3,0c0.4,0,0.8,0,1.2,0c0.1,0,0.2,0,0.3,0c0.7,0,1.4,0,2.1,0c0.1,0,0.2,0,0.3,0
							c0.3,0,0.6,0,0.9,0h0.3h8"/>
						<path class="st13" d="M1.7,1.6c0.3,0,0.6,0,0.9,0c0.1,0,0.1,0,0.2,0h1.2c0.3,0,0.6,0,1,0c0.2,0,0.4,0,0.7,0c0.1,0,0.2,0,0.2,0
							c1.5,0,3,0,4.4,0c0.1,0,0.2,0,0.3,0c1.7,0,3.5,0,5.3,0h0.2H21c0.1,0,0.1,0,0.1,0c0.2,0,0.3,0,0.4,0c0.1,0,0.1,0,0.1,0
							c0.4,0,0.7,0,1.1,0c0.1,0,0.1,0,0.1,0h1.9"/>
						<path class="st13" d="M-0.3,1.5h0.6c0.1,0,0.2,0,0.3,0c0.8,0,1.6,0,2.4,0c0.1,0,0.2,0,0.2,0h0.5c0.3,0,0.6,0,0.9,0
							c0.4,0,0.8,0,1.1,0c0.1,0,0.2,0,0.3,0c1.3,0,2.7,0,4,0c0.1,0,0.2,0,0.3,0c0.1,0,0.2,0,0.3,0c0.1,0,0.2,0,0.3,0
							c0.9,0,1.7,0,2.5,0c0.1,0,0.2,0,0.3,0c0.4,0,0.8,0,1.3,0c0.1,0,0.2,0,0.3,0c0.1,0,0.2,0,0.3,0c0.3,0,0.6,0,1,0
							c0.1,0,0.2,0,0.3,0c0.1,0,0.2,0,0.3,0c0.2,0,0.4,0,0.7,0c0.1,0,0.2,0,0.3,0c0.1,0,0.2,0,0.3,0c2.2,0,4.4,0,6.7,0
							c0.1,0,0.1,0,0.2,0h0.9"/>
						<path class="st13" d="M1.9,1.4c0.4,0,0.7,0,1.1,0h0.2h0.7c0.3,0,0.5,0,0.8,0c0.4,0,0.9,0,1.3,0c0.1,0,0.2,0,0.3,0
							c1,0,2.1,0,3,0c0.1,0,0.2,0,0.3,0c0.3,0,0.7,0,1,0c0.1,0,0.2,0,0.3,0c0.8,0,1.5,0,2.3,0c0.1,0,0.2,0,0.3,0c3.2,0,6.3,0,9.5,0
							c0.3,0,0.6,0,0.9,0c0.2,0,0.4,0,0.7,0"/>
						<path class="st13" d="M-1.2,1.4h1.3c0.1,0,0.2,0,0.3,0c0.9,0,1.7,0,2.6,0c0.1,0,0.2,0,0.3,0h0.3c0.3,0,0.7,0,1,0
							c0.7,0,1.4,0,2.1,0c0.1,0,0.2,0,0.3,0c0.3,0,0.5,0,0.9,0c0.1,0,0.2,0,0.3,0c0.1,0,0.2,0,0.3,0c0.6,0,1.2,0,1.9,0h0.3
							c0.9,0,1.7,0,2.5,0c0.1,0,0.2,0,0.3,0c4.1,0,8.2,0,12.2,0c0.1,0,0.2,0,0.2,0h2.1"/>
						<path class="st13" d="M3.4,1.3h0.5c0.2,0,0.4,0,0.7,0c0.8,0,1.5,0,2.3,0c0.2,0,0.4,0,0.5,0c0.2,0,0.4,0,0.5,0
							c0.1,0,0.2,0,0.3,0c0.8,0,1.5,0,2.2,0c0.1,0,0.2,0,0.3,0c3.2,0,6.3,0,9.5,0h0.3h1.6"/>
						<path class="st13" d="M4.2,1.3h0.2c0.1,0,0.3,0,0.4,0c0.7,0,1.4,0,2,0c0.2,0,0.3,0,0.5,0c0.3,0,0.7,0,1,0c0.1,0,0.2,0,0.3,0
							c0.4,0,0.9,0,1.3,0c0.1,0,0.2,0,0.3,0c0.1,0,0.2,0,0.3,0c0.1,0,0.2,0,0.3,0c3.2,0,6.4,0,9.7,0c0.1,0,0.2,0,0.3,0h0.8"/>
						<path class="st13" d="M1.9,1.2c0.3,0,0.6,0,0.9,0c0.1,0,0.1,0,0.2,0h1c0.3,0,0.5,0,0.8,0c0.5,0,1.1,0,1.7,0c0.2,0,0.4,0,0.6,0
							c1.4,0,2.8,0,4.1,0h0.3c0.4,0,0.9,0,1.3,0c0.1,0,0.2,0,0.3,0c3.6,0,7.2,0,10.7,0"/>
						<path class="st13" d="M5.1,1.2c0,0,0.1,0,0.2,0c0.3,0,0.7,0,1,0c0.1,0,0.2,0,0.3,0c1.2,0,2.5,0,3.8,0h0.3h0.7h0.3
							c0.5,0,1,0,1.5,0c0.1,0,0.1,0,0.2,0c0.4,0,0.7,0,1.1,0c0.1,0,0.1,0,0.2,0c0.6,0,1.2,0,1.9,0h0.2H21"/>
						<path class="st13" d="M3.5,1.1h5h0.2c1.4,0,2.7,0,4.1,0c0.1,0,0.1,0,0.2,0c0.5,0,1,0,1.5,0c0.1,0,0.1,0,0.2,0c0.3,0,0.7,0,1,0
							H16h5.6c0.1,0,0.1,0,0.2,0c0.3,0,0.6,0,0.9,0"/>
						<path class="st13" d="M-1.6,1h2.7c0.1,0,0.2,0,0.3,0c0.5,0,1,0,1.6,0C3,1,3.1,1,3.2,1h1.5c0.1,0,0.1,0,0.2,0C5.2,1,5.6,1,6,1
							c0.1,0,0.1,0,0.2,0h2.1h0.3C10,1,11.4,1,13,1c0.1,0,0.1,0,0.2,0c0.3,0,0.5,0,0.8,0c0.1,0,0.2,0,0.3,0c0.3,0,0.6,0,0.9,0
							c0.1,0,0.2,0,0.2,0h0.1c2.4,0,4.8,0,7.2,0c0.1,0,0.2,0,0.3,0c0.1,0,0.2,0,0.2,0c0.1,0,0.2,0,0.2,0c0.4,0,0.8,0,1.3,0
							c0.1,0,0.1,0,0.1,0h2.6"/>
						<path class="st13" d="M0.4,1h0.8c0.1,0,0.1,0,0.2,0c0.4,0,0.9,0,1.3,0c0.1,0,0.2,0,0.3,0h1.5c0.1,0,0.1,0,0.2,0
							c0.5,0,1,0,1.5,0c0.1,0,0.1,0,0.2,0H8h0.2c1.5,0,3,0,4.6,0c0.1,0,0.1,0,0.2,0c0.5,0,1,0,1.6,0c0.1,0,0.1,0,0.2,0
							c0.6,0,1.2,0,1.8,0h0.2h3.3h0.1c0.4,0,0.7,0,1.1,0c0.1,0,0.1,0,0.1,0h0.2c0.1,0,0.1,0,0.1,0c0.3,0,0.6,0,0.9,0
							c0.1,0,0.1,0,0.1,0c0.2,0,0.4,0,0.5,0h0.2h2.2"/>
						<path class="st13" d="M5.4,0.9c0.3,0,0.6,0,0.9,0c0.1,0,0.1,0,0.1,0h0.7h0.3c1.9,0,3.8,0,5.7,0c0.1,0,0.1,0,0.2,0
							c0.3,0,0.7,0,1,0c0.1,0,0.1,0,0.2,0c0.7,0,1.3,0,2,0h0.2H17c0.3,0,0.5,0,0.8,0h0.7H20c0.1,0,0.1,0,0.1,0c0.1,0,0.2,0,0.3,0"/>
						<path class="st13" d="M2.8,0.9h1.6h0.1c0.5,0,1.1,0,1.6,0c0.1,0,0.1,0,0.1,0h1.2h0.2c1,0,2.1,0,3,0c0.1,0,0.1,0,0.2,0
							c0.4,0,0.8,0,1.1,0c0.1,0,0.1,0,0.2,0c0.8,0,1.5,0,2.3,0c0.1,0,0.1,0,0.2,0c0.4,0,0.9,0,1.4,0c0.1,0,0.1,0,0.2,0
							c0.1,0,0.3,0,0.4,0c0.1,0,0.2,0,0.2,0c0.1,0,0.2,0,0.2,0c0.6,0,1.2,0,1.8,0h0.8h0.7c0.1,0,0.1,0,0.1,0c0.2,0,0.4,0,0.6,0
							c0.1,0,0.1,0,0.1,0h0.4h0.1c0.3,0,0.6,0,0.9,0h0.1h1"/>
						<path class="st13" d="M-1.4,0.8h2.2H1c1.7,0,3.3,0,5,0c0.5,0,1,0,1.5,0c0.1,0,0.2,0,0.2,0h0.2h0.2c0.8,0,1.5,0,2.3,0
							c0.1,0,0.1,0,0.2,0c0.5,0,1.1,0,1.6,0c0.1,0,0.1,0,0.2,0c0.7,0,1.2,0,1.9,0c0.1,0,0.1,0,0.2,0c0.6,0,1.1,0,1.7,0
							c0.1,0,0.1,0,0.2,0c0.9,0,1.8,0,2.7,0c0.1,0,0.2,0,0.3,0c0.2,0,0.4,0,0.7,0h0.2h3.8c0.1,0,0.1,0,0.1,0c0.4,0,0.8,0,1.1,0h0.1
							H27"/>
						<path class="st13" d="M1.6,0.7c2,0,3.9,0.1,5.8,0c0.1,0,0.1,0,0.2,0h0.2h0.2c0.8,0,1.6,0,2.4,0c0.1,0,0.1,0,0.2,0
							c0.4,0,0.8,0,1.1,0c0.2,0,0.4,0,0.5,0c0.1,0,0.1,0,0.2,0c0.6,0,1.2,0,1.8,0c0.1,0,0.1,0,0.2,0c0.7,0,1.2,0,1.8,0
							c0.1,0,0.1,0,0.2,0c1.6,0,3,0,4.6,0h0.3h3h0.1c0.2,0,0.3,0,0.4,0h0.1H25"/>
						<path class="st13" d="M1.1,0.7c0.4,0,0.7,0,1.1,0c1.7,0.1,3.4,0,5,0h0.3h0.3H8c0.8,0,1.7,0,2.5,0h0.2c0.5,0,0.9,0,1.4,0
							c0.1,0,0.2,0,0.2,0c0.7,0,1.4,0,2,0h0.2c0.6,0,1.2,0,1.8,0c0.1,0,0.1,0,0.2,0c1.8,0,3.5,0,5.3,0h0.2h3.1"/>
						<path class="st13" d="M4.2,0.6h3.9h0.2c0.8,0,1.6,0,2.4,0c0.1,0,0.1,0,0.2,0c0.3,0,0.7,0,1,0c0.1,0,0.1,0,0.2,0
							c0.8,0,1.6,0,2.4,0c0.1,0,0.1,0,0.2,0c0.4,0,0.9,0,1.3,0c0.1,0,0.1,0,0.2,0c1.8,0,3.6,0,5.4,0c0.1,0,0.2,0,0.3,0"/>
						<path class="st13" d="M1.5,0.6c1.1,0,2.3,0,3.5,0c0.1,0,0.1,0,0.2,0h5.1h0.2c0.1,0,0.2,0,0.3,0c0.1,0,0.2,0,0.3,0
							c0.4,0,0.8,0,1.1,0c0.1,0,0.2,0,0.3,0c0.2,0,0.4,0,0.5,0c0.1,0,0.2,0,0.3,0c0.3,0,0.7,0,1,0c0.1,0,0.1,0,0.2,0s0.1,0,0.2,0
							c0.1,0,0.2,0,0.3,0c0.1,0,0.2,0,0.3,0c0.3,0,0.7,0,0.9,0c0.1,0,0.2,0,0.3,0c0.2,0,0.4,0,0.6,0c0.1,0,0.2,0,0.3,0
							c0.3,0,0.6,0,0.9,0c0.1,0,0.2,0,0.3,0c0.1,0,0.2,0,0.3,0c1.7,0,3.5-0.1,5.3,0c0.1,0,0.2,0,0.3,0h0.9"/>
						<path class="st13" d="M2.9,0.5c0.4,0,0.7,0,1.1,0c0.1,0,0.2,0,0.3,0h6.2c0.1,0,0.2,0,0.3,0c4.2,0,8.4,0,12.6,0"/>
						<path class="st13" d="M0.1,0.5h0.2c0.1,0,0.2,0,0.3,0c0.9,0,1.8,0,2.7,0c0.1,0,0.2,0,0.3,0s0.2,0,0.3,0c0.1,0,0.1,0,0.2,0h5.6
							c0.3,0,0.7,0,1,0c4.6,0,9.3,0,13.9,0c0.1,0,0.2,0,0.3,0h0.9"/>
						<path class="st13" d="M-0.7,0.4h0.7h0.2c0.1,0,0.2,0,0.3,0c0.1,0,0.2,0,0.3,0c0.7,0,1.4,0,2.1,0c0.1,0,0.2,0,0.3,0
							c0.4,0,0.8,0,1.2,0h0.2h5.1c0.3,0,0.7,0,1,0c4.6,0,9.2,0,13.8,0c0.1,0,0.2,0,0.3,0c0.6,0,1.1,0,1.7,0"/>
						<path class="st13" d="M4.9,0.4h5.9c0.1,0,0.2,0,0.3,0c0.9,0,1.9,0,2.8,0c0.1,0,0.2,0,0.2,0c0.2,0,0.5,0,0.7,0H15
							c2,0,3.8,0,5.8,0"/>
						<path class="st13" d="M2.7,0.3h7.1c0.3,0,0.7,0,1,0c4.1,0,8.3,0,12.5,0"/>
						<path class="st13" d="M-1.7,0.2h1.4H0c1.6,0,3.1,0,4.7,0h0.2H10c0.3,0,0.7,0,1,0c4.4,0,8.8,0,13.2,0c0.1,0,0.2,0,0.3,0
							c1.2,0,2.4,0,3.6,0"/>
						<path class="st13" d="M-2,0.2h1.5c0.1,0,0.2,0,0.3,0c1.6,0,3.2,0,4.8,0c0.1,0,0.2,0,0.2,0H10c0.3,0,0.7,0,1,0
							c4.2,0,8.6,0,12.8,0c0.1,0,0.2,0,0.3,0c1.2,0,2.5,0,3.7,0"/>
						<path class="st13" d="M2.9,0.1h0.8h0.2c0.5,0,0.9,0,1.4,0h0.2h5.9c0.1,0,0.1,0,0.2,0c0.6,0,1.2,0,1.8,0h0.2h3.3
							c0.2,0,0.4,0,0.7,0c0.8,0,1.5,0,2.3,0h0.5h0.5c0.1,0,0.2,0,0.3,0c0.4,0,0.8,0,1.1,0c0.1,0,0.1,0,0.1,0c0.3,0,0.7,0,1,0
							c0.1,0,0.1,0,0.1,0c0.1,0,0.3,0,0.4,0"/>
						<path class="st13" d="M1.4,0.1c1,0,1.9,0,2.9,0c0.1,0,0.2,0,0.3,0c0.4,0,0.8,0,1.1,0h0.2h10.7c0.2,0,0.4,0,0.7,0
							c0.7,0,1.2,0,1.9,0c0.2,0,0.4,0,0.7,0H21c0.1,0,0.2,0,0.3,0c1.2,0,2.4,0,3.7,0"/>
						<path class="st13" d="M2.5,0c0.4,0,0.9,0,1.4,0C4,0,4,0,4.1,0c0.6,0,1.2,0,1.7,0H6h9.4h0.7c0.4,0,0.9,0,1.4,0
							c0.1,0,0.2,0,0.2,0c0.2,0,0.3,0,0.5,0c0.1,0,0.2,0,0.2,0c1.6,0,3.1,0,4.7,0c0.1,0,0.2,0,0.3,0c0.3,0,0.5,0,0.8,0"/>
						<path class="st13" d="M-1.6,0h4.4H3c1,0,2.1,0,3.1,0h0.2h1.4h0.2c2.3,0,4.7,0,7,0c0.2,0,0.4,0,0.7,0c2.4,0,5,0,7.4,0
							c0.1,0,0.2,0,0.3,0c0.7,0,1.2,0,1.9,0h0.3h2.3"/>
						<path class="st13" d="M-1.8-0.1h4.8h0.2c1,0,2,0,2.9,0h0.2h1h0.2c2.5,0,4.9,0,7.4,0c0.2,0,0.4,0,0.6,0c2.5,0,5.1,0,7.6,0
							c0.1,0,0.2,0,0.3,0c0.5,0,1,0,1.5,0h0.3h2.1"/>
						<path class="st13" d="M3.4-0.2c0.9,0,1.8,0,2.7,0h0.2h0.9h0.2c2.6,0,5.2,0,7.7,0c0.1,0,0.2,0,0.2,0h0.2c2.4,0,4.8,0,7.2,0"/>
						<path class="st13" d="M4.6-0.2c0.4,0,0.9,0,1.3,0h0.3h0.6h0.3c2.5,0,5,0,7.6,0h0.2h0.4c2,0,4.1,0,6.1,0"/>
						<path class="st13" d="M3.8-0.3c0.6,0,1.2,0,1.8,0h0.3h1.1h0.2c1.4,0,2.7,0,4.1,0c0.1,0,0.2,0,0.2,0h0.2c0.4,0,0.7,0,1.1,0H13
							h1.8h0.6c2.2,0,4.3,0,6.4,0"/>
						<path class="st13" d="M1.1-0.3h2.4h0.3c0.5,0,1,0,1.5,0h0.2H7h0.3c1.3,0,2.5,0,3.7,0c0.1,0,0.1,0,0.2,0H14h0.2
							c0.3,0,0.6,0,0.9,0c0.2,0,0.3,0,0.4,0c2.5,0,5.1,0.1,7.6,0c0.1,0,0.2,0,0.3,0h1.4h0.1c0.2,0,0.4,0,0.5,0"/>
						<path class="st13" d="M4-0.4h3.3h0.2c1,0,2.1,0,3.1,0c0.1,0,0.2,0,0.2,0h2.8h0.3c0.6,0,1.1,0,1.7,0c0.2,0,0.4,0,0.6,0
							c1.8,0,3.7,0,5.6,0"/>
						<path class="st13" d="M2.6-0.5h4.6h0.2c0.9,0,1.6,0,2.4,0h0.2H13h0.3c0.9,0,1.8,0,2.7,0c0.2,0,0.4,0,0.5,0c0.3,0,0.6,0,0.9,0
							c0.1,0,0.2,0,0.2,0c0.2,0,0.4,0,0.7,0c0.1,0,0.2,0,0.2,0c0.3,0,0.6,0,0.9,0c0.1,0,0.2,0,0.3,0c0.1,0,0.2,0,0.3,0
							c0.3,0,0.5,0,0.8,0c0.1,0,0.1,0,0.1,0c0.3,0,0.7,0,1,0h0.1h2"/>
						<path class="st13" d="M-1.5-0.5h9.3H8c0.5,0,0.9,0,1.4,0h0.1c1,0,2,0,2.9,0c0.1,0,0.1,0,0.2,0h0.2H13c0.3,0,0.5,0,0.8,0
							c0.1,0,0.1,0,0.2,0c2.2,0,4.4,0,6.6,0c0.1,0,0.1,0,0.1,0c0.3,0,0.7,0,0.9,0h0.1c1,0,2.1,0,3.1,0c0.1,0,0.1,0,0.1,0
							c0.1,0,0.3,0,0.4,0c0.1,0,0.1,0,0.1,0c0.1,0,0.3,0,0.4,0c0.2,0,0.5,0,0.8,0c0.1,0,0.1,0,0.2,0h0.8"/>
						<path class="st13" d="M5.1-0.6h8.1h0.2c2.4,0,4.8,0,7.2,0"/>
						<path class="st13" d="M2.7-0.6h4.7c0.1,0,0.1,0,0.1,0c0.2,0,0.4,0,0.6,0c0.1,0,0.1,0,0.1,0h3.7c0.1,0,0.2,0,0.3,0
							c0.4,0,0.8,0,1.2,0h0.2c2.6,0,5.2,0,7.7,0c0.1,0,0.2,0,0.3,0c0.1,0,0.2,0,0.3,0h0.3h1.7"/>
						<path class="st13" d="M2.6-0.7H5h0.2c0.4,0,0.7,0,1.1,0c0.1,0,0.1,0,0.1,0h0.8c0.1,0,0.1,0,0.1,0c0.3,0,0.7,0,1,0h0.1h3.1
							c0.1,0,0.2,0,0.3,0c0.7,0,1.3,0,2,0c0.1,0,0.2,0,0.3,0c2.3,0,4.7,0,7,0c0.1,0,0.2,0,0.3,0s0.1,0,0.1,0c0.3,0,0.7,0,0.9,0
							c0.1,0,0.1,0,0.1,0h0.8"/>
						<path class="st13" d="M0.7-0.7h4.2h0.1c0.5,0,1,0,1.6,0c0.1,0,0.1,0,0.1,0h0.5c0.1,0,0.1,0,0.1,0c0.4,0,0.8,0,1.1,0h0.1h2.8
							c0.1,0,0.2,0,0.3,0c0.7,0,1.4,0,2.1,0c0.1,0,0.2,0,0.3,0c2.2,0,4.3,0,6.5,0c0.1,0,0.2,0,0.3,0c0.7,0,1.4,0,2.1,0
							c0.1,0,0.2,0,0.2,0h1.9"/>
						<path class="st13" d="M4.2-0.8h0.7c0.1,0,0.1,0,0.1,0c0.5,0,1.1,0,1.6,0h0.2h0.5h0.1c0.2,0,0.5,0,0.7,0h0.1h2.9
							c0.1,0,0.2,0,0.3,0c0.9,0,1.8,0,2.8,0h0.2c0.3,0,0.6,0,0.9,0h0.2c0.1,0,0.2,0,0.3,0c0.4,0,0.8,0,1.2,0c0.1,0,0.2,0,0.3,0
							c1,0,2,0,2.9,0c0.1,0,0.1,0,0.1,0c0.6,0,1.1,0,1.7,0"/>
						<path class="st13" d="M3.3-0.9h1.7c0.1,0,0.1,0,0.2,0c0.4,0,0.9,0,1.4,0c0.1,0,0.1,0,0.1,0h4.8h0.2c0.9,0,1.8,0,2.7,0h0.3h0.9
							h0.2c1.5,0,2.9,0,4.4,0c0.1,0,0.1,0,0.1,0c0.7,0,1.4,0,2.1,0"/>
						<path class="st13" d="M3.1-0.9h2c0.1,0,0.1,0,0.2,0c0.3,0,0.7,0,1,0c0.1,0,0.1,0,0.1,0H11h0.3c0.9,0,1.8,0,2.7,0
							c0.1,0,0.1,0,0.2,0h1.2h0.2c1.4,0,2.7,0,4,0c0.2,0,0.4,0,0.6,0c1,0,2-0.1,3,0"/>
						<path class="st13" d="M-2.1-1h13.4c0.1,0,0.2,0,0.3,0c0.9,0,1.6,0,2.5,0c0.1,0,0.2,0,0.2,0h1.1h0.3c1.4,0,2.8,0,4.1,0
							c0.1,0,0.2,0,0.3,0c0.9,0,2,0,2.9,0c0.2,0,0.4,0,0.6,0c1.3,0,2.6,0,3.9,0"/>
						<path class="st13" d="M2.7-1h8.8c0.1,0,0.2,0,0.2,0c0.8,0,1.5,0,2.3,0h0.2h1.6H16c1.3,0,2.6,0,3.8,0c0.1,0,0.2,0,0.3,0
							c1,0,2.1,0.1,3.1,0"/>
						<path class="st13" d="M5.3-1.1H12c0.1,0,0.2,0,0.2,0c0.4,0,0.7,0,1.1,0c0.1,0,0.2,0,0.2,0h6.1h0.2c0.2,0,0.3,0,0.5,0"/>
						<path class="st13" d="M2.4-1.1h4.4h0.4c0.4,0,0.9,0,1.3,0H9h10.4c0.1,0,0.1,0,0.2,0c0.2,0,0.4,0,0.5,0c0.1,0,0.2,0,0.3,0
							c1,0,2,0.1,3,0"/>
						<path class="st13" d="M1.4-1.2h5h0.4c0.8,0,1.5,0,2.3,0h0.5h9.7c0.1,0,0.1,0,0.2,0c0.3,0,0.5,0,0.9,0c0.1,0,0.2,0,0.3,0
							c0.8,0,1.5,0,2.3,0c0.1,0,0.2,0,0.3,0c0.3,0,0.5,0,0.9,0h0.3h0.4"/>
						<path class="st13" d="M0.2-1.3h6.4h0.4c0.8,0,1.6,0,2.3,0h0.5h6.8c0.1,0,0.1,0,0.1,0c0.3,0,0.6,0,0.9,0c0.1,0,0.1,0,0.1,0h1.5
							c0.1,0,0.1,0,0.2,0c0.9,0,1.8,0,2.8,0c0.1,0,0.1,0,0.1,0c0.2,0,0.4,0,0.5,0c0.1,0,0.1,0,0.1,0c0.2,0,0.4,0,0.7,0h0.3h1.7"/>
						<path class="st13" d="M4.7-1.3h1.7h0.3c0.9,0,1.9,0,2.8,0H10h6.7c0.1,0,0.1,0,0.1,0c0.3,0,0.7,0,1,0c0.1,0,0.1,0,0.1,0h1.2
							c0.1,0,0.2,0,0.3,0c0.7,0,1.2,0,1.8,0"/>
						<path class="st13" d="M5.2-1.4h1.4h0.3c0.9,0,1.7,0,2.7,0h0.4h6.7h0.1c0.3,0,0.7,0,1,0h0.1H19h0.3c0.7,0,1.3,0,2,0"/>
						<path class="st13" d="M2.7-1.4h3.8h0.4c0.9,0,1.8,0,2.7,0h0.4H10c0.3,0,0.5,0,0.8,0c0.1,0,0.1,0,0.1,0h8.7c0.1,0,0.2,0,0.3,0
							c0.4,0,0.7,0,1.1,0c0.1,0,0.2,0,0.2,0c0.2,0,0.3,0,0.4,0c0.1,0,0.1,0,0.1,0c0.4,0,0.7-0.1,1,0c0.1,0,0.1,0,0.1,0s0.1,0,0.1,0
							c0.1,0,0.2,0,0.3,0"/>
						<path class="st13" d="M3.5-1.5h3.2h0.2c0.1,0,0.1,0,0.2,0c0.3,0,0.7,0,1.1,0c0.1,0,0.2,0,0.3,0c0.3,0,0.5,0,0.8,0h0.5h0.1H10
							c0.4,0,0.8,0,1.2,0h0.1c0.3,0,0.7,0,1,0h0.1h2.3c0.1,0,0.2,0,0.3,0c0.4,0,0.9,0,1.2,0h0.3h2.9c0.1,0,0.2,0,0.2,0
							c0.6,0,1.2,0,1.9,0c0.1,0,0.2,0,0.2,0c0.1,0,0.1,0,0.1,0c0.3,0,0.6,0,0.9,0c0.1,0,0.1,0,0.1,0c0.1,0,0.1,0,0.1,0"/>
						<path class="st13" d="M-1.1-1.5L-1.1-1.5c0.5,0,1,0,1.5,0c0.1,0,0.2,0,0.3,0c1.8,0,3.7,0,5.6,0c0.1,0,0.2,0,0.3,0s0.2,0,0.3,0
							s0.2,0,0.3,0c0.4,0,0.7,0,1.1,0c0.1,0,0.2,0,0.3,0c0.1,0,0.2,0,0.3,0c0.1,0,0.2,0,0.3,0c0.3,0,0.6,0,0.9,0c0.1,0,0.1,0,0.1,0
							c0.3,0,0.6,0,0.9,0c0.1,0,0.1,0,0.1,0c0.4,0,0.7,0,1.1,0c0.1,0,0.1,0,0.1,0c0.3,0,0.5,0,0.8,0h0.2H14c0.1,0,0.2,0,0.3,0
							c0.7,0,1.4,0,2,0c0.1,0,0.2,0,0.3,0H19c0.1,0,0.2,0,0.3,0c0.8,0,1.5-0.1,2.2,0c0.1,0,0.2,0,0.3,0c1.2,0,2.5,0,3.7,0h0.2H27"/>
						<path class="st13" d="M0.7-1.6c1.8,0,3.6,0,5.5,0c0.1,0,0.2,0,0.3,0c0.8,0,1.5,0,2.2,0c0.1,0,0.2,0,0.3,0c0.7,0,1.3,0,2,0h0.1
							c0.3,0,0.6,0,0.9,0h0.1c0.5,0,0.9,0,1.4,0h0.2c0.1,0,0.2,0,0.3,0c0.8,0,1.7,0,2.5,0c0.1,0,0.2,0,0.3,0h2.1c0.1,0,0.2,0,0.3,0
							c0.3,0,0.5,0,0.8,0c0.1,0,0.2,0,0.3,0c1.7,0,3.4,0,5.1,0"/>
						<path class="st13" d="M0.9-1.7c1.6,0,3.3,0,4.9,0c0.1,0,0.2,0,0.3,0s0.2,0,0.3,0c0.8,0,1.6-0.1,2.4,0c0.1,0,0.2,0,0.3,0
							c1.4,0,2.9,0,4.3,0h0.2c0.1,0,0.2,0,0.3,0c1,0,1.9,0,2.8,0h0.3h1.5h0.2c0.1,0,0.2,0,0.2,0c0.4,0,0.8,0,1.1,0
							c0.1,0,0.2,0,0.3,0c1.6,0,3.1,0,4.7,0"/>
						<path class="st13" d="M1.9-1.7c1.4,0,2.7,0,4,0c0.1,0,0.2,0,0.3,0c1,0,2,0,3,0h0.3c1.4,0,2.9,0,4.3,0H14c0.9,0,1.8,0,2.6,0
							h0.3h1.7h0.2c0.1,0,0.2,0,0.2,0c0.1,0,0.2,0,0.3,0c0.9,0,1.7,0,2.6,0c0.1,0,0.2,0,0.3,0c0.3,0,0.7,0,1.1,0c0.1,0,0.2,0,0.3,0
							c0.3,0,0.7,0,1,0"/>
						<path class="st13" d="M0.3-1.8c1.8,0,3.7,0,5.5,0h0.3c0.9,0,1.7,0,2.6,0c0.1,0,0.2,0,0.3,0c1.4,0,2.8,0,4.2,0h0.2h0.3
							c0.1,0,0.2,0,0.4,0c0.8,0,1.6,0,2.4,0c0.1,0,0.2,0,0.3,0h1.5h0.3c0.1,0,0.2,0,0.3,0s0.2,0,0.3,0c0.4,0,0.8,0,1.2,0
							c0.1,0,0.2,0,0.3,0c1.6-0.1,3.2,0,4.9,0"/>
						<path class="st13" d="M2.2-1.8c1.2,0,2.5,0,3.7,0c0.1,0,0.2,0,0.3,0c0.8,0,1.7,0,2.5,0c0.1,0,0.2,0,0.3,0c1.5,0,2.9,0,4.4,0
							h0.3c0.1,0,0.2,0,0.3,0c0.9,0,1.7,0,2.5,0c0.1,0,0.2,0,0.3,0h1.2h0.3c0.3,0,0.5,0,0.8,0c0.1,0,0.2,0,0.3,0c0.7,0,1.4,0,2.1,0
							c0.1,0,0.2,0,0.3,0c0.2,0,0.3,0,0.5,0c0.1,0,0.2,0,0.3,0c0.4,0,0.8,0,1.2,0"/>
						<path class="st13" d="M5.1-1.9c0.3,0,0.7,0,1,0h0.2c0.8,0,1.6,0,2.5,0c0.1,0,0.2,0,0.3,0c1.6,0,3.1,0,4.7,0H14
							c0.1,0,0.2,0,0.3,0c0.7,0,1.3,0,2,0c0.1,0,0.2,0,0.3,0h1.7h0.3c0.3,0,0.6,0,0.9,0c0.1,0,0.2,0,0.3,0c0.4,0,0.8,0,1.2,0
							c0.1,0,0.2,0,0.3,0c0.1,0,0.2,0,0.3,0"/>
						<path class="st13" d="M5.4-1.9c0.3,0,0.7,0,1,0c0.1,0,0.1,0,0.2,0c0.7,0,1.2,0,1.9,0c0.1,0,0.2,0,0.2,0c0.2,0,0.4,0,0.7,0h0.1
							c0.5,0,1,0,1.5,0c0.1,0,0.1,0,0.2,0c0.4,0,0.8,0,1.1,0c0.1,0,0.1,0,0.2,0c0.2,0,0.4,0,0.6,0h0.3c0.4,0,0.9,0,1.3,0
							c0.1,0,0.2,0,0.2,0c0.4,0,0.7,0,1,0h0.3h2h0.3c0.8,0,1.7,0,2.5,0"/>
						<path class="st13" d="M3.1-2c3.1,0,6.2,0,9.3,0c0.1,0,0.2,0,0.3,0h0.1h0.1c0.1,0,0.2,0,0.3,0c0.7,0,1.4,0,2.1,0h0.3H17h0.4
							c0.3,0,0.7,0,1,0c0.1,0,0.2,0,0.2,0c1.3,0,2.7,0,4,0"/>
						<path class="st13" d="M2.2-2.1c0.1,0,0.1,0,0.1,0c0.1,0,0.2,0,0.3,0c0.1,0,0.1,0,0.1,0c0.1,0,0.2,0,0.3,0c0.4,0,0.9,0,1.3,0
							c2.8,0,5.6,0,8.4,0c0.1,0,0.2,0,0.3,0c0.8,0,1.6,0,2.4,0c0.1,0,0.2,0,0.3,0h1.1H17h0.1c0.4,0,0.8,0,1.1,0c0.1,0,0.1,0,0.2,0
							s0.1,0,0.2,0c0.1,0,0.2,0,0.3,0c0.1,0,0.2,0,0.3,0h0.3c1.7,0,3.4,0,5,0"/>
						<path class="st13" d="M4.5-2.1c2.7,0,5.3,0,8,0c0.1,0,0.2,0,0.3,0c0.9,0,1.8,0,2.7,0c0.1,0,0.2,0,0.3,0c0.3,0,0.7,0,1,0
							c0.1,0,0.1,0,0.2,0c0.5,0,1,0,1.5,0c0.1,0,0.1,0,0.2,0s0.1,0,0.2,0c0.1,0,0.2,0,0.3,0c1,0,2.2,0,3.1,0"/>
						<path class="st13" d="M4.2-2.2c2.8,0,5.6,0,8.3,0c0.1,0,0.2,0,0.3,0c0.9,0,1.7,0,2.7,0c0.1,0,0.1,0,0.2,0c0.2,0,0.4,0,0.6,0
							c0.1,0,0.2,0,0.3,0c0.1,0,0.1,0,0.1,0c0.1,0,0.1,0,0.1,0c0.5,0,1,0,1.6,0c0.1,0,0.1,0,0.2,0c1,0,2.1,0,3.1,0"/>
						<path class="st13" d="M4.9-2.2c2.5,0,5,0,7.5,0c0.1,0,0.2,0,0.3,0c0.9,0,1.8,0,2.8,0c0.1,0,0.2,0,0.3,0c0.1,0,0.2,0,0.3,0
							c0.2,0,0.4,0,0.6,0c0.1,0,0.1,0,0.2,0c0.5,0,1,0,1.5,0h0.2c0.8,0,1.7,0,2.5,0"/>
					</g>
				</g>
			</g>
			
				<radialGradient id="SVGID_23_" cx="257.9101" cy="-96.4638" r="6.4327" gradientTransform="matrix(0.5387 0 0 -1.5564 -130.5484 -138.4601)" gradientUnits="userSpaceOnUse">
				<stop  offset="0" style="stop-color:#FFFFFF"/>
				<stop  offset="8.962709e-02" style="stop-color:#FFFFFF;stop-opacity:0.9104"/>
				<stop  offset="1" style="stop-color:#FFFFFF;stop-opacity:0"/>
			</radialGradient>
			<ellipse class="st14" cx="8.4" cy="11.7" rx="3.5" ry="10"/>
			
				<radialGradient id="SVGID_24_" cx="272.9431" cy="-134.0774" r="6.4373" gradientTransform="matrix(0.5387 0 0 -1.8402 -130.5484 -241.5235)" gradientUnits="userSpaceOnUse">
				<stop  offset="0" style="stop-color:#FFFFFF"/>
				<stop  offset="1" style="stop-color:#FFFFFF;stop-opacity:0"/>
			</radialGradient>
			<ellipse class="st15" cx="16.5" cy="5.2" rx="3.5" ry="11.8"/>
			
				<radialGradient id="SVGID_25_" cx="264.3473" cy="-138.4138" r="6.4354" gradientTransform="matrix(0.5387 0 0 -1.8402 -130.5484 -241.5235)" gradientUnits="userSpaceOnUse">
				<stop  offset="0" style="stop-color:#FFFFFF"/>
				<stop  offset="1" style="stop-color:#FFFFFF;stop-opacity:0"/>
			</radialGradient>
			<ellipse class="st16" cx="11.9" cy="13.2" rx="3.5" ry="11.8"/>
			
				<radialGradient id="SVGID_26_" cx="323.6237" cy="-87.0439" r="6.4462" gradientTransform="matrix(0.4229 0 0 -1.5564 -131.2242 -138.4601)" gradientUnits="userSpaceOnUse">
				<stop  offset="0" style="stop-color:#FFFFFF"/>
				<stop  offset="8.962709e-02" style="stop-color:#FFFFFF;stop-opacity:0.9104"/>
				<stop  offset="1" style="stop-color:#FFFFFF;stop-opacity:0"/>
			</radialGradient>
			<ellipse class="st17" cx="5.6" cy="-3" rx="2.7" ry="10"/>
			
				<radialGradient id="SVGID_27_" cx="271.3198" cy="-176.5714" r="6.4341" gradientTransform="matrix(0.2473 0 0 -1.9187 -56.3513 -327.0205)" gradientUnits="userSpaceOnUse">
				<stop  offset="0" style="stop-color:#1A171B"/>
				<stop  offset="8.962709e-02" style="stop-color:#1A171B;stop-opacity:0.9104"/>
				<stop  offset="1" style="stop-color:#1A171B;stop-opacity:0"/>
			</radialGradient>
			<ellipse class="st18" cx="10.7" cy="11.8" rx="1.6" ry="12.3"/>
			
				<radialGradient id="SVGID_28_" cx="307.3846" cy="-168.3177" r="6.4352" gradientTransform="matrix(0.2473 0 0 -1.9187 -56.3513 -327.0205)" gradientUnits="userSpaceOnUse">
				<stop  offset="0" style="stop-color:#1A171B"/>
				<stop  offset="8.962709e-02" style="stop-color:#1A171B;stop-opacity:0.9104"/>
				<stop  offset="1" style="stop-color:#1A171B;stop-opacity:0"/>
			</radialGradient>
			<path class="st19" d="M21.3-4.1c0,6.8-0.7,12.3-1.6,12.3c-0.9,0-1.6-5.5-1.6-12.3c0-6.8,0.7-12.3,1.6-12.3S21.3-10.9,21.3-4.1z"
				/>
			
				<radialGradient id="SVGID_29_" cx="259.7966" cy="-167.6568" r="6.4343" gradientTransform="matrix(0.2473 0 0 -1.9187 -56.3513 -327.0205)" gradientUnits="userSpaceOnUse">
				<stop  offset="0" style="stop-color:#1A171B"/>
				<stop  offset="8.962709e-02" style="stop-color:#1A171B;stop-opacity:0.9104"/>
				<stop  offset="1" style="stop-color:#1A171B;stop-opacity:0"/>
			</radialGradient>
			<path class="st20" d="M9.5-5.3C9.5,1.5,8.8,7,7.9,7S6.4,1.5,6.4-5.3c0-6.8,0.7-12.3,1.6-12.3S9.5-12.1,9.5-5.3z"/>
			
				<radialGradient id="SVGID_30_" cx="360.5573" cy="-88.7331" r="6.4343" gradientTransform="matrix(0.4229 0 0 -1.5564 -131.2242 -138.4601)" gradientUnits="userSpaceOnUse">
				<stop  offset="0" style="stop-color:#FFFFFF"/>
				<stop  offset="8.962709e-02" style="stop-color:#FFFFFF;stop-opacity:0.9104"/>
				<stop  offset="1" style="stop-color:#FFFFFF;stop-opacity:0"/>
			</radialGradient>
			<ellipse class="st21" cx="21.3" cy="-0.4" rx="2.7" ry="10"/>
		</g>
	</g>
</g>
<radialGradient id="SVGID_31_" cx="18.5" cy="6.3846" r="13.29" gradientTransform="matrix(0.6753 0 0 0.3111 0.5065 2.5137)" gradientUnits="userSpaceOnUse">
	<stop  offset="0" style="stop-color:#F8FF2A"/>
	<stop  offset="1" style="stop-color:#FFC42A"/>
</radialGradient>
<path class="st22" d="M23.5,7.3h-21C2.2,7.3,1.9,7,1.9,6.6V2.4c0-0.4,0.3-0.7,0.7-0.7h21c0.4,0,0.7,0.3,0.7,0.7v4.3
	C24.1,7,23.8,7.3,23.5,7.3z"/>
</svg>
