<?xml version="1.0" encoding="utf-8"?>
<!-- Generator: Adobe Illustrator 22.1.0, SVG Export Plug-In . SVG Version: 6.00 Build 0)  -->
<svg version="1.1" id="Layer_1" xmlns="http://www.w3.org/2000/svg" xmlns:xlink="http://www.w3.org/1999/xlink" x="0px" y="0px"
	 viewBox="0 0 75 75" style="enable-background:new 0 0 75 75;" xml:space="preserve">
<style type="text/css">
	.st0{fill:url(#SVGID_1_);stroke:#000000;stroke-miterlimit:10;}
	.st1{fill:#46B200;}
	.st2{fill:#FFFFFF;}
</style>
<g>
	<g>
		<g>
			<g>
				<g>
					
						<linearGradient id="SVGID_1_" gradientUnits="userSpaceOnUse" x1="11.7" y1="1289.5" x2="63.3" y2="1289.5" gradientTransform="matrix(1 0 0 1 0 -1252)">
						<stop  offset="0" style="stop-color:#FFFFFF"/>
						<stop  offset="0.6051" style="stop-color:#FFFFFF"/>
						<stop  offset="1" style="stop-color:#FFFFFF"/>
					</linearGradient>
					<circle class="st0" cx="37.5" cy="37.5" r="25.8"/>
				</g>
			</g>
		</g>
	</g>
	<g>
		<circle class="st1" cx="37.5" cy="37.5" r="22.1"/>
	</g>
	<path class="st2" d="M51.4,39.8h-3.6v-6.1c0-1-0.3-1.7-0.8-2.1l0.1-0.5c0.1-0.5-0.1-1-0.4-1.2l-13.4-6.9l0.3-1
		c0.1-0.3,0.1-0.5,0-0.8c-0.1-0.3-0.2-0.5-0.4-0.5L32.1,20c-0.2-0.1-0.4,0-0.5,0.2c-0.1,0.2-0.2,0.4-0.3,0.6l-0.1,1l-1.6-0.9
		c-0.2-0.1-0.4-0.1-0.5,0.1c-0.1,0.1-0.2,0.4-0.3,0.5l-0.3,1.7c-0.1,0.5,0.1,1,0.4,1.2l13.4,7H29c-0.6,0-1.2,1-1.2,2.1v6.2h-4.2
		c-0.9,0-1.7,0.8-1.7,1.7v5.1c0,1.1,0.9,2,2,2h27.2c1.1,0,2-0.9,2-2v-5.1C53.2,40.5,52.4,39.8,51.4,39.8z"/>
</g>
</svg>
