<?xml version="1.0" encoding="utf-8"?>
<!-- Generator: Adobe Illustrator 22.1.0, SVG Export Plug-In . SVG Version: 6.00 Build 0)  -->
<svg version="1.1" id="Layer_1" xmlns="http://www.w3.org/2000/svg" xmlns:xlink="http://www.w3.org/1999/xlink" x="0px" y="0px"
	 viewBox="0 0 25 25" style="enable-background:new 0 0 25 25;" xml:space="preserve">
<style type="text/css">
	.st0{fill:#010002;}
</style>
<g>
	<path class="st0" d="M12.3,2H3.1c-0.5,0-1,0.4-1,1v19.7h11.1V3C13.2,2.4,12.8,2,12.3,2z M11.8,9.3H3.5V3.9h8.3L11.8,9.3L11.8,9.3z
		 M17.6,23c-2.3,0-3.7-1.6-3.8-4.3c-0.1-1.1,0.2-2.3,0.5-3.5c0.2-0.9,0.4-1.9,0.5-2.9c0.1-1-0.1-1.3-0.2-1.5
		c-0.2-0.2-0.8-0.2-1.3-0.2h-0.3V9.2h0.3c0.8,0,1.7,0,2.3,0.7c0.5,0.5,0.6,1.3,0.5,2.5c-0.1,1.1-0.3,2.1-0.6,3.1
		c-0.3,1.2-0.5,2.3-0.5,3.2c0.1,2,0.9,3,2.5,3c1.7,0,2.5-1.1,2.5-3.2c0-1.7-0.5-3.1-0.9-4l-0.1-0.4c-0.4-1-0.4-1.9-0.5-3.2
		c0-1.3,0-2.7,0.3-4c0.4-1.4,1.1-2,2.3-3.1l0.3-0.3l0.9,1l-0.3,0.3c-1.1,1-1.7,1.5-1.9,2.5C20,8.5,20,9.7,20,10.9
		c0,1.3,0.1,2,0.4,2.7l0.1,0.3c0.4,0.9,1,2.5,1,4.5C21.5,21.3,20.1,23,17.6,23z M19.4,11.2l0-1.3c0,0,1,0,1.6,0c0-0.2,0-0.6,0-1V8.6
		c0-1.6-0.3-1.8-0.5-2.1c-0.1-0.1-0.2-0.2-0.3-0.3l1-0.9c0.1,0.1,0.1,0.1,0.2,0.2c0.6,0.5,1,1,1,3.1v0.2c0,0.7,0,1.2-0.1,1.5
		c-0.1,0.5-0.5,0.9-1,0.9C20.8,11.1,19.4,11.2,19.4,11.2z"/>
</g>
</svg>
