<?xml version="1.0" encoding="utf-8"?>
<!-- Generator: Adobe Illustrator 22.1.0, SVG Export Plug-In . SVG Version: 6.00 Build 0)  -->
<svg version="1.1" id="Layer_1" xmlns="http://www.w3.org/2000/svg" xmlns:xlink="http://www.w3.org/1999/xlink" x="0px" y="0px"
	 viewBox="0 0 25 25" style="enable-background:new 0 0 25 25;" xml:space="preserve">
<g>
	<path d="M12.5,12.4c2.5,0,4.6-2.5,4.6-5.6c0-3.1-0.7-5.6-4.6-5.6S7.9,3.7,7.9,6.8C7.9,9.9,10,12.4,12.5,12.4z"/>
	<path d="M3.8,20.9C3.8,20.7,3.8,20.8,3.8,20.9L3.8,20.9z"/>
	<path d="M21.2,21C21.2,21,21.2,20.7,21.2,21L21.2,21z"/>
	<path d="M21.2,20.6c-0.1-5.4-0.8-6.9-6.1-7.9c0,0-0.8,1-2.5,1s-2.5-1-2.5-1c-5.3,1-6,2.5-6.1,7.7c0,0.4,0,0.4,0,0.4
		c0,0.1,0,0.3,0,0.6c0,0,1.3,2.6,8.7,2.6c7.4,0,8.7-2.6,8.7-2.6c0-0.2,0-0.3,0-0.4C21.2,21,21.2,21,21.2,20.6z"/>
</g>
</svg>
