<?xml version="1.0" encoding="utf-8"?>
<!-- Generator: Adobe Illustrator 22.1.0, SVG Export Plug-In . SVG Version: 6.00 Build 0)  -->
<svg version="1.1" id="Layer_1" xmlns="http://www.w3.org/2000/svg" xmlns:xlink="http://www.w3.org/1999/xlink" x="0px" y="0px"
	 viewBox="0 0 25 25" style="enable-background:new 0 0 25 25;" xml:space="preserve">
<g>
	<path d="M19.7,3.9v1h-3.8v-1H19.7z M18.1,6.1h-2.2v1h2.2V6.1z M15.9,9.2h3.8v-1h-3.8V9.2z M18.1,10.3h-2.2v1h2.2V10.3z M15.9,13.5
		h3.8v-1h-3.8V13.5z M16.5,19c0,2.7-2.2,5-5,5s-5-2.2-5-5c0-1.8,0.9-3.4,2.5-4.3V3.5C9,2.1,10.1,1,11.5,1S14,2.1,14,3.5v11.2
		C15.5,15.7,16.5,17.3,16.5,19z M15.5,19c0-1.5-0.8-2.9-2.2-3.5L13,15.4V3.5C13,2.7,12.4,2,11.5,2C10.7,2,10,2.7,10,3.5v11.8
		l-0.3,0.1c-1.3,0.7-2.2,2-2.2,3.5c0,2.2,1.8,4,4,4S15.5,21.2,15.5,19z M14.7,19c0,1.7-1.4,3.2-3.2,3.2c-1.7,0-3.2-1.4-3.2-3.2
		c0-1.4,1-2.7,2.4-3.1l0.2,0v-6h1.3v6l0.2,0C13.7,16.4,14.7,17.6,14.7,19z M11.7,16.9c-0.1-0.3-0.4-0.6-0.8-0.5
		c-1.2,0.3-2,1.3-2,2.6c0,0.3,0.3,0.6,0.6,0.6s0.6-0.3,0.6-0.6c0-0.6,0.4-1.2,1.1-1.3C11.5,17.6,11.7,17.3,11.7,16.9z"/>
</g>
</svg>
