<?xml version="1.0" encoding="utf-8"?>
<!-- Generator: Adobe Illustrator 22.1.0, SVG Export Plug-In . SVG Version: 6.00 Build 0)  -->
<svg version="1.1" id="Layer_1" xmlns="http://www.w3.org/2000/svg" xmlns:xlink="http://www.w3.org/1999/xlink" x="0px" y="0px"
	 viewBox="0 0 66 66" style="enable-background:new 0 0 66 66;" xml:space="preserve">
<style type="text/css">
	.st0{fill:#FFFFFF;}
</style>
<path id="XMLID_46_" class="st0" d="M0.4,32.8h64.5v-7H0.4V32.8z M0.4,7v7h64.5V7H0.4z"/>
<g>
	<path class="st0" d="M16.5,51.8c-0.1-2.3-0.2-5.2-0.2-7.6h-0.1c-0.6,2.2-1.4,4.7-2.1,7l-2.6,7.6c0,0.1-0.2,0.2-0.3,0.2H9
		c-0.1,0-0.3-0.1-0.3-0.2l-2.3-7.5c-0.7-2.3-1.4-4.8-1.8-7.1H4.5c-0.1,2.4-0.2,5.3-0.3,7.7l-0.4,7c0,0.2-0.1,0.3-0.3,0.3H1
		c-0.2,0-0.3-0.1-0.3-0.3l1.2-17.5c0-0.2,0.1-0.3,0.3-0.3H6c0.1,0,0.2,0.1,0.3,0.2l2.3,7.1c0.7,2.1,1.2,4.3,1.7,6.3h0.1
		c0.5-2,1.1-4.2,1.8-6.3l2.4-7.1c0-0.1,0.2-0.2,0.3-0.2h3.8c0.2,0,0.3,0.1,0.3,0.3l1,17.5c0,0.2-0.1,0.3-0.3,0.3h-2.6
		c-0.2,0-0.3-0.1-0.3-0.3L16.5,51.8z"/>
	<path class="st0" d="M26.1,53.6c-0.2,0-0.3,0.2-0.3,0.3c0.2,2.1,2,3.1,4,3.1c1,0,1.8-0.1,2.5-0.3c0.6-0.1,1.3,0.3,1.4,0.9l0,0
		c0.1,0.6-0.2,1.2-0.8,1.4c-1,0.3-2.2,0.5-3.5,0.5c-4.3,0-6.7-2.6-6.7-6.6c0-3.6,2.2-7,6.4-7c4.3,0,5.6,3.5,5.6,6.4
		c0,0.6-0.1,1.1-0.1,1.4L26.1,53.6z M31.2,51.3c0.2,0,0.3-0.1,0.3-0.3c-0.1-1.2-0.7-2.9-2.7-2.9c-1.9,0-2.7,1.6-3,2.8
		c0,0.2,0.1,0.4,0.3,0.4L31.2,51.3z"/>
	<path class="st0" d="M37.3,50c0-1.4,0-2.5-0.1-3.6c0-0.2,0.1-0.3,0.3-0.3l2.3,0c0.2,0,0.3,0.1,0.3,0.3l0.1,1.7h0.1
		c0.6-1,2-2.3,4.2-2.3c2.3,0,4.7,1.5,4.7,5.6v7.5c0,0.2-0.1,0.3-0.3,0.3h-2.7c-0.2,0-0.3-0.1-0.3-0.3v-7.1c0-1.9-0.7-3.3-2.5-3.3
		c-1.3,0-2.2,0.9-2.6,1.9c-0.1,0.3-0.2,0.7-0.2,1.1v7.4c0,0.2-0.1,0.3-0.3,0.3h-2.7c-0.2,0-0.3-0.1-0.3-0.3V50z"/>
	<path class="st0" d="M64.4,55.3c0,1.4,0,2.6,0.1,3.6c0,0.2-0.1,0.3-0.3,0.3l-2.3,0c-0.2,0-0.3-0.1-0.3-0.3l-0.1-1.7h-0.1
		c-0.6,0.9-1.8,2.3-4.2,2.3c-2.4,0-4.6-1.4-4.6-5.7v-7.4c0-0.2,0.1-0.3,0.3-0.3h2.7c0.2,0,0.3,0.1,0.3,0.3v6.8
		c0,2.2,0.7,3.6,2.4,3.6c1.3,0,2.2-0.9,2.5-1.8c0.1-0.3,0.2-0.6,0.2-1v-7.6c0-0.2,0.1-0.3,0.3-0.3h2.7c0.2,0,0.3,0.1,0.3,0.3V55.3z"
		/>
</g>
</svg>
