<?xml version="1.0" encoding="utf-8"?>
<!-- Generator: Adobe Illustrator 19.0.0, SVG Export Plug-In . SVG Version: 6.00 Build 0)  -->
<svg version="1.0" id="Layer_1" xmlns="http://www.w3.org/2000/svg" xmlns:xlink="http://www.w3.org/1999/xlink" x="0px" y="0px"
	 viewBox="0 0 500 500" enable-background="new 0 0 500 500" xml:space="preserve">
<path id="XMLID_73_" fill="none" stroke="#B71C1C" stroke-miterlimit="10" d="M267.1,239.8L259,233l-2.3,2.7l8.1,6.8L267.1,239.8z
	 M242.2,235.7L240,233l-8.1,6.8l2.3,2.7L242.2,235.7z M250.5,243.5h-3v10.9l8.5,5l1.4-2.2l-6.9-4.2V243.5z M249.5,236.7
	c-8.8,0-15.9,7.1-15.9,15.9c0,8.8,7.1,15.9,15.9,15.9c8.8,0,15.9-7.1,15.9-15.9C265.4,243.8,258.3,236.7,249.5,236.7z M249.5,264.9
	c-6.8,0-12.3-5.5-12.3-12.3s5.5-12.3,12.3-12.3c6.8,0,12.3,5.5,12.3,12.3S256.3,264.9,249.5,264.9z"/>
</svg>
