<?xml version="1.0" encoding="utf-8"?>
<!-- Generator: Adobe Illustrator 22.1.0, SVG Export Plug-In . SVG Version: 6.00 Build 0)  -->
<svg version="1.1" id="Layer_1" xmlns="http://www.w3.org/2000/svg" xmlns:xlink="http://www.w3.org/1999/xlink" x="0px" y="0px"
	 viewBox="0 0 55 55" style="enable-background:new 0 0 55 55;" xml:space="preserve">
<style type="text/css">
	.st0{fill:#FFFFFF;}
	.st1{font-family:'MyriadPro-Regular';}
	.st2{font-size:12.5775px;}
</style>
<path id="XMLID_139_" class="st0" d="M45.3,15.2c0,1.8-1.5,3.3-3.3,3.3c-0.3,0-0.6,0-0.9-0.1l-5.9,5.8c0.1,0.3,0.1,0.6,0.1,0.9
	c0,1.8-1.5,3.3-3.3,3.3c-1.8,0-3.3-1.5-3.3-3.3c0-0.3,0-0.6,0.1-0.9l-4.2-4.2c-0.3,0.1-0.6,0.1-0.9,0.1c-0.3,0-0.6,0-0.9-0.1
	l-7.5,7.5c0.1,0.3,0.1,0.5,0.1,0.9c0,1.8-1.5,3.3-3.3,3.3s-3.3-1.5-3.3-3.3s1.5-3.3,3.3-3.3c0.3,0,0.6,0,0.9,0.1l7.5-7.5
	c-0.1-0.3-0.1-0.6-0.1-0.9c0-1.8,1.5-3.3,3.3-3.3c1.8,0,3.3,1.5,3.3,3.3c0,0.3,0,0.6-0.1,0.9l4.2,4.2c0.3-0.1,0.6-0.1,0.9-0.1
	c0.3,0,0.6,0,0.9,0.1l5.8-5.9c-0.1-0.3-0.1-0.5-0.1-0.9c0-1.8,1.5-3.3,3.3-3.3C43.7,11.9,45.3,13.4,45.3,15.2z"/>
<text transform="matrix(1 0 0 1 10.4225 48.3568)" class="st0 st1 st2">Charts</text>
</svg>
