<?xml version="1.0" encoding="utf-8"?>
<!-- Generator: Adobe Illustrator 22.1.0, SVG Export Plug-In . SVG Version: 6.00 Build 0)  -->
<svg version="1.1" id="Layer_1" xmlns="http://www.w3.org/2000/svg" xmlns:xlink="http://www.w3.org/1999/xlink" x="0px" y="0px"
	 viewBox="0 0 56.3 56.3" style="enable-background:new 0 0 56.3 56.3;" xml:space="preserve">
<style type="text/css">
	.st0{fill:#FFFFFF;}
	.st1{enable-background:new    ;}
</style>
<path id="XMLID_150_" class="st0" d="M45.4,1.7L45.4,1.7L34.9,5.8L23.4,1.7L11.9,5.4c-0.4,0.1-1,0.5-1,1v29.4c0,0.6,0.9,1,1.3,1
	l0.5-0.1l10.5-4L35,36.8l10.6-3.7c0.4-0.1,0.3-0.5,0.3-1V2.6C45.9,2.1,45.9,1.7,45.4,1.7z M34.2,32.9l-11.7-4.1V5.6l11.7,4.1V32.9z"
	/>
<g class="st1">
	<path class="st0" d="M16.8,52v-9.1c0,0,0-0.1,0.1-0.1h1.7c0,0,0.1,0,0.1,0.1l2.2,6.5c0.2,0.6,0.3,1.1,0.4,1.4
		c0.1-0.3,0.3-0.8,0.5-1.5l2.2-6.4c0,0,0-0.1,0.1-0.1h1.5c0,0,0.1,0,0.1,0.1V52h-1.2v-7.2c0-0.1-0.1-0.1-0.2,0L21.8,52h-1.1
		l-2.5-7.4c0-0.1-0.2-0.1-0.2,0V52H16.8z"/>
	<path class="st0" d="M31.8,51.1c-0.4,0.4-0.8,0.6-1.2,0.8s-0.8,0.2-1.2,0.2c-0.7,0-1.3-0.2-1.7-0.5c-0.4-0.4-0.6-0.8-0.6-1.4
		c0-0.3,0.1-0.6,0.2-0.9c0.1-0.3,0.3-0.5,0.6-0.7c0.2-0.2,0.5-0.3,0.8-0.4c0.2-0.1,0.6-0.1,1-0.2c0.9-0.1,1.6-0.2,2-0.4
		c0-0.2,0-0.3,0-0.3c0-0.5-0.1-0.8-0.3-1c-0.3-0.3-0.7-0.4-1.3-0.4c-0.5,0-0.9,0.1-1.2,0.3c-0.3,0.2-0.4,0.5-0.6,1l-1.1-0.2
		c0.1-0.5,0.3-0.9,0.5-1.1c0.2-0.3,0.6-0.5,1-0.7c0.4-0.2,0.9-0.2,1.5-0.2c0.6,0,1,0.1,1.4,0.2c0.4,0.1,0.6,0.3,0.8,0.5
		c0.2,0.2,0.3,0.5,0.4,0.8c0,0.2,0.1,0.5,0.1,1v1.5c0,1.1,0,1.7,0.1,2c0,0.3,0.1,0.5,0.3,0.8H32C31.9,51.7,31.8,51.5,31.8,51.1z
		 M31.7,48.6c-0.4,0.2-1,0.3-1.8,0.4c-0.5,0.1-0.8,0.1-1,0.2c-0.2,0.1-0.3,0.2-0.4,0.4c-0.1,0.2-0.2,0.3-0.2,0.5
		c0,0.3,0.1,0.6,0.3,0.8c0.2,0.2,0.6,0.3,1,0.3c0.4,0,0.8-0.1,1.2-0.3c0.3-0.2,0.6-0.5,0.7-0.8c0.1-0.3,0.2-0.6,0.2-1.1V48.6z"/>
	<path class="st0" d="M34.6,54.5v-9.2h1v0.9c0.2-0.3,0.5-0.6,0.8-0.8s0.7-0.3,1.1-0.3c0.6,0,1.1,0.1,1.5,0.4c0.4,0.3,0.8,0.7,1,1.2
		c0.2,0.5,0.3,1.1,0.3,1.8c0,0.7-0.1,1.3-0.4,1.8s-0.6,1-1.1,1.3c-0.5,0.3-1,0.4-1.5,0.4c-0.4,0-0.7-0.1-1-0.2
		c-0.3-0.2-0.5-0.4-0.7-0.6v3.2H34.6z M35.6,48.7c0,0.9,0.2,1.5,0.5,1.9c0.3,0.4,0.8,0.6,1.3,0.6c0.5,0,0.9-0.2,1.3-0.6
		c0.4-0.4,0.5-1.1,0.5-2c0-0.9-0.2-1.5-0.5-1.9C38.4,46.2,38,46,37.5,46c-0.5,0-0.9,0.2-1.3,0.7C35.8,47.2,35.6,47.8,35.6,48.7z"/>
</g>
</svg>
