<?xml version="1.0" encoding="utf-8"?>
<!-- Generator: Adobe Illustrator 22.1.0, SVG Export Plug-In . SVG Version: 6.00 Build 0)  -->
<svg version="1.1" id="Layer_1" xmlns="http://www.w3.org/2000/svg" xmlns:xlink="http://www.w3.org/1999/xlink" x="0px" y="0px"
	 viewBox="0 0 54 54" style="enable-background:new 0 0 54 54;" xml:space="preserve">
<style type="text/css">
	.st0{fill:#FFFFFF;}
	.st1{font-family:'MyriadPro-Regular';}
	.st2{font-size:12.5775px;}
</style>
<path id="XMLID_140_" class="st0" d="M39,6.8h-7c-0.7-2.3-2.6-3.3-4.7-3.3c-2.2,0-4,1.1-4.7,3.3h-7c-1.8,0-4.3,0.1-4.3,1.9V32
	c0,1.8,2.4,4.2,4.3,4.2H39c1.8,0,2.5-2.4,2.5-4.2V8.7C41.5,6.9,40.8,6.8,39,6.8z M27.4,5.4c0.9,0,1.7,0.8,1.7,1.7s-0.8,1.7-1.7,1.7
	c-0.9,0-1.7-0.8-1.7-1.7S26.5,5.4,27.4,5.4z M28.7,29.4H18.2v-3.8h10.5V29.4z M34.7,23.4H18.2v-3.8h16.6V23.4z M34.7,15.9H18.2v-3
	h16.6V15.9z"/>
<text transform="matrix(1 0 0 1 9.5843 50.6427)" class="st0 st1 st2">Report</text>
</svg>
