<?xml version="1.0" encoding="utf-8"?>
<!-- Generator: Adobe Illustrator 22.1.0, SVG Export Plug-In . SVG Version: 6.00 Build 0)  -->
<svg version="1.1" id="Layer_1" xmlns="http://www.w3.org/2000/svg" xmlns:xlink="http://www.w3.org/1999/xlink" x="0px" y="0px"
	 viewBox="0 0 110 110" style="enable-background:new 0 0 110 110;" xml:space="preserve">
<style type="text/css">
	.st0{fill:#E06119;}
</style>
<g>
	<g>
		<g>
			<path class="st0" d="M22.2,7.7C12.7,7.7,5,15.4,5,24.8c0,11.7,15.3,28.9,16,29.7c0.6,0.7,1.7,0.7,2.3,0c0.7-0.7,16-17.9,16-29.7
				C39.3,15.4,31.6,7.7,22.2,7.7z M22.2,33.4c-4.8,0-8.6-3.9-8.6-8.6s3.9-8.6,8.6-8.6s8.6,3.9,8.6,8.6S26.9,33.4,22.2,33.4z"/>
		</g>
	</g>
	<g>
		<g>
			<path class="st0" d="M87.8,55c-9.4,0-17.1,7.7-17.1,17.1c0,11.7,15.3,28.9,16,29.7c0.6,0.7,1.7,0.7,2.3,0
				c0.7-0.7,16-17.9,16-29.7C105,62.7,97.3,55,87.8,55z M87.8,80.8c-4.8,0-8.6-3.9-8.6-8.6c0-4.8,3.9-8.6,8.6-8.6
				c4.8,0,8.6,3.9,8.6,8.6C96.5,76.9,92.6,80.8,87.8,80.8z"/>
		</g>
	</g>
	<g>
		<g>
			<path class="st0" d="M54.4,52.7c-4.3,0-7.8,3.5-7.8,7.8c0,5.3,7,13.2,7.3,13.5s0.8,0.3,1,0c0.3-0.3,7.3-8.2,7.3-13.5
				C62.2,56.2,58.7,52.7,54.4,52.7z M54.4,64.5c-2.2,0-3.9-1.8-3.9-3.9s1.8-3.9,3.9-3.9s3.9,1.8,3.9,3.9S56.6,64.5,54.4,64.5z"/>
		</g>
	</g>
	<g>
		<g>
			<path class="st0" d="M23.3,54.1h-2c0-1,0.1-1.6,0.1-1.7l2,0.3C23.4,52.8,23.3,53.3,23.3,54.1z"/>
			<path class="st0" d="M83.9,98c-0.4-0.9-0.9-1.8-1.4-2.7l1.7-1c0.5,0.9,1,1.8,1.5,2.8L83.9,98z M80.9,92.8
				c-0.6-0.8-1.1-1.7-1.7-2.5l1.6-1.2c0.6,0.8,1.2,1.7,1.8,2.6L80.9,92.8z M77.3,87.9c-0.7-0.8-1.3-1.5-2-2.2l1.4-1.4
				c0.7,0.7,1.4,1.5,2.1,2.3L77.3,87.9z M73.1,83.7c-0.8-0.7-1.5-1.3-2.3-1.9l1.2-1.6c0.8,0.6,1.7,1.3,2.5,2L73.1,83.7z M68.3,80.1
				c-0.9-0.5-1.7-1-2.6-1.4l0.9-1.8c0.9,0.5,1.9,1,2.8,1.5L68.3,80.1z M62.9,77.5c-0.9-0.3-1.9-0.7-2.8-0.9l0.5-1.9c1,0.3,2,0.6,3,1
				L62.9,77.5z M42.1,76.5l-0.1-2c1,0,2-0.1,3-0.2l0.2,2C44.2,76.4,43.1,76.4,42.1,76.5z M38.9,76.4c-1.1-0.1-2.2-0.2-3.2-0.4l0.4-2
				c0.9,0.2,1.9,0.3,2.9,0.4L38.9,76.4z M57.2,75.9c-1-0.2-2-0.3-3-0.3l0.1-2c1.1,0.1,2.1,0.2,3.2,0.3L57.2,75.9z M48.3,75.8l-0.2-2
				c1-0.1,2.1-0.2,3.2-0.2l0.1,2C50.3,75.6,49.3,75.7,48.3,75.8z M32.6,75.2c-1-0.4-2-0.8-2.9-1.4l1-1.7c0.8,0.5,1.7,0.9,2.6,1.2
				L32.6,75.2z M27.1,71.9c-0.8-0.7-1.5-1.6-2.2-2.5l1.6-1.2c0.6,0.8,1.2,1.5,1.9,2.2L27.1,71.9z M23.3,66.6c-0.4-0.9-0.8-2-1.1-3
				l1.9-0.5c0.3,1,0.6,1.9,1,2.7L23.3,66.6z M21.5,60.4c-0.2-1-0.3-2.1-0.3-3.2l2-0.1c0,1,0.1,2,0.3,3L21.5,60.4z"/>
			<path class="st0" d="M85.8,102.2c0,0-0.2-0.5-0.6-1.4L87,100c0.4,0.9,0.6,1.4,0.6,1.4L85.8,102.2z"/>
		</g>
	</g>
</g>
<text transform="matrix(1 0 0 1 768 384)" style="font-family:'ArialMT'; font-size:12px;">#337ab7</text>
</svg>
