<?xml version="1.0" encoding="utf-8"?>
<!-- Generator: Adobe Illustrator 22.1.0, SVG Export Plug-In . SVG Version: 6.00 Build 0)  -->
<svg version="1.1" id="Layer_1" xmlns="http://www.w3.org/2000/svg" xmlns:xlink="http://www.w3.org/1999/xlink" x="0px" y="0px"
	 viewBox="0 0 110 110" style="enable-background:new 0 0 110 110;" xml:space="preserve">
<style type="text/css">
	.st0{fill:#E06119;}
</style>
<g>
	<path class="st0" d="M69.4,69.5c-0.9,0-1.5,0.7-1.5,1.5c0,0.9,0.7,1.5,1.5,1.5c0.9,0,1.6-0.7,1.6-1.5S70.3,69.5,69.4,69.5z"/>
	<path class="st0" d="M55,22.6c-18.6,0-33.7,15.1-33.7,33.7S36.4,90,55,90s33.7-15.1,33.7-33.7S73.6,22.6,55,22.6z M71.9,73.2
		c-0.8,0.8-1.8,1.2-2.9,1.2c-1,0-2.1-0.4-2.9-1.2l-20-20l0,0c-3,1-6.4,0.3-8.7-2.1c-2.3-2.3-3-5.4-2.2-8.3l4.9,4.9l4.8-1.3l1.3-4.8
		l-4.9-4.9c2.9-0.8,6.1,0,8.3,2.2c2.3,2.3,3,5.5,2.2,8.4L72,67.4C73.5,69.1,73.5,71.7,71.9,73.2z"/>
</g>
<g>
	<path class="st0" d="M94.4,20.1h-4.3v-5.2c0-0.7-0.4-1.1-1.1-1.1s-1.1,0.4-1.1,1.1v7.5h6.6c0.7,0,1.1-0.4,1.1-1.1
		C95.5,20.5,95,20.1,94.4,20.1z"/>
	<path class="st0" d="M89.2,9C82.4,9,77,14.4,77,21.2c0,6.6,5.4,12.2,12.2,12.2c6.8,0,12.2-5.4,12.2-12.2S96,9,89.2,9z M89.2,30.9
		c-5.4,0-9.7-4.3-9.7-9.7s4.3-9.7,9.7-9.7c5.4,0,9.7,4.3,9.7,9.7C98.9,26.6,94.6,30.9,89.2,30.9z"/>
</g>
</svg>
