<?xml version="1.0" encoding="utf-8"?>
<!-- Generator: Adobe Illustrator 22.1.0, SVG Export Plug-In . SVG Version: 6.00 Build 0)  -->
<svg version="1.1" id="Layer_1" xmlns="http://www.w3.org/2000/svg" xmlns:xlink="http://www.w3.org/1999/xlink" x="0px" y="0px"
	 viewBox="0 0 110 110" style="enable-background:new 0 0 110 110;" xml:space="preserve">
<style type="text/css">
	.st0{fill:#E06119;}
</style>
<g>
	<path class="st0" d="M70.4,68.5c-0.9,0-1.5,0.7-1.5,1.5c0,0.9,0.7,1.5,1.5,1.5c0.9,0,1.6-0.7,1.6-1.5S71.3,68.5,70.4,68.5z"/>
	<path class="st0" d="M56,21.6c-18.6,0-33.7,15.1-33.7,33.7S37.4,89,56,89s33.7-15.1,33.7-33.7S74.6,21.6,56,21.6z M45.3,67.9
		L43.6,70l-5.5,3.5l-0.9-0.9l3.5-5.5l2.1-1.7l0.4,0.4l7-7l1.7,1.7l-7,7L45.3,67.9z M72.9,72.2c-0.8,0.8-1.8,1.2-2.9,1.2
		c-1,0-2.1-0.4-2.9-1.2l-20-20l0,0c-3,1-6.4,0.3-8.7-2.1c-2.3-2.3-3-5.4-2.2-8.3l4.9,4.9l4.8-1.3l1.3-4.8l-4.9-4.9
		c2.9-0.8,6.1,0,8.3,2.2c2.3,2.3,3,5.5,2.2,8.4L73,66.4C74.5,68.1,74.5,70.7,72.9,72.2z M65.2,51.7c-1-0.1-2,0.1-2.8,0.7l-4.1-4
		c0.6-0.8,0.8-1.8,0.7-2.8l11-11l6.2,6.2L65.2,51.7z"/>
</g>
</svg>
