<?xml version="1.0" encoding="utf-8"?>
<!-- Generator: Adobe Illustrator 22.1.0, SVG Export Plug-In . SVG Version: 6.00 Build 0)  -->
<svg version="1.1" id="Layer_1" xmlns="http://www.w3.org/2000/svg" xmlns:xlink="http://www.w3.org/1999/xlink" x="0px" y="0px"
	 viewBox="0 0 110 110" style="enable-background:new 0 0 110 110;" xml:space="preserve">
<style type="text/css">
	.st0{fill:#E06119;}
</style>
<g>
	<g>
		<path class="st0" d="M67.4,48.7c0.1-0.1,0.2-0.1,0.3-0.2c-0.6-1.3-1.1-2.3-1.6-2.8c-3.5-2.5-14.4-2.5-18.3,0
			c-0.5,0.3-1.2,1.5-1.9,3l0,0c0.5,0.3,1,0.8,1.4,1.6h18.8C66.5,49.7,66.9,49.1,67.4,48.7z"/>
		<path class="st0" d="M67.2,55.6c-1.3,0-2.7,1.3-2.7,2.7c0,1.3,1.3,2.7,2.7,2.7c1.3,0,2.7-1.3,2.7-2.7
			C69.9,56.9,68.6,55.6,67.2,55.6z"/>
		<path class="st0" d="M45.9,55.6c-1.3,0-2.7,1.3-2.7,2.7c0,1.3,1.3,2.7,2.7,2.7c1.3,0,2.7-1.3,2.7-2.7
			C48.6,56.9,47.2,55.6,45.9,55.6z"/>
		<path class="st0" d="M37.8,52.9l-0.7-2.5c0.7-0.4,1.1-0.7,1.1-1.1c0.1-0.1,0.1-0.1,0.1-0.1c-2.3,0.1-4.6,0.5-5.8,1.3
			c-0.5,0.2-1.2,1.7-1.7,3.2h9.1l0,0h-1.1C38.5,53.6,38.2,53.2,37.8,52.9z"/>
		<path class="st0" d="M31.5,57c-1,0-1.9,1-1.9,1.9c0,1,0.7,1.9,1.9,1.9c1,0,1.9-1,1.9-1.9C33.4,57.9,32.5,57,31.5,57z"/>
		<path class="st0" d="M68.5,50.4L68.5,50.4L68.5,50.4C68.6,50.4,68.6,50.4,68.5,50.4z"/>
		<path class="st0" d="M56,21c-20,0-36.3,16.3-36.3,36.3S36,93.6,56,93.6c20.1,0,36.3-16.3,36.3-36.3S76.1,21,56,21z M85.7,55.2H85
			c0.7,0.7,1.2,1.9,1.2,2.8c0,1.2-0.5,2.3-1.4,3v2.3c0,0.5-0.5,0.9-0.9,0.9h-2.3c-0.5,0-0.9-0.5-0.9-0.9v-0.9h-8.2v3.1
			c0,0.7-0.7,1.4-1.4,1.4h-3.5c-0.7,0-1.4-0.7-1.4-1.4v-0.8H65c-0.4,0-0.7-0.3-0.9-0.6H49.3c-0.1,0.4-0.5,0.8-0.9,0.8H47v1.3
			c0,0.7-0.7,1.4-1.4,1.4h-3.5c-0.7,0-1.4-0.7-1.4-1.4V63H32v1.5c0,0.5-0.5,1-1,1h-2.4c-0.5,0-1-0.5-1-1v-2.4
			c-1-0.7-1.5-1.9-1.5-3.4c0-1,0.2-2.2,1-2.9h-0.7c-0.2,0-0.5-0.2-0.7-0.5l-0.5-1.7c0.5-0.2,0.7-0.5,0.7-0.7
			c0.2-0.2,0.2-0.2,0.5-0.2h2.4c0.7-1.7,1.5-3.1,2.4-3.8c2.4-1.7,7.9-2.1,11.8-1.2c0.9-1.9,1.8-3.4,2.9-4.3c4.6-3.2,16.9-3.2,21.5,0
			c1.1,0.6,2.1,2.3,2.9,4.2c3.7-0.8,8.9-0.4,11.2,1.2c0.9,0.5,1.6,2.1,2.3,3.7h2.3c0.2,0,0.5,0,0.5,0.2c0.2,0.2,0.2,0.2,0.2,0.5
			l-0.5,1.6C86.4,55,86.2,55.2,85.7,55.2z"/>
		<path class="st0" d="M81.6,56.6c-0.9,0-1.9,0.9-1.9,1.9c0,0.9,0.9,1.9,1.9,1.9s1.9-0.9,1.9-1.9S82.5,56.6,81.6,56.6z"/>
		<path class="st0" d="M80.7,50.3c-1.1-0.8-3.3-1.2-5.5-1.2c0,0.1,0.1,0.1,0.1,0.2c0.4,0.4,0.4,0.4,0.4,0.7L75,52.4
			c0,0.4-0.4,0.7-1.1,0.7h-1.1c0.1,0.1,0.1,0.1,0.2,0.2h9.4C81.6,52,81.1,50.8,80.7,50.3z"/>
	</g>
	<path class="st0" d="M45.6,68.2h-3.5c-1,0-1.9-0.9-1.9-1.9V63c-1.4-1.2-2.1-2.9-2.1-5.1c0-1.1,0.2-2.6,0.9-3.7h-0.1
		c-0.6,0-1-0.4-1.5-0.8l-0.1-0.1l-0.8-3l0.3-0.2c0.6-0.3,0.8-0.5,0.8-0.7v-0.2l0.1-0.1c0.4-0.5,0.5-0.6,1.1-0.6H42
		c1.1-2.5,2.1-4.5,3.5-5.5c4.7-3.3,17.3-3.3,22.1,0c1.4,0.7,2.4,2.9,3.5,5.5h3.2c0.7,0,1.1,0.2,1.2,0.7c0.3,0.3,0.4,0.5,0.4,0.9v0.1
		l-0.7,2.4c-0.1,0.6-0.7,1.1-1.6,1.1l0,0c0.8,1.1,1.2,2.5,1.2,3.7c0,1.9-0.8,3.7-2.1,4.8v3.3c0,1-0.9,1.9-1.9,1.9h-3.5
		c-1,0-1.9-0.9-1.9-1.9v-0.9h-18v1.6C47.5,67.3,46.6,68.2,45.6,68.2z M38.2,52.7c0.3,0.3,0.5,0.5,0.7,0.5h2.3l-0.9,0.9
		C39.4,55,39,56.8,39,57.9c0,2,0.7,3.5,1.9,4.5l0.2,0.2v3.7c0,0.4,0.5,0.9,0.9,0.9h3.5c0.4,0,0.9-0.5,0.9-0.9v-2.6h20v1.9
		c0,0.4,0.5,0.9,0.9,0.9h3.5c0.4,0,0.9-0.5,0.9-0.9v-3.7l0.2-0.2c1.2-0.9,1.9-2.5,1.9-4.2c0-1.3-0.7-2.9-1.7-3.8l-0.9-0.9h2.3
		c0.4,0,0.6-0.2,0.6-0.2v-0.1L75,50l0,0c0,0-0.1-0.1-0.3-0.2l-0.1-0.1v-0.1c-0.1,0-0.1,0-0.2,0h-3.8l-0.1-0.3
		c-0.8-1.9-2-4.7-3.3-5.3c-4.5-3.1-16.6-3.1-21,0c-1.3,0.9-2.3,3-3.3,5.4l-0.1,0.3H39c-0.1,0-0.1,0-0.2,0c0,0,0,0,0,0.1
		c-0.1,0.5-0.5,0.8-1,1.2L38.2,52.7z"/>
</g>
</svg>
