<?xml version="1.0" encoding="utf-8"?>
<!-- Generator: Adobe Illustrator 22.1.0, SVG Export Plug-In . SVG Version: 6.00 Build 0)  -->
<svg version="1.1" id="Layer_1" xmlns="http://www.w3.org/2000/svg" xmlns:xlink="http://www.w3.org/1999/xlink" x="0px" y="0px"
	 viewBox="0 0 110 110" style="enable-background:new 0 0 110 110;" xml:space="preserve">
<style type="text/css">
	.st0{fill:#E06119;}
</style>
<path class="st0" d="M70.5,15.9h-41c-2.4,0-4.5,2-4.5,4.5v69.3c0,2.4,2,4.5,4.5,4.5h51.1c2.4,0,4.5-2,4.5-4.5V30L70.5,15.9z
	 M72.7,44.5c0,0.2,0,0.7-0.5,1.2l-2.1,1.2l1.2,0.7c0.2,0.2,0.2,0.2,0.5,0.5c0.2,0.2,0.2,0.7,0,1c0,0.2-0.5,0.7-1.2,0.7h-0.5
	l-2.6-1.7l-1.2,0.7l4.5,2.6c0.2,0.2,1,1,0.5,1.4c0,0.2-0.5,0.7-1.2,0.7h-0.5l-5.7-3.3L62.4,51v5.7l1.9,1.2l5.5-3.1H70
	c0.5,0,1,0,1.4,0.5l0.2,0.2v0.2c0,0.2,0,0.7-0.5,1.2L67,59.3l1.2,0.7l2.4-1.4h0.2c0.5,0,1,0,1.4,0.5l0.2,0.2v0.2
	c0,0.2,0,0.7-0.5,1.2h-0.2L70,61.2l1.7,1c0.2,0,0.5,0.2,0.5,0.7s0,1-0.5,1.2c-0.2,0.5-1,0.5-1.2,0.5H70l-1.9-1v1.2
	c0,0.7-0.5,1.2-1.2,1.2s-1.2-0.5-1.2-1.2v-3.1L64.3,61v5.2c0,0.7-0.5,1.2-1.2,1.2s-1.2-0.5-1.2-1.2v-6.7L61.3,59L56,62.1v1.7
	l5.2,3.1c0.2,0.2,0.2,0.2,0.5,0.7c0.2,0.5,0,0.7-0.2,1.2C61.3,69,61.3,69,61,69.3c-0.5,0.2-0.7,0.2-1.2,0l-4-2.4v1.4l2.6,1.4
	c0.2,0.2,0.2,0.2,0.5,0.5s0.2,0.7,0,1c0,0.2-0.5,0.7-1.2,0.7H57l-1.2-0.7v3.1c0,0.7-0.5,1.2-1.2,1.2s-1.2-0.5-1.2-1.2v-1.9l-1.2,0.7
	c-0.5,0-1,0-1.4-0.5l-0.2-0.2v-0.2c0-0.2,0-0.7,0.5-1.2l2.4-1.4v-1.4l-4.3,2.4h-0.5c-1,0-1.2-0.7-1.2-1c0-0.2,0-0.7,0.5-1.2l5.5-3.1
	v-2.1l-4.8-2.6l-1.2,0.2v6.7c0,0.7-0.5,1.2-1.2,1.2s-1.2-0.5-1.2-1.2v-5.2L43.7,63v2.9c0,0.7-0.5,1.2-1.2,1.2s-1.2-0.5-1.2-1.2v-1.2
	l-2.1,1.2h-0.5c-1,0-1.2-0.7-1.2-1s0-0.7,0.5-1.2l1.9-1.2l-1-1c-0.7-0.7-0.7-1.2-0.2-1.7c0.2-0.2,0.5-0.5,1-0.5c0.2,0,0.5,0,0.7,0.2
	l2.1,1.2l1.2-0.7l-4.3-2.4c-0.7-0.7-0.7-1.2-0.2-1.7c0.2-0.2,0.2-0.2,0.5-0.5c0.5-0.2,0.7-0.2,1.2,0l5.2,3.1l1.9-1.2v-5.7L46.5,51
	l-5.7,3.3h-0.5c-1,0-1.2-0.7-1.2-1c0-0.2,0-0.7,0.5-1.2l4.5-2.6l-1.4-0.7L40.3,50h-0.5c-1,0-1.2-0.7-1.2-1c0-0.2,0-0.7,0.5-1.2
	l1.2-0.7L38,46c-0.2-0.2-0.2-0.2-0.5-0.5c-0.2-0.5-0.2-1,0.2-1.2c0.2-0.2,0.2-0.2,0.5-0.5c0.5-0.2,0.7-0.2,1.2,0.2l1.9,1.2v-1
	c0-0.7,0.5-1.2,1.2-1.2s1.2,0.5,1.2,1.2v2.4l1.4,0.7v-4.8c0-0.7,0.5-1.2,1.2-1.2s1.2,0.5,1.2,1.2v6.4l1.4,1l4.5-2.6v-2.1l-5.2-3.1
	c-0.2-0.2-0.2-0.2-0.5-0.7c-0.2-0.5,0-0.7,0.2-1.2c0.7-0.7,1.2-0.7,1.7-0.2l4,2.4V41L51,39.6c-0.7-0.7-0.7-1.2-0.2-1.7
	c0.2-0.2,0.5-0.5,1-0.5c0.2,0,0.5,0,0.7,0.2l1,0.5v-2.4c0-0.7,0.5-1.2,1.2-1.2s1.2,0.5,1.2,1.2v2.4l1.2-0.7h0.2c1,0,1.4,0.2,1.4,1
	c0,0.2,0,0.7-0.5,1.2L55.8,41v1l4.3-2.4h0.2c0.5,0,1,0,1.4,0.5l0.2,0.2v0.2c0,0.2,0,0.7-0.5,1.2l-5.2,3.1v2.1l4.8,2.6l1.4-1v-6.4
	c0-0.7,0.5-1.2,1.2-1.2s1.2,0.5,1.2,1.2v4.8l1.4-0.7v-2.4c0-0.7,0.5-1.2,1.2-1.2s1.2,0.5,1.2,1.2v1l2.1-1.2H71c0.5,0,1,0,1.4,0.5
	l0.2,0.2L72.7,44.5L72.7,44.5z"/>
</svg>
