<?xml version="1.0" encoding="utf-8"?>
<!-- Generator: Adobe Illustrator 22.1.0, SVG Export Plug-In . SVG Version: 6.00 Build 0)  -->
<svg version="1.1" id="Layer_1" xmlns="http://www.w3.org/2000/svg" xmlns:xlink="http://www.w3.org/1999/xlink" x="0px" y="0px"
	 viewBox="0 0 110 110" style="enable-background:new 0 0 110 110;" xml:space="preserve">
<style type="text/css">
	.st0{fill:#E06119;}
</style>
<g>
	<path class="st0" d="M54.3,45.7c0-0.6,0.2-1.4,0.7-1.9c0.4-0.4,1.1-0.6,1.5-0.6s1.3,0.2,1.5,0.6c0.4,0.4,0.7,1.2,0.7,1.9v13.6
		c0,0.6-0.2,1.4-0.7,1.9c-0.2,0.6-0.9,0.8-1.5,0.8c-0.7,0-1.3-0.2-1.5-0.6c-0.4-0.4-0.7-1.2-0.7-1.9V45.7z M43.1,54.5
		c1.1-2.1,2.4-3.8,4.3-5.1c0.4-0.4,1.1-0.4,1.8-0.4s1.1,0.2,1.5,0.8c0.4,0.4,0.4,1,0.4,1.7c0,0.6-0.4,1-0.9,1.5
		c-1.1,0.8-2.2,2.1-2.9,3.4c-0.7,1.3-1.1,2.8-1.1,4.2s0.4,2.5,0.9,3.8c0.7,1,1.3,2.1,2.2,3s1.8,1.7,3.2,2.1c1.3,0.6,2.6,0.8,3.8,0.8
		c1.5,0,2.6-0.4,3.8-0.8c1.1-0.6,2.2-1.3,3.2-2.1c0.9-0.8,1.8-1.7,2.2-3c0.7-1.3,0.9-2.5,0.9-3.8c0-1.5-0.4-3-1.1-4.2
		s-1.5-2.5-2.9-3.4c-0.4-0.2-0.9-0.8-0.9-1.5c-0.2-0.6,0-1.3,0.4-1.7c0.2-0.4,0.9-0.8,1.5-0.8c0.7-0.2,1.3,0,1.8,0.4
		c2,1.5,3.4,3.2,4.3,5.1c1.1,1.9,1.8,4.2,1.5,6.1c0,1.9-0.2,3.8-1.1,5.5c-0.9,1.9-2,3.4-3.4,4.7c-1.3,1.5-3.2,2.3-4.7,3.2
		c-1.8,0.6-3.6,1-5.6,1s-3.8-0.2-5.6-1c-2-0.8-3.6-1.9-4.7-3.2c-1.5-1.3-2.4-3-3.4-4.7c-0.7-1.7-1.1-3.6-1.1-5.5
		C41.8,58.6,42.3,56.4,43.1,54.5z M72,19.2H31c-2.4,0-4.5,2-4.5,4.5V93c0,2.4,2,4.5,4.5,4.5h51.1c2.4,0,4.5-2,4.5-4.5V33.4L72,19.2z
		"/>
</g>
</svg>
