<?xml version="1.0" encoding="utf-8"?>
<!-- Generator: Adobe Illustrator 22.1.0, SVG Export Plug-In . SVG Version: 6.00 Build 0)  -->
<svg version="1.1" id="Layer_1" xmlns="http://www.w3.org/2000/svg" xmlns:xlink="http://www.w3.org/1999/xlink" x="0px" y="0px"
	 viewBox="0 0 75 75" style="enable-background:new 0 0 75 75;" xml:space="preserve">
<style type="text/css">
	.st0{fill:url(#SVGID_1_);}
	.st1{clip-path:url(#SVGID_3_);}
	.st2{clip-path:url(#SVGID_5_);}
	.st3{fill:url(#SVGID_6_);}
	.st4{fill:url(#SVGID_7_);}
	.st5{opacity:0.25;}
	.st6{fill:#1A171B;}
	.st7{opacity:0.7;clip-path:url(#SVGID_5_);fill:url(#SVGID_8_);}
	.st8{opacity:0.7;clip-path:url(#SVGID_5_);fill:url(#SVGID_9_);}
	.st9{opacity:0.7;clip-path:url(#SVGID_5_);fill:url(#SVGID_10_);}
	.st10{opacity:0.55;clip-path:url(#SVGID_5_);fill:url(#SVGID_11_);}
	.st11{opacity:0.3;clip-path:url(#SVGID_5_);fill:url(#SVGID_12_);}
	.st12{opacity:0.3;clip-path:url(#SVGID_5_);fill:url(#SVGID_13_);}
	.st13{opacity:0.3;clip-path:url(#SVGID_5_);fill:url(#SVGID_14_);}
	.st14{opacity:0.7;clip-path:url(#SVGID_5_);fill:url(#SVGID_15_);}
	.st15{fill-rule:evenodd;clip-rule:evenodd;}
</style>
<g>
	<g>
		<g>
			<linearGradient id="SVGID_1_" gradientUnits="userSpaceOnUse" x1="1.5" y1="37.25" x2="73" y2="37.25">
				<stop  offset="0" style="stop-color:#000000"/>
				<stop  offset="1" style="stop-color:#1A1A1A"/>
			</linearGradient>
			<circle class="st0" cx="37.3" cy="37.3" r="35.8"/>
			<g>
				<defs>
					<circle id="SVGID_2_" cx="37.3" cy="37.3" r="30.6"/>
				</defs>
				<clipPath id="SVGID_3_">
					<use xlink:href="#SVGID_2_"  style="overflow:visible;"/>
				</clipPath>
				<g class="st1">
					<defs>
						<rect id="SVGID_4_" x="6" y="6" width="62.6" height="62.6"/>
					</defs>
					<clipPath id="SVGID_5_">
						<use xlink:href="#SVGID_4_"  style="overflow:visible;"/>
					</clipPath>
					<g class="st2">
						
							<linearGradient id="SVGID_6_" gradientUnits="userSpaceOnUse" x1="27.2497" y1="79.0313" x2="27.2497" y2="16.4688" gradientTransform="matrix(0 1 -1 0 85 10.0003)">
							<stop  offset="0" style="stop-color:#1A171B"/>
							<stop  offset="2.936574e-02" style="stop-color:#282529"/>
							<stop  offset="0.1742" style="stop-color:#676669"/>
							<stop  offset="0.2962" style="stop-color:#959598"/>
							<stop  offset="0.3893" style="stop-color:#B1B2B4"/>
							<stop  offset="0.4424" style="stop-color:#BCBDBF"/>
							<stop  offset="0.5185" style="stop-color:#B7B8BA"/>
							<stop  offset="0.6062" style="stop-color:#AAAAAC"/>
							<stop  offset="0.6998" style="stop-color:#939396"/>
							<stop  offset="0.7975" style="stop-color:#737376"/>
							<stop  offset="0.8983" style="stop-color:#4B494C"/>
							<stop  offset="1" style="stop-color:#1A171B"/>
						</linearGradient>
						<rect x="6" y="6" class="st3" width="62.6" height="62.6"/>
						<linearGradient id="SVGID_7_" gradientUnits="userSpaceOnUse" x1="5.722" y1="36.8831" x2="68.2845" y2="36.8831">
							<stop  offset="0" style="stop-color:#1A171B;stop-opacity:0"/>
							<stop  offset="0.1694" style="stop-color:#686669;stop-opacity:0.2768"/>
							<stop  offset="0.3257" style="stop-color:#A9A8A9;stop-opacity:0.5321"/>
							<stop  offset="0.456" style="stop-color:#D7D7D8;stop-opacity:0.745"/>
							<stop  offset="0.5554" style="stop-color:#F4F4F4;stop-opacity:0.9074"/>
							<stop  offset="0.6121" style="stop-color:#FFFFFF"/>
							<stop  offset="0.656" style="stop-color:#FAFAFA;stop-opacity:0.887"/>
							<stop  offset="0.7065" style="stop-color:#ECECED;stop-opacity:0.7566"/>
							<stop  offset="0.7605" style="stop-color:#D6D5D6;stop-opacity:0.6174"/>
							<stop  offset="0.8169" style="stop-color:#B6B5B6;stop-opacity:0.4721"/>
							<stop  offset="0.8751" style="stop-color:#8C8B8D;stop-opacity:0.3221"/>
							<stop  offset="0.9348" style="stop-color:#5A585B;stop-opacity:0.1681"/>
							<stop  offset="0.9948" style="stop-color:#1F1D20;stop-opacity:1.352042e-02"/>
							<stop  offset="1" style="stop-color:#1A171B;stop-opacity:0"/>
						</linearGradient>
						<rect x="5.7" y="5.6" class="st4" width="62.6" height="62.6"/>
						<g class="st5">
							<g>
								<path class="st6" d="M17,67.7c3.1,0,6.1,0,9.1,0c0.3,0,0.5,0,0.8,0c2.3,0.1,4.5,0,6.7,0c0.1,0,0.3,0,0.4,0
									c0.3,0,0.6,0,0.9,0h0.3h0.5h0.5c0.7,0,1.4,0.1,2.1,0c1.7-0.1,3.3-0.1,5.1,0c0.2,0,0.4,0,0.6,0c0.6,0,1.2,0,1.8,0
									c0.1,0,0.2,0,0.3,0h3.4h0.4c0.5,0,1,0,1.5,0c0.1,0,0.2,0,0.3,0c0.7,0,1.5,0,2.3,0c0.1,0,0.2,0,0.3,0c0.9,0,1.7,0,2.6,0"/>
								<path class="st6" d="M16.4,67.4c3.4-0.1,6.8,0,10.2,0c0.3,0,0.6,0,0.8,0c2.2,0.1,4.3-0.1,6.6,0h0.6h1.2c0.3,0,0.5,0,0.8,0
									c2,0.2,4.1-0.1,6.1,0c0.1,0,0.3,0,0.4,0h6.7c0.1,0,0.3,0,0.4,0c2.8,0,5.6,0.1,8.4,0"/>
								<path class="st6" d="M5.6,67.2c0.2,0,0.4,0,0.6,0c0.2,0,0.4,0,0.5,0c0.9,0,1.8,0.1,2.6,0h0.5h3.2h0.6
									c1.5,0.1,3.1-0.1,4.5-0.1c2.8,0,5.7,0.1,8.5,0.1c0.2,0,0.5,0,0.8,0c2-0.1,4,0,6,0c0.2,0,0.5,0,0.7,0h2.8c0.3,0,0.5,0,0.7,0
									c1.6,0,3.2-0.1,4.8,0h0.8h5.4c0.2,0,0.5,0,0.7,0c3.1,0,6,0.2,9.1,0c0.2,0,0.5,0,0.7,0c3.5,0,7.1,0,10.6,0"/>
								<path class="st6" d="M7.5,66.9h6H14c1.5,0,3.1-0.1,4.7-0.1c1.2,0,2.5,0,3.7,0c0.3,0,0.5,0,0.8,0c1.2,0,2.6,0,3.8,0
									c0.3,0,0.5,0,0.8,0c0.5,0,1,0,1.5,0h0.5h8c0.3,0,0.5,0,0.8,0c0.8,0,1.6,0,2.4,0h0.8h7c0.2,0,0.5,0,0.7,0
									c2.8,0,5.6,0.1,8.4,0c0.2,0,0.5,0,0.7,0c2.6,0,5.3,0,7.9,0"/>
								<path class="st6" d="M17.3,66.7c1.6-0.1,3.2-0.1,4.8-0.1c0.2,0,0.5,0,0.7,0c1.5,0,3.3,0,4.8,0.1c0.2,0,0.5,0,0.7,0
									c0.2,0,0.4,0,0.6,0h0.5h3.8c0.3,0,0.5,0,0.8,0c0.8,0,1.6,0,2.4,0c0.3,0,0.5,0,0.8,0h11.8c0.1,0,0.3,0,0.4,0
									c2.2,0,4.3,0.1,6.5,0"/>
								<path class="st6" d="M1.2,66.5h8.7h0.5c1.7,0,3.3,0,5,0c0.2,0,0.5,0,0.7,0c1.6-0.1,3.2-0.1,4.8-0.1c0.2,0,0.5,0,0.7,0
									c2.1,0,4.1,0.1,6.3,0.1c0.2,0,0.5,0,0.7,0h0.8h17.6h0.5c0.3,0,0.5,0,0.8,0c0.3,0,0.5,0,0.8,0c2.5,0,5.2,0,7.7,0
									c0.3,0,0.5,0,0.8,0c0.1,0,0.3,0,0.4,0h0.4c1.2,0.1,2.4-0.1,3.6,0c0.1,0,0.3,0,0.4,0c3.5,0,6.9-0.2,10.4,0c0.3,0,0.4,0,0.4,0
									"/>
								<path class="st6" d="M9.1,66.2h1.2h0.4c1.5,0,2.9,0,4.4,0c0.2,0,0.5,0,0.7,0c1.6-0.1,3.3-0.1,5,0c0.2,0,0.5,0,0.7,0
									c2.4,0,4.7,0,7.1,0h0.7h2h0.3c0.8,0,1.6,0,2.4,0c0.1,0,0.2,0,0.2,0c0.2,0,0.5,0,0.8,0c0.1,0,0.2,0,0.3,0h11.4h0.5
									c0.8,0,1.5,0,2.3,0c0.3,0,0.5,0,0.8,0c1.7,0,3.6,0,5.4,0c0.3,0,0.5,0,0.8,0c0.5,0,0.9,0,1.4,0c0.2,0,0.3,0,0.5,0
									c1.4,0.2,2.8-0.2,4.1,0c0.2,0,0.3,0,0.5,0c0.9,0,1.8,0,2.8,0"/>
								<path class="st6" d="M5.6,66c0.7,0,1.4-0.1,2,0c0.1,0,0.2,0,0.3,0h0.3c0.1,0,0.1,0,0.2,0c0.4,0,0.8,0,1.2,0
									c0.2,0,0.4,0,0.6,0c1.5,0,2.9,0,4.4,0c0.2,0,0.5,0,0.7,0c2,0,3.9,0,5.8,0c0.2,0,0.5,0,0.7,0c2.1-0.1,4.4,0.1,6.6,0
									c0.2,0,0.4,0,0.6,0h2.2h0.3c1,0.1,1.8,0,2.7,0c0.1,0,0.2,0,0.3,0c0.3,0,0.7,0,1.1,0c0.1,0,0.2,0,0.3,0h10.5h0.5
									c0.8,0,1.5,0,2.3,0c0.3,0,0.5,0,0.8,0c1.5,0,3.1,0,4.6,0c0.3,0,0.5,0,0.8,0c0.9,0,1.9,0,2.8,0c0.2,0,0.3,0,0.5,0
									c0.8,0.1,1.7,0,2.6,0c0.2,0,0.4,0,0.5,0c2.3,0.1,4.6-0.1,6.8-0.1"/>
								<path class="st6" d="M12.4,65.7c0.8,0,1.7,0,2.5,0c0.2,0,0.4,0,0.6,0c1.8,0.1,3.5,0.1,5.3,0.1c0.3,0,0.5,0,0.8,0
									c2.3,0,4.4,0,6.6,0c0.2,0,0.3,0,0.5,0c0.7,0,1.5,0,2.2,0h0.6c0.1,0,0.2,0,0.3,0c0.7,0.1,1.5,0,2.2,0c0.1,0,0.2,0,0.2,0
									c0.4,0,0.8,0,1.2,0h0.2h14.3c0.6,0,1.3,0,1.9,0c0.6,0,1.2,0,1.8,0c0.6,0,1.1,0,1.7,0h3c0.2,0,0.4,0,0.7,0
									c1,0.1,2.1-0.1,3.1,0c0.1,0,0.3,0,0.4,0h1"/>
								<path class="st6" d="M2.3,65.5c0.5,0,1,0,1.6-0.1c0.1,0,0.3,0,0.4,0c0.3,0.1,0.7,0.1,0.9,0.1c1.1,0,2-0.2,3.1,0
									c0.1,0,0.2,0,0.4,0c2,0,4-0.1,6.1-0.1c0.3,0,0.5,0,0.8,0c2.1,0.1,4.3,0.1,6.4,0.1c0.3,0,0.5,0,0.8,0c1.9,0.1,3.8,0.1,5.6,0
									c0.2,0,0.4,0,0.6,0c0.8,0,1.7,0,2.5,0c0.2,0,0.4,0,0.5,0h27.2c0.2,0,0.3,0,0.5,0c0.5,0,0.9,0,1.4,0c0.2,0,0.5,0,0.7,0
									c3.9,0,7.8,0.2,11.8,0"/>
								<path class="st6" d="M5.8,65.3c0.5-0.1,1.1-0.1,1.7-0.1c0.3,0,0.6,0,0.8,0c2.1,0,4.3,0,6.4,0c0.3,0,0.5,0,0.8,0
									c2.2,0.1,4.3,0.1,6.5,0c0.2,0,0.5,0,0.7,0c1.7,0,3.5,0,5.2,0c0.2,0,0.5,0,0.7,0c1.2,0,2.5,0,3.7,0h0.8H52h0.5
									c1.8,0,3.5,0,5.3,0c0.3,0,0.5,0,0.8,0c0.9,0,1.8,0,2.6,0c0.2,0,0.4,0,0.7,0c2.1,0,3.9,0.1,5.9,0"/>
								<path class="st6" d="M14.2,65c0.5,0,1,0,1.5,0c0.3,0,0.5,0,0.8,0c1.6,0,3,0.1,4.6,0c0.3,0,0.5,0,0.8,0c0.8,0,1.6,0,2.3,0
									c0.3,0,0.5,0,0.8,0c0.3,0,0.5,0,0.8,0c0.3,0,0.5,0,0.8,0c2.1,0,4.1,0,6.1,0h0.8h18.1H52c2.4,0,4.9,0,7.3,0"/>
								<path class="st6" d="M8.6,64.7c2.6,0,5.3,0,7.9,0c0.3,0,0.5,0,0.8,0c1,0,2.1,0,3.2,0c0.3,0,0.5,0,0.8,0c3.7,0,7.4,0,11.1,0
									h0.8h16.6h0.5c5.1,0,10.3,0,15.3,0"/>
								<path class="st6" d="M9.2,64.5c7.8,0.1,15.6,0,23.4,0h0.8h17.1H51c0.2,0,0.4,0,0.6,0c1,0,2,0,3.1,0c0.2,0,0.4,0,0.6,0
									c0.6,0,1.2,0,1.8,0c0.2,0,0.4,0,0.6,0c2.8,0,5.6,0,8.4,0"/>
								<path class="st6" d="M3.3,64.2H8c0.2,0,0.5,0,0.8,0c7.7,0.1,15.4,0,23.2,0c0.3,0,0.5,0,0.7,0h5.2c0.2,0,0.4,0,0.6,0
									c3.7,0,7.4,0,11.2,0h0.5c1.8,0,3.7,0,5.5,0c0.3,0,0.5,0,0.8,0c0.2,0,0.5,0,0.7,0c4.5,0,8.9,0.2,13.5,0"/>
								<path class="st6" d="M13.8,64c1.2,0,2.3,0,3.4,0c0.1,0,0.3,0,0.4,0h0.5c0.2,0,0.3,0,0.5,0c4.2,0,8.3,0,12.6,0
									c0.2,0,0.5,0,0.7,0h5h0.6c3.9,0,7.7,0,11.5,0c0.2,0,0.5,0,0.7,0c2.1,0,4.2,0,6.4,0h0.7c1.2,0,2.4,0,3.6,0"/>
								<path class="st6" d="M8.5,63.8c0.4,0,0.8,0,1.1,0c0.1,0,0.1,0,0.2,0h12.4h0.3h0.3c0.6,0,1.2,0,1.8,0c0.2,0,0.4,0,0.6,0
									c1.6,0,3.3,0,4.9,0h0.6h6.2c0.2,0,0.4,0,0.6,0c1.3,0,2.5,0,3.8,0c0.3,0,0.5,0,0.8,0c1.7,0,3.5,0,5.2,0c0.4,0,0.9,0,1.3,0
									c3.2,0,6.4,0,9.6,0c0.2,0,0.5,0,0.7,0c2.5,0,4.9,0.1,7.4,0"/>
								<path class="st6" d="M16.4,63.5h6.1h0.4c1.3,0,2.6,0,4,0c0.1,0,0.1,0,0.2,0c0.5,0,1.1,0,1.7,0c0.1,0,0.2,0,0.3,0
									c0.4,0,0.8,0,1.2,0h0.6h3.9c0.1,0,0.2,0,0.3,0c0.4,0,0.8,0,1.2,0h0.3h0.3c0.2,0,0.4,0,0.6,0c0.8,0,1.6,0,2.3,0
									c0.3,0,0.5,0,0.8,0c0.7,0,1.3,0,2,0c0.2,0,0.4,0,0.7,0c0.9,0,1.7,0,2.6,0c0.2,0,0.4,0,0.6,0c0.7,0,1.3,0,2,0
									c0.2,0,0.5,0,0.7,0c2.6-0.1,5.1,0,7.8,0c0.2,0,0.5,0,0.7,0c0.2,0,0.5,0,0.7,0"/>
								<path class="st6" d="M5.1,63.3h2.3c0.1,0,0.2,0,0.2,0c0.6,0,1.4,0,2.1,0h0.2h12.4h0.5c1.2,0,2.3,0,3.5,0c0.1,0,0.2,0,0.3,0
									c0.8,0.2,1.7-0.2,2.5,0c0.1,0,0.2,0,0.3,0c0.1,0,0.2,0,0.3,0h4H34c0.9,0.1,1.8-0.1,2.7,0c0.1,0,0.2,0,0.3,0
									c0.8,0,1.6,0,2.4,0h0.7h0.7c0.2,0,0.5,0,0.7,0c1.3,0,2.6,0,3.9,0c0.4,0,0.9,0,1.3,0c7.5-0.1,14.9,0,22.4,0
									c0.5,0,0.7,0,0.7,0"/>
								<path class="st6" d="M15.5,63h7.7c0.2,0,0.3,0,0.5,0c0.9,0,1.7,0,2.6,0c0.1,0,0.2,0,0.3,0c0.8,0.2,1.5-0.2,2.3,0
									c0.1,0,0.2,0,0.3,0h0.3h4.6c0.1,0,0.2,0,0.3,0c0.8,0,1.6-0.1,2.4,0c0.1,0,0.2,0,0.3,0c0.6,0,1.3,0,1.9,0c0.2,0,0.5,0,0.7,0
									c0.2,0,0.5,0,0.7,0c0.2,0,0.5,0,0.7,0c2.2,0.2,4.2-0.1,6.3,0c0.2,0,0.5,0,0.7,0c0.3,0,0.5,0,0.8,0c2.4-0.1,4.7,0,7.1,0h0.5
									h2.4"/>
								<path class="st6" d="M1.9,62.8h21.5h0.6c1,0,1.9,0,2.9,0c0.1,0,0.2,0,0.3,0c0.5,0,1,0,1.5,0h0.3h5.8c0.1,0,0.2,0,0.3,0
									c0.4,0,0.9,0,1.3,0h0.3h0.3c0.2,0,0.4,0,0.6,0c0.5,0,1,0,1.5,0c0.3,0,0.5,0,0.8,0c0.2,0,0.4,0,0.6,0c0.2,0,0.4,0,0.6,0
									c1.7,0.1,3.6,0,5.3-0.1c0.2,0,0.4,0,0.6,0c7.4,0.1,14.8,0.1,22.2,0c0.3,0,0.5,0,0.8,0h3.4"/>
								<path class="st6" d="M2.8,62.5h33.5h0.6c0.8,0,1.5,0,2.3,0H40h0.7c0.2,0,0.5,0,0.7,0c1.6,0.2,3.3-0.1,4.9-0.1
									c0.4,0,0.8,0,1.2,0.1c7.3,0.1,14.5,0.1,21.9,0h0.5h1.2"/>
								<path class="st6" d="M2,62.3h35.9h0.6c0.2,0,0.4,0,0.7,0c0.2,0,0.4,0,0.7,0c0.3,0,0.5,0,0.8,0c0.2,0,0.5,0,0.7,0
									c1.6,0.1,3.2-0.1,4.8-0.1c0.4,0,0.8,0,1.2,0c7,0.1,14.1,0,21.1,0c0.3,0,0.5,0,0.8,0h3.3"/>
								<path class="st6" d="M6.2,62h33.5h0.6c0.2,0,0.4,0,0.6,0c0.2,0,0.4,0,0.6,0c1.9,0.2,3.9-0.2,6,0c0.1,0,0.3,0,0.4,0
									c0.2,0,0.4,0,0.7,0c3.8,0,7.5,0,11.4,0c0.2,0,0.5,0,0.7,0c0.2,0,0.5,0,0.7,0c2.2,0,4.4,0,6.6,0c0.2,0,0.5,0,0.7,0
									c0.2,0,0.5,0,0.7,0"/>
								<path class="st6" d="M14.6,61.8h4.7c0.2,0,0.5,0,0.7,0c0.9,0,1.9,0,2.9,0c0.1,0,0.3,0,0.5,0h18.2c0.2,0,0.4,0,0.6,0
									c1.6,0.1,3.3-0.2,4.9,0c0.2,0,0.3,0,0.5,0c0.6,0,1.2-0.1,1.8,0h0.3h0.3h0.7c3.2,0,6.3,0,9.5,0"/>
								<path class="st6" d="M16.2,61.5H18c0.1,0,0.2,0,0.3,0c0.1,0,0.3,0,0.4,0c0.1,0,0.3,0,0.4,0c1.6-0.1,3-0.1,4.6,0
									c0.2,0,0.4,0,0.7,0h17.9c0.3,0,0.5,0,0.8,0c0.8,0,1.6,0,2.4,0c0.3,0,0.5,0,0.8,0h0.4c0.8,0.1,1.5-0.1,2.3,0h0.4h0.4h0.5
									c2.5,0,5.1,0,7.6,0"/>
								<path class="st6" d="M4.3,61.3c0.3,0,0.5,0,0.8,0c0.3,0,0.5,0,0.8,0c1.7,0,3.5,0,5.2,0c0.1,0,0.2,0,0.3,0
									c0.8,0.1,1.8-0.1,2.6,0c0.1,0,0.2,0,0.3,0c1,0,2.1,0,3.1,0c0.2,0,0.3,0,0.5,0c0.2,0,0.4,0,0.6,0c0.2,0,0.4,0,0.6,0
									c1.6-0.2,3.3-0.1,4.9,0c0.3,0,0.6,0,0.8,0h0.5H26c1.2,0,2.5,0,3.7,0h0.5h19.2H50c7.2,0,14.6,0,21.8,0"/>
								<path class="st6" d="M8,61.1c1.1,0,2.1,0,3.2,0c0.1,0,0.2,0,0.3,0c0.8,0.1,1.7-0.1,2.6,0c0.1,0,0.2,0,0.3,0
									c0.9,0,1.8,0,2.7,0c0.2,0,0.3,0,0.5,0c0.2,0,0.4,0,0.7,0c2.2-0.1,4.3-0.1,6.5,0c0.2,0,0.4,0,0.6,0c0.3,0,0.5,0,0.8,0
									c1.3,0,2.6,0,3.9,0h0.5h18.9h0.6c0.8,0,1.6,0,2.4,0H53c5.3,0,10.5,0,15.8,0"/>
								<path class="st6" d="M14.9,60.8c0.8,0,1.6,0,2.4,0c0.2,0,0.3,0,0.5,0c0.2,0,0.4,0,0.7,0c2.1-0.1,4.3,0,6.5,0
									c0.2,0,0.5,0,0.7,0c2.1,0,4.3,0,6.4,0h0.6h4.1h0.6c3.9,0,7.8,0,11.6,0c0.3,0,0.5,0,0.8,0c0.3,0,0.5,0,0.8,0
									c0.2,0,0.5,0,0.7,0c3.1,0,6.1,0,9.1,0"/>
								<path class="st6" d="M17,60.6c0.3,0,0.6,0,0.9,0c0.2,0,0.3,0,0.4,0c2.2,0,4.4,0,6.5,0c0.3,0,0.5,0,0.8,0c2,0,4,0,6,0
									c0.2,0,0.3,0,0.5,0c0.5,0,1,0,1.4,0h0.6h2.7h0.5c3.9,0,7.6,0,11.4,0c0.3,0,0.5,0,0.8,0c0.2,0,0.4,0,0.6,0c0.2,0,0.4,0,0.6,0
									c2.2,0,4.3,0,6.5,0"/>
								<path class="st6" d="M16.2,60.3c0.5,0,1,0,1.5,0c0.2,0,0.5,0,0.7,0c2.1,0.1,4.4,0.1,6.5,0h0.7c2.2,0,4.3,0,6.5,0h0.6
									c0.6,0,1.2,0,1.7,0H35h1.6h0.6c4.1,0,8.3,0,12.4,0h0.7c3.2,0,6.2,0,9.5,0"/>
								<path class="st6" d="M12.8,60.1c1.1,0,2.2,0,3.3,0c0.2,0,0.3,0,0.5,0c0.6,0,1.2,0,1.8,0c0.2,0,0.4,0,0.6,0c1.8,0,3.4,0,5,0
									c0.3,0,0.5,0,0.8,0c2.3,0,4.6,0,6.9,0c0.2,0,0.5,0,0.7,0c0.7,0,1.5,0,2.2,0c0.2,0,0.4,0,0.6,0h0.6h0.6c4.5,0,9,0,13.6,0
									c0.2,0,0.5,0,0.7,0c3.5-0.1,6.9,0,10.4,0"/>
								<path class="st6" d="M14.6,59.8c0.2,0,0.3,0,0.5,0c0.2,0,0.3,0,0.5,0c1.2,0.1,2.5-0.1,3.8,0c0.1,0,0.3,0,0.4,0
									c1,0,1.9,0,2.9,0c0.2,0,0.5,0,0.7,0c2.7,0,5.4,0,8,0c0.2,0,0.4,0,0.6,0c1.1,0,2.1,0,3.2,0h0.6c4.7,0,9.4,0,14.1,0
									c0.2,0,0.5,0,0.7,0c0.2,0,0.5,0,0.7,0c0.2,0,0.5,0,0.7,0c2,0,3.9,0,5.9,0c0.2,0,0.5,0,0.7,0c0.2,0,0.5,0,0.7,0"/>
								<path class="st6" d="M4.4,59.6h0.8h0.8h0.8c2.9,0,5.7,0,8.6,0c0.2,0,0.3,0,0.5,0c1.3,0.2,2.5-0.2,3.8,0c0.2,0,0.3,0,0.5,0
									c0.3,0,0.6,0,1,0c0.3,0,0.5,0,0.8,0c2,0,4,0,6.1,0c0.2,0,0.5,0,0.7,0c0.9,0,1.9,0,2.8,0c0.2,0,0.5,0,0.7,0
									c1.2,0,2.4,0,3.6,0h0.6c4.6,0,9.2,0,13.8,0h0.8h0.7c2.3,0,4.6-0.1,6.8,0c0.3,0,0.5,0,0.8,0c1.3,0,2.5,0,3.8,0
									c0.2,0,0.5,0,0.7,0c0.4,0,0.7,0,1.1,0c0.1,0,0.2,0,0.4,0c0.9,0.2,1.8,0,2.6-0.1c0.4,0,0.8,0,1.2,0.1"/>
								<path class="st6" d="M14.8,59.3c0.1,0,0.3,0,0.4,0c0.1,0,0.3,0,0.5,0c1.2,0.2,2.4-0.1,3.6,0c0.2,0,0.3,0,0.5,0
									c1.7,0,3.3,0,5,0c0.2,0,0.5,0,0.7,0c0.2,0,0.5,0,0.7,0c1.3,0,2.6,0,3.9,0c0.2,0,0.4,0,0.6,0c1.5,0,3,0,4.4,0h0.6
									c4.8,0,9.8,0,14.6,0c0.3,0,0.5,0,0.8,0c2.4,0,4.9-0.1,7.4,0c0.2,0,0.4,0,0.7,0"/>
								<path class="st6" d="M13.3,59.1h2.8c0.2,0,0.4,0,0.6,0c0.9,0.1,1.7-0.1,2.5,0c0.2,0,0.4,0,0.6,0h0.5c2.6,0,5.2,0,7.8,0h0.6
									c0.6,0,1.2,0,1.8,0c0.1,0,0.3,0,0.5,0c0.9,0,1.7,0,2.7,0c0.1,0,0.3,0,0.5,0c0.6,0,1.2,0,1.8,0h0.6c4.4,0,8.6,0,13,0
									c0.3,0,0.5,0,0.8,0c2.8,0.1,5.4,0,8.2,0c0.2,0,0.5,0,0.7,0c0.2,0,0.4,0,0.6,0h1.1"/>
								<path class="st6" d="M16.9,58.9h2.7h0.8c0.8,0,1.6,0,2.4,0c0.1,0,0.2,0,0.3,0c0.7,0,1.5,0,2.2,0h0.3c0.7,0,1.4,0,2.1,0h0.6
									h0.3H29c0.7,0,1.5,0,2.2,0c0.1,0,0.2,0,0.3,0c0.7,0,1.5,0,2.3,0c0.1,0,0.3,0,0.4,0c0.3,0,0.7,0,1,0c0.1,0,0.1,0,0.2,0
									c0.9,0,1.5,0,2.3,0h0.3h0.3c0.7,0,1.5,0,2.2,0h0.3c0.9,0,1.9,0,2.8,0h0.3c0.3,0,0.6,0,0.9,0H45c1,0,2.1,0,3.1,0
									c0.1,0,0.2,0,0.3,0h0.9c0.2,0,0.5,0,0.7,0c0.4,0,0.8,0,1.2,0c0.1,0,0.2,0,0.3,0c0.8,0.1,1.7-0.1,2.5,0c0.1,0,0.2,0,0.3,0
									c1.4,0,2.9,0,4.2,0"/>
								<path class="st6" d="M13.3,58.6h7.3H21c0.5,0,1,0,1.5,0c0.1,0,0.2,0,0.3,0c0.6,0.1,1.3,0,1.8,0c0.3,0,0.7,0.1,0.9,0
									c0.1,0,0.2,0,0.3,0c0.4,0,0.8,0,1.2,0h0.6h0.8h0.3c0.9,0.2,1.7-0.1,2.6,0c0.1,0,0.2,0,0.3,0c0.9,0,1.8-0.1,2.6,0
									c0.2,0,0.3,0,0.5,0h0.2h0.2c0.9,0.1,1.7-0.1,2.7,0c0.1,0,0.2,0,0.3,0c0.2,0,0.3,0,0.5,0c0.1,0,0.2,0,0.3,0h1.5
									c0.1,0,0.1,0,0.2,0c1,0.1,1.9-0.1,3,0H44h0.6c0.1,0,0.2,0,0.3,0c1.2,0.1,2.4-0.1,3.5,0c0.1,0,0.2,0,0.3,0h1.1
									c0.2,0,0.3,0,0.5,0c0.3,0,0.6,0,0.9,0c0.1,0,0.2,0,0.3,0c0.9,0.1,1.8-0.1,2.8,0c0.1,0,0.2,0,0.3,0c1.4,0,2.9,0,4.3,0h0.7
									h0.5"/>
								<path class="st6" d="M1.4,58.4c0.2,0,0.4,0,0.6,0c13.9,0.1,27.6-0.1,41.5,0.1c0.8,0,1.6,0.1,2.4,0.1c1.1,0,2.1-0.2,3.3-0.1
									c0.2,0,0.4,0,0.6,0h0.7c0.3,0,0.6,0,0.9,0c0.1,0,0.2,0,0.3,0c0.8,0,1.7,0,2.5,0c0.1,0,0.2,0,0.3,0c1.5,0,3.1,0,4.6,0h0.5
									h14.1"/>
								<path class="st6" d="M5.3,58.1c14.6,0,28.9,0,43.4,0h0.6h0.6c0.2,0,0.5,0,0.7,0c2.7,0,5.4,0,8.2,0h0.7h0.8h8"/>
								<path class="st6" d="M16.5,57.9c2.5,0,5,0,7.6,0c0.1,0,0.3,0,0.4,0h20.1h0.6c1.5,0,3,0,4.4,0c0.2,0,0.5,0,0.7,0
									c2.5,0,4.9,0,7.4,0c0.2,0,0.5,0,0.7,0"/>
								<path class="st6" d="M6.8,57.6c0.3,0,0.9,0,1.3,0c0.2,0,0.5,0,0.8,0h2h0.6c4.5,0.1,8.9-0.1,13.4,0h0.5H28h2.3h2.4h2.4h9.2
									h0.6c1.7,0,3.4,0,5.1,0c0.2,0,0.5,0,0.7,0c2,0.1,3.9,0,5.9,0c0.2,0,0.5,0,0.7,0c1.2,0,2.5,0,3.7,0h0.8h6.4"/>
								<path class="st6" d="M10.2,57.4h0.6h0.8c4.6,0,9-0.1,13.5,0c0.2,0,0.4,0,0.6,0h2.4h2.3h2.4h2.4h8.5h0.6c5.5,0,11.1,0,16.6,0
									h0.6H65"/>
								<path class="st6" d="M18.3,57.1h7.8h2c2.2,0,4.5,0,6.8,0h2.4h6.4h0.6c2.8,0,5.6,0,8.4,0c0.1,0,0.2,0,0.3,0
									c0.8,0,1.5,0,2.3,0c0.1,0,0.2,0,0.3,0c0.1,0,0.2,0,0.3,0"/>
								<path class="st6" d="M12.1,56.9c4.4,0.1,8.7-0.2,13.1,0c0.2,0,0.4,0,0.6,0h0.6h2.2c1.7,0,3.1,0,4.7,0h2.4h7.8h0.5
									c2.9,0,5.7,0,8.6,0c0.1,0,0.2,0,0.3,0c0.8,0,1.7-0.1,2.5,0c0.1,0,0.2,0,0.3,0c1.6,0,3.2,0,4.7,0h0.6h0.5"/>
								<path class="st6" d="M19.3,56.6h8.1h2.1c1.4,0,3,0,4.5,0h2.4H44h0.5c2.8,0,5.6,0,8.4,0c0.1,0,0.2,0,0.3,0c0.7,0,1.4,0,2.2,0
									c0.1,0,0.2,0,0.3,0"/>
								<path class="st6" d="M8.6,56.4h3.7H13c2.5,0,5,0,7.6,0c0.3,0,0.5,0,0.8,0c5.6-0.1,11.1,0.1,16.7,0.1c2,0,3.9,0,5.8,0
									c0.2,0,0.5,0,0.7,0h0.6c1,0,2,0,3,0c0.3,0,0.5,0,0.8,0c4.6-0.1,9.1,0.2,13.7,0h0.8h2.3"/>
								<path class="st6" d="M1.8,56.2h18.3c0.2,0,0.4,0,0.6,0c7.5-0.1,14.8,0.1,22.3,0c0.3,0,0.5,0,0.8,0h5.4h0.8c0.9,0,2,0,2.9,0
									c0.2,0,0.5,0,0.7,0H55c0.2,0,0.5,0,0.7,0c1.2,0,2.2,0,3.5,0c0.2,0,0.4,0,0.6,0c0.4,0,0.7,0,1.2,0c0.1,0,0.1,0,0.2,0h11.3"/>
								<path class="st6" d="M13.7,55.9h5.7c0.2,0,0.3,0,0.5,0c6.5-0.2,13,0.1,19.6,0c0.3,0,0.5,0,0.8,0c2.1,0,4.1,0,6.2,0H47h11.2
									h0.2c0.4,0,1,0,1.4,0"/>
								<path class="st6" d="M17.3,55.7h1.6h0.7c5.8,0,11.5,0.1,17.4,0c0.2,0,0.4,0,0.7,0c0.9,0,1.8,0,2.7,0c0.3,0,0.5,0,0.8,0
									c1.5,0,3,0,4.5,0h0.5h11"/>
								<path class="st6" d="M11.3,55.4h5c0.6,0,1.3,0,2,0c0.4,0,0.7,0,1.1,0c0.2,0,0.4,0,0.6,0c3.8,0.1,7.6,0.1,11.4,0
									c0.2,0,0.5,0,0.7,0c0.2,0,0.5,0,0.7,0c0.9-0.1,1.9,0,2.9,0c0.2,0,0.5,0,0.7,0c1.7,0,3.5,0,5.2,0c0.2,0,0.5,0,0.7,0
									c0.7,0,1.5,0,2.2,0h0.6h19.4"/>
								<path class="st6" d="M9.7,55.2c0.8,0,1.5,0,2.3,0c0.1,0,0.3,0,0.5,0h2.9c0.7,0,1.5,0,2.3,0c0.6,0,1.1,0,1.7,0
									c0.2,0,0.4,0,0.6,0c3.7,0.1,7.2,0.1,10.8,0c0.3,0,0.5,0,0.8,0c4.2,0,8.6-0.1,12.9,0H45h11.8c0.1,0,0.1,0,0.2,0
									c0.4,0,0.7,0,1.1,0c0.1,0,0.2,0,0.3,0c0.9,0,1.7,0,2.7,0c0.1,0,0.2,0,0.3,0H66"/>
								<path class="st6" d="M4.6,54.9H6c0.2,0,0.4,0,0.6,0c2,0.1,4-0.1,5.9,0c0.2,0,0.4,0,0.6,0h1.2c0.7,0,1.5,0,2.3,0
									c0.9,0,1.9,0,2.8,0c0.2,0,0.5,0,0.7,0c3.2,0.1,6.5,0,9.7,0c0.2,0,0.5,0,0.7,0c0.2,0,0.5,0,0.7,0c0.3,0,0.5,0,0.8,0
									c2.1,0,4.1,0,6.2,0c0.3,0,0.5,0,0.8,0c1.1,0,2,0,3.1,0c0.3,0,0.5,0,0.8,0c0.3,0,0.5,0,0.8,0c0.8,0,1.5,0,2.3,0
									c0.3,0,0.5,0,0.8,0c0.3,0,0.5,0,0.8,0c0.5,0,1,0,1.5,0c0.2,0,0.5,0,0.7,0c0.2,0,0.5,0,0.7,0c5.5,0,10.8,0,16.3,0
									c0.2,0,0.3,0,0.5,0h2.1"/>
								<path class="st6" d="M10.1,54.7c1,0,1.8,0,2.8,0h0.5h1.6c0.6,0,1.3,0,2,0c1.1,0,2.1,0,3.2,0c0.2,0,0.4,0,0.6,0
									c2.5,0.1,5,0,7.5,0.1c0.2,0,0.4,0,0.6,0c0.8,0,1.6,0,2.5,0c0.2,0,0.5,0,0.7,0c1.9,0,3.7,0,5.6-0.1c0.3,0,0.5,0,0.8,0
									c7.8-0.1,15.5,0.1,23.2-0.1c0.7,0,1.5,0,2.1,0c0.5,0,1.1-0.1,1.8-0.1"/>
								<path class="st6" d="M2.4,54.4h3.2c0.3,0,0.5,0,0.8,0c2.1,0.2,4.2-0.2,6.3,0c0.2,0,0.4,0,0.6,0H14c0.8,0,1.6,0,2.4,0
									c1.7,0,3.4,0,5.1,0c0.2,0,0.5,0,0.7,0c0.7,0,1.4,0,2.1,0c0.2,0,0.5,0,0.7,0c0.3,0,0.5,0,0.8,0c1.5,0,3.1,0,4.6,0H31
									c2.1,0,4.2,0,6.2,0c0.3,0,0.5,0,0.8,0c10,0.1,20-0.2,29.9,0c0.2,0,0.3,0,0.5,0h5"/>
								<path class="st6" d="M13.7,54.2H15c0.4,0,1,0,1.6,0c1.9,0.1,3.7-0.1,5.6,0c0.5,0,0.9,0,1.4,0c0.5,0,0.9,0,1.4,0
									c0.3,0,0.5,0,0.8,0c1.9,0,3.6,0,5.5,0c0.3,0,0.5,0,0.8,0c7.8,0,15.5,0,23.2,0h0.8h3.8"/>
								<path class="st6" d="M15.8,53.9h0.4c0.2,0,0.6,0,1.1,0c1.6,0,3.3,0,4.9,0c0.4,0,0.8,0,1.3,0c0.8,0,1.7,0,2.5,0
									c0.3,0,0.5,0,0.8,0c1,0,2.1,0,3.1,0c0.3,0,0.5,0,0.8,0c0.3,0,0.5,0,0.8,0c0.3,0,0.5,0,0.8,0c7.8,0,15.8-0.1,23.7,0
									c0.2,0,0.4,0,0.7,0h1.9"/>
								<path class="st6" d="M10,53.7c0.8,0,1.4,0,2.2,0c0.1,0,0.3,0,0.4,0h2.5c0.6,0,1.3,0,2,0c1.4,0,2.8,0,4.2,0c0.5,0,1,0,1.5,0
									c3.3,0,6.7,0,10.1,0h0.8c1,0,2.1,0,3.1,0c0.3,0,0.5,0,0.8,0c8.7,0,17.5,0,26.1,0.1"/>
								<path class="st6" d="M17.9,53.5c0,0,0.1,0,0.3,0c0.8,0,1.8,0,2.5,0c0.2,0,0.5,0,0.7,0c3,0,6.2,0,9.3,0h0.6h1.8h0.6
									c1.2,0,2.4,0,3.7,0c0.2,0,0.3,0,0.5,0c0.9,0,1.7,0,2.7,0c0.1,0,0.3,0,0.5,0c1.5,0,3,0,4.6,0h0.6h10.6"/>
								<path class="st6" d="M14.1,53.2h12.3H27c3.4,0,6.7,0,10,0c0.2,0,0.3,0,0.5,0c1.2,0,2.5-0.1,3.8,0c0.2,0,0.3,0,0.5,0
									c0.8,0,1.6,0,2.4,0h0.6h13.7c0.1,0,0.3,0,0.4,0c0.7,0.1,1.5,0.1,2.1,0"/>
								<path class="st6" d="M1.6,53h6.5c0.2,0,0.4,0,0.6,0c1.3,0,2.5,0,3.9,0c0.2,0,0.3,0,0.5,0h3.7c0.1,0,0.2,0,0.4,0
									c1,0,1.9,0,2.9,0c0.1,0,0.2,0,0.4,0h5h0.6c3.6,0,7.2,0,10.8,0c0.2,0,0.3,0,0.5,0c0.6,0.1,1.3,0,1.9,0c0.2,0,0.4,0,0.6,0
									c0.8,0,1.5,0.1,2.3,0c0.2,0,0.4,0,0.6,0h0.6c5.9,0,11.7,0,17.6,0c0.2,0,0.4,0,0.6,0c0.2,0,0.4,0,0.6,0c0.2,0,0.4,0,0.6,0
									c1.1,0,2,0,3.1,0c0.1,0,0.2,0,0.3,0h6.2"/>
								<path class="st6" d="M6.6,52.7h1.8c0.1,0,0.3,0,0.4,0c1,0.1,2.1-0.1,3.2,0c0.2,0,0.4,0,0.7,0h3.7c0.1,0,0.2,0,0.3,0
									c1.2,0.1,2.4-0.1,3.6,0c0.2,0,0.3,0,0.5,0h4.2h0.6c3.7,0,7.4,0,11.1,0c0.2,0,0.3,0,0.5,0c1.3,0.1,2.5,0,3.8,0
									c0.2,0,0.3,0,0.5,0c1.4,0,2.9,0,4.3,0h0.6h8h0.3c0.9,0.1,1.7-0.1,2.6,0c0.1,0,0.2,0,0.3,0H58c0.1,0,0.2,0,0.3,0
									c0.8,0.1,1.4-0.1,2.2,0c0.1,0,0.2,0,0.3,0c0.5,0,0.9,0,1.4,0h0.5h5.4"/>
								<path class="st6" d="M18.6,52.5c0.7-0.1,1.5,0,2.2,0c0.1,0,0.2,0,0.3,0h1.7h0.7c4.6,0,9.3,0,13.9,0c0.2,0,0.3,0,0.5,0
									c0.8,0,1.6,0,2.4,0c0.2,0,0.3,0,0.5,0c1.6,0,3.2,0,4.8,0h0.5h1c0.7,0,1.3,0,1.9,0h1.7h3.5c0.1,0,0.2,0,0.2,0
									c0.3,0,0.4,0,0.7,0"/>
								<path class="st6" d="M12.2,52.2h4h0.3c1.3,0,2.6,0,3.9,0c0.1,0,0.2,0,0.3,0h2.9h0.5c2.5,0,5,0,7.5,0c0.2,0,0.3,0,0.5,0
									c1,0,1.9,0,2.8,0c0.1,0,0.3,0,0.4,0c1.9,0,3.7,0,5.6,0c0.2,0,0.3,0,0.5,0c1.1,0,2.3,0,3.4,0c0.1,0,0.3,0,0.5,0
									c0.3,0,0.6,0,0.9,0c0.2,0,0.4,0,0.6,0c0.2,0,0.4,0,0.6,0c1.4,0,2.9,0,4.3,0h2H55c0.1,0,0.2,0,0.3,0c0.6,0,1,0,1.5,0
									c0.1,0,0.2,0,0.3,0h1.1h0.2c0.8,0,1.4,0,2.2,0h0.3h2.4"/>
								<path class="st6" d="M2,52h5.4h0.4c4.1-0.1,8.1,0,12.2,0c1.2,0,2.4,0,3.5,0c0.2,0,0.4,0,0.5,0h0.5h0.6c1.9,0,3.7,0,5.6,0
									c0.2,0,0.3,0,0.5,0c1.4,0.2,2.7-0.2,4,0c0.1,0,0.3,0,0.4,0c1.5,0,3.1,0,4.6,0c0.2,0,0.3,0,0.5,0c1.5,0.1,2.8-0.1,4.3,0
									c0.1,0,0.3,0,0.4,0c2.2,0,4.4,0,6.5,0c0.3,0,0.5,0,0.8,0c0.5,0,1,0,1.6,0h0.5h9.2c0.1,0,0.1,0,0.2,0c0.9,0.1,1.8-0.1,2.7,0
									h0.2h4.6"/>
								<path class="st6" d="M9.3,51.7c4.8,0,9.5,0.2,14.2,0.1c0.1,0,0.3,0,0.4,0h0.4h0.5c2,0,4,0,5.9,0c0.1,0,0.3,0,0.4,0
									c0.9,0.2,1.9,0,2.8-0.1c0.4,0,0.9,0,1.3,0.1c0.1,0,0.3,0,0.4,0c1.4,0,2.9,0,4.4,0c0.2,0,0.3,0,0.5,0c1.5,0.1,3-0.1,4.5,0
									c0.2,0,0.3,0,0.5,0c3.8,0,7.5-0.1,11.3,0h0.6h7.3h0.3c0.4,0,0.7,0,1.1,0c0.1,0,0.1,0,0.2,0h0.4"/>
								<path class="st6" d="M8.2,51.5c0.9,0,1.7-0.1,2.6-0.1c4.3,0.3,8.3,0.1,12.4,0.1h0.6h0.6h0.5c2,0,4.1,0,6.1,0h0.5
									c1.2,0.1,2.2-0.1,3.5,0c0.2,0,0.3,0,0.5,0c1.6,0,3.2,0,4.9,0h0.4c1.5,0.1,3,0,4.5,0c0.2,0,0.3,0,0.5,0c4.4,0,8.7,0,13,0h0.6
									h7.6"/>
								<path class="st6" d="M15.9,51.3h9.6h0.5c2,0,4,0,5.9,0c0.1,0,0.3,0,0.4,0c0.8,0,1.7,0,2.4,0c0.1,0,0.3,0,0.4,0
									c1.9,0,3.9,0,5.9,0c0.2,0,0.3,0,0.5,0c1,0,2.1,0,3.2,0c0.2,0,0.3,0,0.5,0c4.4,0,8.7,0,13.1,0c0.3,0,0.5,0,0.8,0"/>
								<path class="st6" d="M9.2,51c2.8,0.1,5.6,0,8.4,0c0.2,0,0.3,0,0.5,0h12.6h0.6c0.2,0,0.5,0,0.7,0c0.2,0,0.5,0,0.7,0
									c0.9,0,1.8,0,2.7,0c0.2,0,0.5,0,0.7,0c0.5,0,0.9,0,1.4,0c0.2,0,0.5,0,0.7,0c0.8,0,1.6,0,2.4,0c0.1,0,0.3,0,0.4,0
									c0.1,0,0.3,0,0.4,0c0.3,0,0.5,0,0.8,0c0.2,0,0.5,0,0.7,0c0.7,0,1.5,0,2.2,0c0.2,0,0.5,0,0.7,0c0.5,0,1,0,1.5,0
									c0.2,0,0.5,0,0.7,0c0.7,0,1.5,0,2.2,0c0.2,0,0.5,0,0.7,0c0.2,0,0.5,0,0.7,0c4.2,0,8.6-0.2,12.8,0c0.2,0,0.5,0,0.7,0h2.1"/>
								<path class="st6" d="M12.6,50.8c1-0.1,1.8-0.1,2.7-0.1c0.2,0,0.4,0,0.6,0h15.2c0.2,0,0.4,0,0.6,0c10.3,0,20.5,0.1,30.8-0.1"
									/>
								<path class="st6" d="M5.7,50.5h0.5c0.2,0,0.4,0,0.7,0c2.2,0.1,4.4,0.1,6.6,0c0.2,0,0.4,0,0.7,0c0.2,0,0.4,0,0.7,0
									c0.2,0,0.3,0,0.5,0h13.6c0.8,0,1.7,0,2.5,0c11.3,0,22.6-0.1,33.9,0c0.2,0,0.5,0,0.7,0h2.3"/>
								<path class="st6" d="M3.6,50.3h1.6h0.5c0.3,0,0.5,0,0.8,0c0.3,0,0.5,0,0.8,0c1.8,0,3.5,0,5.2,0c0.3,0,0.5,0,0.7,0
									c1,0,2,0,3,0.1h0.5h12.6c0.8,0,1.6,0,2.5,0c11.2,0,22.5,0,33.7,0c0.2,0,0.5,0,0.7,0c1.4,0,2.8,0,4.2,0"/>
								<path class="st6" d="M17.5,50h14.3c0.2,0,0.5,0,0.6,0c2.2,0,4.6,0,6.8,0h0.6c0.6,0,1.2,0,1.8,0h0.7c4.7,0,9.4,0,14.2,0"/>
								<path class="st6" d="M12.1,49.8h17.3c0.8,0,1.6,0,2.4,0c10.1,0.2,20.3-0.1,30.4,0.1"/>
								<path class="st6" d="M1.3,49.5h3.4h0.7c3.8,0,7.5,0,11.4,0h0.5h12.6c0.8,0,1.6,0,2.5,0c10.8,0,21.5,0,32.3,0
									c0.2,0,0.5,0,0.7,0c2.9,0,5.9,0,8.9,0"/>
								<path class="st6" d="M0.6,49.3h3.7c0.2,0,0.4,0,0.6,0c3.8,0.1,7.8,0.1,11.6,0c0.2,0,0.4,0,0.5,0h12.8c0.8,0,1.6,0,2.5,0
									c10.4,0.1,20.9,0,31.2,0c0.3,0,0.5,0,0.8,0c3,0,6.1,0,9.1,0"/>
								<path class="st6" d="M12.5,49h1.8h0.5c1.1,0,2.2,0,3.4,0h0.4h14.4c0.1,0,0.3,0,0.4,0c1.5,0,3.1,0,4.5,0h0.5h7.9
									c0.5,0,1,0,1.5,0c1.9,0,3.7,0,5.6,0h1.3H56c0.3,0,0.5,0,0.8,0c0.9,0,1.8,0,2.7,0c0.1,0,0.2,0,0.3,0c0.8,0.1,1.6-0.1,2.4,0
									c0.1,0,0.2,0,0.3,0c0.3,0,0.6,0,0.9,0"/>
								<path class="st6" d="M9,48.9c2.3-0.1,4.6,0,7-0.1c0.2,0,0.5,0,0.7,0c0.9,0,1.8,0,2.7,0h0.5h26.3c0.6,0,1.1,0,1.7,0
									c1.6-0.1,3.1-0.1,4.6,0c0.5,0,1,0,1.5,0h2.8c0.3,0,0.5,0,0.8,0c3,0,6,0,9,0"/>
								<path class="st6" d="M11.6,48.6c1.1,0,2.3,0,3.3,0c0.2,0,0.4,0,0.6,0c1.4,0,2.9,0,4.2,0h0.5h22.8h1.6c1,0,2.2,0,3.3,0
									c0.2,0,0.4,0,0.6,0c0.4,0,0.8,0,1.2,0c0.2,0,0.4,0,0.6,0c3.8,0,7.5,0,11.4,0c0.2,0,0.4,0,0.6,0c0.6,0,1.3,0,1.9,0"/>
								<path class="st6" d="M1.6,48.3h10.8h0.5c2.5,0,5,0,7.6,0h0.5h3.5h0.5c5.7,0,11.4,0,17.1,0c0.5,0,1,0,1.6,0
									c6,0.1,12.1-0.1,18.1,0c0.2,0,0.5,0,0.7,0c1.5,0,3.1,0,4.6,0h0.8h5.7"/>
								<path class="st6" d="M1,48.1h11.6h0.5c2.4,0,4.8,0,7.2,0h0.5h2.5h0.5c6.1,0,12.1,0,18.1,0c0.5,0,1,0,1.5,0
									c6.3,0.1,12.5-0.2,18.6,0c0.3,0,0.5,0,0.8,0c1.2,0,2.5,0,3.7,0h0.8h5.1"/>
								<path class="st6" d="M13.7,47.8c2.1,0,4.4,0,6.5,0h0.4h2.1h0.4c6.4,0.1,12.7,0,19,0c0.2,0,0.3,0,0.5,0h0.5
									c5.9,0,11.6,0,17.5,0"/>
								<path class="st6" d="M16.7,47.6c1.1,0,2.2,0,3.2,0h0.7H22h0.8c6.1,0.2,12.3-0.1,18.5,0h0.5h1c4.9,0,10,0,14.9,0.1"/>
								<path class="st6" d="M14.6,47.3c1.4,0,3,0,4.5,0h0.8h2.8H23c3.3,0,6.7,0.1,9.9,0c0.2,0,0.4,0,0.5,0H34c1,0,1.8,0,2.7,0h0.5
									h4.3H43c5.3,0.1,10.5-0.1,15.7,0.2"/>
								<path class="st6" d="M8.3,47.1h5.8h0.8c1.2,0,2.4,0,3.5,0H19h3.5h0.7c3.1,0,6.2,0,9.2,0c0.1,0,0.3,0,0.4,0h6.8h0.5
									c0.7,0,1.5,0,2.2,0c0.4,0,0.7,0,1,0c6.2-0.1,12.4,0.2,18.5,0c0.2,0,0.5,0,0.7,0h3.3h0.2c0.4,0,0.9,0,1.3,0"/>
								<path class="st6" d="M15.3,46.8h7.9h0.5c2.5,0.1,5.1,0,7.7,0c0.2,0,0.4,0,0.6,0h6.8h0.6c1.4,0,2.8,0,4.2,0
									c0.5,0,0.9,0,1.4,0c4.5,0,9.1-0.1,13.7,0.1"/>
								<path class="st6" d="M11.8,46.6H23h0.5c2.1,0,3.9,0,6,0H30h7.1h0.6c2.2,0,4.3,0,6.5,0c0.4,0,0.9,0,1.3,0c0.6,0,1.4,0,2.1,0
									c0.2,0,0.4,0,0.5,0c0.5,0,1.1,0,1.6,0c0.2,0,0.3,0,0.5,0c0.8,0,1.5,0,2.3,0c0.2,0,0.5,0,0.7,0c0.2,0,0.5,0,0.7,0
									c0.7,0,1.3,0,2,0c0.1,0,0.2,0,0.3,0c0.9,0,1.7-0.1,2.4,0c0.1,0,0.1,0,0.2,0h4.8"/>
								<path class="st6" d="M1.7,46.3h22.7H25c1.2,0,2.3,0,3.5,0h0.3c2.4,0,4.8,0,7.2,0c0.1,0,0.3,0,0.4,0h0.4h0.6
									c0.6,0,1.3,0,1.9,0c0.2,0,0.3,0,0.5,0c5.4,0,10.8,0,16.1,0c0.1,0,0.2,0,0.3,0c0.8,0.1,1.6,0,2.3,0c0.1,0,0.1,0,0.2,0
									c2.5,0,5,0,7.5,0c0.1,0,0.2,0,0.3,0c0.3,0,0.7,0,0.9,0c0.1,0,0.2,0,0.3,0c0.3,0,0.6,0,0.9,0c0.5,0,1.3-0.1,2,0
									c0.1,0,0.2,0,0.3,0h2"/>
								<path class="st6" d="M17.8,46.1h19.9h0.5c5.9,0,11.6,0,17.5,0"/>
								<path class="st6" d="M12.1,45.9h11.4c0.1,0,0.1,0,0.2,0c0.6,0,1,0,1.5,0c0.1,0,0.1,0,0.2,0h9c0.2,0,0.5,0,0.7,0
									c1,0,1.9,0,2.9,0h0.6c6.3,0,12.7,0,18.9,0c0.2,0,0.5,0,0.7,0c0.2,0,0.5,0,0.7,0h0.7h4.1"/>
								<path class="st6" d="M11.7,45.6h6h0.5c0.9,0,1.7,0,2.6,0c0.1,0,0.2,0,0.3,0h2c0.1,0,0.2,0,0.3,0c0.8,0,1.6-0.1,2.4,0h0.3
									h7.6c0.2,0,0.5,0,0.7,0c1.6-0.1,3.2-0.1,4.8,0c0.2,0,0.5,0,0.7,0c5.7,0,11.4,0,17.1,0c0.2,0,0.5,0,0.7,0c0.1,0,0.2,0,0.2,0
									c0.8,0,1.6-0.1,2.3,0c0.1,0,0.2,0,0.2,0h2"/>
								<path class="st6" d="M7.1,45.4h10.2h0.3c1.3,0.1,2.5-0.1,3.8,0c0.1,0,0.2,0,0.3,0h1.2c0.1,0,0.2,0,0.3,0
									c0.9,0.1,1.8-0.1,2.8,0h0.3h6.8c0.3,0,0.6,0,0.8,0c1.7-0.1,3.4-0.2,5.1,0c0.3,0,0.5,0,0.8,0c5.3,0,10.5,0,15.9,0
									c0.3,0,0.5,0,0.8,0c1.7,0,3.5,0,5.2,0c0.2,0,0.3,0,0.5,0h4.6"/>
								<path class="st6" d="M15.7,45.1h1.6c0.1,0,0.2,0,0.3,0c1.3,0.1,2.6-0.1,3.9,0H22h1.3h0.3c0.6,0,1.2,0,1.7,0h0.3h7
									c0.2,0,0.5,0,0.7,0c2.2-0.1,4.5-0.1,6.8,0h0.6c0.7,0,1.4,0,2.2,0h0.6c0.2,0,0.5,0,0.7,0c1,0,1.9-0.1,2.9,0
									c0.2,0,0.5,0,0.7,0c2.4,0,4.7,0,7.1,0c0.1,0,0.2,0,0.3,0c1.4-0.1,2.7,0.1,4.1-0.1"/>
								<path class="st6" d="M13.4,44.9h4.1c0.1,0,0.3,0,0.4,0c1,0.1,2.2-0.1,3.3,0c0.1,0,0.2,0,0.3,0H33h0.5c2.2,0,4.4,0,6.5,0h0.8
									h2.4h0.6c3.6,0,7.1,0,10.7,0c0.1,0,0.2,0,0.3,0c1.7,0,3.3,0,5.1-0.2"/>
								<path class="st6" d="M13.1,44.6h4.8c0.1,0,0.3,0,0.4,0c0.8,0,1.6,0,2.4,0c0.1,0,0.2,0,0.3,0h11.2H33c2.3,0,4.4,0.1,6.6,0
									c0.1,0,0.3,0,0.5,0h2.9h0.6c3.3,0,6.6,0,9.9,0c0.5,0,1,0,1.4,0c2.3,0,4.9-0.2,7.3,0"/>
								<path class="st6" d="M0.3,44.4h32.8c0.2,0,0.5,0,0.6,0c2.1,0.1,4,0.1,6.1,0c0.2,0,0.4,0,0.6,0h2.8h0.6c3.4,0,6.7,0,10.1,0
									c0.2,0,0.5,0,0.7,0c2.3,0,4.7,0,7.1,0c0.5,0,1,0,1.4,0c3.1,0,6.3,0,9.5,0"/>
								<path class="st6" d="M12,44.1h21.4c0.2,0,0.4,0,0.6,0c1.8,0.1,3.7,0,5.6,0h0.6H44h0.6c3.2,0,6.3,0,9.4,0c0.2,0,0.5,0,0.7,0
									c2.5,0,5.2,0.2,7.7,0"/>
								<path class="st6" d="M18.4,43.9h16.5c0.2,0,0.4,0,0.5,0c1,0,1.8,0,2.7,0c0.2,0,0.4,0,0.5,0h14.9H54c0.4,0,0.8,0,1.2,0"/>
								<path class="st6" d="M11.3,43.7h10.9l1,0c1.1,0,2.1,0,3.2,0h1.1h25.4c0.1,0,0.3,0,0.4,0c0.4,0,0.9,0,1.3,0
									c0.2,0,0.4,0,0.7,0c2.4,0,4.8,0.3,7.3,0"/>
								<path class="st6" d="M8.8,43.4h12.3h1c1.9,0,3.8,0,5.6,0h1.2h23.7c0.2,0,0.3,0,0.5,0c0.7,0,1.4,0,2.1,0c0.2,0,0.5,0,0.7,0
									c1.8,0,3.7,0,5.5,0c0.2,0,0.5,0,0.7,0c0.7,0,1.4,0,2.1,0H65h1"/>
								<path class="st6" d="M6,43.2h15.7h1.1c1.9,0,3.9,0,5.7,0h1.2h16.6c0.1,0,0.2,0,0.3,0c0.8,0.1,1.5-0.1,2.2,0
									c0.1,0,0.2,0,0.3,0h3.3c0.2,0,0.3,0,0.5,0c2.2,0.1,4.5,0.1,6.7,0c0.1,0,0.2,0,0.3,0c0.3,0,0.9,0,1.3,0c0.1,0,0.2,0,0.3,0
									c0.5,0,1.1,0,1.6,0h0.6h4.1"/>
								<path class="st6" d="M16.9,42.9l4.2,0h0.8c2.2,0,4.6,0,6.9,0h1.1h16.3c0.1,0,0.2,0,0.3,0c0.8,0,1.7,0,2.4,0
									c0.1,0,0.2,0,0.3,0h2.9c0.3,0,0.5,0,0.7,0c1.5,0,3,0.1,4.4,0.1"/>
								<path class="st6" d="M18.1,42.7h3.4h0.7c2.1,0,4.3,0,6.4,0h1.1h16.4h0.3c0.8,0,1.6,0,2.4,0h0.3h2.9h0.6c1.6,0,3.2,0.1,4.8,0
									"/>
								<path class="st6" d="M12.1,42.4h9.2h1c2.2,0,4.3,0,6.5,0h1H30c0.7,0,1.3,0,2,0c0.1,0,0.2,0,0.3,0h21.2c0.2,0,0.4,0,0.6,0
									c1,0.1,1.8,0,2.7,0c0.2,0,0.4,0,0.5,0c0.4,0,0.7,0,1.1,0c0.1,0,0.2,0,0.3,0c0.9,0.2,1.5-0.2,2.4,0c0.1,0,0.2,0,0.3,0
									c0.1,0,0.2,0,0.3,0c0.3,0,0.5,0,0.8,0"/>
								<path class="st6" d="M13.9,42.2h7.8h0.5c0.2,0,0.3,0,0.5,0c0.9,0,1.8,0,2.6,0c0.2,0,0.4,0,0.7,0c0.7,0,1.3,0,2,0h1.1l0.3,0
									l0.3,0c0.9,0.1,2-0.1,2.9,0c0.1,0,0.1,0,0.2,0c0.8,0.1,1.6-0.1,2.4,0h0.2h5.6c0.3,0,0.5,0,0.8,0c1-0.1,2.1,0,3.1,0h0.8h7.1
									c0.2,0,0.4,0,0.6,0c1.5-0.1,3.1-0.2,4.6,0c0.2,0,0.4,0,0.6,0c0.1,0,0.2,0,0.3,0c0.8,0.1,1.4-0.1,2.2,0c0.1,0,0.2,0,0.3,0
									c0.1,0,0.2,0,0.2,0"/>
								<path class="st6" d="M2.7,41.9h0.2c1.2,0,2.4-0.1,3.5-0.1c0.2,0,0.5,0,0.7,0c4.5,0,9,0.1,13.6,0.1c0.3,0,0.5,0,0.8,0
									c0.2,0,0.4,0,0.7,0c0.2,0,0.4,0,0.7,0c0.9,0,1.7,0,2.7,0c0.2,0,0.4,0,0.7,0c0.2,0,0.4,0,0.6,0c0.3,0,0.5,0,0.8,0
									c0.8,0,1.5,0,2.3,0c0.1,0,0.2,0,0.3,0c0.8,0,1.5,0,2.3,0c0.1,0,0.2,0,0.3,0c0.9,0.1,1.7-0.1,2.6,0c0.1,0,0.2,0,0.3,0
									c0.6,0,1.3,0,1.9,0h0.6h1.6c0.3,0,0.6,0,0.8,0c1.5-0.1,3.3-0.1,4.8,0c0.3,0,0.5,0,0.8,0h5.8c0.2,0,0.4,0,0.6,0
									c1.9-0.1,3.7-0.2,5.5,0c0.3,0,0.6,0,0.8,0c3.1,0,6.1,0,9.1,0h0.6h3.1"/>
								<path class="st6" d="M7.2,41.6c4.5,0.1,8.9,0.1,13.4,0.1c0.3,0,0.5,0,0.8,0c1.9,0,3.6-0.2,5.5,0c0.3,0,0.5,0,0.8,0
									c1.6,0,3.1,0,4.7,0h0.3c0.8,0,1.5,0,2.3,0c0.1,0,0.1,0,0.2,0c1.1,0,2.3,0,3.4,0h0.6c0.3,0,0.5,0,0.8,0c2-0.1,4.1-0.1,6.1,0
									c0.3,0,0.5,0,0.7,0h5c0.2,0,0.5,0,0.7,0c0.7,0,1.3-0.1,2-0.1c0.2,0,0.4,0,0.7,0c4.1,0.1,8.2,0,12.4,0.1"/>
								<path class="st6" d="M7.7,41.4c4,0.1,8,0.1,12,0.1c0.3,0,0.5,0,0.8,0c0.2,0,0.4,0,0.6,0c2,0,3.8-0.2,5.8-0.1
									c0.3,0,0.5,0,0.8,0c3.5,0,7,0,10.5,0h0.6c0.3,0,0.5,0,0.8,0c2.3-0.1,4.6-0.1,6.9,0h0.7h3.6h0.5c0.2,0,0.4,0,0.6,0
									c0.9,0,1.8,0,2.7,0c0.2,0,0.4,0,0.7,0c3.9,0.1,7.7,0,11.5-0.1"/>
								<path class="st6" d="M10,41.2c3.2,0,6.5,0,9.7,0c0.3,0,0.5,0,0.8,0c2.4,0.1,4.8-0.1,7.2,0c0.3,0,0.5,0,0.8,0
									c3.5,0,7,0,10.5,0h0.6c2.2,0,4.3,0,6.4,0h0.8h4.1h0.6c0.2,0,0.4,0,0.6,0c0.2,0,0.4,0,0.6,0c2.1,0.1,4.2,0.1,6.4,0
									c0.2,0,0.5,0,0.7,0c0.9,0,1.7,0,2.6,0c0.3,0,0.5,0,0.8,0c0.8,0,1.6,0,2.3,0"/>
								<path class="st6" d="M6.3,40.9c4.5,0.1,9,0.1,13.5,0.1c0.3,0,0.5,0,0.8,0c2.1,0.2,4.1-0.2,6.3,0c0.3,0,0.6,0,0.8,0
									c3.4,0,6.9,0,10.3,0h0.6h0.8c0.3,0,0.6,0,0.9,0c2,0.1,3.9,0.1,5.9,0c0.2,0,0.5,0,0.8,0h3.6h0.8c0.2,0,0.4,0,0.6,0
									c0.2,0,0.4,0,0.6,0c1,0.1,2,0.1,3,0.1c0.2,0,0.4,0,0.6,0c4-0.2,7.9,0,11.9-0.2"/>
								<path class="st6" d="M10.9,40.7c3.1,0,6.1,0,9.2,0c0.3,0,0.5,0,0.8,0c2,0.1,4.2-0.1,6.1,0c0.3,0,0.5,0,0.8,0
									c3.6,0,7.2,0,10.8,0h0.6c0.3,0,0.5,0,0.8,0c2.1,0.1,4.1,0.1,6.2,0c0.3,0,0.5,0,0.8,0h2.9h0.7c0.6,0,1.3,0,1.9,0
									c0.2,0,0.4,0,0.6,0c1.7,0.1,3.4,0.1,5.1,0c0.2,0,0.4,0,0.6,0c0.4,0,0.8,0,1.2,0c0.2,0,0.5,0,0.7,0c1,0,2,0,3,0"/>
								<path class="st6" d="M17.8,40.5c0.8,0,1.7,0,2.5,0c0.2,0,0.3,0,0.5,0c2,0,4,0,6.1,0c0.3,0,0.5,0,0.8,0c3.8,0,7.6,0,11.4,0
									h0.6c0.3,0,0.6,0,0.8,0c1.6,0.1,3.2,0,4.8,0c0.3,0,0.5,0,0.8,0h4.3H51c0.8,0,1.5,0,2.2,0c0.2,0,0.5,0,0.7,0c1,0,1.9,0,2.9,0
									c0.2,0,0.5,0,0.7,0c0.2,0,0.5,0,0.7,0"/>
								<path class="st6" d="M18.8,40.2c0.8,0,1.6,0,2.4,0c0.2,0,0.3,0,0.5,0c1.5,0,3,0,4.6,0c0.2,0,0.4,0,0.6,0c0.6,0,1.1,0,1.7,0
									c0.1,0,0.2,0,0.3,0c1.2,0,2.4,0,3.6,0c0.2,0,0.3,0,0.5,0c1,0,1.9,0,2.8,0c0.2,0,0.3,0,0.5,0c0.5,0,0.9,0,1.4,0h0.6
									c1,0,2.1,0,3.2,0c0.2,0,0.3,0,0.5,0c0.9,0,1.7,0,2.6,0h0.7h4.8h0.6c2,0,4.1,0,6.1,0"/>
								<path class="st6" d="M13,40c7.5-0.1,15.1,0.1,22.7,0c0.2,0,0.4,0,0.7,0h0.3h0.3c0.2,0,0.5,0,0.8,0c1.7-0.1,3.5,0,5.2,0h0.7
									H47h1.1c0.8,0,1.6,0,2.5,0c0.2,0,0.4,0,0.5,0c3.2,0,6.5,0.1,9.7,0"/>
								<path class="st6" d="M10.8,39.7c0.1,0,0.2,0,0.2,0c0.3,0,0.4,0,0.7,0c0.1,0,0.2,0,0.3,0c0.2,0,0.5,0,0.8,0
									c1.1,0,2.1-0.1,3.2-0.1c6.9,0.1,13.7,0,20.6,0.1c0.2,0,0.5,0,0.7,0c1.9,0,3.9,0,5.8,0c0.2,0,0.5,0,0.7,0h2.8h0.3H47
									c0.9,0,1.8,0,2.7,0c0.1,0,0.2,0,0.4,0h0.4c0.2,0,0.4,0,0.6,0c0.3,0,0.5,0,0.8,0h0.8c4.2,0,8.2,0,12.3,0"/>
								<path class="st6" d="M16.3,39.4c6.5,0.2,13,0,19.4,0.1c0.2,0,0.5,0,0.7,0c2.2,0,4.4,0,6.6,0c0.3,0,0.5,0,0.8,0
									c0.8,0,1.6,0,2.3,0c0.2,0,0.3,0,0.5,0c1.2,0.1,2.5-0.1,3.7,0c0.2,0,0.3,0,0.5,0c0.2,0,0.3,0,0.5,0c0.2,0,0.4,0,0.7,0
									c2.6,0,5.2,0,7.7,0"/>
								<path class="st6" d="M15.7,39.2c6.8,0.1,13.6,0,20.4,0c0.3,0,0.5,0,0.8,0c2.2,0,4.3,0,6.4,0c0.2,0,0.3,0,0.5,0
									c0.5,0,1,0,1.5,0c0.2,0,0.4,0,0.6,0c0.1,0,0.2,0,0.3,0c0.1,0,0.2,0,0.3,0c1.3,0.2,2.5-0.2,3.8,0c0.1,0,0.3,0,0.4,0
									c2.5,0,5.1,0,7.6,0"/>
								<path class="st6" d="M17.5,39c6.2,0,12.2,0,18.3,0c0.3,0,0.5,0,0.8,0c2.2,0,4.5,0,6.7,0c0.2,0,0.5,0,0.7,0
									c0.2,0,0.5,0,0.8,0c0.5,0,0.9,0,1.4,0c0.2,0,0.3,0,0.5,0c1.2,0.1,2.6-0.1,3.8,0h0.5c2,0,4.1,0,6.1,0"/>
								<path class="st6" d="M15.6,38.9c6.9-0.2,13.9,0,20.8-0.1c0.3,0,0.5,0,0.8,0c1.9,0,3.7,0.1,5.6,0c0.2,0,0.5,0,0.7,0
									c0.2,0,0.5,0,0.7,0c0.8,0,1.6,0,2.3,0c0.2,0,0.3,0,0.5,0c1,0,1.9,0,2.8,0h0.5c3,0,5.9,0,8.8,0"/>
								<path class="st6" d="M16.3,38.6c6.5-0.1,13,0,19.6-0.1c0.3,0,0.5,0,0.8,0c0.3,0,0.5,0,0.8,0c1.6,0,3.1,0,4.6,0
									c0.3,0,0.5,0,0.8,0c4.9,0,9.8,0,14.7,0"/>
								<path class="st6" d="M8,38.3c1-0.1,2.1-0.2,3.1-0.1c0.2,0,0.4,0,0.7,0c0.2,0,0.5,0,0.7,0c0.2,0,0.5,0,0.7,0
									c7.6,0.1,15.3,0,22.9,0.1c0.2,0,0.4,0,0.6,0c0.4,0,0.7,0,1.1,0c0.2,0,0.4,0,0.6,0c0.9,0.1,1.9-0.1,2.8,0c0.3,0,0.5,0,0.8,0
									c7.2,0,14.4-0.1,21.6,0.1c0.2,0,0.4,0,0.6,0c1.5,0,2.9,0,4.3-0.1"/>
								<path class="st6" d="M10.3,37.9c0.6,0.1,1,0.1,1.5,0.1c0.2,0,0.4,0,0.5,0c0.1,0,0.3,0,0.4,0c2.6,0,5.3,0,7.9,0
									c0.2,0,0.5,0,0.7,0c0.3,0,0.5,0,0.8,0l0.6,0c0.2,0,0.4,0,0.6,0c2.3,0,4.5,0,6.7,0c0.3,0,0.5,0,0.8,0c1,0,2,0,3.1,0
									c0.3,0,0.5,0,0.8,0c2,0.1,4,0,6.1,0c0.2,0,0.5,0,0.8,0c1,0,2,0,3,0c0.3,0,0.5,0,0.8,0c1.1,0,2.1,0,3.2,0c0.3,0,0.5,0,0.8,0
									c4.6,0,9.1,0,13.7,0.1"/>
								<path class="st6" d="M16.9,37.8c1.6,0,3.3,0,4.9,0c0.2,0,0.5,0,0.7,0c2.7,0,5.3,0,7.9,0c0.2,0,0.5,0,0.7,0c1,0,1.9,0,2.9,0
									c0.2,0,0.5,0,0.7,0c2.1-0.1,4.2,0,6.4,0c0.2,0,0.5,0,0.7,0c0.2,0,0.5,0,0.7,0h0.6c0.2,0,0.5,0,0.7,0c0.2,0,0.5,0,0.7,0
									c1.6,0,3.3,0,4.9,0h0.7c2.1,0,4.2,0,6.4,0"/>
								<path class="st6" d="M10.4,37.5c0.4,0,0.7,0,1.1,0c0.2,0,0.3,0,0.5,0c0.5,0,0.9,0,1.4,0c0.2,0,0.3,0,0.5,0
									c3.3,0,6.6,0,9.9,0c0.2,0,0.5,0,0.7,0c1.8,0,3.6,0,5.3,0c0.3,0,0.5,0,0.8,0c1,0,2,0,2.9,0c0.2,0,0.5,0,0.7,0
									c2.2-0.1,4.4-0.1,6.6,0c0.3,0,0.5,0,0.7,0c0.2,0,0.5,0,0.7,0h0.6h0.6H44c1.9,0,3.8,0,5.7,0h0.7h0.4h0.4c0.1,0,0.2,0,0.3,0
									c0.1,0,0.2,0,0.3,0h0.3c0.6,0,1.2,0,1.9,0h0.4c2.5,0,5.1,0,7.6,0c0.2,0,0.4,0,0.6,0c0.2,0,0.4,0,0.6,0"/>
								<path class="st6" d="M16.3,37c0.5,0,1,0,1.6,0c0.1,0,0.2,0,0.3,0c1,0.1,1.9-0.1,2.8,0c0.1,0,0.2,0,0.3,0c3.1,0,6.3,0,9.4,0
									c0.1,0,0.2,0,0.4,0h0.4c0.9,0,1.8,0,2.7,0c0.2,0,0.3,0,0.5,0c2.1,0,4.2,0.1,6.4,0c0.2,0,0.4,0,0.7,0c0.2,0,0.4,0,0.6,0
									c0.3,0,0.5,0,0.8,0c2.4,0,4.6,0,7.1,0h0.2c1,0.2,1.6-0.1,2.5,0c0.1,0,0.2,0,0.3,0c0.5,0,0.9,0,1.4,0c0.1,0,0.2,0,0.3,0h2.6"
									/>
								<path class="st6" d="M16.6,36.8c0.5,0,1.1,0,1.6,0c0.1,0,0.2,0,0.3,0c0.8,0.1,1.4-0.1,2.2,0c0.1,0,0.1,0,0.2,0
									c3.2,0,6.5,0,9.8,0c0.1,0,0.2,0,0.4,0c1,0.1,2.1,0,3.1,0c0.2,0,0.4,0,0.7,0c2.1,0.1,4.1,0.1,6,0c0.2,0,0.5,0,0.7,0
									c0.5,0,0.9,0,1.4,0c0.3,0,0.5,0,0.8,0c2,0,4.2,0,6.1,0h0.5h0.3c0.1,0,0.2,0,0.2,0c0.6,0.1,1.1,0,1.9,0c0.1,0,0.2,0,0.3,0
									c0.5,0,1-0.1,1.5,0H55h2.6c0.1,0,0.3,0,0.4,0c0.6,0.1,1,0.1,1.5,0"/>
								<path class="st6" d="M14,36.6c0.6,0,1.3-0.1,1.9,0c0.1,0,0.2,0,0.3,0c4.6,0,9.1,0,13.7,0c0.1,0,0.3,0,0.4,0
									c0.1,0,0.3,0,0.4,0c1.2,0.2,2.5,0,3.7,0c0.2,0,0.4,0,0.6,0c1.7,0.2,3.5,0.1,5.3,0c0.2,0,0.5,0,0.7,0c0.7,0,1.4,0,2,0
									c0.3,0,0.5,0,0.8,0c1.9,0,3.8,0,5.9,0h0.6h0.8c0.1,0,0.2,0,0.2,0c0.9,0.1,1.7-0.1,2.6,0c0.2,0,0.3,0,0.5,0h3.1
									c0.2,0,0.3,0,0.4,0c0.5,0.2,1.3,0.1,1.7,0"/>
								<path class="st6" d="M16.3,36.3c4.6,0,9.1,0,13.6,0c0.3,0,0.5,0,0.8,0c0.1,0,0.3,0,0.4,0c1.3,0.2,2.5-0.1,3.8,0
									c0.1,0,0.2,0,0.3,0c0.1,0,0.2,0,0.3,0c1.4,0.1,2.9,0,4.2,0c0.2,0,0.5,0,0.7,0c0.2,0,0.4,0,0.7,0h0.5h0.5c0.4,0,0.8,0,1.2,0
									c0.2,0,0.4,0,0.6,0c1.6,0,3.2,0,4.8,0h0.6h8.2c0.1,0,0.2,0,0.3,0c0.1,0,0.1,0,0.1,0"/>
								<path class="st6" d="M17,35.5c3.1,0,6.1,0,9.1,0c0.3,0,0.5,0,0.8,0c2.3,0.1,4.5,0,6.7,0c0.1,0,0.3,0,0.4,0
									c0.3,0,0.6,0,0.9,0h0.3h0.5h0.5c0.7,0,1.4,0.1,2.1,0c1.7-0.1,3.3-0.1,5.1,0c0.2,0,0.4,0,0.6,0c0.6,0,1.2,0,1.8,0
									c0.1,0,0.2,0,0.3,0h3.4h0.4c0.5,0,1,0,1.5,0c0.1,0,0.2,0,0.3,0c0.7,0,1.5,0,2.3,0c0.1,0,0.2,0,0.3,0c0.9,0,1.7,0,2.6,0"/>
								<path class="st6" d="M16.4,35.3c3.4-0.1,6.8,0,10.2,0c0.3,0,0.6,0,0.8,0c2.2,0.1,4.3-0.1,6.6,0h0.6h1.2c0.3,0,0.5,0,0.8,0
									c2,0.2,4.1-0.1,6.1,0c0.1,0,0.3,0,0.4,0h6.7c0.1,0,0.3,0,0.4,0c2.8,0,5.6,0.1,8.4,0"/>
								<path class="st6" d="M5.6,35.1c0.2,0,0.4,0,0.6,0c0.2,0,0.4,0,0.5,0c0.9,0,1.8,0.1,2.6,0h0.5h3.2h0.6
									c1.5,0.1,3.1-0.1,4.5-0.1c2.8,0,5.7,0.1,8.5,0.1c0.2,0,0.5,0,0.8,0c2-0.1,4,0,6,0c0.2,0,0.5,0,0.7,0h2.8c0.3,0,0.5,0,0.7,0
									c1.6,0,3.2-0.1,4.8,0h0.8h5.4c0.2,0,0.5,0,0.7,0c3.1,0,6,0.2,9.1,0c0.2,0,0.5,0,0.7,0c3.5,0,7.1,0,10.6,0"/>
								<path class="st6" d="M7.5,34.8h6H14c1.5,0,3.1-0.1,4.7-0.1c1.2,0,2.5,0,3.7,0c0.3,0,0.5,0,0.8,0c1.2,0,2.6,0,3.8,0
									c0.3,0,0.5,0,0.8,0c0.5,0,1,0,1.5,0h0.5h8c0.3,0,0.5,0,0.8,0c0.8,0,1.6,0,2.4,0h0.8h7c0.2,0,0.5,0,0.7,0
									c2.8,0,5.6,0.1,8.4,0c0.2,0,0.5,0,0.7,0c2.6,0,5.3,0,7.9,0"/>
								<path class="st6" d="M17.3,34.6c1.6-0.1,3.2-0.1,4.8-0.1c0.2,0,0.5,0,0.7,0c1.5,0,3.3,0,4.8,0.1c0.2,0,0.5,0,0.7,0
									c0.2,0,0.4,0,0.6,0h0.5h3.8c0.3,0,0.5,0,0.8,0c0.8,0,1.6,0,2.4,0c0.3,0,0.5,0,0.8,0h11.8c0.1,0,0.3,0,0.4,0
									c2.2,0,4.3,0.1,6.5,0"/>
								<path class="st6" d="M1.2,34.3h8.7h0.5c1.7,0,3.3,0,5,0c0.2,0,0.5,0,0.7,0c1.6-0.1,3.2-0.1,4.8-0.1c0.2,0,0.5,0,0.7,0
									c2.1,0,4.1,0.1,6.3,0.1c0.2,0,0.5,0,0.7,0h0.8h17.6h0.5c0.3,0,0.5,0,0.8,0c0.3,0,0.5,0,0.8,0c2.5,0,5.2,0,7.7,0
									c0.3,0,0.5,0,0.8,0c0.1,0,0.3,0,0.4,0l0.4,0c1.2,0.1,2.4-0.1,3.6,0c0.1,0,0.3,0,0.4,0c3.5,0,6.9-0.2,10.4,0
									c0.3,0,0.4,0,0.4,0"/>
								<path class="st6" d="M9.1,34.1l1.2,0h0.4c1.5,0,2.9,0,4.4,0c0.2,0,0.5,0,0.7,0c1.6-0.1,3.3-0.1,5,0c0.2,0,0.5,0,0.7,0
									c2.4,0,4.7,0,7.1,0h0.7h2h0.3c0.8,0,1.6,0,2.4,0c0.1,0,0.2,0,0.2,0c0.2,0,0.5,0,0.8,0c0.1,0,0.2,0,0.3,0h11.4h0.5
									c0.8,0,1.5,0,2.3,0c0.3,0,0.5,0,0.8,0c1.7,0,3.6,0,5.4,0c0.3,0,0.5,0,0.8,0c0.5,0,0.9,0,1.4,0c0.2,0,0.3,0,0.5,0
									c1.4,0.2,2.8-0.2,4.1,0c0.2,0,0.3,0,0.5,0c0.9,0,1.8,0,2.8,0"/>
								<path class="st6" d="M5.6,33.9c0.7,0,1.4-0.1,2,0c0.1,0,0.2,0,0.3,0h0.3c0.1,0,0.1,0,0.2,0c0.4,0,0.8,0,1.2,0
									c0.2,0,0.4,0,0.6,0c1.5,0,2.9,0,4.4,0c0.2,0,0.5,0,0.7,0c2,0,3.9,0,5.8,0c0.2,0,0.5,0,0.7,0c2.1-0.1,4.4,0.1,6.6,0
									c0.2,0,0.4,0,0.6,0h2.2l0.3,0c1,0.1,1.8,0,2.7,0c0.1,0,0.2,0,0.3,0c0.3,0,0.7,0,1.1,0c0.1,0,0.2,0,0.3,0h10.5h0.5
									c0.8,0,1.5,0,2.3,0c0.3,0,0.5,0,0.8,0c1.5,0,3.1,0,4.6,0c0.3,0,0.5,0,0.8,0c0.9,0,1.9,0,2.8,0c0.2,0,0.3,0,0.5,0
									c0.8,0.1,1.7,0,2.6,0c0.2,0,0.4,0,0.5,0c2.3,0.1,4.6-0.1,6.8-0.1"/>
								<path class="st6" d="M12.4,33.6c0.8,0,1.7,0,2.5,0c0.2,0,0.4,0,0.6,0c1.8,0.1,3.5,0.1,5.3,0.1c0.3,0,0.5,0,0.8,0
									c2.3,0,4.4,0,6.6,0c0.2,0,0.3,0,0.5,0c0.7,0,1.5,0,2.2,0h0.6c0.1,0,0.2,0,0.3,0c0.7,0.1,1.5,0,2.2,0c0.1,0,0.2,0,0.2,0
									c0.4,0,0.8,0,1.2,0l0.2,0l14.3,0c0.6,0,1.3,0,1.9,0c0.6,0,1.2,0,1.8,0c0.6,0,1.1,0,1.7,0h3c0.2,0,0.4,0,0.7,0
									c1,0.1,2.1-0.1,3.1,0c0.1,0,0.3,0,0.4,0l1,0"/>
								<path class="st6" d="M2.3,33.4c0.5,0,1,0,1.6-0.1c0.1,0,0.3,0,0.4,0c0.3,0.1,0.7,0.1,0.9,0.1c1.1,0,2-0.2,3.1,0
									c0.1,0,0.2,0,0.4,0c2,0,4-0.1,6.1-0.1c0.3,0,0.5,0,0.8,0c2.1,0.1,4.3,0.1,6.4,0.1c0.3,0,0.5,0,0.8,0c1.9,0.1,3.8,0.1,5.6,0
									c0.2,0,0.4,0,0.6,0c0.8,0,1.7,0,2.5,0c0.2,0,0.4,0,0.5,0h27.2c0.2,0,0.3,0,0.5,0c0.5,0,0.9,0,1.4,0c0.2,0,0.5,0,0.7,0
									c3.9,0,7.8,0.2,11.8,0"/>
								<path class="st6" d="M5.8,33.1C6.4,33.1,7,33,7.5,33.1c0.3,0,0.6,0,0.8,0c2.1,0,4.3,0,6.4,0c0.3,0,0.5,0,0.8,0
									c2.2,0.1,4.3,0.1,6.5,0c0.2,0,0.5,0,0.7,0c1.7,0,3.5,0,5.2,0c0.2,0,0.5,0,0.7,0c1.2,0,2.5,0,3.7,0h0.8H52h0.5
									c1.8,0,3.5,0,5.3,0c0.3,0,0.5,0,0.8,0c0.9,0,1.8,0,2.6,0c0.2,0,0.4,0,0.7,0c2.1,0,3.9,0.1,5.9,0"/>
								<path class="st6" d="M14.2,32.9c0.5,0,1,0,1.5,0c0.3,0,0.5,0,0.8,0c1.6,0,3,0.1,4.6,0c0.3,0,0.5,0,0.8,0c0.8,0,1.6,0,2.3,0
									c0.3,0,0.5,0,0.8,0c0.3,0,0.5,0,0.8,0c0.3,0,0.5,0,0.8,0c2.1,0,4.1,0,6.1,0h0.8h18.1H52c2.4,0,4.9,0,7.3,0"/>
								<path class="st6" d="M8.6,32.6c2.6,0,5.3,0,7.9,0c0.3,0,0.5,0,0.8,0c1,0,2.1,0,3.2,0c0.3,0,0.5,0,0.8,0c3.7,0,7.4,0,11.1,0
									h0.8h16.6h0.5c5.1,0,10.3,0,15.3,0"/>
								<path class="st6" d="M9.2,32.4c7.8,0.1,15.6,0,23.4,0l0.8,0l17.1,0H51c0.2,0,0.4,0,0.6,0c1,0,2,0,3.1,0c0.2,0,0.4,0,0.6,0
									c0.6,0,1.2,0,1.8,0l0.6,0c2.8,0,5.6,0,8.4,0"/>
								<path class="st6" d="M3.3,32.1H8c0.2,0,0.5,0,0.8,0c7.7,0.1,15.4,0,23.2,0c0.3,0,0.5,0,0.7,0h5.2c0.2,0,0.4,0,0.6,0
									c3.7,0,7.4,0,11.2,0h0.5c1.8,0,3.7,0,5.5,0c0.3,0,0.5,0,0.8,0c0.2,0,0.5,0,0.7,0c4.5,0,8.9,0.2,13.5,0"/>
								<path class="st6" d="M13.8,31.9c1.2,0,2.3,0,3.4,0c0.1,0,0.3,0,0.4,0l0.5,0c0.2,0,0.3,0,0.5,0c4.2,0,8.3,0,12.6,0
									c0.2,0,0.5,0,0.7,0l5,0c0.2,0,0.4,0,0.6,0c3.9,0,7.7,0,11.5,0c0.2,0,0.5,0,0.7,0c2.1,0,4.2,0,6.4,0l0.7,0c1.2,0,2.4,0,3.6,0
									"/>
								<path class="st6" d="M8.5,31.6c0.4,0,0.8,0,1.1,0c0.1,0,0.1,0,0.2,0l12.4,0l0.3,0h0.3c0.6,0,1.2,0,1.8,0c0.2,0,0.4,0,0.6,0
									c1.6,0,3.3,0,4.9,0l0.6,0l6.2,0c0.2,0,0.4,0,0.6,0c1.3,0,2.5,0,3.8,0c0.3,0,0.5,0,0.8,0c1.7,0,3.5,0,5.2,0
									c0.4,0,0.9,0,1.3,0c3.2,0,6.4,0,9.6,0c0.2,0,0.5,0,0.7,0c2.5,0,4.9,0.1,7.4,0"/>
								<path class="st6" d="M16.4,31.4l6.1,0h0.4c1.3,0,2.6,0,4,0c0.1,0,0.1,0,0.2,0c0.5,0,1.1,0,1.7,0c0.1,0,0.2,0,0.3,0
									c0.4,0,0.8,0,1.2,0h0.6l3.9,0c0.1,0,0.2,0,0.3,0c0.4,0,0.8,0,1.2,0l0.3,0h0.3c0.2,0,0.4,0,0.6,0c0.8,0,1.6,0,2.3,0
									c0.3,0,0.5,0,0.8,0c0.7,0,1.3,0,2,0c0.2,0,0.4,0,0.7,0c0.9,0,1.7,0,2.6,0c0.2,0,0.4,0,0.6,0c0.7,0,1.3,0,2,0
									c0.2,0,0.5,0,0.7,0c2.6-0.1,5.1,0,7.8,0c0.2,0,0.5,0,0.7,0c0.2,0,0.5,0,0.7,0"/>
								<path class="st6" d="M5.1,31.2h2.3c0.1,0,0.2,0,0.2,0c0.6,0,1.4,0,2.1,0h0.2h12.4l0.5,0c1.2,0,2.3,0,3.5,0
									c0.1,0,0.2,0,0.3,0c0.8,0.2,1.7-0.2,2.5,0c0.1,0,0.2,0,0.3,0c0.1,0,0.2,0,0.3,0h4H34c0.9,0.1,1.8-0.1,2.7,0
									c0.1,0,0.2,0,0.3,0c0.8,0,1.6,0,2.4,0h0.7h0.7c0.2,0,0.5,0,0.7,0c1.3,0,2.6,0,3.9,0c0.4,0,0.9,0,1.3,0
									c7.5-0.1,14.9,0,22.4,0c0.5,0,0.7,0,0.7,0"/>
								<path class="st6" d="M15.5,30.9l7.7,0c0.2,0,0.3,0,0.5,0c0.9,0,1.7,0,2.6,0c0.1,0,0.2,0,0.3,0c0.8,0.2,1.5-0.2,2.3,0
									c0.1,0,0.2,0,0.3,0h0.3h4.6c0.1,0,0.2,0,0.3,0c0.8,0,1.6-0.1,2.4,0c0.1,0,0.2,0,0.3,0c0.6,0,1.3,0,1.9,0c0.2,0,0.5,0,0.7,0
									c0.2,0,0.5,0,0.7,0c0.2,0,0.5,0,0.7,0c2.2,0.2,4.2-0.1,6.3,0c0.2,0,0.5,0,0.7,0c0.3,0,0.5,0,0.8,0c2.4-0.1,4.7,0,7.1,0h0.5
									h2.4"/>
								<path class="st6" d="M1.9,30.7h21.5l0.6,0c1,0,1.9,0,2.9,0c0.1,0,0.2,0,0.3,0c0.5,0,1,0,1.5,0h0.3h5.8c0.1,0,0.2,0,0.3,0
									c0.4,0,0.9,0,1.3,0l0.3,0h0.3c0.2,0,0.4,0,0.6,0c0.5,0,1,0,1.5,0c0.3,0,0.5,0,0.8,0c0.2,0,0.4,0,0.6,0c0.2,0,0.4,0,0.6,0
									c1.7,0.1,3.6,0,5.3-0.1c0.2,0,0.4,0,0.6,0c7.4,0.1,14.8,0.1,22.2,0c0.3,0,0.5,0,0.8,0h3.4"/>
								<path class="st6" d="M2.8,30.4l33.5,0h0.6c0.8,0,1.5,0,2.3,0l0.8,0h0.7c0.2,0,0.5,0,0.7,0c1.6,0.2,3.3-0.1,4.9-0.1
									c0.4,0,0.8,0,1.2,0.1c7.3,0.1,14.5,0.1,21.9,0h0.5l1.2,0"/>
								<path class="st6" d="M2,30.2h35.9h0.6c0.2,0,0.4,0,0.7,0c0.2,0,0.4,0,0.7,0c0.3,0,0.5,0,0.8,0c0.2,0,0.5,0,0.7,0
									c1.6,0.1,3.2-0.1,4.8-0.1c0.4,0,0.8,0,1.2,0c7,0.1,14.1,0,21.1,0c0.3,0,0.5,0,0.8,0h3.3"/>
								<path class="st6" d="M6.2,29.9h33.5h0.6c0.2,0,0.4,0,0.6,0c0.2,0,0.4,0,0.6,0c1.9,0.2,3.9-0.2,6,0c0.1,0,0.3,0,0.4,0
									c0.2,0,0.4,0,0.7,0c3.8,0,7.5,0,11.4,0c0.2,0,0.5,0,0.7,0c0.2,0,0.5,0,0.7,0c2.2,0,4.4,0,6.6,0c0.2,0,0.5,0,0.7,0
									c0.2,0,0.5,0,0.7,0"/>
								<path class="st6" d="M14.6,29.7l4.7,0c0.2,0,0.5,0,0.7,0c0.9,0,1.9,0,2.9,0c0.1,0,0.3,0,0.5,0h18.2c0.2,0,0.4,0,0.6,0
									c1.6,0.1,3.3-0.2,4.9,0c0.2,0,0.3,0,0.5,0c0.6,0,1.2-0.1,1.8,0h0.3h0.3c0.2,0,0.5,0,0.7,0c3.2,0,6.3,0,9.5,0"/>
								<path class="st6" d="M16.2,29.4l1.8,0c0.1,0,0.2,0,0.3,0c0.1,0,0.3,0,0.4,0c0.1,0,0.3,0,0.4,0c1.6-0.1,3-0.1,4.6,0
									c0.2,0,0.4,0,0.7,0h17.9c0.3,0,0.5,0,0.8,0c0.8,0,1.6,0,2.4,0c0.3,0,0.5,0,0.8,0h0.4c0.8,0.1,1.5-0.1,2.3,0l0.4,0l0.4,0h0.5
									c2.5,0,5.1,0,7.6,0"/>
								<path class="st6" d="M4.3,29.2c0.3,0,0.5,0,0.8,0c0.3,0,0.5,0,0.8,0c1.7,0,3.5,0,5.2,0c0.1,0,0.2,0,0.3,0
									c0.8,0.1,1.8-0.1,2.6,0c0.1,0,0.2,0,0.3,0c1,0,2.1,0,3.1,0c0.2,0,0.3,0,0.5,0c0.2,0,0.4,0,0.6,0c0.2,0,0.4,0,0.6,0
									c1.6-0.2,3.3-0.1,4.9,0c0.3,0,0.6,0,0.8,0h0.5l0.5,0c1.2,0,2.5,0,3.7,0h0.5h19.2H50c7.2,0,14.6,0,21.8,0"/>
								<path class="st6" d="M8,29c1.1,0,2.1,0,3.2,0c0.1,0,0.2,0,0.3,0c0.8,0.1,1.7-0.1,2.6,0c0.1,0,0.2,0,0.3,0c0.9,0,1.8,0,2.7,0
									c0.2,0,0.3,0,0.5,0c0.2,0,0.4,0,0.7,0c2.2-0.1,4.3-0.1,6.5,0c0.2,0,0.4,0,0.6,0c0.3,0,0.5,0,0.8,0c1.3,0,2.6,0,3.9,0h0.5
									h18.9h0.6c0.8,0,1.6,0,2.4,0H53c5.3,0,10.5,0,15.8,0"/>
								<path class="st6" d="M14.9,28.7c0.8,0,1.6,0,2.4,0c0.2,0,0.3,0,0.5,0c0.2,0,0.4,0,0.7,0c2.1-0.1,4.3,0,6.5,0
									c0.2,0,0.5,0,0.7,0c2.1,0,4.3,0,6.4,0l0.6,0l4.1,0l0.6,0c3.9,0,7.8,0,11.6,0c0.3,0,0.5,0,0.8,0c0.3,0,0.5,0,0.8,0
									c0.2,0,0.5,0,0.7,0c3.1,0,6.1,0,9.1,0"/>
								<path class="st6" d="M17,28.5c0.3,0,0.6,0,0.9,0c0.2,0,0.3,0,0.4,0c2.2,0,4.4,0,6.5,0c0.3,0,0.5,0,0.8,0c2,0,4,0,6,0
									c0.2,0,0.3,0,0.5,0c0.5,0,1,0,1.4,0h0.6h2.7h0.5c3.9,0,7.6,0,11.4,0c0.3,0,0.5,0,0.8,0c0.2,0,0.4,0,0.6,0c0.2,0,0.4,0,0.6,0
									c2.2,0,4.3,0,6.5,0"/>
								<path class="st6" d="M16.2,28.2c0.5,0,1,0,1.5,0c0.2,0,0.5,0,0.7,0c2.1,0.1,4.4,0.1,6.5,0c0.2,0,0.5,0,0.7,0
									c2.2,0,4.3,0,6.5,0h0.6c0.6,0,1.2,0,1.7,0H35h1.6h0.6c4.1,0,8.3,0,12.4,0h0.7c3.2,0,6.2,0,9.5,0"/>
								<path class="st6" d="M12.8,28c1.1,0,2.2,0,3.3,0c0.2,0,0.3,0,0.5,0c0.6,0,1.2,0,1.8,0c0.2,0,0.4,0,0.6,0c1.8,0,3.4,0,5,0
									c0.3,0,0.5,0,0.8,0c2.3,0,4.6,0,6.9,0c0.2,0,0.5,0,0.7,0c0.7,0,1.5,0,2.2,0c0.2,0,0.4,0,0.6,0l0.6,0l0.6,0c4.5,0,9,0,13.6,0
									c0.2,0,0.5,0,0.7,0c3.5-0.1,6.9,0,10.4,0"/>
								<path class="st6" d="M14.6,27.7c0.2,0,0.3,0,0.5,0c0.2,0,0.3,0,0.5,0c1.2,0.1,2.5-0.1,3.8,0c0.1,0,0.3,0,0.4,0
									c1,0,1.9,0,2.9,0c0.2,0,0.5,0,0.7,0c2.7,0,5.4,0,8,0c0.2,0,0.4,0,0.6,0c1.1,0,2.1,0,3.2,0l0.6,0c4.7,0,9.4,0,14.1,0
									c0.2,0,0.5,0,0.7,0c0.2,0,0.5,0,0.7,0c0.2,0,0.5,0,0.7,0c2,0,3.9,0,5.9,0c0.2,0,0.5,0,0.7,0c0.2,0,0.5,0,0.7,0"/>
								<path class="st6" d="M4.4,27.5l0.8,0l0.8,0h0.8c2.9,0,5.7,0,8.6,0c0.2,0,0.3,0,0.5,0c1.3,0.2,2.5-0.2,3.8,0
									c0.2,0,0.3,0,0.5,0c0.3,0,0.6,0,1,0c0.3,0,0.5,0,0.8,0c2,0,4,0,6.1,0c0.2,0,0.5,0,0.7,0c0.9,0,1.9,0,2.8,0
									c0.2,0,0.5,0,0.7,0c1.2,0,2.4,0,3.6,0l0.6,0c4.6,0,9.2,0,13.8,0h0.8c0.2,0,0.5,0,0.7,0c2.3,0,4.6-0.1,6.8,0
									c0.3,0,0.5,0,0.8,0c1.3,0,2.5,0,3.8,0c0.2,0,0.5,0,0.7,0c0.4,0,0.7,0,1.1,0c0.1,0,0.2,0,0.4,0c0.9,0.2,1.8,0,2.6-0.1
									c0.4,0,0.8,0,1.2,0.1"/>
								<path class="st6" d="M14.8,27.2c0.1,0,0.3,0,0.4,0c0.1,0,0.3,0,0.5,0c1.2,0.2,2.4-0.1,3.6,0c0.2,0,0.3,0,0.5,0
									c1.7,0,3.3,0,5,0c0.2,0,0.5,0,0.7,0s0.5,0,0.7,0c1.3,0,2.6,0,3.9,0c0.2,0,0.4,0,0.6,0c1.5,0,3,0,4.4,0l0.6,0
									c4.8,0,9.8,0,14.6,0c0.3,0,0.5,0,0.8,0c2.4,0,4.9-0.1,7.4,0c0.2,0,0.4,0,0.7,0"/>
								<path class="st6" d="M13.3,27h2.8c0.2,0,0.4,0,0.6,0c0.9,0.1,1.7-0.1,2.5,0c0.2,0,0.4,0,0.6,0l0.5,0c2.6,0,5.2,0,7.8,0
									l0.6,0c0.6,0,1.2,0,1.8,0c0.1,0,0.3,0,0.5,0c0.9,0,1.7,0,2.7,0c0.1,0,0.3,0,0.5,0c0.6,0,1.2,0,1.8,0l0.6,0c4.4,0,8.6,0,13,0
									c0.3,0,0.5,0,0.8,0c2.8,0.1,5.4,0,8.2,0c0.2,0,0.5,0,0.7,0c0.2,0,0.4,0,0.6,0h1.1"/>
								<path class="st6" d="M16.9,26.7h2.7h0.8c0.8,0,1.6,0,2.4,0c0.1,0,0.2,0,0.3,0c0.7,0,1.5,0,2.2,0h0.3c0.7,0,1.4,0,2.1,0h0.6
									h0.3H29c0.7,0,1.5,0,2.2,0c0.1,0,0.2,0,0.3,0c0.7,0,1.5,0,2.3,0c0.1,0,0.3,0,0.4,0c0.3,0,0.7,0,1,0c0.1,0,0.1,0,0.2,0
									c0.9,0,1.5,0,2.3,0h0.3h0.3c0.7,0,1.5,0,2.2,0c0.1,0,0.2,0,0.3,0c0.9,0,1.9,0,2.8,0h0.3c0.3,0,0.6,0,0.9,0H45
									c1,0,2.1,0,3.1,0c0.1,0,0.2,0,0.3,0h0.9h0.7c0.4,0,0.8,0,1.2,0c0.1,0,0.2,0,0.3,0c0.8,0.1,1.7-0.1,2.5,0c0.1,0,0.2,0,0.3,0
									c1.4,0,2.9,0,4.2,0"/>
								<path class="st6" d="M13.3,26.5l7.3,0l0.5,0c0.5,0,1,0,1.5,0c0.1,0,0.2,0,0.3,0c0.6,0.1,1.3,0,1.8,0c0.3,0,0.7,0.1,0.9,0
									c0.1,0,0.2,0,0.3,0c0.4,0,0.8,0,1.2,0l0.6,0l0.8,0l0.3,0c0.9,0.2,1.7-0.1,2.6,0c0.1,0,0.2,0,0.3,0c0.9,0,1.8-0.1,2.6,0
									c0.2,0,0.3,0,0.5,0l0.2,0h0.2c0.9,0.1,1.7-0.1,2.7,0c0.1,0,0.2,0,0.3,0c0.2,0,0.3,0,0.5,0c0.1,0,0.2,0,0.3,0l1.5,0
									c0.1,0,0.1,0,0.2,0c1,0.1,1.9-0.1,3,0H44h0.6c0.1,0,0.2,0,0.3,0c1.2,0.1,2.4-0.1,3.5,0c0.1,0,0.2,0,0.3,0h1.1
									c0.2,0,0.3,0,0.5,0c0.3,0,0.6,0,0.9,0c0.1,0,0.2,0,0.3,0c0.9,0.1,1.8-0.1,2.8,0c0.1,0,0.2,0,0.3,0c1.4,0,2.9,0,4.3,0h0.7
									h0.5"/>
								<path class="st6" d="M1.4,26.2c0.2,0,0.4,0,0.6,0c13.9,0.1,27.6-0.1,41.5,0.1c0.8,0,1.6,0.1,2.4,0.1c1.1,0,2.1-0.2,3.3-0.1
									c0.2,0,0.4,0,0.6,0h0.7c0.3,0,0.6,0,0.9,0c0.1,0,0.2,0,0.3,0c0.8,0,1.7,0,2.5,0c0.1,0,0.2,0,0.3,0c1.5,0,3.1,0,4.6,0h0.5
									h14.1"/>
								<path class="st6" d="M5.3,26c14.6,0,28.9,0,43.4,0c0.2,0,0.4,0,0.6,0h0.6c0.2,0,0.5,0,0.7,0c2.7,0,5.4,0,8.2,0h0.7h0.8h8"/>
								<path class="st6" d="M16.5,25.8c2.5,0,5,0,7.6,0c0.1,0,0.3,0,0.4,0l20.1,0h0.6c1.5,0,3,0,4.4,0c0.2,0,0.5,0,0.7,0
									c2.5,0,4.9,0,7.4,0c0.2,0,0.5,0,0.7,0"/>
								<path class="st6" d="M6.8,25.5c0.3,0,0.9,0,1.3,0c0.2,0,0.5,0,0.8,0h2h0.6c4.5,0.1,8.9-0.1,13.4,0l0.5,0H28l2.3,0h2.4l2.4,0
									l9.2,0l0.6,0c1.7,0,3.4,0,5.1,0c0.2,0,0.5,0,0.7,0c2,0.1,3.9,0,5.9,0c0.2,0,0.5,0,0.7,0c1.2,0,2.5,0,3.7,0h0.8h6.4"/>
								<path class="st6" d="M10.2,25.3h0.6h0.8c4.6,0,9-0.1,13.5,0c0.2,0,0.4,0,0.6,0l2.4,0h2.3l2.4,0l2.4,0l8.5,0l0.6,0
									c5.5,0,11.1,0,16.6,0h0.6H65"/>
								<path class="st6" d="M18.3,25l7.8,0h2c2.2,0,4.5,0,6.8,0l2.4,0h6.4l0.6,0c2.8,0,5.6,0,8.4,0c0.1,0,0.2,0,0.3,0
									c0.8,0,1.5,0,2.3,0c0.1,0,0.2,0,0.3,0c0.1,0,0.2,0,0.3,0"/>
								<path class="st6" d="M12.1,24.8c4.4,0.1,8.7-0.2,13.1,0c0.2,0,0.4,0,0.6,0h0.6h2.2c1.7,0,3.1,0,4.7,0h2.4h7.8h0.5
									c2.9,0,5.7,0,8.6,0c0.1,0,0.2,0,0.3,0c0.8,0,1.7-0.1,2.5,0c0.1,0,0.2,0,0.3,0c1.6,0,3.2,0,4.7,0h0.6h0.5"/>
								<path class="st6" d="M19.3,24.5h8.1h2.1c1.4,0,3,0,4.5,0h2.4l7.6,0h0.5c2.8,0,5.6,0,8.4,0c0.1,0,0.2,0,0.3,0
									c0.7,0,1.4,0,2.2,0c0.1,0,0.2,0,0.3,0"/>
								<path class="st6" d="M8.6,24.3h3.7H13c2.5,0,5,0,7.6,0c0.3,0,0.5,0,0.8,0c5.6-0.1,11.1,0.1,16.7,0.1c2,0,3.9,0,5.8,0
									c0.2,0,0.5,0,0.7,0l0.6,0c1,0,2,0,3,0c0.3,0,0.5,0,0.8,0c4.6-0.1,9.1,0.2,13.7,0l0.8,0h2.3"/>
								<path class="st6" d="M1.8,24h18.3c0.2,0,0.4,0,0.6,0c7.5-0.1,14.8,0.1,22.3,0c0.3,0,0.5,0,0.8,0l5.4,0h0.8c0.9,0,2,0,2.9,0
									c0.2,0,0.5,0,0.7,0H55c0.2,0,0.5,0,0.7,0c1.2,0,2.2,0,3.5,0c0.2,0,0.4,0,0.6,0c0.4,0,0.7,0,1.2,0c0.1,0,0.1,0,0.2,0h11.3"/>
								<path class="st6" d="M13.7,23.8h5.7c0.2,0,0.3,0,0.5,0c6.5-0.2,13,0.1,19.6,0c0.3,0,0.5,0,0.8,0c2.1,0,4.1,0,6.2,0H47h11.2
									h0.2c0.4,0,1,0,1.4,0"/>
								<path class="st6" d="M17.3,23.6l1.6,0h0.7c5.8,0,11.5,0.1,17.4,0c0.2,0,0.4,0,0.7,0c0.9,0,1.8,0,2.7,0c0.3,0,0.5,0,0.8,0
									c1.5,0,3,0,4.5,0h0.5h11"/>
								<path class="st6" d="M11.3,23.3h5c0.6,0,1.3,0,2,0c0.4,0,0.7,0,1.1,0c0.2,0,0.4,0,0.6,0c3.8,0.1,7.6,0.1,11.4,0
									c0.2,0,0.5,0,0.7,0c0.2,0,0.5,0,0.7,0c0.9-0.1,1.9,0,2.9,0c0.2,0,0.5,0,0.7,0c1.7,0,3.5,0,5.2,0c0.2,0,0.5,0,0.7,0
									c0.7,0,1.5,0,2.2,0h0.6l19.4,0"/>
								<path class="st6" d="M9.7,23.1c0.8,0,1.5,0,2.3,0c0.1,0,0.3,0,0.5,0h2.9c0.7,0,1.5,0,2.3,0c0.6,0,1.1,0,1.7,0
									c0.2,0,0.4,0,0.6,0c3.7,0.1,7.2,0.1,10.8,0c0.3,0,0.5,0,0.8,0c4.2,0,8.6-0.1,12.9,0H45l11.8,0c0.1,0,0.1,0,0.2,0
									c0.4,0,0.7,0,1.1,0c0.1,0,0.2,0,0.3,0c0.9,0,1.7,0,2.7,0c0.1,0,0.2,0,0.3,0l4.7,0"/>
								<path class="st6" d="M4.6,22.8l1.4,0c0.2,0,0.4,0,0.6,0c2,0.1,4-0.1,5.9,0c0.2,0,0.4,0,0.6,0l1.2,0c0.7,0,1.5,0,2.3,0
									c0.9,0,1.9,0,2.8,0c0.2,0,0.5,0,0.7,0c3.2,0.1,6.5,0,9.7,0c0.2,0,0.5,0,0.7,0c0.2,0,0.5,0,0.7,0c0.3,0,0.5,0,0.8,0
									c2.1,0,4.1,0,6.2,0c0.3,0,0.5,0,0.8,0c1.1,0,2,0,3.1,0c0.3,0,0.5,0,0.8,0c0.3,0,0.5,0,0.8,0c0.8,0,1.5,0,2.3,0
									c0.3,0,0.5,0,0.8,0c0.3,0,0.5,0,0.8,0c0.5,0,1,0,1.5,0c0.2,0,0.5,0,0.7,0c0.2,0,0.5,0,0.7,0c5.5,0,10.8,0,16.3,0
									c0.2,0,0.3,0,0.5,0h2.1"/>
								<path class="st6" d="M10.1,22.5c1,0,1.8,0,2.8,0h0.5h1.6c0.6,0,1.3,0,2,0c1.1,0,2.1,0,3.2,0c0.2,0,0.4,0,0.6,0
									c2.5,0.1,5,0,7.5,0.1c0.2,0,0.4,0,0.6,0c0.8,0,1.6,0,2.5,0c0.2,0,0.5,0,0.7,0c1.9,0,3.7,0,5.6-0.1c0.3,0,0.5,0,0.8,0
									c7.8-0.1,15.5,0.1,23.2-0.1c0.7,0,1.5,0,2.1,0c0.5,0,1.1-0.1,1.8-0.1"/>
								<path class="st6" d="M2.4,22.3h3.2c0.3,0,0.5,0,0.8,0c2.1,0.2,4.2-0.2,6.3,0c0.2,0,0.4,0,0.6,0l0.6,0c0.8,0,1.6,0,2.4,0
									c1.7,0,3.4,0,5.1,0c0.2,0,0.5,0,0.7,0c0.7,0,1.4,0,2.1,0c0.2,0,0.5,0,0.7,0c0.3,0,0.5,0,0.8,0c1.5,0,3.1,0,4.6,0H31
									c2.1,0,4.2,0,6.2,0c0.3,0,0.5,0,0.8,0c10,0.1,20-0.2,29.9,0c0.2,0,0.3,0,0.5,0l5,0"/>
								<path class="st6" d="M13.7,22.1H15c0.4,0,1,0,1.6,0c1.9,0.1,3.7-0.1,5.6,0c0.5,0,0.9,0,1.4,0c0.5,0,0.9,0,1.4,0
									c0.3,0,0.5,0,0.8,0c1.9,0,3.6,0,5.5,0c0.3,0,0.5,0,0.8,0c7.8,0,15.5,0,23.2,0h0.8h3.8"/>
								<path class="st6" d="M15.8,21.8l0.4,0c0.2,0,0.6,0,1.1,0c1.6,0,3.3,0,4.9,0c0.4,0,0.8,0,1.3,0c0.8,0,1.7,0,2.5,0
									c0.3,0,0.5,0,0.8,0c1,0,2.1,0,3.1,0c0.3,0,0.5,0,0.8,0c0.3,0,0.5,0,0.8,0c0.3,0,0.5,0,0.8,0c7.8,0,15.8-0.1,23.7,0
									c0.2,0,0.4,0,0.7,0h1.9"/>
								<path class="st6" d="M10,21.6c0.8,0,1.4,0,2.2,0c0.1,0,0.3,0,0.4,0h2.5c0.6,0,1.3,0,2,0c1.4,0,2.8,0,4.2,0c0.5,0,1,0,1.5,0
									c3.3,0,6.7,0,10.1,0h0.8c1,0,2.1,0,3.1,0c0.3,0,0.5,0,0.8,0c8.7,0,17.5,0,26.1,0.1"/>
								<path class="st6" d="M17.9,21.3c0,0,0.1,0,0.3,0c0.8,0,1.8,0,2.5,0c0.2,0,0.5,0,0.7,0c3,0,6.2,0,9.3,0h0.6h1.8l0.6,0
									c1.2,0,2.4,0,3.7,0c0.2,0,0.3,0,0.5,0c0.9,0,1.7,0,2.7,0c0.1,0,0.3,0,0.5,0c1.5,0,3,0,4.6,0h0.6h10.6"/>
								<path class="st6" d="M14.1,21.1h12.3H27c3.4,0,6.7,0,10,0c0.2,0,0.3,0,0.5,0c1.2,0,2.5-0.1,3.8,0c0.2,0,0.3,0,0.5,0
									c0.8,0,1.6,0,2.4,0h0.6h13.7c0.1,0,0.3,0,0.4,0c0.7,0.1,1.5,0.1,2.1,0"/>
								<path class="st6" d="M1.6,20.9l6.5,0c0.2,0,0.4,0,0.6,0c1.3,0,2.5,0,3.9,0c0.2,0,0.3,0,0.5,0l3.7,0c0.1,0,0.2,0,0.4,0
									c1,0,1.9,0,2.9,0c0.1,0,0.2,0,0.4,0l5,0h0.6c3.6,0,7.2,0,10.8,0c0.2,0,0.3,0,0.5,0c0.6,0.1,1.3,0,1.9,0c0.2,0,0.4,0,0.6,0
									c0.8,0,1.5,0.1,2.3,0c0.2,0,0.4,0,0.6,0h0.6c5.9,0,11.7,0,17.6,0c0.2,0,0.4,0,0.6,0c0.2,0,0.4,0,0.6,0c0.2,0,0.4,0,0.6,0
									c1.1,0,2,0,3.1,0c0.1,0,0.2,0,0.3,0h6.2"/>
								<path class="st6" d="M6.6,20.6l1.8,0c0.1,0,0.3,0,0.4,0c1,0.1,2.1-0.1,3.2,0c0.2,0,0.4,0,0.7,0l3.7,0c0.1,0,0.2,0,0.3,0
									c1.2,0.1,2.4-0.1,3.6,0c0.2,0,0.3,0,0.5,0l4.2,0h0.6c3.7,0,7.4,0,11.1,0c0.2,0,0.3,0,0.5,0c1.3,0.1,2.5,0,3.8,0
									c0.2,0,0.3,0,0.5,0c1.4,0,2.9,0,4.3,0h0.6h8h0.3c0.9,0.1,1.7-0.1,2.6,0c0.1,0,0.2,0,0.3,0l0.5,0c0.1,0,0.2,0,0.3,0
									c0.8,0.1,1.4-0.1,2.2,0c0.1,0,0.2,0,0.3,0c0.5,0,0.9,0,1.4,0h0.5h5.4"/>
								<path class="st6" d="M18.6,20.4c0.7-0.1,1.5,0,2.2,0c0.1,0,0.2,0,0.3,0h1.7l0.7,0c4.6,0,9.3,0,13.9,0c0.2,0,0.3,0,0.5,0
									c0.8,0,1.6,0,2.4,0c0.2,0,0.3,0,0.5,0c1.6,0,3.2,0,4.8,0h0.5h1c0.7,0,1.3,0,1.9,0h1.7h3.5c0.1,0,0.2,0,0.2,0
									c0.3,0,0.4,0,0.7,0"/>
								<path class="st6" d="M12.2,20.1h4l0.3,0c1.3,0,2.6,0,3.9,0c0.1,0,0.2,0,0.3,0l2.9,0l0.5,0c2.5,0,5,0,7.5,0
									c0.2,0,0.3,0,0.5,0c1,0,1.9,0,2.8,0c0.1,0,0.3,0,0.4,0c1.9,0,3.7,0,5.6,0c0.2,0,0.3,0,0.5,0c1.1,0,2.3,0,3.4,0
									c0.1,0,0.3,0,0.5,0c0.3,0,0.6,0,0.9,0c0.2,0,0.4,0,0.6,0c0.2,0,0.4,0,0.6,0c1.4,0,2.9,0,4.3,0h2H55c0.1,0,0.2,0,0.3,0
									c0.6,0,1,0,1.5,0c0.1,0,0.2,0,0.3,0h1.1h0.2c0.8,0,1.4,0,2.2,0h0.3l2.4,0"/>
								<path class="st6" d="M2,19.9h5.4h0.4c4.1-0.1,8.1,0,12.2,0c1.2,0,2.4,0,3.5,0c0.2,0,0.4,0,0.5,0h0.5l0.6,0
									c1.9,0,3.7,0,5.6,0c0.2,0,0.3,0,0.5,0c1.4,0.2,2.7-0.2,4,0c0.1,0,0.3,0,0.4,0c1.5,0,3.1,0,4.6,0c0.2,0,0.3,0,0.5,0
									c1.5,0.1,2.8-0.1,4.3,0c0.1,0,0.3,0,0.4,0c2.2,0,4.4,0,6.5,0c0.3,0,0.5,0,0.8,0c0.5,0,1,0,1.6,0h0.5l9.2,0
									c0.1,0,0.1,0,0.2,0c0.9,0.1,1.8-0.1,2.7,0h0.2h4.6"/>
								<path class="st6" d="M9.3,19.6c4.8,0,9.5,0.2,14.2,0.1c0.1,0,0.3,0,0.4,0h0.4h0.5c2,0,4,0,5.9,0c0.1,0,0.3,0,0.4,0
									c0.9,0.2,1.9,0,2.8-0.1c0.4,0,0.9,0,1.3,0.1c0.1,0,0.3,0,0.4,0c1.4,0,2.9,0,4.4,0c0.2,0,0.3,0,0.5,0c1.5,0.1,3-0.1,4.5,0
									c0.2,0,0.3,0,0.5,0c3.8,0,7.5-0.1,11.3,0h0.6h7.3h0.3c0.4,0,0.7,0,1.1,0c0.1,0,0.1,0,0.2,0h0.4"/>
								<path class="st6" d="M8.2,19.4c0.9,0,1.7-0.1,2.6-0.1c4.3,0.3,8.3,0.1,12.4,0.1l0.6,0h0.6l0.5,0c2,0,4.1,0,6.1,0l0.5,0
									c1.2,0.1,2.2-0.1,3.5,0c0.2,0,0.3,0,0.5,0c1.6,0,3.2,0,4.9,0h0.4c1.5,0.1,3,0,4.5,0c0.2,0,0.3,0,0.5,0c4.4,0,8.7,0,13,0h0.6
									h7.6"/>
								<path class="st6" d="M15.9,19.1l9.6,0h0.5c2,0,4,0,5.9,0c0.1,0,0.3,0,0.4,0c0.8,0,1.7,0,2.4,0c0.1,0,0.3,0,0.4,0
									c1.9,0,3.9,0,5.9,0c0.2,0,0.3,0,0.5,0c1,0,2.1,0,3.2,0c0.2,0,0.3,0,0.5,0c4.4,0,8.7,0,13.1,0c0.3,0,0.5,0,0.8,0"/>
								<path class="st6" d="M9.2,18.9c2.8,0.1,5.6,0,8.4,0c0.2,0,0.3,0,0.5,0h12.6h0.6c0.2,0,0.5,0,0.7,0c0.2,0,0.5,0,0.7,0
									c0.9,0,1.8,0,2.7,0c0.2,0,0.5,0,0.7,0c0.5,0,0.9,0,1.4,0c0.2,0,0.5,0,0.7,0c0.8,0,1.6,0,2.4,0c0.1,0,0.3,0,0.4,0
									c0.1,0,0.3,0,0.4,0c0.3,0,0.5,0,0.8,0c0.2,0,0.5,0,0.7,0c0.7,0,1.5,0,2.2,0c0.2,0,0.5,0,0.7,0c0.5,0,1,0,1.5,0
									c0.2,0,0.5,0,0.7,0c0.7,0,1.5,0,2.2,0c0.2,0,0.5,0,0.7,0c0.2,0,0.5,0,0.7,0c4.2,0,8.6-0.2,12.8,0c0.2,0,0.5,0,0.7,0h2.1"/>
								<path class="st6" d="M12.6,18.7c1-0.1,1.8-0.1,2.7-0.1c0.2,0,0.4,0,0.6,0l15.2,0c0.2,0,0.4,0,0.6,0
									c10.3,0,20.5,0.1,30.8-0.1"/>
								<path class="st6" d="M5.7,18.4h0.5c0.2,0,0.4,0,0.7,0c2.2,0.1,4.4,0.1,6.6,0c0.2,0,0.4,0,0.7,0c0.2,0,0.4,0,0.7,0
									c0.2,0,0.3,0,0.5,0l13.6,0c0.8,0,1.7,0,2.5,0c11.3,0,22.6-0.1,33.9,0c0.2,0,0.5,0,0.7,0h2.3"/>
								<path class="st6" d="M3.6,18.2l1.6,0l0.5,0c0.3,0,0.5,0,0.8,0c0.3,0,0.5,0,0.8,0c1.8,0,3.5,0,5.2,0c0.3,0,0.5,0,0.7,0
									c1,0,2,0,3,0.1l0.5,0l12.6,0c0.8,0,1.6,0,2.5,0c11.2,0,22.5,0,33.7,0c0.2,0,0.5,0,0.7,0c1.4,0,2.8,0,4.2,0"/>
								<path class="st6" d="M17.5,17.9l14.3,0c0.2,0,0.5,0,0.6,0c2.2,0,4.6,0,6.8,0c0.2,0,0.4,0,0.6,0c0.6,0,1.2,0,1.8,0h0.7
									c4.7,0,9.4,0,14.2,0"/>
								<path class="st6" d="M12.1,17.7h17.3c0.8,0,1.6,0,2.4,0c10.1,0.2,20.3-0.1,30.4,0.1"/>
								<path class="st6" d="M1.3,17.4h3.4h0.7c3.8,0,7.5,0,11.4,0h0.5h12.6c0.8,0,1.6,0,2.5,0c10.8,0,21.5,0,32.3,0
									c0.2,0,0.5,0,0.7,0c2.9,0,5.9,0,8.9,0"/>
								<path class="st6" d="M0.6,17.2l3.7,0c0.2,0,0.4,0,0.6,0c3.8,0.1,7.8,0.1,11.6,0c0.2,0,0.4,0,0.5,0h12.8c0.8,0,1.6,0,2.5,0
									c10.4,0.1,20.9,0,31.2,0c0.3,0,0.5,0,0.8,0c3,0,6.1,0,9.1,0"/>
								<path class="st6" d="M12.5,16.9h1.8h0.5c1.1,0,2.2,0,3.4,0h0.4h14.4c0.1,0,0.3,0,0.4,0c1.5,0,3.1,0,4.5,0h0.5h7.9
									c0.5,0,1,0,1.5,0c1.9,0,3.7,0,5.6,0h1.3H56c0.3,0,0.5,0,0.8,0c0.9,0,1.8,0,2.7,0c0.1,0,0.2,0,0.3,0c0.8,0.1,1.6-0.1,2.4,0
									c0.1,0,0.2,0,0.3,0c0.3,0,0.6,0,0.9,0"/>
								<path class="st6" d="M9,16.8c2.3-0.1,4.6,0,7-0.1c0.2,0,0.5,0,0.7,0c0.9,0,1.8,0,2.7,0h0.5h26.3c0.6,0,1.1,0,1.7,0
									c1.6-0.1,3.1-0.1,4.6,0c0.5,0,1,0,1.5,0h2.8c0.3,0,0.5,0,0.8,0c3,0,6,0,9,0"/>
								<path class="st6" d="M11.6,16.4c1.1,0,2.3,0,3.3,0c0.2,0,0.4,0,0.6,0c1.4,0,2.9,0,4.2,0h0.5h22.8h1.6c1,0,2.2,0,3.3,0
									c0.2,0,0.4,0,0.6,0c0.4,0,0.8,0,1.2,0c0.2,0,0.4,0,0.6,0c3.8,0,7.5,0,11.4,0c0.2,0,0.4,0,0.6,0c0.6,0,1.3,0,1.9,0"/>
								<path class="st6" d="M1.6,16.2l10.8,0l0.5,0c2.5,0,5,0,7.6,0h0.5h3.5l0.5,0c5.7,0,11.4,0,17.1,0c0.5,0,1,0,1.6,0
									c6,0.1,12.1-0.1,18.1,0c0.2,0,0.5,0,0.7,0c1.5,0,3.1,0,4.6,0h0.8h5.7"/>
								<path class="st6" d="M1,16h11.6h0.5c2.4,0,4.8,0,7.2,0h0.5h2.5h0.5c6.1,0,12.1,0,18.1,0c0.5,0,1,0,1.5,0
									c6.3,0.1,12.5-0.2,18.6,0c0.3,0,0.5,0,0.8,0c1.2,0,2.5,0,3.7,0h0.8h5.1"/>
								<path class="st6" d="M13.7,15.7c2.1,0,4.4,0,6.5,0l0.4,0h2.1h0.4c6.4,0.1,12.7,0,19,0c0.2,0,0.3,0,0.5,0h0.5
									c5.9,0,11.6,0,17.5,0"/>
								<path class="st6" d="M16.7,15.5c1.1,0,2.2,0,3.2,0h0.7H22h0.8c6.1,0.2,12.3-0.1,18.5,0h0.5l1,0c4.9,0,10,0,14.9,0.1"/>
								<path class="st6" d="M14.6,15.2c1.4,0,3,0,4.5,0l0.8,0h2.8H23c3.3,0,6.7,0.1,9.9,0c0.2,0,0.4,0,0.5,0l0.5,0c1,0,1.8,0,2.7,0
									l0.5,0h4.3H43c5.3,0.1,10.5-0.1,15.7,0.2"/>
								<path class="st6" d="M8.3,15h5.8h0.8c1.2,0,2.4,0,3.5,0H19h3.5h0.7c3.1,0,6.2,0,9.2,0c0.1,0,0.3,0,0.4,0h6.8h0.5
									c0.7,0,1.5,0,2.2,0c0.4,0,0.7,0,1,0c6.2-0.1,12.4,0.2,18.5,0c0.2,0,0.5,0,0.7,0h3.3h0.2c0.4,0,0.9,0,1.3,0"/>
								<path class="st6" d="M15.3,14.7h7.9l0.5,0c2.5,0.1,5.1,0,7.7,0c0.2,0,0.4,0,0.6,0h6.8l0.6,0c1.4,0,2.8,0,4.2,0
									c0.5,0,0.9,0,1.4,0c4.5,0,9.1-0.1,13.7,0.1"/>
								<path class="st6" d="M11.8,14.5H23h0.5c2.1,0,3.9,0,6,0H30h7.1h0.6c2.2,0,4.3,0,6.5,0c0.4,0,0.9,0,1.3,0c0.6,0,1.4,0,2.1,0
									c0.2,0,0.4,0,0.5,0c0.5,0,1.1,0,1.6,0c0.2,0,0.3,0,0.5,0c0.8,0,1.5,0,2.3,0c0.2,0,0.5,0,0.7,0c0.2,0,0.5,0,0.7,0
									c0.7,0,1.3,0,2,0c0.1,0,0.2,0,0.3,0c0.9,0,1.7-0.1,2.4,0c0.1,0,0.1,0,0.2,0h4.8"/>
								<path class="st6" d="M1.7,14.2h22.7l0.6,0c1.2,0,2.3,0,3.5,0h0.3c2.4,0,4.8,0,7.2,0c0.1,0,0.3,0,0.4,0h0.4h0.6
									c0.6,0,1.3,0,1.9,0c0.2,0,0.3,0,0.5,0c5.4,0,10.8,0,16.1,0c0.1,0,0.2,0,0.3,0c0.8,0.1,1.6,0,2.3,0c0.1,0,0.1,0,0.2,0
									c2.5,0,5,0,7.5,0c0.1,0,0.2,0,0.3,0c0.3,0,0.7,0,0.9,0c0.1,0,0.2,0,0.3,0c0.3,0,0.6,0,0.9,0c0.5,0,1.3-0.1,2,0
									c0.1,0,0.2,0,0.3,0h2"/>
								<path class="st6" d="M17.8,14h19.9l0.5,0c5.9,0,11.6,0,17.5,0"/>
								<path class="st6" d="M12.1,13.7h11.4c0.1,0,0.1,0,0.2,0c0.6,0,1,0,1.5,0c0.1,0,0.1,0,0.2,0h9c0.2,0,0.5,0,0.7,0
									c1,0,1.9,0,2.9,0h0.6c6.3,0,12.7,0,18.9,0c0.2,0,0.5,0,0.7,0c0.2,0,0.5,0,0.7,0h0.7h4.1"/>
								<path class="st6" d="M11.7,13.5h6h0.5c0.9,0,1.7,0,2.6,0c0.1,0,0.2,0,0.3,0h2c0.1,0,0.2,0,0.3,0c0.8,0,1.6-0.1,2.4,0h0.3
									h7.6c0.2,0,0.5,0,0.7,0c1.6-0.1,3.2-0.1,4.8,0c0.2,0,0.5,0,0.7,0c5.7,0,11.4,0,17.1,0c0.2,0,0.5,0,0.7,0c0.1,0,0.2,0,0.2,0
									c0.8,0,1.6-0.1,2.3,0c0.1,0,0.2,0,0.2,0h2"/>
								<path class="st6" d="M7.1,13.3l10.2,0h0.3c1.3,0.1,2.5-0.1,3.8,0c0.1,0,0.2,0,0.3,0h1.2c0.1,0,0.2,0,0.3,0
									c0.9,0.1,1.8-0.1,2.8,0l0.3,0l6.8,0c0.3,0,0.6,0,0.8,0c1.7-0.1,3.4-0.2,5.1,0c0.3,0,0.5,0,0.8,0c5.3,0,10.5,0,15.9,0
									c0.3,0,0.5,0,0.8,0c1.7,0,3.5,0,5.2,0c0.2,0,0.3,0,0.5,0h4.6"/>
								<path class="st6" d="M15.7,13h1.6c0.1,0,0.2,0,0.3,0c1.3,0.1,2.6-0.1,3.9,0H22h1.3h0.3c0.6,0,1.2,0,1.7,0h0.3h7
									c0.2,0,0.5,0,0.7,0c2.2-0.1,4.5-0.1,6.8,0h0.6c0.7,0,1.4,0,2.2,0h0.6c0.2,0,0.5,0,0.7,0c1,0,1.9-0.1,2.9,0
									c0.2,0,0.5,0,0.7,0c2.4,0,4.7,0,7.1,0c0.1,0,0.2,0,0.3,0c1.4-0.1,2.7,0.1,4.1-0.1"/>
								<path class="st6" d="M13.4,12.8h4.1c0.1,0,0.3,0,0.4,0c1,0.1,2.2-0.1,3.3,0c0.1,0,0.2,0,0.3,0H33l0.5,0c2.2,0,4.4,0,6.5,0
									l0.8,0h2.4h0.6c3.6,0,7.1,0,10.7,0c0.1,0,0.2,0,0.3,0c1.7,0,3.3,0,5.1-0.2"/>
								<path class="st6" d="M13.1,12.5h4.8c0.1,0,0.3,0,0.4,0c0.8,0,1.6,0,2.4,0c0.1,0,0.2,0,0.3,0h11.2H33c2.3,0,4.4,0.1,6.6,0
									c0.1,0,0.3,0,0.5,0l2.9,0l0.6,0c3.3,0,6.6,0,9.9,0c0.5,0,1,0,1.4,0c2.3,0,4.9-0.2,7.3,0"/>
								<path class="st6" d="M0.3,12.3h32.8c0.2,0,0.5,0,0.6,0c2.1,0.1,4,0.1,6.1,0c0.2,0,0.4,0,0.6,0h2.8h0.6c3.4,0,6.7,0,10.1,0
									c0.2,0,0.5,0,0.7,0c2.3,0,4.7,0,7.1,0c0.5,0,1,0,1.4,0c3.1,0,6.3,0,9.5,0"/>
								<path class="st6" d="M12,12h21.4c0.2,0,0.4,0,0.6,0c1.8,0.1,3.7,0,5.6,0h0.6H44h0.6c3.2,0,6.3,0,9.4,0c0.2,0,0.5,0,0.7,0
									c2.5,0,5.2,0.2,7.7,0"/>
								<path class="st6" d="M18.4,11.8l16.5,0c0.2,0,0.4,0,0.5,0c1,0,1.8,0,2.7,0c0.2,0,0.4,0,0.5,0l14.9,0l0.5,0
									c0.4,0,0.8,0,1.2,0"/>
								<path class="st6" d="M11.3,11.5h10.9l1,0c1.1,0,2.1,0,3.2,0h1.1h25.4c0.1,0,0.3,0,0.4,0c0.4,0,0.9,0,1.3,0
									c0.2,0,0.4,0,0.7,0c2.4,0,4.8,0.3,7.3,0"/>
								<path class="st6" d="M8.8,11.3h12.3l1,0c1.9,0,3.8,0,5.6,0l1.2,0h23.7c0.2,0,0.3,0,0.5,0c0.7,0,1.4,0,2.1,0
									c0.2,0,0.5,0,0.7,0c1.8,0,3.7,0,5.5,0c0.2,0,0.5,0,0.7,0c0.7,0,1.4,0,2.1,0H65h1"/>
								<path class="st6" d="M6,11.1h15.7h1.1c1.9,0,3.9,0,5.7,0h1.2h16.6c0.1,0,0.2,0,0.3,0c0.8,0.1,1.5-0.1,2.2,0
									c0.1,0,0.2,0,0.3,0h3.3c0.2,0,0.3,0,0.5,0c2.2,0.1,4.5,0.1,6.7,0c0.1,0,0.2,0,0.3,0c0.3,0,0.9,0,1.3,0c0.1,0,0.2,0,0.3,0
									c0.5,0,1.1,0,1.6,0h0.6h4.1"/>
								<path class="st6" d="M16.9,10.8l4.2,0h0.8c2.2,0,4.6,0,6.9,0h1.1l16.3,0c0.1,0,0.2,0,0.3,0c0.8,0,1.7,0,2.4,0
									c0.1,0,0.2,0,0.3,0l2.9,0c0.3,0,0.5,0,0.7,0c1.5,0,3,0.1,4.4,0.1"/>
								<path class="st6" d="M18.1,10.6l3.4,0l0.7,0c2.1,0,4.3,0,6.4,0l1.1,0h16.4h0.3c0.8,0,1.6,0,2.4,0l0.3,0l2.9,0h0.6
									c1.6,0,3.2,0.1,4.8,0"/>
								<path class="st6" d="M12.1,10.3h9.2h1c2.2,0,4.3,0,6.5,0h1H30c0.7,0,1.3,0,2,0c0.1,0,0.2,0,0.3,0h21.2c0.2,0,0.4,0,0.6,0
									c1,0.1,1.8,0,2.7,0c0.2,0,0.4,0,0.5,0c0.4,0,0.7,0,1.1,0c0.1,0,0.2,0,0.3,0c0.9,0.2,1.5-0.2,2.4,0c0.1,0,0.2,0,0.3,0
									c0.1,0,0.2,0,0.3,0c0.3,0,0.5,0,0.8,0"/>
								<path class="st6" d="M13.9,10.1h7.8h0.5c0.2,0,0.3,0,0.5,0c0.9,0,1.8,0,2.6,0c0.2,0,0.4,0,0.7,0c0.7,0,1.3,0,2,0l1.1,0
									l0.3,0h0.3c0.9,0.1,2-0.1,2.9,0c0.1,0,0.1,0,0.2,0c0.8,0.1,1.6-0.1,2.4,0h0.2h5.6c0.3,0,0.5,0,0.8,0c1-0.1,2.1,0,3.1,0
									l0.8,0l7.1,0c0.2,0,0.4,0,0.6,0c1.5-0.1,3.1-0.2,4.6,0c0.2,0,0.4,0,0.6,0c0.1,0,0.2,0,0.3,0c0.8,0.1,1.4-0.1,2.2,0
									c0.1,0,0.2,0,0.3,0c0.1,0,0.2,0,0.2,0"/>
								<path class="st6" d="M2.7,9.8l0.2,0c1.2,0,2.4-0.1,3.5-0.1c0.2,0,0.5,0,0.7,0c4.5,0,9,0.1,13.6,0.1c0.3,0,0.5,0,0.8,0
									c0.2,0,0.4,0,0.7,0c0.2,0,0.4,0,0.7,0c0.9,0,1.7,0,2.7,0c0.2,0,0.4,0,0.7,0c0.2,0,0.4,0,0.6,0c0.3,0,0.5,0,0.8,0
									c0.8,0,1.5,0,2.3,0c0.1,0,0.2,0,0.3,0c0.8,0,1.5,0,2.3,0c0.1,0,0.2,0,0.3,0c0.9,0.1,1.7-0.1,2.6,0c0.1,0,0.2,0,0.3,0
									c0.6,0,1.3,0,1.9,0h0.6l1.6,0c0.3,0,0.6,0,0.8,0c1.5-0.1,3.3-0.1,4.8,0c0.3,0,0.5,0,0.8,0h5.8c0.2,0,0.4,0,0.6,0
									c1.9-0.1,3.7-0.2,5.5,0c0.3,0,0.6,0,0.8,0c3.1,0,6.1,0,9.1,0h0.6h3.1"/>
								<path class="st6" d="M7.2,9.5c4.5,0.1,8.9,0.1,13.4,0.1c0.3,0,0.5,0,0.8,0c1.9,0,3.6-0.2,5.5,0c0.3,0,0.5,0,0.8,0
									c1.6,0,3.1,0,4.7,0h0.3c0.8,0,1.5,0,2.3,0c0.1,0,0.1,0,0.2,0c1.1,0,2.3,0,3.4,0l0.6,0c0.3,0,0.5,0,0.8,0
									c2-0.1,4.1-0.1,6.1,0c0.3,0,0.5,0,0.7,0l5,0c0.2,0,0.5,0,0.7,0c0.7,0,1.3-0.1,2-0.1c0.2,0,0.4,0,0.7,0
									c4.1,0.1,8.2,0,12.4,0.1"/>
								<path class="st6" d="M7.7,9.3c4,0.1,8,0.1,12,0.1c0.3,0,0.5,0,0.8,0c0.2,0,0.4,0,0.6,0c2,0,3.8-0.2,5.8-0.1
									c0.3,0,0.5,0,0.8,0c3.5,0,7,0,10.5,0h0.6c0.3,0,0.5,0,0.8,0c2.3-0.1,4.6-0.1,6.9,0h0.7h3.6h0.5c0.2,0,0.4,0,0.6,0
									c0.9,0,1.8,0,2.7,0c0.2,0,0.4,0,0.7,0c3.9,0.1,7.7,0,11.5-0.1"/>
								<path class="st6" d="M10,9.1c3.2,0,6.5,0,9.7,0c0.3,0,0.5,0,0.8,0c2.4,0.1,4.8-0.1,7.2,0h0.8c3.5,0,7,0,10.5,0h0.6
									c2.2,0,4.3,0,6.4,0h0.8h4.1h0.6c0.2,0,0.4,0,0.6,0c0.2,0,0.4,0,0.6,0c2.1,0.1,4.2,0.1,6.4,0c0.2,0,0.5,0,0.7,0
									c0.9,0,1.7,0,2.6,0c0.3,0,0.5,0,0.8,0c0.8,0,1.6,0,2.3,0"/>
								<path class="st6" d="M6.3,8.8c4.5,0.1,9,0.1,13.5,0.1h0.8c2.1,0.2,4.1-0.2,6.3,0c0.3,0,0.6,0,0.8,0c3.4,0,6.9,0,10.3,0h0.6
									h0.8c0.3,0,0.6,0,0.9,0c2,0.1,3.9,0.1,5.9,0c0.2,0,0.5,0,0.8,0h3.6h0.8c0.2,0,0.4,0,0.6,0c0.2,0,0.4,0,0.6,0
									c1,0.1,2,0.1,3,0.1c0.2,0,0.4,0,0.6,0c4-0.2,7.9,0,11.9-0.2"/>
								<path class="st6" d="M10.9,8.6c3.1,0,6.1,0,9.2,0c0.3,0,0.5,0,0.8,0c2,0.1,4.2-0.1,6.1,0c0.3,0,0.5,0,0.8,0
									c3.6,0,7.2,0,10.8,0h0.6c0.3,0,0.5,0,0.8,0c2.1,0.1,4.1,0.1,6.2,0c0.3,0,0.5,0,0.8,0h2.9l0.7,0c0.6,0,1.3,0,1.9,0
									c0.2,0,0.4,0,0.6,0c1.7,0.1,3.4,0.1,5.1,0c0.2,0,0.4,0,0.6,0c0.4,0,0.8,0,1.2,0c0.2,0,0.5,0,0.7,0c1,0,2,0,3,0"/>
								<path class="st6" d="M17.8,8.4c0.8,0,1.7,0,2.5,0h0.5c2,0,4,0,6.1,0c0.3,0,0.5,0,0.8,0c3.8,0,7.6,0,11.4,0h0.6
									c0.3,0,0.6,0,0.8,0c1.6,0.1,3.2,0,4.8,0c0.3,0,0.5,0,0.8,0h4.3l0.6,0c0.8,0,1.5,0,2.2,0c0.2,0,0.5,0,0.7,0c1,0,1.9,0,2.9,0
									c0.2,0,0.5,0,0.7,0c0.2,0,0.5,0,0.7,0"/>
								<path class="st6" d="M18.8,8.1c0.8,0,1.6,0,2.4,0c0.2,0,0.3,0,0.5,0c1.5,0,3,0,4.6,0c0.2,0,0.4,0,0.6,0c0.6,0,1.1,0,1.7,0
									h0.3c1.2,0,2.4,0,3.6,0c0.2,0,0.3,0,0.5,0c1,0,1.9,0,2.8,0c0.2,0,0.3,0,0.5,0c0.5,0,0.9,0,1.4,0h0.6c1,0,2.1,0,3.2,0
									c0.2,0,0.3,0,0.5,0c0.9,0,1.7,0,2.6,0l0.7,0h4.8l0.6,0c2,0,4.1,0,6.1,0"/>
								<path class="st6" d="M13,7.9c7.5-0.1,15.1,0.1,22.7,0c0.2,0,0.4,0,0.7,0h0.3h0.3c0.2,0,0.5,0,0.8,0c1.7-0.1,3.5,0,5.2,0h0.7
									H47h1.1c0.8,0,1.6,0,2.5,0c0.2,0,0.4,0,0.5,0c3.2,0,6.5,0.1,9.7,0"/>
								<path class="st6" d="M10.8,7.6c0.1,0,0.2,0,0.2,0c0.3,0,0.4,0,0.7,0c0.1,0,0.2,0,0.3,0c0.2,0,0.5,0,0.8,0
									c1.1,0,2.1-0.1,3.2-0.1c6.9,0.1,13.7,0,20.6,0.1c0.2,0,0.5,0,0.7,0c1.9,0,3.9,0,5.8,0c0.2,0,0.5,0,0.7,0h2.8h0.3H47
									c0.9,0,1.8,0,2.7,0c0.1,0,0.2,0,0.4,0c0.1,0,0.2,0,0.4,0c0.2,0,0.4,0,0.6,0c0.3,0,0.5,0,0.8,0l0.8,0c4.2,0,8.2,0,12.3,0"/>
								<path class="st6" d="M16.3,7.3c6.5,0.2,13,0,19.4,0.1c0.2,0,0.5,0,0.7,0c2.2,0,4.4,0,6.6,0c0.3,0,0.5,0,0.8,0
									c0.8,0,1.6,0,2.3,0c0.2,0,0.3,0,0.5,0c1.2,0.1,2.5-0.1,3.7,0c0.2,0,0.3,0,0.5,0c0.2,0,0.3,0,0.5,0c0.2,0,0.4,0,0.7,0
									c2.6,0,5.2,0,7.7,0"/>
								<path class="st6" d="M15.7,7.1c6.8,0.1,13.6,0,20.4,0c0.3,0,0.5,0,0.8,0c2.2,0,4.3,0,6.4,0c0.2,0,0.3,0,0.5,0
									c0.5,0,1,0,1.5,0c0.2,0,0.4,0,0.6,0c0.1,0,0.2,0,0.3,0c0.1,0,0.2,0,0.3,0c1.3,0.2,2.5-0.2,3.8,0c0.1,0,0.3,0,0.4,0
									c2.5,0,5.1,0,7.6,0"/>
								<path class="st6" d="M17.5,6.9c6.2,0,12.2,0,18.3,0c0.3,0,0.5,0,0.8,0c2.2,0,4.5,0,6.7,0c0.2,0,0.5,0,0.7,0
									c0.2,0,0.5,0,0.8,0c0.5,0,0.9,0,1.4,0c0.2,0,0.3,0,0.5,0c1.2,0.1,2.6-0.1,3.8,0h0.5c2,0,4.1,0,6.1,0"/>
							</g>
						</g>
					</g>
					
						<radialGradient id="SVGID_8_" cx="302.8532" cy="137.4415" r="19.2905" gradientTransform="matrix(0.4393 0 0 2.2234 -107.1088 -239.1435)" gradientUnits="userSpaceOnUse">
						<stop  offset="0" style="stop-color:#FFFFFF"/>
						<stop  offset="8.962709e-02" style="stop-color:#FFFFFF;stop-opacity:0.9104"/>
						<stop  offset="1" style="stop-color:#FFFFFF;stop-opacity:0"/>
					</radialGradient>
					<ellipse class="st7" cx="25.9" cy="66.4" rx="8.5" ry="42.9"/>
					
						<radialGradient id="SVGID_9_" cx="347.8793" cy="165.1047" r="19.2904" gradientTransform="matrix(0.4393 0 0 2.6289 -107.1088 -395.2979)" gradientUnits="userSpaceOnUse">
						<stop  offset="0" style="stop-color:#FFFFFF"/>
						<stop  offset="1" style="stop-color:#FFFFFF;stop-opacity:0"/>
					</radialGradient>
					<ellipse class="st8" cx="45.7" cy="38.7" rx="8.5" ry="50.7"/>
					
						<radialGradient id="SVGID_10_" cx="322.1427" cy="178.0966" r="19.2904" gradientTransform="matrix(0.4393 0 0 2.6289 -107.1088 -395.2979)" gradientUnits="userSpaceOnUse">
						<stop  offset="0" style="stop-color:#FFFFFF"/>
						<stop  offset="1" style="stop-color:#FFFFFF;stop-opacity:0"/>
					</radialGradient>
					<ellipse class="st9" cx="34.4" cy="72.9" rx="8.5" ry="50.7"/>
					
						<radialGradient id="SVGID_11_" cx="368.246" cy="109.1692" r="19.2924" gradientTransform="matrix(0.3449 0 0 2.2234 -107.7543 -239.1435)" gradientUnits="userSpaceOnUse">
						<stop  offset="0" style="stop-color:#FFFFFF"/>
						<stop  offset="8.962709e-02" style="stop-color:#FFFFFF;stop-opacity:0.9104"/>
						<stop  offset="1" style="stop-color:#FFFFFF;stop-opacity:0"/>
					</radialGradient>
					<ellipse class="st10" cx="19.3" cy="3.6" rx="6.7" ry="42.9"/>
					
						<radialGradient id="SVGID_12_" cx="389.5145" cy="214.0549" r="19.2888" gradientTransform="matrix(0.2017 0 0 2.741 -46.839 -519.9028)" gradientUnits="userSpaceOnUse">
						<stop  offset="0" style="stop-color:#1A171B"/>
						<stop  offset="8.962709e-02" style="stop-color:#1A171B;stop-opacity:0.9104"/>
						<stop  offset="1" style="stop-color:#1A171B;stop-opacity:0"/>
					</radialGradient>
					<ellipse class="st11" cx="31.7" cy="66.8" rx="3.9" ry="52.9"/>
					
						<radialGradient id="SVGID_13_" cx="497.586" cy="189.3162" r="19.2888" gradientTransform="matrix(0.2017 0 0 2.741 -46.839 -519.9028)" gradientUnits="userSpaceOnUse">
						<stop  offset="0" style="stop-color:#1A171B"/>
						<stop  offset="8.962709e-02" style="stop-color:#1A171B;stop-opacity:0.9104"/>
						<stop  offset="1" style="stop-color:#1A171B;stop-opacity:0"/>
					</radialGradient>
					<path class="st12" d="M57.4-1c0,29.2-1.7,52.9-3.9,52.9c-2.1,0-3.9-23.7-3.9-52.9c0-29.2,1.7-52.9,3.9-52.9
						C55.7-53.9,57.4-30.2,57.4-1z"/>
					
						<radialGradient id="SVGID_14_" cx="354.9844" cy="187.3411" r="19.2888" gradientTransform="matrix(0.2017 0 0 2.741 -46.839 -519.9028)" gradientUnits="userSpaceOnUse">
						<stop  offset="0" style="stop-color:#1A171B"/>
						<stop  offset="8.962709e-02" style="stop-color:#1A171B;stop-opacity:0.9104"/>
						<stop  offset="1" style="stop-color:#1A171B;stop-opacity:0"/>
					</radialGradient>
					<path class="st13" d="M28.7-6.4c0,29.2-1.7,52.9-3.9,52.9c-2.1,0-3.9-23.7-3.9-52.9c0-29.2,1.7-52.9,3.9-52.9
						C26.9-59.3,28.7-35.6,28.7-6.4z"/>
					
						<radialGradient id="SVGID_15_" cx="478.8884" cy="114.2692" r="19.2923" gradientTransform="matrix(0.3449 0 0 2.2234 -107.7543 -239.1435)" gradientUnits="userSpaceOnUse">
						<stop  offset="0" style="stop-color:#FFFFFF"/>
						<stop  offset="8.962709e-02" style="stop-color:#FFFFFF;stop-opacity:0.9104"/>
						<stop  offset="1" style="stop-color:#FFFFFF;stop-opacity:0"/>
					</radialGradient>
					<ellipse class="st14" cx="57.4" cy="14.9" rx="6.7" ry="42.9"/>
				</g>
			</g>
		</g>
	</g>
</g>
<g>
	<path class="st15" d="M25.3,33.2h6.6l5.3,9.3l5.4-9.3h6.6c0.3,0,0.4,0.2,0.5,0.5l6.7,19.1c0.1,0.2-0.2,0.5-0.5,0.5H18.6
		c-0.2,0-0.5-0.2-0.5-0.5l6.7-19.1C24.9,33.4,25,33.2,25.3,33.2L25.3,33.2z"/>
	<path class="st15" d="M37.3,18.5c-4.1,0-7.5,3.3-7.5,7.4c0,1.3,0.3,2.6,1,3.7l6.4,11.2l6.4-11c0.7-1.2,1.1-2.5,1.1-3.9
		C44.7,21.8,41.4,18.5,37.3,18.5z M37.3,30.3c-2.3,0-4.2-1.9-4.2-4.2c0-2.4,1.9-4.2,4.2-4.2c2.3,0,4.2,1.9,4.2,4.2
		C41.6,28.4,39.7,30.3,37.3,30.3z"/>
</g>
</svg>
