<?xml version="1.0" encoding="utf-8"?>
<!-- Generator: Adobe Illustrator 22.1.0, SVG Export Plug-In . SVG Version: 6.00 Build 0)  -->
<svg version="1.1" id="Layer_1" xmlns="http://www.w3.org/2000/svg" xmlns:xlink="http://www.w3.org/1999/xlink" x="0px" y="0px"
	 viewBox="0 0 25 25" style="enable-background:new 0 0 25 25;" xml:space="preserve">
<g>
	<g>
		<path d="M7.6,9.6c0-0.1,0-0.1-0.1-0.2L5.4,6.9c0-0.1-0.1-0.1-0.2-0.1C5.1,6.8,5,6.9,5,6.9C4,7.8,3.2,8.8,2.5,10c0,0.1,0,0.1,0,0.2
			c0,0.1,0.1,0.1,0.1,0.2L5.5,12c0,0,0.1,0,0.1,0c0.1,0,0.2-0.1,0.2-0.1c0.4-0.8,1-1.5,1.6-2C7.6,9.8,7.6,9.7,7.6,9.6z"/>
		<path d="M8.6,8.7c0,0.1,0.1,0.1,0.2,0.1c0,0,0.1,0,0.1,0c0.8-0.4,1.6-0.7,2.5-0.8c0.2,0,0.3-0.2,0.2-0.3l-0.4-3.3
			c0-0.2-0.2-0.3-0.3-0.2C9.6,4.4,8.3,4.8,7.2,5.4C7,5.5,7,5.7,7,5.8L8.6,8.7z"/>
		<path d="M5.1,13.1l-3.2-0.9c-0.1,0-0.1,0-0.2,0c-0.1,0-0.1,0.1-0.1,0.2c-0.3,1-0.4,2-0.4,3c0,0.2,0,0.3,0,0.5
			c0,0.1,0.1,0.3,0.3,0.3c0,0,0,0,0,0l3.3-0.2c0.1,0,0.1,0,0.2-0.1C5,15.9,5,15.9,5,15.8c0-0.1,0-0.2,0-0.4c0-0.7,0.1-1.3,0.3-2
			C5.3,13.3,5.2,13.2,5.1,13.1z"/>
		<path d="M17.4,5.2c-1.2-0.6-2.5-0.9-3.8-1.1c-0.1,0-0.1,0-0.2,0.1c-0.1,0-0.1,0.1-0.1,0.2l-0.3,3.3C12.9,7.8,13,8,13.2,8
			c0.9,0.1,1.7,0.3,2.5,0.7c0,0,0.1,0,0.1,0c0,0,0.1,0,0.1,0c0.1,0,0.1-0.1,0.2-0.1l1.4-3C17.6,5.5,17.5,5.3,17.4,5.2z"/>
		<path d="M22.2,9.8c0-0.1,0-0.1,0-0.2c-0.7-1.1-1.6-2.1-2.6-3c-0.1,0-0.1-0.1-0.2-0.1c-0.1,0-0.1,0-0.2,0.1l-2.1,2.6
			c0,0.1-0.1,0.1-0.1,0.2c0,0.1,0,0.1,0.1,0.2c0.7,0.6,1.3,1.2,1.7,2c0.1,0.1,0.1,0.1,0.2,0.1c0,0,0.1,0,0.1,0l2.8-1.7
			C22.2,10,22.2,9.9,22.2,9.8z"/>
		<path d="M23.3,12c0-0.1-0.2-0.2-0.3-0.2l-3.1,1c-0.1,0-0.2,0.2-0.2,0.3c0.2,0.7,0.3,1.5,0.3,2.2c0,0.1,0,0.2,0,0.4
			c0,0.1,0,0.1,0.1,0.2c0,0.1,0.1,0.1,0.2,0.1l3.3,0.2c0,0,0,0,0,0c0.1,0,0.3-0.1,0.3-0.3c0-0.2,0-0.4,0-0.5
			C23.8,14.3,23.6,13.1,23.3,12z"/>
		<path d="M12.5,14.8c0,0-0.1,0-0.1,0l-4.5-2.6c-0.1-0.1-0.2,0-0.3,0c-0.1,0.1-0.1,0.2-0.1,0.3l2.4,4.6c0,0.1,0,0.2,0,0.3
			c0,0.7,0.3,1.3,0.8,1.8c0.5,0.5,1.1,0.8,1.8,0.8s1.3-0.3,1.8-0.8c0.5-0.5,0.8-1.1,0.8-1.8c0-0.7-0.3-1.3-0.8-1.8
			C13.8,15.1,13.1,14.8,12.5,14.8z"/>
	</g>
</g>
</svg>
