<svg xmlns="http://www.w3.org/2000/svg" viewBox="0 0 121.36 44.73"><defs><style>.cls-1,.cls-2,.cls-3,.cls-4,.cls-5{fill:#fff;}.cls-1{opacity:0.54;}.cls-2{opacity:0.75;}.cls-3{fill-rule:evenodd;}.cls-4{font-size:27.12px;letter-spacing:0.04em;}.cls-4,.cls-5{font-family:SegoeUI-Bold, Segoe UI;font-weight:700;}.cls-5{font-size:5.83px;letter-spacing:0.04em;}</style></defs><title>etracky v2 logo white</title><g id="Layer_2" data-name="Layer 2"><g id="Layer_1-2" data-name="Layer 1"><g id="_Group_" data-name="&lt;Group&gt;"><ellipse id="_Path_" data-name="&lt;Path&gt;" class="cls-1" cx="13.69" cy="42.33" rx="11.48" ry="2.4"/><ellipse id="_Path_2" data-name="&lt;Path&gt;" class="cls-2" cx="13.69" cy="42.26" rx="4.29" ry="0.9"/><g id="_Group_2" data-name="&lt;Group&gt;"><path id="_Path_3" data-name="&lt;Path&gt;" class="cls-3" d="M20.37,9l-.12-.32a11.82,11.82,0,0,0-1.81-3,9.06,9.06,0,0,0-2.57-2.19,7.93,7.93,0,0,0-3.21-1,8.24,8.24,0,0,0-3.72.59A8.8,8.8,0,0,0,5.92,5,8.65,8.65,0,0,0,4,7.84a10,10,0,0,0-.8,3.56,14,14,0,0,0,.4,4.06Z"/><path id="_Path_4" data-name="&lt;Path&gt;" class="cls-3" d="M17.52.91a11.63,11.63,0,0,1,3.61,3,17.18,17.18,0,0,1,2.6,4.62l.68,1.8L4.42,18l.22.57a12.64,12.64,0,0,0,2.27,3.85A11,11,0,0,0,10.16,25a9.88,9.88,0,0,0,3.89,1.09,9.73,9.73,0,0,0,4.23-.67,11.22,11.22,0,0,0,4.06-2.54,10.41,10.41,0,0,0,2.41-4.08l1.33.36c.11-.3.2-.58.29-.85A14,14,0,0,0,27,16a6.42,6.42,0,0,0,.27-2.51h0A13.6,13.6,0,0,0,15.13,0,9.74,9.74,0,0,1,17.52.91Z"/><path id="_Path_5" data-name="&lt;Path&gt;" class="cls-3" d="M22.38,26.32A15.48,15.48,0,0,1,19.1,28a13.59,13.59,0,0,1-5.42.95,12.62,12.62,0,0,1-5-1.18,13.22,13.22,0,0,1-4.18-3.13,15.26,15.26,0,0,1-2.94-4.89l-.4-1.05A16.85,16.85,0,0,1,0,13.83c-.63,4.37,8.9,21.61,12.4,27.76a1.47,1.47,0,0,0,2.55,0c4-6.89,6.71-12.15,8.54-16.15A13.11,13.11,0,0,1,22.38,26.32Z"/></g></g><text class="cls-4" transform="translate(33.72 28.08) scale(0.94 1)">tracky</text><text class="cls-5" transform="matrix(0.33, -0.88, 0.94, 0.35, 114.36, 28.14)">.com</text></g></g></svg>