<?xml version="1.0" encoding="utf-8"?>
<!-- Generator: Adobe Illustrator 22.1.0, SVG Export Plug-In . SVG Version: 6.00 Build 0)  -->
<svg version="1.1" id="Layer_1" xmlns="http://www.w3.org/2000/svg" xmlns:xlink="http://www.w3.org/1999/xlink" x="0px" y="0px"
	 viewBox="0 0 110 110" style="enable-background:new 0 0 110 110;" xml:space="preserve">
<path d="M56.8,71.6c-2,0-3.8-0.8-3.8-3.6h7.7C60.6,70.8,58.8,71.6,56.8,71.6z M73.1,66.2H38.7v-1l4.8-3.8V50.9
	c0-5.9,3.8-10.7,8.7-12v-1.3c0-1.5,2.3-2.8,3.8-2.8s3.8,1.3,3.8,2.8v1.3c4.8,1.3,6.6,6.1,6.6,12v10.5l6.6,3.8L73.1,66.2L73.1,66.2z
	 M71.5,16.9h-41c-2.4,0-4.5,2-4.5,4.5v69.3c0,2.4,2,4.5,4.5,4.5h51.1c2.4,0,4.5-2,4.5-4.5V31L71.5,16.9z"/>
</svg>
