<?xml version="1.0" encoding="utf-8"?>
<!-- Generator: Adobe Illustrator 22.1.0, SVG Export Plug-In . SVG Version: 6.00 Build 0)  -->
<svg version="1.1" id="Layer_1" xmlns="http://www.w3.org/2000/svg" xmlns:xlink="http://www.w3.org/1999/xlink" x="0px" y="0px"
	 viewBox="0 0 110 110" style="enable-background:new 0 0 110 110;" xml:space="preserve">
<style type="text/css">
	.st0{fill:#01579B;}
</style>
<g>
	<path class="st0" d="M54.1,4H9.8c-2.6,0-4.6,2-4.6,4.6v94.7h53.6V8.6C58.8,6.2,56.6,4,54.1,4z M52,39.5H11.9V13.1h40.3L52,39.5
		L52,39.5z M80.1,105.4c-11,0-17.7-7.6-18.3-20.7c-0.3-5.2,1-10.9,2.4-17c1-4.6,2.2-9.2,2.6-14.1c0.5-4.9-0.3-6.5-0.8-7
		c-0.9-1-3.7-1-6.3-1h-1.3v-6.4h1.3c3.8,0,8.2,0,11.1,3.2c2.2,2.4,2.9,6.3,2.4,12c-0.5,5.2-1.7,10.1-2.7,14.8
		c-1.3,5.6-2.4,10.9-2.3,15.2c0.5,9.7,4.5,14.7,11.9,14.7c8.2,0,12.3-5.1,12.3-15.4c0-8.4-2.6-15-4.4-19.2l-0.6-1.8
		c-1.8-4.7-2-9-2.2-15.4C85.2,41.1,85.2,34.5,87,28c1.8-6.7,5.2-9.9,11.3-15.1l1.4-1.3l4.4,4.7l-1.4,1.3c-5.5,5-8.1,7.3-9.3,12
		c-1.5,5.8-1.5,11.9-1.4,17.7c0.1,6.3,0.4,9.6,1.8,13.2l0.6,1.7c1.8,4.5,4.7,12,4.7,21.6C98.8,97.2,91.8,105.4,80.1,105.4z
		 M88.4,48.3l-0.1-6.4c0,0,5-0.1,7.8-0.1c0.1-1.2,0.1-2.9,0.1-4.7v-0.9c0-7.7-1.2-8.7-2.6-9.9c-0.5-0.4-1-0.9-1.5-1.4l4.7-4.4
		c0.3,0.4,0.6,0.6,0.9,0.9c2.7,2.3,4.9,4.9,4.9,14.8v0.9c0,3.6,0,5.6-0.3,7.2c-0.5,2.6-2.3,4.1-4.9,4.1
		C95.2,48.2,88.4,48.3,88.4,48.3z"/>
</g>
</svg>
