<?xml version="1.0" encoding="utf-8"?>
<!-- Generator: Adobe Illustrator 22.1.0, SVG Export Plug-In . SVG Version: 6.00 Build 0)  -->
<svg version="1.1" id="Layer_1" xmlns="http://www.w3.org/2000/svg" xmlns:xlink="http://www.w3.org/1999/xlink" x="0px" y="0px"
	 viewBox="0 0 110 110" style="enable-background:new 0 0 110 110;" xml:space="preserve">
<style type="text/css">
	.st0{fill:#01579B;stroke:#FFFFFF;stroke-width:0.5;stroke-miterlimit:10;}
</style>
<g>
	<g>
		<path class="st0" d="M54.1,58.6c2.2,0,4.1-0.8,5.8-2.5c1.7-1.7,2.5-3.5,2.5-5.8V9.1c0-2.2-0.8-4.1-2.5-5.8
			c-1.7-1.7-3.5-2.5-5.8-2.5S50,1.6,48.3,3.3s-2.5,3.5-2.5,5.8v41.3c0,2.2,0.8,4.1,2.5,5.8C50,57.8,51.9,58.6,54.1,58.6z"/>
		<path class="st0" d="M98.5,36.5c-3.4-7-8.4-12.8-14.7-17.4c-1.8-1.4-3.9-1.9-6.2-1.7c-2.2,0.4-4.1,1.4-5.4,3.2
			c-1.4,1.8-1.9,3.8-1.5,6.2c0.4,2.2,1.4,4,3.2,5.4c4.3,3.2,7.5,7.1,9.8,11.7c2.2,4.6,3.4,9.5,3.4,14.7c0,4.5-0.8,8.8-2.6,12.8
			c-1.8,4-4.1,7.6-7.1,10.5c-3,3-6.5,5.3-10.5,7.1c-4,1.8-8.4,2.6-12.8,2.6c-4.5,0-8.8-0.8-12.8-2.6c-4-1.8-7.6-4.1-10.5-7.1
			c-3-3-5.3-6.5-7.1-10.5c-1.8-4-2.6-8.4-2.6-12.8c0-5.2,1.2-10.2,3.4-14.7c2.2-4.6,5.6-8.5,9.8-11.7c1.8-1.4,2.8-3.2,3.2-5.4
			c0.4-2.2-0.2-4.3-1.5-6.2c-1.3-1.9-3.1-3-5.4-3.2c-2.2-0.4-4.4,0.2-6.2,1.7c-6.3,4.7-11.1,10.5-14.7,17.4
			c-3.4,7-5.2,14.3-5.2,22.1c0,6.7,1.3,13.1,3.9,19.3s6.2,11.4,10.6,15.9c4.4,4.4,9.7,7.9,15.9,10.6c6.2,2.6,12.5,3.9,19.3,3.9
			s13.1-1.3,19.3-3.9c6.2-2.6,11.4-6.2,15.9-10.6c4.4-4.4,7.9-9.7,10.6-15.9c2.4-6.2,3.7-12.5,3.7-19.3
			C103.7,50.8,102,43.4,98.5,36.5z"/>
	</g>
</g>
</svg>
