<?xml version="1.0" encoding="utf-8"?>
<!-- Generator: Adobe Illustrator 22.1.0, SVG Export Plug-In . SVG Version: 6.00 Build 0)  -->
<svg version="1.1" id="Layer_1" xmlns="http://www.w3.org/2000/svg" xmlns:xlink="http://www.w3.org/1999/xlink" x="0px" y="0px"
	 viewBox="0 0 76.5 69" style="enable-background:new 0 0 76.5 69;" xml:space="preserve">
<style type="text/css">
	.st0{fill:#01579B;}
</style>
<path class="st0" d="M71.5,48.2h-8.6V33.6c0-2.3-0.8-4-1.8-4.9l0.1-1.3c0.1-1.2-0.3-2.5-0.9-3l-32-16.5l0.6-2.3
	c0.1-0.8,0.1-1.3,0-1.9c-0.1-0.8-0.5-1.2-0.9-1.3L25.5,1c-0.5-0.1-0.9,0-1.3,0.4c-0.3,0.4-0.5,0.9-0.6,1.5l-0.1,2.3l-3.7-2.1
	c-0.5-0.1-0.9-0.1-1.3,0.1c-0.3,0.1-0.5,0.9-0.6,1.3l-0.6,4c-0.1,1.2,0.3,2.5,0.9,3l31.9,16.8H18c-1.5,0-3,2.3-3,5v14.7H5
	c-2.3,0-4.1,1.9-4.1,4.1v12.1c0,2.7,2.2,4.9,4.9,4.9h65c2.7,0,4.9-2.2,4.9-4.9V52.3C75.6,50,73.8,48.2,71.5,48.2z"/>
</svg>
