<?xml version="1.0" encoding="utf-8"?>
<!-- Generator: Adobe Illustrator 22.1.0, SVG Export Plug-In . SVG Version: 6.00 Build 0)  -->
<svg version="1.1" id="Layer_1" xmlns="http://www.w3.org/2000/svg" xmlns:xlink="http://www.w3.org/1999/xlink" x="0px" y="0px"
	 viewBox="0 0 110 110" style="enable-background:new 0 0 110 110;" xml:space="preserve">
<style type="text/css">
	.st0{fill:#01579B;stroke:#FFFFFF;stroke-width:0.5;stroke-miterlimit:10;}
</style>
<path class="st0" d="M53.6,11.1c-18.5,0-33.5,15-33.5,33.5c0,10.8,5.2,20.9,14,27.2l14.6,24c1,1.7,2.9,2.7,4.8,2.7
	c2,0,3.8-1,4.9-2.7l14.6-24c8.8-6.3,14-16.4,14-27.2C87.1,26.2,72.1,11.1,53.6,11.1z M53.2,62.9c-9.9,0-17.9-8-17.9-17.9
	s8-17.9,17.9-17.9s17.9,8,17.9,17.9S63.1,62.9,53.2,62.9z"/>
</svg>
