<?xml version="1.0" encoding="utf-8"?>
<!-- Generator: Adobe Illustrator 22.1.0, SVG Export Plug-In . SVG Version: 6.00 Build 0)  -->
<svg version="1.1" id="Layer_1" xmlns="http://www.w3.org/2000/svg" xmlns:xlink="http://www.w3.org/1999/xlink" x="0px" y="0px"
	 viewBox="0 0 110 110" style="enable-background:new 0 0 110 110;" xml:space="preserve">
<style type="text/css">
	.st0{fill:#01579B;}
</style>
<g>
	<g>
		<path class="st0" d="M32.1,48.5c0-0.3-0.1-0.7-0.3-1L21.6,35.8c-0.3-0.3-0.6-0.4-0.9-0.4s-0.7,0.1-1,0.3C15,39.8,11,44.8,8,50.2
			c-0.1,0.3-0.1,0.7-0.1,1c0.1,0.3,0.3,0.6,0.6,0.7l13.7,7.4c0.1,0.1,0.4,0.1,0.6,0.1c0.4,0,0.9-0.3,1.1-0.7c2-3.7,4.6-6.8,7.7-9.7
			C32,49.2,32.1,48.9,32.1,48.5z"/>
		<path class="st0" d="M36.7,44.2c0.3,0.4,0.7,0.7,1.1,0.7c0.1,0,0.4,0,0.6-0.1c3.7-2,7.5-3.3,11.7-3.7c0.7-0.1,1.1-0.7,1.1-1.4
			l-2.1-15.4c-0.1-0.7-0.7-1.1-1.4-1.1c-6.3,0.9-12.2,2.7-17.8,5.7c-0.6,0.3-0.9,1.1-0.6,1.7L36.7,44.2z"/>
		<path class="st0" d="M20,65L5,60.9c-0.3-0.1-0.7,0-1,0.1s-0.6,0.4-0.6,0.9c-1.3,4.6-1.9,9.3-1.9,14c0,0.9,0,1.6,0,2.6
			c0,0.7,0.6,1.3,1.3,1.3l0,0l15.5-0.7c0.3,0,0.7-0.1,0.9-0.4c0.3-0.3,0.3-0.6,0.3-1c0-0.6,0-1.1,0-1.7c0-3.1,0.4-6.3,1.3-9.3
			C21.2,66,20.7,65.3,20,65z"/>
		<path class="st0" d="M78.1,27.7c-5.7-2.7-11.7-4.4-17.9-5c-0.3,0-0.7,0.1-1,0.3c-0.3,0.3-0.4,0.6-0.4,0.9l-1.6,15.5
			c0,0.7,0.4,1.3,1.1,1.4c4.1,0.4,8.1,1.6,11.8,3.3c0.1,0.1,0.4,0.1,0.6,0.1c0.1,0,0.3,0,0.4-0.1c0.3-0.1,0.6-0.3,0.7-0.7l6.7-14
			C79.1,28.8,78.8,28.1,78.1,27.7z"/>
		<path class="st0" d="M101.1,49.5c0.1-0.3,0-0.7-0.1-1c-3.3-5.4-7.3-10.1-12.2-14.1c-0.3-0.3-0.6-0.3-1-0.3c-0.3,0-0.7,0.1-0.9,0.4
			L77,46.6c-0.1,0.3-0.3,0.7-0.1,1c0,0.3,0.1,0.7,0.4,0.9c3.3,2.6,6,5.7,8.1,9.3c0.3,0.4,0.7,0.6,1.1,0.6c0.3,0,0.4,0,0.7-0.1
			l13.4-8C100.8,50,100.9,49.7,101.1,49.5z"/>
		<path class="st0" d="M106,59.8c-0.3-0.7-1-1-1.6-0.9l-14.8,4.7c-0.7,0.3-1,1-0.9,1.6c1,3.4,1.6,7,1.6,10.5c0,0.6,0,1.1,0,1.7
			c0,0.3,0.1,0.7,0.3,1c0.3,0.3,0.6,0.4,0.9,0.4l15.5,0.7l0,0c0.7,0,1.3-0.6,1.3-1.3c0-0.9,0-1.7,0-2.6
			C108.5,70.4,107.6,65,106,59.8z"/>
		<path class="st0" d="M54.9,73.1c-0.3,0-0.4,0-0.7,0L33.1,60.7c-0.6-0.3-1.1-0.3-1.6,0.1s-0.6,1-0.3,1.6l11.5,21.5
			c0,0.4,0,0.9,0,1.3c0,3.3,1.3,6.3,3.6,8.5c2.3,2.3,5.4,3.6,8.5,3.6s6.3-1.3,8.5-3.6c2.3-2.3,3.6-5.4,3.6-8.5s-1.3-6.3-3.6-8.5
			C61.3,74.4,58.2,73.1,54.9,73.1z"/>
	</g>
</g>
</svg>
