<?xml version="1.0" encoding="utf-8"?>
<!-- Generator: Adobe Illustrator 19.0.0, SVG Export Plug-In . SVG Version: 6.00 Build 0)  -->
<svg version="1.1" id="Layer_1" xmlns="http://www.w3.org/2000/svg" xmlns:xlink="http://www.w3.org/1999/xlink" x="0px" y="0px"
	 viewBox="0 0 512 512" style="enable-background:new 0 0 512 512;" xml:space="preserve">
<style type="text/css">
	.st0{display:none;fill:#808080;}
	.st1{font-family:'Lato-Bold';}
	.st2{font-size:282.397px;}
	.st3{fill:#808080;}
</style>
<text id="XMLID_485_" transform="matrix(1 0 0 1 218.7288 354.6104)" class="st0 st1 st2">i</text>
<g id="XMLID_3517_">
	<g id="XMLID_3519_">
		<path id="XMLID_3590_" class="st3" d="M18.3,236.5h475.4c5,0,9.2-0.9,12.9-2.7c3.6-1.8,5.4-3.9,5.4-6.3v-18c0-2.4-1.8-4.5-5.4-6.3
			c-3.6-1.8-7.9-2.7-12.9-2.7H18.3c-4.9,0-9.2,0.9-12.9,2.7C1.8,205,0,207.1,0,209.5v18c0,2.4,1.8,4.5,5.4,6.3
			C9.1,235.6,13.3,236.5,18.3,236.5z"/>
		<path id="XMLID_3589_" class="st3" d="M18.3,160.7h475.4c5,0,9.2-0.9,12.9-2.7c3.6-1.8,5.4-3.9,5.4-6.3v-18c0-2.4-1.8-4.5-5.4-6.3
			c-3.6-1.8-7.9-2.7-12.9-2.7H18.3c-4.9,0-9.2,0.9-12.9,2.7c-3.6,1.8-5.4,3.9-5.4,6.3v18c0,2.4,1.8,4.5,5.4,6.3
			C9.1,159.8,13.3,160.7,18.3,160.7z"/>
		<path id="XMLID_3588_" class="st3" d="M5.4,385.5c3.6,1.8,7.9,2.7,12.9,2.7h475.4c5,0,9.2-0.9,12.9-2.7c3.6-1.8,5.4-3.9,5.4-6.3
			v-18c0-2.4-1.8-4.5-5.4-6.3c-3.6-1.8-7.9-2.7-12.9-2.7H18.3c-4.9,0-9.2,0.9-12.9,2.7c-3.6,1.8-5.4,3.9-5.4,6.3v18
			C0,381.6,1.8,383.7,5.4,385.5z"/>
		<path id="XMLID_3585_" class="st3" d="M18.3,312.3h475.4c5,0,9.2-0.9,12.9-2.7c3.6-1.8,5.4-3.9,5.4-6.3v-18c0-2.4-1.8-4.5-5.4-6.3
			c-3.6-1.8-7.9-2.7-12.9-2.7H18.3c-4.9,0-9.2,0.9-12.9,2.7c-3.6,1.8-5.4,3.9-5.4,6.3v18c0,2.4,1.8,4.5,5.4,6.3
			C9.1,311.4,13.3,312.3,18.3,312.3z"/>
	</g>
</g>
</svg>
