<?xml version="1.0" encoding="utf-8"?>
<!-- Generator: Adobe Illustrator 19.0.0, SVG Export Plug-In . SVG Version: 6.00 Build 0)  -->
<svg version="1.1" id="Layer_1" xmlns="http://www.w3.org/2000/svg" xmlns:xlink="http://www.w3.org/1999/xlink" x="0px" y="0px"
	 viewBox="0 0 512 512" style="enable-background:new 0 0 512 512;" xml:space="preserve">
<style type="text/css">
	.st0{fill:url(#XMLID_2_);}
	.st1{fill:url(#XMLID_3_);}
	.st2{opacity:0.75;fill:url(#XMLID_4_);}
	.st3{fill:url(#XMLID_5_);}
	.st4{fill:url(#XMLID_6_);}
</style>
<g id="XMLID_2127_">
	<g id="XMLID_2128_">
		<linearGradient id="XMLID_2_" gradientUnits="userSpaceOnUse" x1="255.9852" y1="511.7896" x2="255.9852" y2="-0.2104">
			<stop  offset="0" style="stop-color:#5DB400"/>
			<stop  offset="0.1401" style="stop-color:#66B902"/>
			<stop  offset="0.3687" style="stop-color:#7EC709"/>
			<stop  offset="0.6571" style="stop-color:#A6DE13"/>
			<stop  offset="0.9914" style="stop-color:#DCFE21"/>
			<stop  offset="1" style="stop-color:#DEFF21"/>
		</linearGradient>
		<path id="XMLID_2137_" class="st0" d="M256-0.2C154-0.2,75.1,82.4,75.1,184.4c0,127.5,166.6,320.5,166.6,320.5
			c7.9,9.1,20.8,9.1,28.7,0c0,0,166.6-193,166.6-320.5C436.9,82.4,357.9-0.2,256-0.2z M256,295.9c-61.3,0-111-49.7-111-111
			c0-61.3,49.7-111,111-111c61.3,0,111,49.7,111,111C367,246.2,317.3,295.9,256,295.9z"/>
		<linearGradient id="XMLID_3_" gradientUnits="userSpaceOnUse" x1="255.9843" y1="493.3906" x2="255.9843" y2="13.8758">
			<stop  offset="0" style="stop-color:#70D800"/>
			<stop  offset="0.15" style="stop-color:#63C000"/>
			<stop  offset="1" style="stop-color:#AEE300"/>
		</linearGradient>
		<path id="XMLID_2134_" class="st1" d="M256,13.9c-95.6,0-169.6,77.5-169.6,173.1c0,119.5,155.5,299.7,155.5,299.7
			c7.7,9,20.4,9,28.2,0c0,0,155.5-180.2,155.5-299.7C425.6,91.4,351.6,13.9,256,13.9z M256,291.5c-57.5,0-104.1-46.6-104.1-104.1
			c0-57.5,46.6-104.1,104.1-104.1s104.1,46.6,104.1,104.1C360.1,244.9,313.5,291.5,256,291.5z"/>
		<linearGradient id="XMLID_4_" gradientUnits="userSpaceOnUse" x1="255.9831" y1="181.2058" x2="255.9831" y2="-0.2104">
			<stop  offset="0" style="stop-color:#3E001B"/>
			<stop  offset="1.652545e-002" style="stop-color:#42091A"/>
			<stop  offset="0.1187" style="stop-color:#5B3C14"/>
			<stop  offset="0.2256" style="stop-color:#72680F"/>
			<stop  offset="0.3356" style="stop-color:#848E0A"/>
			<stop  offset="0.4491" style="stop-color:#93AD06"/>
			<stop  offset="0.5675" style="stop-color:#9FC504"/>
			<stop  offset="0.6927" style="stop-color:#A7D602"/>
			<stop  offset="0.8296" style="stop-color:#ACE000"/>
			<stop  offset="1" style="stop-color:#AEE300"/>
		</linearGradient>
		<path id="XMLID_2133_" class="st2" d="M256,70.7c56.5,0,103.1,42.4,109.6,97.2c20.5,3.6,44,8,71.8,13.3
			C437.4,81,356.2-0.2,256-0.2C155.8-0.2,74.6,81,74.6,181.2c27.7-5.1,51.2-9.4,71.7-12.9C152.7,113.4,199.4,70.7,256,70.7z"/>
		<linearGradient id="XMLID_5_" gradientUnits="userSpaceOnUse" x1="255.9831" y1="306.4591" x2="255.9831" y2="68.3547">
			<stop  offset="0" style="stop-color:#AEE300"/>
			<stop  offset="1" style="stop-color:#63C000"/>
		</linearGradient>
		<path id="XMLID_2130_" class="st3" d="M256,68.4c-65.8,0-119.1,53.3-119.1,119.1c0,65.8,53.3,119.1,119.1,119.1
			S375,253.2,375,187.4C375,121.7,321.7,68.4,256,68.4z M256,291.5c-57.5,0-104.1-46.6-104.1-104.1c0-57.5,46.6-104.1,104.1-104.1
			s104.1,46.6,104.1,104.1C360.1,244.9,313.5,291.5,256,291.5z"/>
		<radialGradient id="XMLID_6_" cx="258.8584" cy="134.2189" r="177.6675" gradientUnits="userSpaceOnUse">
			<stop  offset="0" style="stop-color:#F0EB00"/>
			<stop  offset="1" style="stop-color:#49A800"/>
		</radialGradient>
		<path id="XMLID_2129_" class="st4" d="M256,291.5c-57.5,0-104.1-46.6-104.1-104.1c0-57.5,46.6-104.1,104.1-104.1
			s104.1,46.6,104.1,104.1C360.1,244.9,313.5,291.5,256,291.5z"/>
	</g>
</g>
</svg>
