<?xml version="1.0" encoding="utf-8"?>
<!-- Generator: Adobe Illustrator 22.1.0, SVG Export Plug-In . SVG Version: 6.00 Build 0)  -->
<svg version="1.1" id="Layer_1" xmlns="http://www.w3.org/2000/svg" xmlns:xlink="http://www.w3.org/1999/xlink" x="0px" y="0px"
	 viewBox="0 0 110 110" style="enable-background:new 0 0 110 110;" xml:space="preserve">
<style type="text/css">
	.st0{fill:#E06119;}
</style>
<g>
	<path class="st0" d="M58.6,73.1c7.3-1.3,13.1-7.6,13.1-15.4C64.4,57.7,58.6,64.5,58.6,73.1z"/>
	<path class="st0" d="M40.3,57.7c0,7.6,5.5,14.1,13.1,15.4C53.4,64.5,47.4,57.7,40.3,57.7z"/>
	<path class="st0" d="M56,55.1c-1.6,0-2.6,1-2.6,2.6s1,2.6,2.6,2.6s2.6-1.1,2.6-2.6C58.6,56.1,57.3,55.1,56,55.1z"/>
	<path class="st0" d="M56,41.9c-6.8,0-12.5,4.5-14.7,10.5h29.6C68.5,46.4,62.8,41.9,56,41.9z"/>
	<path class="st0" d="M71.5,15.9h-41c-2.4,0-4.5,2-4.5,4.5v69.3c0,2.4,2,4.5,4.5,4.5h51.1c2.4,0,4.5-2,4.5-4.5V30L71.5,15.9z
		 M56,77.5c-11,0-19.8-8.9-19.8-19.8c0-11,8.9-19.8,19.8-19.8s19.8,8.8,19.8,19.8S67,77.5,56,77.5z"/>
</g>
</svg>
