<?xml version="1.0" encoding="utf-8"?>
<!-- Generator: Adobe Illustrator 22.1.0, SVG Export Plug-In . SVG Version: 6.00 Build 0)  -->
<svg version="1.1" id="Layer_1" xmlns="http://www.w3.org/2000/svg" xmlns:xlink="http://www.w3.org/1999/xlink" x="0px" y="0px"
	 viewBox="0 0 110 110" style="enable-background:new 0 0 110 110;" xml:space="preserve">
<path d="M55.2,21.8c-18.6,0-33.7,15.1-33.7,33.7s15.1,33.7,33.7,33.7s33.7-15.1,33.7-33.7S73.8,21.8,55.2,21.8z M55.2,29.6
	c6.5,0,11.1,4.6,11.1,11.1s-4.6,11.1-11.1,11.1s-11.1-4.6-11.1-11.1C44.1,34.2,48.7,29.6,55.2,29.6z M55.2,82
	c-9.3,0-17.6-4.6-22.3-12.1c0-7.4,14.8-11.6,22.3-11.6s22.3,4.2,22.3,11.6C72.8,77.3,64.5,82,55.2,82z"/>
</svg>
