<?xml version="1.0" encoding="utf-8"?>
<!-- Generator: Adobe Illustrator 22.1.0, SVG Export Plug-In . SVG Version: 6.00 Build 0)  -->
<svg version="1.1" id="Layer_1" xmlns="http://www.w3.org/2000/svg" xmlns:xlink="http://www.w3.org/1999/xlink" x="0px" y="0px"
	 viewBox="0 0 110 110" style="enable-background:new 0 0 110 110;" xml:space="preserve">
<style type="text/css">
	.st0{fill:none;stroke:#000000;stroke-width:2;stroke-miterlimit:10;}
	.st1{fill:none;stroke:#000000;stroke-width:2;stroke-miterlimit:10;stroke-dasharray:3.0759,3.0759;}
</style>
<g>
	<g>
		<path d="M22.2,7.7C12.7,7.7,5,15.4,5,24.8c0,11.7,15.3,28.9,16,29.7c0.6,0.7,1.7,0.7,2.3,0c0.7-0.7,16-17.9,16-29.7
			C39.3,15.4,31.6,7.7,22.2,7.7z M22.2,33.4c-4.8,0-8.6-3.9-8.6-8.6s3.9-8.6,8.6-8.6s8.6,3.9,8.6,8.6S26.9,33.4,22.2,33.4z"/>
	</g>
</g>
<g>
	<g>
		<path d="M87.8,55c-9.4,0-17.1,7.7-17.1,17.1c0,11.7,15.3,28.9,16,29.7c0.6,0.7,1.7,0.7,2.3,0c0.7-0.7,16-17.9,16-29.7
			C105,62.7,97.3,55,87.8,55z M87.8,80.8c-4.8,0-8.6-3.9-8.6-8.6c0-4.8,3.9-8.6,8.6-8.6c4.8,0,8.6,3.9,8.6,8.6
			C96.5,76.9,92.6,80.8,87.8,80.8z"/>
	</g>
</g>
<g>
	<g>
		<path d="M54.4,52.7c-4.3,0-7.8,3.5-7.8,7.8c0,5.3,7,13.2,7.3,13.5c0.3,0.3,0.8,0.3,1,0c0.3-0.3,7.3-8.2,7.3-13.5
			C62.2,56.2,58.7,52.7,54.4,52.7z M54.4,64.5c-2.2,0-3.9-1.8-3.9-3.9s1.8-3.9,3.9-3.9s3.9,1.8,3.9,3.9S56.6,64.5,54.4,64.5z"/>
	</g>
</g>
<g>
	<g>
		<path class="st0" d="M22.4,52.6c0,0-0.1,0.6-0.1,1.5"/>
		<path class="st1" d="M22.2,57.2c0.3,7.5,3.7,21.1,24.7,17.8c23.3-3.6,35.1,16.4,38.6,24"/>
		<path class="st0" d="M86.1,100.4c0.4,0.9,0.6,1.4,0.6,1.4"/>
	</g>
</g>
</svg>
