<?xml version="1.0" encoding="utf-8"?>
<!-- Generator: Adobe Illustrator 22.1.0, SVG Export Plug-In . SVG Version: 6.00 Build 0)  -->
<svg version="1.1" id="Layer_1" xmlns="http://www.w3.org/2000/svg" xmlns:xlink="http://www.w3.org/1999/xlink" x="0px" y="0px"
	 viewBox="0 0 110 110" style="enable-background:new 0 0 110 110;" xml:space="preserve">
<path d="M55,22.9c-18.6,0-33.7,15.1-33.7,33.7c0,18.6,15.1,33.7,33.7,33.7c18.6,0,33.7-15.1,33.7-33.7C88.7,38,73.6,22.9,55,22.9z
	 M66.4,37.3c3.7,0,6.7,3,6.7,6.7c0,3.7-3,6.7-6.7,6.7c-1,0-2-0.2-2.8-0.6c-0.3-2.6-1.8-4.8-3.9-6.2C59.8,40.3,62.8,37.3,66.4,37.3z
	 M55.3,44.2c3.7,0,6.7,3,6.7,6.7c0,3.7-3,6.7-6.7,6.7c-3.7,0-6.7-3-6.7-6.7C48.6,47.2,51.6,44.2,55.3,44.2z M43.6,37.3
	c3.7,0,6.7,3,6.7,6.7c0,0.1,0,0.3,0,0.4c-1.6,1.3-2.8,3.1-3.1,5.3c-1,0.7-2.3,1-3.6,1c-3.7,0-6.7-3-6.7-6.7
	C36.9,40.3,39.9,37.3,43.6,37.3z M42.3,68.8c-2.8-0.2-6-0.7-9.7-1.8l-0.5-0.2l0-0.1v-7c0-4.7,3.8-8.6,8.6-8.6h5.7c0.2,0,0.4,0,0.6,0
	c0.1,2.2,1,4.3,2.5,5.7c-4.2,1.3-7.3,5.1-7.3,9.8V68.8z M66.8,73.6L66.8,73.6l-0.5,0.2c-0.2,0.1-3.9,1.9-10.2,1.9
	c-3.2,0-7.1-0.5-11.7-1.9l-0.5-0.1l0-0.1v-7c0-4.7,3.8-8.6,8.6-8.6h5.7c4.7,0,8.6,3.8,8.6,8.6V73.6z M77.8,66.7L77.8,66.7l-0.5,0.2
	c-0.2,0.1-3.4,1.7-9,1.9v-2.1c0-4.6-3.1-8.5-7.3-9.8c1.5-1.5,2.5-3.5,2.5-5.7h5.6c4.7,0,8.6,3.8,8.6,8.6V66.7z"/>
</svg>
