<?xml version="1.0" encoding="utf-8"?>
<!-- Generator: Adobe Illustrator 22.1.0, SVG Export Plug-In . SVG Version: 6.00 Build 0)  -->
<svg version="1.1" id="Layer_1" xmlns="http://www.w3.org/2000/svg" xmlns:xlink="http://www.w3.org/1999/xlink" x="0px" y="0px"
	 viewBox="0 0 110 110" style="enable-background:new 0 0 110 110;" xml:space="preserve">
<g>
	<path d="M69.1,60c-1.7,0-3.5,1.7-3.5,3.5c0,1.7,1.7,3.5,3.5,3.5c1.7,0,3.4-1.7,3.5-3.5C72.6,61.7,70.8,60,69.1,60z"/>
	<ellipse cx="43.3" cy="63.4" rx="3.5" ry="3.5"/>
	<path d="M67.3,48.3c-4.3-3-17.7-3-22.3,0c-0.8,0.4-2.1,3-3,5.6h28.4C69.1,51.4,68.2,49.2,67.3,48.3z"/>
	<path d="M95.6,87.3v-67c0-1.1,0-2.3-1.3-2.3l-23.7,9.3L44.1,18l-26,8.4c-0.9,0.2-2.5,1.1-2.5,2.3v67c0,1.3,1.9,2.3,3,2.3l1.1-0.2
		l23.9-9.1l26.8,9.3l24.1-8.4C95.8,89.2,95.6,88.4,95.6,87.3z M78.1,56.6c0,0.4-0.4,0.8-1.3,0.8h-1.3c1.3,1.3,2.2,3.4,2.2,5.2
		c0,2.1-0.8,4.3-2.6,5.6v4.3c0,0.9-0.9,1.7-1.7,1.7h-4.3c-0.9,0-1.7-0.9-1.7-1.7v-1.7H44.2v2.6c0,0.9-0.9,1.7-1.7,1.7h-4.3
		c-0.9,0-1.7-0.9-1.7-1.7v-4.3C34.9,67.8,34,65.6,34,63c0-1.7,0.4-3.9,1.7-5.2h-1.3c-0.4,0-0.8-0.4-1.3-0.8l-0.8-3
		c0.8-0.4,1.3-0.8,1.3-1.3c0.4-0.4,0.4-0.4,0.8-0.4h4.3c1.3-3,2.6-5.6,4.3-6.9c5.6-3.9,20.6-3.9,26.2,0c1.7,0.8,3,3.9,4.3,6.9h4.3
		c0.4,0,0.8,0,0.8,0.4c0.5,0.4,0.5,0.4,0.5,0.9L78.1,56.6z"/>
</g>
</svg>
