<?xml version="1.0" encoding="utf-8"?>
<!-- Generator: Adobe Illustrator 22.1.0, SVG Export Plug-In . SVG Version: 6.00 Build 0)  -->
<svg version="1.1" id="Layer_1" xmlns="http://www.w3.org/2000/svg" xmlns:xlink="http://www.w3.org/1999/xlink" x="0px" y="0px"
	 viewBox="0 0 110 110" style="enable-background:new 0 0 110 110;" xml:space="preserve">
<path d="M70.5,17.9h-41c-2.4,0-4.5,2-4.5,4.5v69.3c0,2.4,2,4.5,4.5,4.5h51.1c2.4,0,4.5-2,4.5-4.5V32L70.5,17.9z M48.8,66l-6.3-8.2
	l-1.8,1.8V66h-2.5V49.4h2.5v8h0.1c0.5-0.6,1-1.2,1.5-1.8l5.9-6.3h3.1l-6.9,7.1l7.5,9.6H48.8z M70.3,66l-0.5-7.3
	c-0.1-2.3-0.3-5.1-0.3-7.2h-0.1c-0.7,2-1.5,4-2.4,6.3l-3.4,8.1h-1.9L58.6,58c-0.9-2.3-1.7-4.5-2.2-6.5h-0.1
	c-0.1,2.1-0.2,4.9-0.4,7.4L55.4,66h-2.4l1.3-16.7h3.2l3.3,8.1c0.8,2.1,1.5,3.9,1.9,5.6h0.1c0.5-1.7,1.2-3.5,2-5.6l3.4-8.1h3.2
	L72.7,66H70.3z"/>
</svg>
