<?xml version="1.0" encoding="utf-8"?>
<!-- Generator: Adobe Illustrator 19.0.0, SVG Export Plug-In . SVG Version: 6.00 Build 0)  -->
<svg version="1.1" id="Layer_1" xmlns="http://www.w3.org/2000/svg" xmlns:xlink="http://www.w3.org/1999/xlink" x="0px" y="0px"
	 viewBox="0 0 512 512" style="enable-background:new 0 0 512 512;" xml:space="preserve">
<style type="text/css">
	.st0{fill:#93278F;}
	.st1{opacity:0.25;}
	.st2{fill:#F2F2F2;}
</style>
<g id="XMLID_1_">
	<g id="XMLID_3947_">
		<g id="XMLID_3956_">
			<g id="XMLID_21_">
				<path id="XMLID_22_" class="st0" d="M472.2,471.9l-184.3-452C283.7,9.8,273.9,3,263,2.7s-21.1,6-25.7,15.9L30.4,460.8
					c-4.8,10.2-2.9,22.3,4.8,30.5c7.7,8.2,19.6,11,30.1,7l176.4-67.6c6.8-2.6,14.4-2.4,21,0.5l172.7,76.4
					c10.3,4.6,22.3,2.4,30.4-5.4C473.9,494.3,476.4,482.4,472.2,471.9z"/>
			</g>
		</g>
	</g>
	<g id="XMLID_2_" class="st1">
		<g id="XMLID_3_">
			<g id="XMLID_18_">
				<path id="XMLID_20_" class="st2" d="M473.5,471.5L286.8,20.1c-4.2-10.1-14-16.9-24.9-17.3c-10.9-0.4-18.2,425.9-18.2,425.9
					c6.8-2.6,14.3-2.3,21,0.7l172.5,77.3c10.3,4.6,22.2,2.5,30.2-5.2C475.4,493.8,477.8,481.9,473.5,471.5z"/>
			</g>
		</g>
	</g>
</g>
</svg>
