<?xml version="1.0" encoding="utf-8"?>
<!-- Generator: Adobe Illustrator 19.0.0, SVG Export Plug-In . SVG Version: 6.00 Build 0)  -->
<svg version="1.1" id="Layer_1" xmlns="http://www.w3.org/2000/svg" xmlns:xlink="http://www.w3.org/1999/xlink" x="0px" y="0px"
	 viewBox="0 0 512 512" style="enable-background:new 0 0 512 512;" xml:space="preserve">
<style type="text/css">
	.st0{fill:#ED1C24;}
</style>
<path id="XMLID_8_" class="st0" d="M375,294.8v-75.3v-16.4l43.3,43.5l20.9-20.8L375,161.5v-100C375,27.8,347.2,0,313.5,0H198
	c-33.7,0-61,27.8-61,61.5v100l-64.4,64.3l20.9,20.8l43.5-43.5v16.4v75.3v26.5l-64.4,64.3l20.9,20.8L137,363v88.3
	c0,33.7,27.3,60.7,61,60.7h115.5c33.7,0,61.5-27,61.5-60.7V363l43.3,43.5l20.9-20.8L375,321.4V294.8z M172,61.5
	c0-14.4,11.5-26.5,26-26.5h115.5c14.4,0,26.5,12.1,26.5,26.5V133H172V61.5z M340,451.3c0,14.4-12.1,25.7-26.5,25.7H198
	c-14.4,0-26-11.3-26-25.7V432h168V451.3z M340,397H172V168h168V397z"/>
</svg>
