<?xml version="1.0" encoding="utf-8"?>
<!-- Generator: Adobe Illustrator 19.0.0, SVG Export Plug-In . SVG Version: 6.00 Build 0)  -->
<svg version="1.1" id="Layer_1" xmlns="http://www.w3.org/2000/svg" xmlns:xlink="http://www.w3.org/1999/xlink" x="0px" y="0px"
	 viewBox="0 0 512 512" style="enable-background:new 0 0 512 512;" xml:space="preserve">
<style type="text/css">
	.st0{fill:#8CC63F;}
</style>
<g id="XMLID_4865_">
	<g id="XMLID_4866_">
		<path id="XMLID_4868_" class="st0" d="M255.8,276.2c10.7,0,19.9-3.9,27.7-11.7c7.8-7.8,11.7-17,11.7-27.7V39.9
			c0-10.7-3.9-19.9-11.7-27.7c-7.8-7.8-17-11.7-27.7-11.7c-10.7,0-19.9,3.9-27.7,11.7c-7.8,7.8-11.7,17-11.7,27.7v196.9
			c0,10.7,3.9,19.9,11.7,27.7C235.9,272.3,245.1,276.2,255.8,276.2z"/>
		<path id="XMLID_4867_" class="st0" d="M467.4,170.7c-16.5-33-39.7-60.7-69.7-83.1c-8.6-6.6-18.4-9.1-29.2-7.7
			c-10.9,1.4-19.5,6.6-25.8,15.4c-6.6,8.6-9.1,18.3-7.5,29.1c1.5,10.8,6.6,19.4,15.2,26c20.1,15.2,35.6,33.7,46.6,55.7
			c11,21.9,16.5,45.3,16.5,70.1c0,21.3-4.2,41.7-12.5,61.1c-8.3,19.4-19.5,36.2-33.7,50.3c-14.2,14.2-30.9,25.4-50.3,33.7
			c-19.4,8.3-39.7,12.5-61.1,12.5c-21.3,0-41.7-4.2-61.1-12.5c-19.4-8.3-36.2-19.5-50.3-33.7c-14.1-14.2-25.4-30.9-33.7-50.3
			c-8.3-19.4-12.5-39.7-12.5-61.1c0-24.8,5.5-48.2,16.5-70.1c11-21.9,26.5-40.5,46.6-55.7c8.6-6.6,13.7-15.2,15.2-26
			c1.5-10.8-1-20.5-7.5-29.1c-6.4-8.8-14.9-13.9-25.7-15.4c-10.8-1.4-20.6,1.1-29.4,7.7c-30,22.4-53.2,50.1-69.7,83.1
			c-16.5,33-24.8,68.2-24.8,105.5c0,32,6.3,62.6,18.8,91.7c12.5,29.1,29.3,54.3,50.5,75.4c21.1,21.1,46.3,38,75.4,50.5
			c29.1,12.5,59.7,18.8,91.7,18.8c32,0,62.6-6.3,91.7-18.8c29.1-12.5,54.3-29.3,75.4-50.5c21.1-21.1,37.9-46.3,50.5-75.4
			c12.5-29.1,18.8-59.7,18.8-91.7C492.1,238.9,483.9,203.7,467.4,170.7z"/>
	</g>
</g>
</svg>
