<?xml version="1.0" encoding="utf-8"?>
<!-- Generator: Adobe Illustrator 19.0.0, SVG Export Plug-In . SVG Version: 6.00 Build 0)  -->
<svg version="1.1" id="Layer_1" xmlns="http://www.w3.org/2000/svg" xmlns:xlink="http://www.w3.org/1999/xlink" x="0px" y="0px"
	 viewBox="0 0 512 512" style="enable-background:new 0 0 512 512;" xml:space="preserve">
<style type="text/css">
	.st0{fill:#8CC63F;}
</style>
<path id="XMLID_4857_" class="st0" d="M469.6,28.1H43c-23.5,0-42.7,19.2-42.7,42.7v258.4c0,23.5,19.2,42.7,42.7,42.7h73.2
	c-6.1,31.7-4.3,67.8,28.8,112.6l22.9-16.9c-28.6-38.7-29.2-67.2-22.6-95.7h98.6c-6.1,31.7-4.3,67.8,28.8,112.6l22.9-16.9
	c-28.6-38.7-29.2-67.2-22.6-95.7h98.6c-6.1,31.7-4.3,67.8,28.8,112.6l22.9-16.9c-28.6-38.7-29.2-67.2-22.6-95.7h68.9
	c23.5,0,42.7-19.2,42.7-42.7V70.8C512.3,47.2,493.1,28.1,469.6,28.1z M474.3,329.1c0,2.6-2.2,4.7-4.7,4.7h-58
	c9.6-33.1,16.1-70.3-13.4-116.9l24-18.6l-76.4-28l7.8,81l22-17c23.5,38.6,16,67.4,6.3,99.5h-98c9.6-33.1,16.1-70.3-13.4-116.9
	l24-18.6l-76.4-28l7.8,81l22-17c23.5,38.6,16,67.4,6.3,99.5h-98c9.6-33.1,16.1-70.3-13.4-116.9l24-18.6l-76.4-28l7.8,81l22-17
	c23.5,38.6,16,67.4,6.3,99.5H43c-2.6,0-4.7-2.2-4.7-4.7V70.8c0-2.6,2.2-4.7,4.7-4.7h426.6c2.6,0,4.7,2.2,4.7,4.7V329.1z"/>
</svg>
