<?xml version="1.0" encoding="utf-8"?>
<!-- Generator: Adobe Illustrator 19.0.0, SVG Export Plug-In . SVG Version: 6.00 Build 0)  -->
<svg version="1.1" id="Layer_1" xmlns="http://www.w3.org/2000/svg" xmlns:xlink="http://www.w3.org/1999/xlink" x="0px" y="0px"
	 viewBox="0 0 512 512" style="enable-background:new 0 0 512 512;" xml:space="preserve">
<style type="text/css">
	.st0{fill:#8CC63F;}
	.st1{fill:#FFFFFF;}
	.st2{font-family:'Lato-Bold';}
	.st3{font-size:122.9237px;}
</style>
<g id="XMLID_4791_">
	<g id="XMLID_4803_">
		<path id="XMLID_4804_" class="st0" d="M422.3,366.3L422.3,366.3L7.8,365.8c-4.3,0-7.8-3.5-7.8-7.8l0.2-215.6
			c0-2.1,0.8-4.1,2.3-5.5c1.5-1.5,3.5-2.3,5.5-2.3h0l414.5,0.5c2.1,0,4.1,0.8,5.5,2.3c1.5,1.5,2.3,3.5,2.3,5.5l-0.3,215.6
			C430.2,362.8,426.7,366.3,422.3,366.3z"/>
	</g>
	<g id="XMLID_4799_">
		<path id="XMLID_4800_" class="st0" d="M504,334.5L504,334.5l-46.9-0.1c-4.3,0-7.8-3.5-7.8-7.8l0.2-152c0-2.1,0.8-4.1,2.3-5.5
			c1.5-1.5,3.5-2.3,5.5-2.3h0l46.9,0.1c4.3,0,7.8,3.5,7.8,7.8l-0.2,152c0,2.1-0.8,4.1-2.3,5.5C508.1,333.7,506.1,334.5,504,334.5z"
			/>
	</g>
</g>
<text id="XMLID_4789_" transform="matrix(1 0 0 1 63.4588 293.4445)" class="st1 st2 st3">100%</text>
</svg>
