<?xml version="1.0" encoding="utf-8"?>
<!-- Generator: Adobe Illustrator 19.0.0, SVG Export Plug-In . SVG Version: 6.00 Build 0)  -->
<svg version="1.1" id="Layer_1" xmlns="http://www.w3.org/2000/svg" xmlns:xlink="http://www.w3.org/1999/xlink" x="0px" y="0px"
	 viewBox="0 0 512 512" style="enable-background:new 0 0 512 512;" xml:space="preserve">
<style type="text/css">
	.st0{fill:url(#XMLID_2_);}
	.st1{fill:url(#XMLID_3_);}
	.st2{opacity:0.75;fill:url(#XMLID_4_);}
	.st3{fill:url(#XMLID_5_);}
	.st4{fill:url(#XMLID_6_);}
</style>
<g id="XMLID_3998_">
	<g id="XMLID_3999_">
		<linearGradient id="XMLID_2_" gradientUnits="userSpaceOnUse" x1="255.7601" y1="511.6439" x2="255.7601" y2="-0.3561">
			<stop  offset="0" style="stop-color:#500060"/>
			<stop  offset="0.1202" style="stop-color:#580069"/>
			<stop  offset="0.3161" style="stop-color:#6C0181"/>
			<stop  offset="0.5635" style="stop-color:#8D01A9"/>
			<stop  offset="0.8499" style="stop-color:#BB02E0"/>
			<stop  offset="1" style="stop-color:#D503FF"/>
		</linearGradient>
		<path id="XMLID_4025_" class="st0" d="M255.8-0.4c-102,0-180.9,82.7-180.9,184.6c0,127.5,166.6,320.5,166.6,320.5
			c7.9,9.1,20.8,9.1,28.7,0c0,0,166.6-193,166.6-320.5C436.7,82.3,357.7-0.4,255.8-0.4z M255.8,295.8c-61.3,0-111-49.7-111-111
			c0-61.3,49.7-111,111-111c61.3,0,111,49.7,111,111C366.8,246.1,317.1,295.8,255.8,295.8z"/>
		<linearGradient id="XMLID_3_" gradientUnits="userSpaceOnUse" x1="255.7599" y1="493.2448" x2="255.7599" y2="13.7301">
			<stop  offset="0" style="stop-color:#6A007F"/>
			<stop  offset="0.15" style="stop-color:#5F0072"/>
			<stop  offset="1" style="stop-color:#D70FFF"/>
		</linearGradient>
		<path id="XMLID_4014_" class="st1" d="M255.8,13.7c-95.6,0-169.6,77.5-169.6,173.1c0,119.5,155.5,299.7,155.5,299.7
			c7.8,9,20.4,9,28.2,0c0,0,155.5-180.2,155.5-299.7C425.4,91.2,351.3,13.7,255.8,13.7z M255.8,291.3
			c-57.5,0-104.1-46.6-104.1-104.1c0-57.5,46.6-104.1,104.1-104.1c57.5,0,104.1,46.6,104.1,104.1
			C359.8,244.7,313.2,291.3,255.8,291.3z"/>
		<linearGradient id="XMLID_4_" gradientUnits="userSpaceOnUse" x1="255.7601" y1="181.0601" x2="255.7601" y2="-0.3561">
			<stop  offset="0" style="stop-color:#383838"/>
			<stop  offset="7.151526e-002" style="stop-color:#523159"/>
			<stop  offset="0.1823" style="stop-color:#752884"/>
			<stop  offset="0.2983" style="stop-color:#9320AA"/>
			<stop  offset="0.4182" style="stop-color:#AC1AC9"/>
			<stop  offset="0.5432" style="stop-color:#BF15E1"/>
			<stop  offset="0.6755" style="stop-color:#CC12F2"/>
			<stop  offset="0.8201" style="stop-color:#D410FC"/>
			<stop  offset="1" style="stop-color:#D70FFF"/>
		</linearGradient>
		<path id="XMLID_4013_" class="st2" d="M255.8,70.6c56.5,0,103.1,42.4,109.6,97.2c20.5,3.6,44,8,71.8,13.3
			C437.2,80.9,356-0.4,255.8-0.4C155.6-0.4,74.3,80.9,74.3,181.1c27.7-5.1,51.2-9.4,71.7-12.9C152.5,113.2,199.1,70.6,255.8,70.6z"
			/>
		<linearGradient id="XMLID_5_" gradientUnits="userSpaceOnUse" x1="255.7601" y1="306.3134" x2="255.7601" y2="68.2089">
			<stop  offset="0" style="stop-color:#D70FFF"/>
			<stop  offset="1" style="stop-color:#5F0072"/>
		</linearGradient>
		<path id="XMLID_4001_" class="st3" d="M255.8,68.2c-65.7,0-119.1,53.3-119.1,119.1c0,65.8,53.3,119.1,119.1,119.1
			c65.8,0,119.1-53.3,119.1-119.1C374.8,121.5,321.5,68.2,255.8,68.2z M255.8,291.3c-57.5,0-104.1-46.6-104.1-104.1
			c0-57.5,46.6-104.1,104.1-104.1c57.5,0,104.1,46.6,104.1,104.1C359.8,244.7,313.2,291.3,255.8,291.3z"/>
		<radialGradient id="XMLID_6_" cx="258.6344" cy="134.0732" r="177.6685" gradientUnits="userSpaceOnUse">
			<stop  offset="0" style="stop-color:#D91DFF"/>
			<stop  offset="1" style="stop-color:#710088"/>
		</radialGradient>
		<path id="XMLID_4000_" class="st4" d="M255.8,291.3c-57.5,0-104.1-46.6-104.1-104.1c0-57.5,46.6-104.1,104.1-104.1
			c57.5,0,104.1,46.6,104.1,104.1C359.8,244.7,313.2,291.3,255.8,291.3z"/>
	</g>
</g>
</svg>
