<?xml version="1.0" encoding="utf-8"?>
<!-- Generator: Adobe Illustrator 19.0.0, SVG Export Plug-In . SVG Version: 6.00 Build 0)  -->
<svg version="1.1" id="Layer_1" xmlns="http://www.w3.org/2000/svg" xmlns:xlink="http://www.w3.org/1999/xlink" x="0px" y="0px"
	 viewBox="0 0 512 512" style="enable-background:new 0 0 512 512;" xml:space="preserve">
<style type="text/css">
	.st0{fill:#0071BC;}
</style>
<g id="XMLID_2929_">
	<g id="XMLID_2930_">
		<path id="XMLID_2940_" class="st0" d="M445.1,63.7h-17.3V47.5c0-20.4-18.9-37.1-42.1-37.1c-23.2,0-42.1,16.6-42.1,37.1v16.1h-43.2
			V47.5c0-20.4-18.9-37.1-42.1-37.1s-42.1,16.6-42.1,37.1v16.1h-43.2V47.5c0-20.4-18.9-37.1-42.1-37.1S89.1,27.1,89.1,47.5v16.1H67
			c-36.9,0-67,25.7-67,57.3v323.5c0,31.6,30,57.3,67,57.3h378.1c36.9,0,67-25.7,67-57.3V120.9C512.1,89.4,482,63.7,445.1,63.7z
			 M367.3,47.5c0-9.3,8.3-16.8,18.4-16.8c10.2,0,18.4,7.6,18.4,16.8v66c0,9.3-8.3,16.8-18.4,16.8c-10.2,0-18.4-7.6-18.4-16.8V47.5z
			 M240,47.5c0-9.3,8.3-16.8,18.4-16.8c10.2,0,18.4,7.6,18.4,16.8v66c0,9.3-8.3,16.8-18.4,16.8c-10.2,0-18.4-7.6-18.4-16.8V47.5z
			 M112.7,47.5c0-9.3,8.3-16.8,18.4-16.8s18.4,7.6,18.4,16.8v66c0,9.3-8.3,16.8-18.4,16.8s-18.4-7.6-18.4-16.8V47.5z M472.7,444.4
			c0,13-12.4,23.6-27.6,23.6H67c-15.2,0-27.6-10.6-27.6-23.6V147.9h433.2V444.4z"/>
		<rect id="XMLID_2939_" x="98.7" y="173.6" class="st0" width="72.4" height="64.4"/>
		<rect id="XMLID_2938_" x="219.9" y="173.6" class="st0" width="72.4" height="64.4"/>
		<rect id="XMLID_2937_" x="349.6" y="173.6" class="st0" width="72.4" height="64.4"/>
		<rect id="XMLID_2936_" x="95" y="270.2" class="st0" width="72.4" height="64.4"/>
		<rect id="XMLID_2935_" x="349.6" y="368" class="st0" width="72.4" height="64.4"/>
		<rect id="XMLID_2934_" x="219.9" y="270.2" class="st0" width="72.4" height="64.4"/>
		<rect id="XMLID_2933_" x="98.7" y="368" class="st0" width="72.4" height="64.4"/>
		<rect id="XMLID_2932_" x="219.9" y="369" class="st0" width="72.4" height="64.4"/>
		<rect id="XMLID_2931_" x="349.6" y="266.5" class="st0" width="72.4" height="64.4"/>
	</g>
</g>
</svg>
