<?xml version="1.0" encoding="utf-8"?>
<!-- Generator: Adobe Illustrator 19.0.0, SVG Export Plug-In . SVG Version: 6.00 Build 0)  -->
<svg version="1.1" id="Layer_1" xmlns="http://www.w3.org/2000/svg" xmlns:xlink="http://www.w3.org/1999/xlink" x="0px" y="0px"
	 viewBox="0 0 512 512" style="enable-background:new 0 0 512 512;" xml:space="preserve">
<style type="text/css">
	.st0{fill:#666666;}
</style>
<path id="XMLID_5675_" class="st0" d="M256.2,0.2c-141.4,0-256,114.6-256,256s114.6,256,256,256s256-114.6,256-256
	S397.6,0.2,256.2,0.2z M305.2,332v11.9h-128V332h40.3v-54.8l-76-94.6h-40.2v-16.6h135.1v16.6h-37.6l54.1,71l50.9-45h-29.5v-14.2h114
	l-11,14.2H340l-77.4,63.6V332H305.2z M383.6,346.8l-19.3-0.3l0.4-23.2l19.3,0.3L383.6,346.8z M384.2,308.2l-19.3-0.3l1.2-77.3
	l40.3,0.6L384.2,308.2z"/>
</svg>
