<?xml version="1.0" encoding="utf-8"?>
<!-- Generator: Adobe Illustrator 19.0.0, SVG Export Plug-In . SVG Version: 6.00 Build 0)  -->
<svg version="1.1" id="Layer_1" xmlns="http://www.w3.org/2000/svg" xmlns:xlink="http://www.w3.org/1999/xlink" x="0px" y="0px"
	 viewBox="0 0 512 512" style="enable-background:new 0 0 512 512;" xml:space="preserve">
<style type="text/css">
	.st0{fill:#F7931E;}
	.st1{fill:#FFFFFF;}
	.st2{font-family:'Lato-Bold';}
	.st3{font-size:82.413px;}
</style>
<g id="XMLID_4774_">
	<g id="XMLID_4776_">
		<g id="XMLID_4777_">
			<g id="XMLID_4784_">
				<path id="XMLID_4786_" class="st0" d="M502.4,422.1L502.4,422.1L9.3,421.6c-5.1,0-9.3-4.2-9.3-9.3l0.3-256.5
					c0-2.5,1-4.8,2.7-6.6c1.7-1.7,4.1-2.7,6.6-2.7h0l493.1,0.6c2.5,0,4.8,1,6.6,2.7c1.7,1.7,2.7,4.1,2.7,6.6l-0.3,256.5
					C511.7,418,507.5,422.1,502.4,422.1z"/>
			</g>
			<g id="XMLID_4781_">
				<path id="XMLID_4782_" class="st0" d="M466.1,128.6L466.1,128.6l-80,0c-7.4,0-13.4-0.8-13.3-1.9l0.3-36.3c0-0.5,1.4-1,3.9-1.3
					c2.5-0.3,5.9-0.5,9.4-0.5h0l80,0c7.4,0,13.3,0.8,13.3,1.9l-0.3,36.3c0,0.5-1.4,1-3.9,1.3C473,128.4,469.6,128.6,466.1,128.6z"/>
			</g>
			<g id="XMLID_4778_">
				<path id="XMLID_4779_" class="st0" d="M142.3,128.6L142.3,128.6l-80,0c-7.4,0-13.4-0.8-13.3-1.9l0.3-36.3c0-0.5,1.4-1,3.9-1.3
					c2.5-0.3,5.9-0.5,9.4-0.5h0l80,0c7.4,0,13.3,0.8,13.3,1.9l-0.3,36.3c0,0.5-1.4,1-3.9,1.3C149.3,128.4,145.9,128.6,142.3,128.6z"
					/>
			</g>
		</g>
	</g>
	<text id="XMLID_4775_" transform="matrix(1 0 0 1 176.1945 312.1596)" class="st1 st2 st3">60%</text>
</g>
</svg>
