<?xml version="1.0" encoding="utf-8"?>
<!-- Generator: Adobe Illustrator 22.1.0, SVG Export Plug-In . SVG Version: 6.00 Build 0)  -->
<svg version="1.1" id="Layer_1" xmlns="http://www.w3.org/2000/svg" xmlns:xlink="http://www.w3.org/1999/xlink" x="0px" y="0px"
	 viewBox="0 0 242.3 149" style="enable-background:new 0 0 242.3 149;" xml:space="preserve">
<style type="text/css">
	.st0{fill:#0071BC;}
</style>
<path class="st0" d="M173.2,116.9c1.2,0,2.3-8.5,2.8-21.2h11.3h1.3h1.1v0c0,0,0,0,0,0c0,0,0,0,0.1-0.1c0.1,0,0.1,0.1,0.2,0.1
	c1.3,0,2.3-9.5,2.3-21.2s-1-21.2-2.3-21.2c-0.1,0-0.1,0-0.2,0.1c0,0,0-0.1-0.1-0.1c0,0,0,0,0,0v0h-1.1h-1.3H176
	c-0.6-12.7-1.6-21.2-2.8-21.2c0,0,0,0,0,0v0h-4.8H163H63.1h-5.4h-4.8v0c0,0,0,0,0,0c-1.8,0-3.3,19-3.3,42.3s1.5,42.3,3.3,42.3
	c0,0,0,0,0,0v0h4.8h5.4H163h5.4H173.2L173.2,116.9C173.2,116.9,173.2,116.9,173.2,116.9z"/>
</svg>
