<?xml version="1.0" encoding="utf-8"?>
<!-- Generator: Adobe Illustrator 22.1.0, SVG Export Plug-In . SVG Version: 6.00 Build 0)  -->
<svg version="1.1" id="Layer_1" xmlns="http://www.w3.org/2000/svg" xmlns:xlink="http://www.w3.org/1999/xlink" x="0px" y="0px"
	 viewBox="0 0 110 110" style="enable-background:new 0 0 110 110;" xml:space="preserve">
<style type="text/css">
	.st0{fill:#01579B;}
</style>
<g>
	<path class="st0" d="M53.6,54c12.2,0,22-11.9,22-26.6s-3.3-26.6-22-26.6S31.7,12.6,31.7,27.3C31.7,42,41.6,54,53.6,54z"/>
	<path class="st0" d="M12.2,94.6C12.2,93.7,12.2,94.3,12.2,94.6L12.2,94.6z"/>
	<path class="st0" d="M95,95.3C95,95.1,95,93.6,95,95.3L95,95.3z"/>
	<path class="st0" d="M95,93.5c-0.4-25.7-3.7-32.9-29.4-37.6c0,0-3.6,4.6-12,4.6s-12-4.6-12-4.6c-25.3,4.5-28.8,11.8-29.4,36.8
		c0,2,0,2.2,0,1.9c0,0.4,0,1.2,0,2.7c0,0,6.1,12.3,41.4,12.3C89,109.6,95,97.3,95,97.3c0-1,0-1.5,0-2C95,95.5,95,95.1,95,93.5z"/>
</g>
</svg>
