<?xml version="1.0" encoding="utf-8"?>
<!-- Generator: Adobe Illustrator 22.1.0, SVG Export Plug-In . SVG Version: 6.00 Build 0)  -->
<svg version="1.1" id="Layer_1" xmlns="http://www.w3.org/2000/svg" xmlns:xlink="http://www.w3.org/1999/xlink" x="0px" y="0px"
	 viewBox="0 0 110 110" style="enable-background:new 0 0 110 110;" xml:space="preserve">
<style type="text/css">
	.st0{fill:#01579B;}
</style>
<g>
	<path class="st0" d="M84.1,16.2v4.5H67v-4.5H84.1z M77,25.9h-9.9v4.5H77V25.9z M67,40h17.2v-4.5H67V40z M77,45.2h-9.9v4.5H77V45.2z
		 M67,59.4h17.2v-4.5H67V59.4z M69.6,84.5c0,12.5-10,22.5-22.4,22.5S24.8,97,24.8,84.5c0-8,4.2-15.4,11.1-19.3V14.4
		C35.9,8.1,41,3,47.3,3s11.4,5.1,11.4,11.4v50.9C65.4,69.3,69.6,76.5,69.6,84.5z M65.3,84.5c0-6.8-3.7-12.9-9.9-16.1l-1.2-0.6V14.4
		c0-3.9-3.1-6.9-6.9-6.9c-3.9,0-6.9,3.1-6.9,6.9v53.6l-1.2,0.6c-6,3.1-9.9,9.2-9.9,16.1c0,9.9,8.1,18,18,18S65.3,94.5,65.3,84.5z
		 M61.5,84.5c0,7.9-6.4,14.3-14.3,14.3S33,92.4,33,84.5c0-6.4,4.4-12.1,10.6-13.8l0.8-0.2V43.1h5.7v27.3l0.8,0.2
		C57.2,72.4,61.5,78.1,61.5,84.5z M48,75.1c-0.4-1.6-1.8-2.5-3.4-2.2c-5.4,1.2-9.2,5.9-9.2,11.5c0,1.6,1.3,2.9,2.9,2.9
		c1.6,0,2.9-1.3,2.9-2.9c0-2.8,2.1-5.3,4.7-5.9C47.3,78.1,48.2,76.5,48,75.1z"/>
</g>
</svg>
