<?xml version="1.0" encoding="utf-8"?>
<!-- Generator: Adobe Illustrator 22.1.0, SVG Export Plug-In . SVG Version: 6.00 Build 0)  -->
<svg version="1.1" id="Layer_1" xmlns="http://www.w3.org/2000/svg" xmlns:xlink="http://www.w3.org/1999/xlink" x="0px" y="0px"
	 viewBox="0 0 110 110" style="enable-background:new 0 0 110 110;" xml:space="preserve">
<style type="text/css">
	.st0{fill:#337AB7;}
</style>
<path class="st0" d="M55,20.1c-20,0-36.3,16.2-36.3,36.3c0,20,16.2,36.3,36.3,36.3s36.3-16.2,36.3-36.3S75,20.1,55,20.1z M55,27.5
	c12.5,0,23,8.2,27.4,19.2H28.1C32,35.7,42.5,27.5,55,27.5z M26.2,56.4c13,0,24,12.5,24,28.3C36.3,82.3,26.2,70.3,26.2,56.4z
	 M55,61.2c-2.9,0-4.8-1.9-4.8-4.8c0-2.9,1.9-4.8,4.8-4.8c2.4,0,4.8,1.9,4.8,4.8C59.8,59.2,57.9,61.2,55,61.2z M59.8,84.7
	c0-15.8,10.6-28.3,24-28.3C83.8,70.8,73.2,82.3,59.8,84.7z"/>
</svg>
