<?xml version="1.0" encoding="utf-8"?>
<!-- Generator: Adobe Illustrator 22.1.0, SVG Export Plug-In . SVG Version: 6.00 Build 0)  -->
<svg version="1.1" id="Layer_1" xmlns="http://www.w3.org/2000/svg" xmlns:xlink="http://www.w3.org/1999/xlink" x="0px" y="0px"
	 viewBox="0 0 110 110" style="enable-background:new 0 0 110 110;" xml:space="preserve">
<style type="text/css">
	.st0{fill:#337AB7;}
</style>
<g>
	<circle class="st0" cx="43.8" cy="59.6" r="3.5"/>
	<path class="st0" d="M68,44.5c-4.3-3-17.8-3-22.5,0c-0.8,0.4-2.1,3-3,5.6h28.6C69.8,47.6,68.9,45.4,68,44.5z"/>
	<path class="st0" d="M56.2,23.4c-18.6,0-33.7,15.1-33.7,33.7s15.1,33.7,33.7,33.7s33.7-15.1,33.7-33.7
		C89.8,38.5,74.8,23.4,56.2,23.4z M79.7,49.8l-0.8,3c0,0.4-0.4,0.8-1.3,0.8h-1.3c1.3,1.3,2.2,3.4,2.2,5.2c0,2.1-0.8,4.3-2.6,5.6v4.3
		c0,0.9-0.9,1.7-1.7,1.7h-4.3c-0.9,0-1.7-0.9-1.7-1.7V67H44.7v2.6c0,0.9-0.9,1.7-1.7,1.7h-4.3c-0.9,0-1.7-0.9-1.7-1.7v-4.3
		c-1.7-1.3-2.6-3.5-2.6-6.1c0-1.7,0.4-3.9,1.7-5.2h-1.3c-0.4,0-0.8-0.4-1.3-0.8l-0.8-3c0.8-0.4,1.3-0.8,1.3-1.3
		c0.4-0.4,0.4-0.4,0.8-0.4h4.3c1.3-3,2.6-5.6,4.3-6.9c5.6-3.9,20.8-3.9,26.4,0c1.7,0.8,3,3.9,4.3,6.9h4.3c0.4,0,0.8,0,0.8,0.4
		C79.7,49.3,79.7,49.3,79.7,49.8z"/>
	<path class="st0" d="M69.8,56.2c-1.7,0-3.5,1.7-3.5,3.5c0,1.7,1.7,3.5,3.5,3.5c1.7,0,3.4-1.7,3.5-3.5
		C73.3,57.9,71.5,56.2,69.8,56.2z"/>
</g>
</svg>
