<?xml version="1.0" encoding="utf-8"?>
<!-- Generator: Adobe Illustrator 22.1.0, SVG Export Plug-In . SVG Version: 6.00 Build 0)  -->
<svg version="1.1" id="Layer_1" xmlns="http://www.w3.org/2000/svg" xmlns:xlink="http://www.w3.org/1999/xlink" x="0px" y="0px"
	 viewBox="0 0 110 110" style="enable-background:new 0 0 110 110;" xml:space="preserve">
<style type="text/css">
	.st0{fill:none;stroke:#000000;stroke-miterlimit:10;}
</style>
<g>
	<g>
		<path d="M67.4,48.7c0.1-0.1,0.2-0.1,0.3-0.2c-0.6-1.3-1.1-2.3-1.6-2.8c-3.5-2.5-14.4-2.5-18.3,0c-0.5,0.3-1.2,1.5-1.9,3
			c0,0,0,0,0,0c0.5,0.3,1,0.8,1.4,1.6h18.8C66.5,49.7,66.9,49.1,67.4,48.7z"/>
		<path d="M67.2,55.6c-1.3,0-2.7,1.3-2.7,2.7c0,1.3,1.3,2.7,2.7,2.7c1.3,0,2.7-1.3,2.7-2.7C69.9,56.9,68.6,55.6,67.2,55.6z"/>
		<path d="M45.9,55.6c-1.3,0-2.7,1.3-2.7,2.7c0,1.3,1.3,2.7,2.7,2.7c1.3,0,2.7-1.3,2.7-2.7C48.6,56.9,47.2,55.6,45.9,55.6z"/>
		<path d="M37.8,52.9l-0.7-2.5c0.7-0.4,1.1-0.7,1.1-1.1c0.1-0.1,0.1-0.1,0.1-0.1c-2.3,0.1-4.6,0.5-5.8,1.3c-0.5,0.2-1.2,1.7-1.7,3.2
			h9.1c0,0,0,0,0,0h-1.1C38.5,53.6,38.2,53.2,37.8,52.9z"/>
		<path d="M31.5,57c-1,0-1.9,1-1.9,1.9c0,1,0.7,1.9,1.9,1.9c1,0,1.9-1,1.9-1.9C33.4,57.9,32.5,57,31.5,57z"/>
		<path d="M68.5,50.4C68.5,50.4,68.5,50.4,68.5,50.4L68.5,50.4C68.6,50.4,68.6,50.4,68.5,50.4z"/>
		<path d="M56,21C36,21,19.7,37.3,19.7,57.3S36,93.6,56,93.6c20.1,0,36.3-16.3,36.3-36.3S76.1,21,56,21z M85.7,55.2h-0.7
			c0.7,0.7,1.2,1.9,1.2,2.8c0,1.2-0.5,2.3-1.4,3v2.3c0,0.5-0.5,0.9-0.9,0.9h-2.3c-0.5,0-0.9-0.5-0.9-0.9v-0.9h-8.2v3.1
			c0,0.7-0.7,1.4-1.4,1.4h-3.5c-0.7,0-1.4-0.7-1.4-1.4v-0.8h-1.2c-0.4,0-0.7-0.3-0.9-0.6H49.3c-0.1,0.4-0.5,0.8-0.9,0.8H47v1.3
			c0,0.7-0.7,1.4-1.4,1.4h-3.5c-0.7,0-1.4-0.7-1.4-1.4V63H32v1.5c0,0.5-0.5,1-1,1h-2.4c-0.5,0-1-0.5-1-1v-2.4
			c-1-0.7-1.5-1.9-1.5-3.4c0-1,0.2-2.2,1-2.9h-0.7c-0.2,0-0.5-0.2-0.7-0.5l-0.5-1.7c0.5-0.2,0.7-0.5,0.7-0.7
			c0.2-0.2,0.2-0.2,0.5-0.2h2.4c0.7-1.7,1.5-3.1,2.4-3.8c2.4-1.7,7.9-2.1,11.8-1.2c0.9-1.9,1.8-3.4,2.9-4.3c4.6-3.2,16.9-3.2,21.5,0
			c1.1,0.6,2.1,2.3,2.9,4.2c3.7-0.8,8.9-0.4,11.2,1.2c0.9,0.5,1.6,2.1,2.3,3.7h2.3c0.2,0,0.5,0,0.5,0.2c0.2,0.2,0.2,0.2,0.2,0.5
			l-0.5,1.6C86.4,55,86.2,55.2,85.7,55.2z"/>
		<path d="M81.6,56.6c-0.9,0-1.9,0.9-1.9,1.9c0,0.9,0.9,1.9,1.9,1.9s1.9-0.9,1.9-1.9C83.5,57.5,82.5,56.6,81.6,56.6z"/>
		<path d="M80.7,50.3c-1.1-0.8-3.3-1.2-5.5-1.2c0,0.1,0.1,0.1,0.1,0.2c0.4,0.4,0.4,0.4,0.4,0.7l-0.7,2.4c0,0.4-0.4,0.7-1.1,0.7h-1.1
			c0.1,0.1,0.1,0.1,0.2,0.2h9.4C81.6,52,81.1,50.8,80.7,50.3z"/>
	</g>
	<path class="st0" d="M75.5,50.1l-0.7,2.5c0,0.3-0.4,0.7-1.1,0.7h-1.1c1.1,1.1,1.8,2.8,1.8,4.2c0,1.7-0.7,3.5-2.1,4.6v3.5
		c0,0.7-0.7,1.4-1.4,1.4h-3.5c-0.7,0-1.4-0.7-1.4-1.4v-1.4H47v2.1c0,0.7-0.7,1.4-1.4,1.4h-3.5c-0.7,0-1.4-0.7-1.4-1.4v-3.5
		c-1.4-1.1-2.1-2.8-2.1-4.9c0-1.4,0.4-3.2,1.4-4.2h-1.1c-0.4,0-0.7-0.3-1.1-0.7l-0.7-2.5c0.7-0.4,1.1-0.7,1.1-1.1
		c0.3-0.4,0.3-0.4,0.7-0.4h3.5c1.1-2.5,2.1-4.6,3.5-5.6c4.6-3.2,16.9-3.2,21.5,0c1.4,0.7,2.5,3.2,3.5,5.6h3.5c0.3,0,0.7,0,0.7,0.4
		C75.5,49.8,75.5,49.8,75.5,50.1z"/>
</g>
</svg>
