<?xml version="1.0" encoding="utf-8"?>
<!-- Generator: Adobe Illustrator 22.1.0, SVG Export Plug-In . SVG Version: 6.00 Build 0)  -->
<svg version="1.1" id="Layer_1" xmlns="http://www.w3.org/2000/svg" xmlns:xlink="http://www.w3.org/1999/xlink" x="0px" y="0px"
	 viewBox="0 0 110 110" style="enable-background:new 0 0 110 110;" xml:space="preserve">
<style type="text/css">
	.st0{fill:none;stroke:#000000;stroke-miterlimit:10;}
</style>
<g>
	<g>
		<g>
			<g>
				<g>
					<path d="M96,84.9v-67c0-1.1,0-2.3-1.3-2.3l-23.7,9.3l-26.4-9.3l-26,8.4c-0.9,0.2-2.5,1.1-2.5,2.3v67c0,1.3,1.9,2.3,3,2.3
						l1.1-0.2l23.9-9.1l26.8,9.3l24.1-8.4C96.2,86.8,96,86,96,84.9z M88.8,56.5h-0.8c0.8,0.8,1.3,2.1,1.3,3.1c0,1.3-0.6,2.5-1.5,3.3
						v2.5c0,0.6-0.6,1-1,1h-2.5c-0.6,0-1-0.6-1-1v-1h-9.1v3.4c0,0.8-0.8,1.5-1.5,1.5h-3.9c-0.8,0-1.5-0.8-1.5-1.5V67H66
						c-0.4,0-0.8-0.3-1-0.7H48.6c-0.1,0.4-0.6,0.9-1,0.9h-1.5v1.4c0,0.8-0.8,1.5-1.5,1.5h-3.9c-0.8,0-1.5-0.8-1.5-1.5v-3.5h-9.6v1.7
						c0,0.6-0.6,1.1-1.1,1.1h-2.6c-0.6,0-1.1-0.6-1.1-1.1v-2.6C23.6,63.4,23,62,23,60.4c0-1.1,0.2-2.4,1.1-3.2h-0.8
						c-0.2,0-0.6-0.2-0.8-0.6L22,54.7c0.6-0.2,0.8-0.6,0.8-0.8c0.2-0.2,0.2-0.2,0.6-0.2H26c0.8-1.9,1.7-3.4,2.6-4.2
						c2.6-1.9,8.7-2.3,13-1.3c1-2.1,2-3.8,3.2-4.7c5.1-3.5,18.7-3.5,23.7,0c1.2,0.7,2.3,2.5,3.2,4.6c4.1-0.9,9.8-0.4,12.4,1.3
						c1,0.6,1.8,2.3,2.5,4.1h2.5c0.2,0,0.6,0,0.6,0.2C90,54,90,54,90,54.3l-0.6,1.8C89.6,56.3,89.4,56.5,88.8,56.5z"/>
					<path d="M68.6,49.3c0.1-0.1,0.2-0.1,0.3-0.2c-0.7-1.4-1.2-2.5-1.8-3.1c-3.9-2.8-15.9-2.8-20.2,0c-0.6,0.3-1.3,1.7-2.1,3.3
						c0.6,0.3,1.1,0.9,1.5,1.8h20.8C67.6,50.4,68.1,49.8,68.6,49.3z"/>
					<circle cx="68.4" cy="59.9" r="3"/>
					<circle cx="44.9" cy="59.9" r="3"/>
					<path d="M35.2,51.2c0.8-0.4,1.2-0.8,1.2-1.2c0.1-0.1,0.1-0.1,0.1-0.1c-2.5,0.1-5.1,0.6-6.4,1.4c-0.6,0.2-1.3,1.9-1.9,3.5h8.8
						c-0.3-0.1-0.7-0.6-1.1-0.9L35.2,51.2z"/>
					<path d="M29,58.5c-1.1,0-2.1,1.1-2.1,2.1c0,1.1,0.8,2.1,2.1,2.1c1.1,0,2.1-1.1,2.1-2.1C31.1,59.5,30.1,58.5,29,58.5z"/>
					<path d="M84.3,58.1c-1,0-2.1,1-2.1,2.1c0,1,1,2.1,2.1,2.1c1.1,0,2.1-1,2.1-2.1S85.3,58.1,84.3,58.1z"/>
					<path d="M83.3,51.1c-1.2-0.9-3.6-1.3-6.1-1.3c0,0.1,0.1,0.1,0.1,0.2c0.4,0.4,0.4,0.4,0.4,0.8L77,53.4c0,0.4-0.4,0.8-1.2,0.8
						h-1.2c0.1,0.1,0.1,0.1,0.2,0.2h10.4C84.3,53,83.8,51.7,83.3,51.1z"/>
				</g>
				<path class="st0" d="M77.6,50.9l-0.8,2.8c0,0.3-0.4,0.8-1.2,0.8h-1.2c1.2,1.2,2,3.1,2,4.6c0,1.9-0.8,3.9-2.3,5.1V68
					c0,0.8-0.8,1.5-1.5,1.5h-3.9c-0.8,0-1.5-0.8-1.5-1.5v-1.5h-21v2.3c0,0.8-0.8,1.5-1.5,1.5h-3.9c-0.8,0-1.5-0.8-1.5-1.5v-3.9
					c-1.5-1.2-2.3-3.1-2.3-5.4c0-1.5,0.4-3.5,1.5-4.6h-1.2c-0.4,0-0.8-0.3-1.2-0.8l-0.8-2.8c0.8-0.4,1.2-0.8,1.2-1.2
					c0.3-0.4,0.3-0.4,0.8-0.4H41c1.2-2.8,2.3-5.1,3.9-6.2c5.1-3.5,18.7-3.5,23.7,0c1.5,0.8,2.8,3.5,3.9,6.2h3.9c0.3,0,0.8,0,0.8,0.4
					C77.6,50.6,77.6,50.6,77.6,50.9z"/>
			</g>
		</g>
	</g>
</g>
</svg>
