<?xml version="1.0" encoding="utf-8"?>
<!-- Generator: Adobe Illustrator 22.1.0, SVG Export Plug-In . SVG Version: 6.00 Build 0)  -->
<svg version="1.1" id="Layer_1" xmlns="http://www.w3.org/2000/svg" xmlns:xlink="http://www.w3.org/1999/xlink" x="0px" y="0px"
	 viewBox="0 0 110 110" style="enable-background:new 0 0 110 110;" xml:space="preserve">
<path d="M70.5,17.8h-41c-2.4,0-4.5,2-4.5,4.5v69.3c0,2.4,2,4.5,4.5,4.5h51.1c2.4,0,4.5-2,4.5-4.5V31.9L70.5,17.8z M70.2,72.4H39.8
	c-1.3,0-2.4-1.1-2.4-2.4s1.1-2.4,2.4-2.4h30.5c1.3,0,2.4,1.1,2.4,2.4S71.6,72.4,70.2,72.4z M70.2,83.7H39.8c-1.3,0-2.4-1.1-2.4-2.4
	s1.1-2.4,2.4-2.4h30.5c1.3,0,2.4,1.1,2.4,2.4S71.6,83.7,70.2,83.7z M70.2,61.3H39.8c-1.3,0-2.4-1.1-2.4-2.4s1.1-2.4,2.4-2.4h30.5
	c1.3,0,2.4,1.1,2.4,2.4S71.6,61.3,70.2,61.3z M70.2,51.2H39.8c-1.3,0-2.4-1.1-2.4-2.4c0-1.3,1.1-2.4,2.4-2.4h30.5
	c1.3,0,2.4,1.1,2.4,2.4C72.7,50.1,71.6,51.2,70.2,51.2z"/>
</svg>
